<?xml version="1.0" encoding="utf-8"?>
<!-- Generator: Adobe Illustrator 27.6.1, SVG Export Plug-In . SVG Version: 6.00 Build 0)  -->
<svg version="1.1" id="Layer_1" xmlns="http://www.w3.org/2000/svg" xmlns:xlink="http://www.w3.org/1999/xlink" x="0px" y="0px"
	 viewBox="0 0 1000 1000" style="enable-background:new 0 0 1000 1000;" xml:space="preserve">
<style type="text/css">
	.st0{fill:#EEF2F8;}
	.st1{fill:#49A17B;}
	.st2{fill:#7631CD;}
	.st3{clip-path:url(#SVGID_00000097478067173294774920000015452286649113206668_);}
	.st4{fill:#404041;}
	.st5{clip-path:url(#SVGID_00000029746705647264670820000016665254909200364431_);}
	.st6{clip-path:url(#SVGID_00000020394392808305326260000006938382445692769434_);}
	.st7{fill:#7163EB;}
	.st8{fill:url(#SVGID_00000032615059500658502540000013483673663020947105_);}
	.st9{fill:url(#SVGID_00000080188834174788438500000015752779332594141827_);}
	.st10{fill:url(#SVGID_00000140696846272638566090000014456945492200237713_);}
	.st11{fill:url(#SVGID_00000054971692940016999460000006256020734607193738_);}
	.st12{fill:url(#SVGID_00000130611304923221808430000016457735347946063272_);}
	.st13{fill:url(#SVGID_00000137102255585516955330000008057875778600924801_);}
	.st14{fill:url(#SVGID_00000162317167431937245290000002343589564201604009_);}
	.st15{fill:url(#SVGID_00000006681986910321836030000003300689098760095401_);}
	.st16{fill:url(#SVGID_00000040552055835039943430000013228392511129006466_);}
	.st17{fill:url(#SVGID_00000034078820815829853900000001826247687161080469_);}
	.st18{fill:url(#SVGID_00000034785403726190735760000016161633029728890797_);}
	.st19{fill:url(#SVGID_00000102531405494934263860000001275544292925432766_);}
	.st20{fill:url(#SVGID_00000077325156468618633590000000812773458457453994_);}
	.st21{fill:url(#SVGID_00000031193495852899843540000015423713017004277938_);}
	.st22{fill:url(#SVGID_00000017491912375443334860000016677083988314853046_);}
	.st23{fill:url(#SVGID_00000019647187710298440660000008895474521271705788_);}
	.st24{fill:url(#SVGID_00000072255407056021567200000006108930441961943222_);}
	.st25{fill:url(#SVGID_00000047060420414075221090000006956777742953602217_);}
	.st26{fill:url(#SVGID_00000119797586343590442050000009284338954718409150_);}
	.st27{fill:url(#SVGID_00000029761980934566156320000006137157498469871280_);}
	.st28{fill:url(#SVGID_00000052819264459411595750000016273831179302988202_);}
	.st29{fill:url(#SVGID_00000183207829674573032120000013321023928715000203_);}
	.st30{fill:url(#SVGID_00000063598505361916501420000009168940243684120759_);}
	.st31{fill:url(#SVGID_00000029023432283136747660000010101248306858386323_);}
	.st32{fill:url(#SVGID_00000151531979135026996330000008513931687666160807_);}
	.st33{fill:url(#SVGID_00000065756627245892943520000003830998070021292960_);}
	.st34{fill:url(#SVGID_00000008107024960007264660000010679599266160361100_);}
	.st35{fill:url(#SVGID_00000004508374594791032770000008387349811096458374_);}
	.st36{fill:url(#SVGID_00000078767806216246079470000011033949796426382267_);}
	.st37{fill:url(#SVGID_00000089573573751168145630000009517269232106297775_);}
	.st38{fill:url(#SVGID_00000054226900747345932980000002765466636934906024_);}
	.st39{fill:url(#SVGID_00000134223660249088872440000016574275909158499221_);}
	.st40{fill:#3F4144;}
	.st41{fill:#2E3B89;}
	.st42{clip-path:url(#SVGID_00000105414184482852516820000005032839669762002349_);}
	.st43{clip-path:url(#SVGID_00000086673010240211318560000017895461131439812525_);}
	.st44{clip-path:url(#SVGID_00000085969275928597273740000009016133157219618713_);}
	.st45{fill:#F3B840;}
	.st46{fill:#E04430;}
	.st47{fill:#CA5C6C;}
	.st48{fill:#DD9033;}
	.st49{fill:#CD412D;}
	.st50{fill:#D47935;}
	.st51{fill:#D5709F;}
	.st52{fill:#E9BD8D;}
	.st53{fill:#E19F4B;}
	.st54{fill:#EABF4B;}
	.st55{fill:#CA582D;}
	.st56{fill:#DA8F38;}
	.st57{fill:#C04624;}
	.st58{fill:#C85E26;}
	.st59{fill:#B1341B;}
	.st60{fill:#B24C1F;}
	.st61{fill:#9E2B17;}
	.st62{opacity:0.52;fill:#5EC9E8;enable-background:new    ;}
	.st63{opacity:0.49;fill:#8462DA;enable-background:new    ;}
	.st64{opacity:0.52;fill:#2D63E5;enable-background:new    ;}
	.st65{fill-rule:evenodd;clip-rule:evenodd;fill:#439579;}
	.st66{fill:#3273C2;}
	.st67{fill:#575756;}
	.st68{fill:#1D2C66;}
	.st69{fill:#BCC0DA;}
	.st70{fill:#464B6F;}
	.st71{display:none;fill:#FFFFFF;}
	.st72{fill:#303030;}
	.st73{fill:#B73533;}
	.st74{fill:#04B15C;}
	.st75{fill:url(#SVGID_00000065054094495668828880000017334842689133904290_);}
	.st76{fill:url(#SVGID_00000176742146348621656210000006016653631959875476_);}
	.st77{fill:url(#SVGID_00000076602135929381023840000009292451817520579488_);}
	.st78{fill:url(#SVGID_00000106864225382079480600000018075764345534676376_);}
	.st79{fill:#D33B30;}
	.st80{fill:url(#SVGID_00000082366552610396238670000015126620095724838303_);}
	.st81{fill:url(#SVGID_00000096764858104659077700000013041171717702251426_);}
	.st82{fill:url(#SVGID_00000117678111179102334130000006600467913553414548_);}
	.st83{fill:url(#SVGID_00000157994787827943115460000010509759025846979985_);}
	.st84{fill-rule:evenodd;clip-rule:evenodd;fill:#469BC7;}
	.st85{fill:#222943;}
	.st86{fill-rule:evenodd;clip-rule:evenodd;fill:#1E4B91;}
	.st87{fill-rule:evenodd;clip-rule:evenodd;fill:#F0A140;}
	.st88{fill:#72D24C;}
	.st89{fill-rule:evenodd;clip-rule:evenodd;}
	.st90{display:none;fill:#FBFAFA;}
	.st91{fill:#242323;}
	.st92{fill:#BA3630;}
	.st93{opacity:0.35;fill:#53A0B1;enable-background:new    ;}
	.st94{fill:#20465E;}
	.st95{fill:url(#SVGID_00000108270390607726118870000000597307815450486935_);}
	.st96{fill:#367A8D;}
	.st97{fill:url(#SVGID_00000163069132627340891390000007259947197250309525_);}
	.st98{fill:url(#SVGID_00000105399001613738235610000016926898612491387325_);}
	.st99{opacity:0.88;fill:url(#SVGID_00000156560319169244785060000013620480998288364459_);enable-background:new    ;}
	.st100{fill:url(#SVGID_00000036966335664298196570000001180962761080726964_);}
	.st101{fill:#143661;}
	.st102{fill:#56BC8E;}
	.st103{fill:#2B2B37;}
	.st104{fill:#334C71;}
	.st105{fill:#3777E6;}
	.st106{fill:#A8EDE6;}
	.st107{fill:#EBC18E;}
	.st108{fill:#2A2F44;}
	.st109{fill:#1B4625;}
	.st110{fill:#98C355;}
	.st111{fill:#60B258;}
	.st112{fill:#41914D;}
	.st113{fill:#2B663D;}
	.st114{fill:#CCDA70;}
	.st115{fill:#34516A;}
	.st116{fill:url(#Path_164488_00000053524124169915383430000006482401313509840031_);}
	.st117{fill:#FFFFFF;}
	.st118{fill:#58595B;}
	.st119{fill:#55AC9B;}
	.st120{fill:#464442;}
	.st121{fill:#B7A891;}
	.st122{fill:#265674;}
	.st123{fill:#759ECF;}
	.st124{fill:#C9CACB;}
	.st125{fill:#F2F2F2;}
	.st126{fill:#2B3777;}
	.st127{fill:#27599E;}
	.st128{fill:#25589C;}
	.st129{fill:#2B63A5;}
	.st130{fill-rule:evenodd;clip-rule:evenodd;fill:#B9B9B9;}
	.st131{fill:#B9B9B9;}
	.st132{fill:#7185B5;}
	.st133{fill:#1C4882;}
	.st134{fill:#0F2C5A;}
	.st135{fill:#091C46;}
	.st136{fill:#54565A;}
	.st137{fill:#306541;}
	.st138{fill-rule:evenodd;clip-rule:evenodd;fill:#CAAD5D;}
	.st139{fill-rule:evenodd;clip-rule:evenodd;fill:#0D0D0D;}
	.st140{fill:#181818;stroke:#181818;stroke-width:0.3631;stroke-miterlimit:10;}
	.st141{fill:#305E3C;}
	.st142{fill:#181818;stroke:#181818;stroke-width:0.3631;stroke-miterlimit:9.9999;}
	.st143{fill:#181818;}
	.st144{fill:#141414;}
	.st145{fill:#1F4169;}
	.st146{fill:#49A2D9;}
	.st147{fill:#59585A;}
	.st148{fill:#030F97;}
	.st149{fill:#56A9DC;}
	.st150{fill:#4AA3DB;}
	.st151{fill:#545352;}
	.st152{fill:#412C6F;}
	.st153{fill:#BF2F7C;}
	.st154{fill:#215280;}
	.st155{fill:#7D7D7D;}
	.st156{fill:#456790;}
	.st157{fill:url(#C_00000007406071355800096420000010903198293705622453_);}
	.st158{fill:#C6C7C8;}
	.st159{fill:url(#SVGID_00000103224855080154562740000017928485713154068097_);}
	.st160{fill:#285E96;}
	.st161{fill:#61993F;}
	.st162{fill:#23568C;}
	.st163{fill:#4FA4DA;}
	.st164{fill:#6F80B0;}
	.st165{fill:#265896;}
	.st166{fill:#3B81B6;}
	.st167{fill:#275A6B;}
	.st168{fill:#595A5C;}
	.st169{fill:#D7393A;}
	.st170{fill:#8AC9D5;}
	.st171{fill:#D63939;}
	.st172{fill:#D63838;}
	.st173{fill:#3172B5;}
	.st174{fill:#3475B7;}
	.st175{fill:#3374B7;}
	.st176{fill:#7B7C7F;}
	.st177{fill:#7A7B7E;}
	.st178{fill:#3373B6;}
	.st179{fill:#7B7B7E;}
	.st180{fill:#7C7C7F;}
	.st181{fill:#7E7F81;}
	.st182{fill:#797A7D;}
	.st183{fill:#7D7D80;}
	.st184{fill:#7C7D80;}
	.st185{fill:#7C7B7E;}
	.st186{fill:#808184;}
	.st187{fill:#214167;}
	.st188{fill-rule:evenodd;clip-rule:evenodd;fill:#C8AC47;}
	.st189{fill:none;stroke:#C8AC47;stroke-width:9.5261;}
	.st190{fill:none;stroke:#E6BA5D;stroke-width:9.5261;stroke-miterlimit:10;}
	.st191{fill-rule:evenodd;clip-rule:evenodd;fill:#304567;}
	.st192{fill:#CFCECC;}
	.st193{clip-path:url(#SVGID_00000119815845186207449250000007244937455360239255_);}
	.st194{fill:#265B65;}
	.st195{fill:#767A52;}
	.st196{fill:#808082;}
	.st197{fill-rule:evenodd;clip-rule:evenodd;fill:url(#SVGID_00000001631110482158358440000011445491572567715232_);}
	.st198{fill-rule:evenodd;clip-rule:evenodd;fill:url(#SVGID_00000057149203766579030600000012526007759063096965_);}
	.st199{fill:#3A5CA5;}
	.st200{fill:#2F3A89;}
	.st201{fill:#6D6E71;}
	.st202{fill:#41918E;}
	.st203{fill:#445DA5;}
	.st204{clip-path:url(#SVGID_00000137848862780417800260000007280805281677207463_);}
	.st205{fill:#4A6EAF;}
	.st206{fill:#381D13;}
	.st207{clip-path:url(#SVGID_00000083059441628918389580000005311265954669520032_);}
	.st208{clip-path:url(#SVGID_00000039844109597858589900000015557411702598567320_);}
	.st209{clip-path:url(#SVGID_00000121277757901860127740000007738312391329767050_);}
	.st210{clip-path:url(#SVGID_00000009590473245752776410000002379677327403567248_);}
	.st211{clip-path:url(#SVGID_00000153684957609749510030000001602814542858800307_);}
	.st212{clip-path:url(#SVGID_00000059279195484750718810000012855432376323710905_);}
	.st213{clip-path:url(#SVGID_00000083064839276442048060000017562523696910099372_);}
	.st214{clip-path:url(#SVGID_00000159446585566359463380000000613412553197352613_);}
	.st215{clip-path:url(#SVGID_00000152968463059528447500000001416955014017039235_);}
	.st216{clip-path:url(#SVGID_00000083051998277132350590000001709130880158317470_);}
	.st217{clip-path:url(#SVGID_00000136410754026528538710000008020101496728964243_);}
	.st218{fill:#A2A8AC;}
	.st219{fill:#41834F;}
	.st220{fill:#265BB2;}
	.st221{fill:#293B90;}
	.st222{fill:#C99378;}
	.st223{fill:none;}
	.st224{enable-background:new    ;}
	.st225{fill:#203D35;}
	.st226{fill:#817771;}
	.st227{fill:#265C80;}
	.st228{fill:#2C2926;}
	.st229{fill:#59BCF8;}
	.st230{fill-rule:evenodd;clip-rule:evenodd;fill:#0101C2;}
	.st231{fill-rule:evenodd;clip-rule:evenodd;fill:#0202C6;}
	.st232{fill:#3A42F4;}
	.st233{fill-rule:evenodd;clip-rule:evenodd;fill:#050386;}
	.st234{fill:#3038F4;}
	.st235{clip-path:url(#SVGID_00000049220997664219656130000008173311288440064156_);}
	.st236{fill:#ED7D30;}
	.st237{fill:#479EE6;}
	.st238{fill:url(#Path_6_00000062181715395482738930000007184440639331010944_);}
	.st239{fill:#CC2C79;}
	.st240{fill:#1A1818;}
	.st241{fill-rule:evenodd;clip-rule:evenodd;fill:#FFFFFF;}
	.st242{fill-rule:evenodd;clip-rule:evenodd;fill:#469B88;}
	.st243{fill-rule:evenodd;clip-rule:evenodd;fill:#2C2E6A;}
	.st244{fill:#469B88;}
	.st245{fill:#1E1C44;}
	.st246{fill:#DA6D2A;}
	.st247{clip-path:url(#SVGID_00000166641356841867971360000011556834586646236570_);}
	.st248{fill:#273669;}
	.st249{fill:#567DF6;}
	.st250{fill:#70D3FA;}
	.st251{fill:#88FAC1;}
	.st252{fill:#070E51;}
	.st253{opacity:0.5;}
	.st254{fill:url(#SVGID_00000071555887416998645580000007789456651746269853_);}
	.st255{fill:url(#SVGID_00000010307430312705663660000001529867967377134229_);}
	.st256{fill:url(#SVGID_00000005233682825063490750000016164617692728525973_);}
	.st257{fill:#05039B;}
	.st258{fill:#406DAF;}
	.st259{fill:#808086;}
	.st260{fill:#84C6C9;}
	.st261{fill:#86398D;}
	.st262{fill:#8E599C;}
	.st263{fill:#E7963E;}
	.st264{fill:#70C3ED;}
	.st265{fill:#4B2A50;}
	.st266{fill:#333333;}
	.st267{fill:#75FAAA;}
	.st268{fill:url(#SVGID_00000061463094530716507490000013802503349016464542_);}
	.st269{fill:#160141;}
	.st270{fill:url(#SVGID_00000116225403341307057610000009469314245821117067_);}
	.st271{fill:url(#SVGID_00000154423036317937268490000003774176895535442840_);}
	.st272{fill:url(#SVGID_00000170238021626408522350000007304879324564499388_);}
	.st273{fill-rule:evenodd;clip-rule:evenodd;fill:url(#SVGID_00000143582618387657464070000017739232641543714719_);}
	.st274{fill-rule:evenodd;clip-rule:evenodd;fill:url(#SVGID_00000094608157785644429410000007323712756478648963_);}
	.st275{fill-rule:evenodd;clip-rule:evenodd;fill:url(#SVGID_00000109712447582997403300000017829261726419309965_);}
	.st276{fill-rule:evenodd;clip-rule:evenodd;fill:url(#SVGID_00000004504498205076039170000000411841504411902641_);}
	.st277{fill:#414042;}
</style>
<g>
	<g id="ACIG-MOC">
		<ellipse class="st124" cx="499.78" cy="374.15" rx="186.29" ry="183.69"/>
		<ellipse class="st125" cx="500.22" cy="281.44" rx="129.1" ry="81.45"/>
		<path class="st126" d="M504.98,537.47c-35.96,0-71.48-11.7-100.51-33.36c-17.76-13-32.49-29.89-43.32-48.95
			c-11.26-19.93-18.63-41.59-21.66-64.12c-3.03-21.66-1.3-44.19,4.33-65.42c10.83-40.29,37.26-74.95,73.65-95.31
			c9.96-5.2,20.36-9.53,31.19-13c16.9-5.2,42.46-10.4,66.72-4.77l0.87,0.43h-0.87c-18.63,1.3-36.82,6.5-53.29,14.73
			c-31.63,16.9-55.45,46.36-64.98,81.01c-9.96,37.26-3.47,78.85,18.2,116.97c41.16,70.62,131.27,92.71,205.35,50.69l22.09-12.13
			l-0.43,0.87c-16.46,22.53-25.99,35.09-55.02,51.12c-19.06,10.83-40.29,17.76-62.38,20.36
			C517.98,537.04,511.48,537.47,504.98,537.47z M492.42,210.39c-14.73,0-29.46,2.6-43.76,6.93c-10.83,3.47-21.23,7.8-31.19,13
			c-35.96,20.79-62.38,55.02-73.22,95.31c-11.7,43.76-5.2,90.11,17.33,129.1c45.92,78.41,146.43,105.27,225.28,60.65
			c28.59-16.46,38.56-28.59,54.59-50.69l-20.36,11.7c-34.66,19.93-75.38,26.43-114.37,17.33c-38.56-9.1-71.48-33.79-90.98-68.02
			c-22.09-38.12-28.59-79.71-18.2-116.97c9.53-34.66,33.36-64.12,64.98-81.01c16.46-8.23,34.23-13.43,52.42-14.73
			C507.15,211.25,499.78,210.39,492.42,210.39z"/>
		<path class="st127" d="M388.44,367.22c-9.96-75.81,27.29-129.97,95.31-152.5c-84.91,6.5-139.5,74.08-139.5,158.99
			c0.43,87.95,72.35,159.43,160.29,158.99c40.29,0,88.81-18.63,118.7-50.69c-28.59,13.43-61.09,22.53-93.58,20.79
			C460.36,498.92,398.41,442.16,388.44,367.22z"/>
		<path class="st128" d="M526.21,331.69c0,0-4.33,6.5-5.63,8.66c-0.43,0.43-0.43,0.87-0.87,1.3l-10.83-5.63l-0.43,0.87
			c0,0-4.33,6.5-5.63,8.66s-1.3,2.6-0.43,3.03c0.87,0.43,6.93,3.03,8.23,3.9c0.87,0.43,1.73,0.87,2.6,1.3c0,0,2.6-3.47,4.77-6.5
			c0.87-1.3,1.3-2.17,2.17-3.47l0,0c0.87,0.43,6.93,3.03,8.23,3.9c0.87,0.43,1.73,0.87,2.6,1.3c0,0,2.6-3.47,4.77-6.5
			c1.3-1.3,2.17-3.03,2.6-5.2l-11.26-5.63H526.21z M561.74,445.2c-0.43-1.3-1.3-2.6-1.73-3.47c-5.2-12.13-22.96-16.9-33.36-15.6
			c-31.19,1.73-51.12,6.5-65.42,6.07c-17.76-0.43-24.69-6.07-29.03-13.86c9.96,33.79,64.55,22.09,89.25,18.2
			C546.57,433.93,558.7,441.73,561.74,445.2z M518.41,414.87c45.92-3.47,50.69,25.99,52.85,35.96
			c0.87-32.93-18.63-54.15-79.28-46.36c-60.65,7.8-71.48-9.96-76.68-17.76c0,0-2.6-1.3-1.73,0.43l2.6,6.93
			C432.2,426.13,472.49,418.34,518.41,414.87L518.41,414.87z M560.87,245.91c1.73,2.6,5.2,3.9,7.8,2.17c0.43-0.43,1.3-0.87,1.73-1.3
			c1.3-1.3,1.73-0.87,2.6,0s0,5.2-1.3,9.53c-1.3,3.9-3.03,7.8-4.77,11.7c0,0,1.73-0.87,3.03-2.17c5.2-5.63,7.36-13.43,6.07-20.79
			c-0.87-5.2-5.2-10.4-8.66-7.36c-3.47,3.03-5.63,2.17-6.5,0.43c-0.87-1.73,1.73-3.47,3.47-4.33c-1.3-2.6-2.17-5.63-2.6-8.66
			c-2.6,0-4.77,1.3-5.2,3.9C556.1,235.08,557.4,240.71,560.87,245.91L560.87,245.91z M450.83,342.95l-5.63,8.66
			c-1.3,2.17-1.3,2.6-0.43,3.03c0.87,0.43,6.93,3.03,8.23,3.9c0.87,0.43,1.73,0.87,2.6,1.3c0,0,2.6-3.47,4.77-6.5
			c1.3-1.3,2.17-3.03,2.6-5.2l-11.26-5.63L450.83,342.95z M579.06,232.05c7.36,5.2,14.3,11.26,20.36,18.2
			c-1.3-0.43-3.03-0.43-4.33,0.43c-4.77,4.33-6.5,11.26-3.9,16.9c0,0,0.87,6.93,29.03,37.26c19.5,20.79,17.33,34.66,17.33,34.66
			s-6.07,45.06-42.46,48.09c3.03,0.87,6.5,1.3,9.96,1.3c6.5-0.43,12.56-3.9,16.46-9.1c3.9-3.9,19.06-24.26,18.63-42.89
			c1.73,24.26-2.17,48.52-11.26,71.05c-0.43,1.3-0.87,3.03-1.73,4.33c-6.93,18.2-20.79,30.33-38.12,39.42
			c0.87-9.96,1.3-30.33-5.2-41.16c-10.83-17.76-29.89-29.03-50.69-30.76c-23.83-1.3-24.26,0.43-52.85,3.47
			c-22.09,2.17-52.42,0-63.25-20.36c3.03-20.79,13-28.59,26.43-38.99c13.43-9.1,23.39-14.3,28.16-18.2c0,0-3.03,15.16,0.43,23.83
			c2.6,5.63,8.23,8.66,14.3,7.8c2.17-0.87,13.86-3.47,19.93-20.36c1.3-3.9,3.47-11.7,6.93-10.4c1.73,0.87,1.73,7.8,1.73,7.8
			c0.43,3.03,3.9,5.2,6.93,4.77c0.43,0,0.87-0.43,1.3-0.43c7.36-1.73,8.23-7.8,10.4-11.7c0.87,0.43,2.17,2.17,3.9,1.73
			s4.33-0.43,8.23-10.4c0.43-0.43,1.73,0.87,3.03,0.43c1.3-0.43,7.8-1.73,8.66-15.16c0.43-3.9,0.43-7.8,0-11.26
			c0,0-0.87-1.3-1.3,0.43c-0.43,3.03-1.3,13-8.23,12.56c0-0.87-0.43-3.47-0.43-3.47s-2.17,0-2.17,1.73s-3.47,13.43-10.4,11.7
			c0-1.73,0-4.33,0-4.77s-0.87-1.73-1.3,0s-4.33,16.03-13.86,14.73c-2.17-0.43-3.03-3.9-3.03-3.9l-0.43-5.63c0,0-1.3-4.77-4.33-3.03
			c-3.03,1.73-3.47,5.63-6.93,13.43c-3.47,7.36-13.43,18.63-22.96,17.33c-5.2,0-9.1-4.33-9.1-9.1c0,0,0,0,0-0.43l0.87-10.83
			c5.63-5.63,9.96-12.56,13-19.93c4.77-12.56,9.53-21.23,3.9-24.26c0,0-1.3-0.43-7.8,5.2c-2.6,1.73-5.2,2.6-7.8,3.47
			c-7.8,1.73-17.76,3.9-19.5,8.23c-2.6,6.07-7.8,13-7.36,18.63c0.87,3.9,3.03,7.36,6.5,9.1c0,0-45.92,22.53-41.16,58.05
			c0,0-2.17,22.96,27.73,31.19c17.76,5.63,41.16,3.03,43.32,3.03c2.17,0,37.26-6.5,53.72-2.6c42.02,6.93,51.12,39.42,49.82,58.05
			c-50.25,24.69-125.64,17.33-125.64,17.33c33.36,9.96,32.49,10.83,48.52,12.56c83.18-0.43,112.21-52.42,120.87-64.55
			C640.58,404.47,694.74,298.33,579.06,232.05z M636.25,324.76c-4.77-12.56-6.93-16.9-30.76-43.76c-8.23-9.96-16.46-16.9-10.4-24.26
			c5.2-4.33,6.93-0.87,7.8,2.17c0.43,1.73-1.3,3.47-1.3,3.47s1.3-5.2-2.6-4.77c-3.9,0.43-3.47,6.93,0.87,8.66
			c4.33,1.73,6.07-4.33,4.77-9.1c-0.43-0.87-0.43-1.73-0.87-2.6c20.36,22.53,32.93,51.12,35.96,81.01
			C639.28,332.12,637.98,328.23,636.25,324.76z M453.86,286.64c0-0.87,3.47-2.17,9.96-3.9c7.36-1.3,14.3-4.77,20.36-9.53
			c0.87-0.87,5.63,2.6-0.87,9.53c-3.03,3.47-6.07,6.93-9.53,9.96C469.02,294,456.89,296.17,453.86,286.64z M548.3,333.42
			c-3.47,0-3.47,0-3.47,0c22.53,7.36,32.49-16.9,33.79-25.56c0.87-3.9,3.03-2.17,3.03-2.17c0.43,1.3,1.3,2.17,2.17,2.6
			c1.3,0.87,4.33-3.9,4.33-3.9c3.47,1.73,5.63-7.36,6.07-9.53c0,0-1.73,0.43-2.17,2.6c0,1.3-0.87,2.17-2.17,2.6
			c0,0-0.87,0.43-0.87-0.87c0-1.3-1.3-2.17-1.73,1.3c-0.43,3.03-2.6,3.47-2.6,3.47c-0.87-0.43-0.43-1.3-2.17-2.6
			c-2.17-2.17-4.77,2.6-5.2,4.77c-0.87,6.5-3.9,12.13-8.66,16.9C563.47,329.09,556.1,332.56,548.3,333.42z M525.34,247.21l0.43-1.3
			c3.9,3.9,4.77,10.4,1.73,15.16c-0.43,1.3-0.87,2.6-1.3,3.9c6.07-2.17,10.4-7.36,11.26-13.86c0.43-4.33-1.3-8.23,0-8.66
			c2.17,0,3.9,1.3,5.2,3.03c0.87-0.87,1.3-2.17,1.73-3.47c0,0-4.33-6.5-7.8-1.3c-1.73,3.47-2.17,7.36-0.43,11.26
			c0,0-1.73,6.93-6.5,8.23c1.73-5.2,5.2-13.86-3.9-19.06c-1.3-0.43-4.77,0-4.33,3.9c0,1.3,0.87,2.6,2.17,2.6
			C524.04,247.64,524.91,247.64,525.34,247.21L525.34,247.21z M505.42,276.24c3.03-0.87,5.63-0.87,8.66-0.43l-9.96,7.8h0.87
			c4.33-2.6,8.23-6.07,11.7-9.1c1.73-2.6,3.03-6.5,1.73-6.07c-2.17,0.87-4.33,0.87-6.93,0.87c-7.8,0.43-8.66,6.5-9.53,9.53
			C503.25,277.97,504.12,277.1,505.42,276.24L505.42,276.24z M485.05,358.98c0-0.43,0-0.43,0-0.87c-0.87,0.43-1.73,0.87-2.6,1.3
			c-2.17,1.73-3.9,3.47-5.63,5.63c-0.43,1.73,0,3.03,1.3,4.33c1.3,0.87,2.6,0.43,3.9,0.87c3.47-0.43,6.07-2.6,7.36-6.07
			c0.87-2.17-0.87-4.33-2.17-5.63c-0.87,0.87-2.17,2.17-3.03,3.03c0.87,1.3,1.73,3.03,2.17,4.77c-1.3,0.43-3.03,0.87-4.33,0.43
			c-1.3-0.43-1.73-1.73-2.17-3.03c-0.43-1.3,1.3-2.17,2.17-3.03C482.89,359.85,484.19,359.42,485.05,358.98z M558.27,348.59
			L558.27,348.59c-1.3-0.87-1.73,0.43-3.03,0.87c-3.47,3.9-7.8,7.8-8.23,13.43c0.43,1.3,1.3,2.6,2.6,3.03
			c0.87,0.43,2.17,0,3.03-0.43c1.73-1.3,3.03-3.03,4.33-4.77c0-0.43-0.43-0.43-0.43-0.43c-1.3,0.87-1.73,2.17-3.47,2.17
			c-0.87-0.43-1.73-0.87-2.17-2.17c-0.43-4.33,3.47-7.36,6.07-9.96C557.4,349.45,558.27,349.02,558.27,348.59z M589.89,339.49
			c0.43,0,1.3-0.43,1.3-0.87c0.43,1.3,0.43,2.6,0.43,3.47c0,1.3,0,3.03-0.43,4.33c-0.43,0.87-0.43,2.17-0.87,3.03
			c-0.43,0.43-0.43,0.87-0.43,1.73c4.77-2.6,6.5-7.8,9.53-11.7c0.87-0.87,1.73-2.17,3.47-2.17c0.87,0.87,1.73,1.3,2.6,2.17
			c0.87-0.87,1.73-1.73,2.17-3.03l-0.43-0.87c-0.87-0.87-1.3-2.17-3.03-2.17c-3.03,0.87-5.2,3.03-6.5,5.63
			c-1.3,2.17-2.6,4.33-4.33,6.5c0-2.6,0.43-5.2,0-7.8c0-3.47-1.3-6.93-3.9-9.96c0,0-0.43-0.43-0.87-0.43
			c-0.87,2.6-3.03,5.2-1.73,7.8c0.43,0.87,0.87,1.73,1.3,2.6C589.46,338.62,589.89,339.06,589.89,339.49z"/>
		<g>
			<g>
				<g>
					<g>
						<path class="st129" d="M364.62,650.55l-16.46,3.9l-6.5,1.3c-9.1,2.17-12.56,4.77-16.03,12.13c-3.47,6.5-5.2,13.86-5.2,21.23
							c0,2.17,0.43,4.77,0.87,6.93H294l17.76-35.52l-0.87-19.5l9.96,1.3l12.56-24.69c6.93-14.3,8.66-18.2,8.66-24.26
							c0-2.17-0.43-4.77-0.87-6.93h22.96L415.3,695.6h-34.66c0.43-1.73,0.87-3.47,0.87-5.2c-0.43-6.07-1.73-12.13-4.33-17.76
							l-2.6-6.07l-8.23-18.63L364.62,650.55z M351.19,612.42l-14.73,31.19l29.89,3.47L351.19,612.42z"/>
					</g>
				</g>
			</g>
		</g>
		<g>
			<g>
				<g>
					<g>
						<path class="st129" d="M516.25,693.44c-10.4,3.03-21.66,4.33-32.49,4.33c-19.5,0-35.09-5.2-45.92-14.73
							c-11.7-10.83-18.2-25.99-17.76-42.02c-0.43-16.46,6.5-32.06,19.06-42.89c11.7-9.96,26.43-14.73,46.36-14.73
							c9.96,0,19.93,1.3,29.46,3.47v19.5c-8.66-5.63-18.63-8.66-29.03-8.23c-24.26,0-38.56,15.6-38.56,41.59
							c0,13.43,3.9,24.69,10.4,31.63c7.8,7.36,18.2,11.26,28.59,10.83c12.13,0.43,23.83-4.77,31.63-13.86h3.03L516.25,693.44z"/>
					</g>
				</g>
			</g>
		</g>
		<g>
			<g>
				<g>
					<g>
						<path class="st129" d="M571.7,664.41c0,15.6,1.3,23.39,5.63,30.76h-29.89v-78.41c0-15.6-1.3-23.39-5.2-30.76h29.46V664.41z"/>
					</g>
				</g>
			</g>
		</g>
		<g>
			<g>
				<g>
					<g>
						<path class="st129" d="M705.57,667.01c0,11.7-0.87,15.16-4.33,18.63c-7.8,7.8-23.39,12.13-43.76,12.13
							c-19.06,0-33.79-3.9-43.76-12.56c-11.7-9.53-17.76-24.26-17.76-42.46c-0.43-14.73,4.33-28.59,13.86-39.86
							c12.13-13.43,29.03-19.5,53.29-19.5c10.4,0,20.36,0.87,30.33,3.03v19.93c-9.53-5.63-20.36-8.66-31.63-8.23
							c-26.43,0-39.42,14.3-39.42,43.32c0,27.29,11.7,40.72,35.09,40.72c7.8,0.43,15.6-1.73,22.09-6.5c3.47-3.03,5.2-7.36,4.77-11.7
							c0-9.53-1.73-12.13-12.13-15.16l-13.86-4.33l-3.03-4.33h50.25V667.01z"/>
					</g>
				</g>
			</g>
		</g>
		<g>
			<path class="st130" d="M473.36,715.1L473.36,715.1L473.36,715.1c0.87,0.43,0.43,0,0.87,0.43l0,0c0,0.43,0,0.43,0,0.87h-0.43
				c0,0,0,0.43-0.43,0.43l0,0c0,0,0,0,0,0.43l0,0v0.43l0,0v0.43l0,0l0,0h-0.43l0,0l0,0V719l0.87,0.43h0.87l0,0h0.43
				c0.43,0.87,0.43,1.3,0,2.17c0,0.43,0,0.43,0,0.87l0,0l0,0l0,0v0.43h-0.43v0.43l0,0v0.43l0,0v0.43l-1.73,1.73l0,0l0,0l0,0
				c0,0,0,0,0,0.43c-0.43,0.43-1.3,0.43-1.73,0.87c0-0.43-0.43,0-0.43-0.43s0,0,0-0.43h0.43l0.43-0.43v-0.43h0.43l0.43-0.43l0,0
				v-0.43c0.43-0.43,0.87-0.87,1.3-1.73c0,0-0.43,0-0.43-0.43h-0.43l0,0h-0.87l0,0h-0.43l-0.87-0.87v-0.43l0,0l0,0l0,0v-0.43
				 M471.19,719.43L471.19,719.43V719l0,0v-0.43l0,0l0,0l0,0v-0.43l0,0c0-0.43,0-0.43,0-0.87h0.43l0,0l0,0v-0.43l0,0v-0.43l1.3-0.87
				c0.43-0.43,0.87-1.3,1.73-1.3L471.19,719.43z"/>
			<path class="st130" d="M575.17,718.13L575.17,718.13L575.17,718.13c0.43,0,0.43,0,0.87,0.43l0,0v0.87h-0.43v0.43l0,0v0.43l0,0
				v0.43l0,0v0.43h-0.43v0.43l0,0l0,0l0,0v0.87l0.87,0.43h0.87l0,0h0.43c0.43,0.87,0.43,1.3,0,2.17v0.87l0,0l0,0l0,0v0.43h-0.43
				v0.43l0,0v0.43h-0.43l0,0l-1.73,1.73l0,0v0.43l0,0l0,0c-0.43,0.43-1.3,0.43-1.73,0.87c0-0.43-0.43,0-0.43-0.43s0,0,0-0.43l0,0
				l0.43-0.43v-1.3h0.43l0.43-0.43h-2.17c0,0,0,0,0-0.43c0.43-0.43,0.87-0.87,1.3-1.73c0,0-0.43,0-0.43-0.43h-0.43l0,0l-0.87-0.43
				l0,0l0,0l-0.87-0.87l0,0l0,0l0,0l0,0v-0.43c0,0,0,0,0-0.43l0,0v0.43l0,0l0,0l0,0v-0.43l0,0l0,0h0.87l0.43-0.43h0.43v-0.43l0,0
				v-0.43l0,0v-0.43l1.3-0.87c0.43-0.43,0.87-1.3,1.73-1.3V718.13z"/>
		</g>
		<path class="st130" d="M470.32,731.13h1.3l0.87,0.43v0.43h0.43l0,0l0.43,0.43v0.87l0,0v0.43l0,0c0,0.43,0,0.87,0,1.3l0,0v0.87l0,0
			v0.87l0,0v1.3l0,0v1.73l0,0v0.87l0,0v0.43l0,0v1.3l0,0v0.43l0,0v0.87l0,0v1.73l0,0v0.87l0,0v0.43l0,0v0.87l0,0v1.3l0,0v0.43l0,0
			v0.43l0,0v0.43l0,0v0.43l0,0v0.43l0,0l0,0l0,0v0.43l0,0v1.3l0,0v0.87l0,0v1.73l0,0c0,0.87,0,1.73,0,3.03c0,0.43,0,1.3,0,1.73l0,0
			l0,0l0,0v0.43l0,0l0,0l0.43,0.43l0,0h0.43l0,0h1.3l0,0l1.73-0.43l0,0h0.43l0,0h-0.87v-0.43h0.43v-0.43h0.43v-0.43l0.87-0.87l0,0
			l0.43-0.43v-0.43h0.43v-0.43l0,0v-0.43l0,0l0,0l0,0c0.43,0,0.43,0.43,0.43,0.87s0,0.43,0,0.43l0,0l0,0l0,0v0.43l0,0l0,0l0,0v0.43
			l0,0v1.3l0,0l0,0l0,0v0.43l0,0v0.43h-0.43l0,0l0,0v0.43l-0.43,0.43v0.43l0,0v0.43h-0.43l0,0l0,0l-0.43,0.43l0,0v0.43l-0.43,0.43
			l0,0v0.43l0,0l-0.43,0.43h-0.43l-0.43,0.43l0,0v0.43h-0.43l0,0l0,0l0,0l0,0l0,0l0,0l0,0h-0.43c-0.43,0-0.87,0.43-1.3,0.43h-1.73
			l0,0h-0.43l0,0l0,0l0,0h-3.03v0.43l0,0l-0.43-0.43h-0.43v-0.43l-0.43-0.43v-0.43l0,0v1.3l0,0v-0.43l0,0v-0.43c0-0.87,0-1.73,0-2.6
			l0,0c0-0.43,0-0.87,0-1.3l0,0v-0.87l0,0v-0.87l0,0v-1.3l0,0v-0.43l0,0v-0.43l0,0v-0.43l0,0v-0.43l0,0v-0.43l0,0v-0.43l0,0v-0.87
			h0.43v-0.43l0,0v-1.3l0,0v-0.87l0,0v-2.17l0,0v-0.87l0,0v-0.87c0-0.87,0.43-1.73,0.43-2.17v-1.73l0,0v-0.87l0,0v-1.3l0,0v-1.73
			l0,0v-0.43l0,0c0-0.43,0-0.87,0-0.87l0,0v-0.43l0,0v-0.43l0,0v-0.43l0,0c-0.43-0.43,0-0.87-0.87-0.87l0,0h-0.43l0,0h-0.43v0.43
			l0,0l-0.43,0.43v0.43h-0.43v0.43l0,0v0.43l0,0v0.43h-0.43v0.43l0,0v0.43l-0.43,0.43v0.43l0,0l0,0c0,0-0.43,0-0.43,0.43s0,0,0,0
			l-0.43-0.43l0,0v-0.43l0,0v-0.43l0,0v-0.43h0.43v-0.43l0,0v-0.43l0,0l0,0l0,0v-0.43l0,0v-0.43h0.43v-0.43l0,0v-0.43l0,0l0,0l0,0
			v-0.43h0.43v-0.43l0,0v-0.43l0,0l0,0l0.43-0.43v-0.43l0.43-0.43v-0.43h0.43v-0.43l0.87-0.43v-0.43h-0.43c0,0,0-0.43,0.43-0.43
			h0.43v-0.43l0,0v-0.43l0,0l0,0c0.43,0,0.87,0,0.87-0.43"/>
		<path class="st130" d="M446.5,762.75L446.5,762.75L446.5,762.75L446.5,762.75L446.5,762.75h1.3l0,0c0.87,0,2.17,0,3.03-0.43h0.87
			l0,0h0.43l0,0h0.43l0,0h0.43l0,0h0.43l0,0h0.87l0,0l0,0v-0.87l0,0l0,0l0,0v-0.43l0,0v-0.43l0,0c0-0.43,0-0.43,0-0.87l0,0l0,0l0,0
			v-0.43l0,0v-0.43l0,0l0,0h0.43v-0.87l0,0l0,0l0,0v-0.43l0,0v-0.43l0,0v-0.43h-0.43v-0.43l0,0h0.43l0,0h0.87l0,0h0.43l0,0h0.43l0,0
			h3.03l0,0l0,0l0,0l0,0v0.43l0,0l0.43,0.87h0.43c0,0.87,0,1.3,0,2.17l0,0l-0.43,0.87l0,0v0.43l0,0c0,0.43,0,0.43-0.43,0.87l0,0
			v0.43l0,0l0,0l0,0l0,0l0,0v0.43l0,0v0.43l-0.43,0.43v0.87l0,0v0.43l0,0v0.43l-0.43,0.43v0.43l0,0c0,0,0,0,0,0.43l0,0v0.43l0,0
			v0.43l0,0v0.43l0,0l0,0h-0.43l0,0h-0.43l0,0c0,0-0.43,0-0.87,0.43l0,0h-0.43l0,0l-0.87,0.43l0,0h-0.87l0,0h-0.43l0,0h-2.6l0,0
			h-0.87l0,0l0,0l0,0h-0.43l0,0h-0.43l0,0h-0.87l0,0h-0.43l0,0h-0.43l0,0h-3.03l0,0h-0.87l0,0l0,0l-1.3-1.3l0,0l-0.43-0.43v-0.43
			l0,0v-0.43l0,0v2.17l0,0v-0.87l0,0c0-0.43,0-0.87,0-1.73s0-1.73,0-2.6l0,0c0-0.87,0-1.73,0-2.17v-3.9l0,0v-0.43l0,0v-0.43l0,0
			v-0.43l0,0c0-0.43,0-1.3,0-1.73l0,0v-0.43l0,0c0-0.43,0-0.87,0-0.87l0,0v-1.3l0,0v-2.17l0,0v-0.87l0,0v-0.43l0,0v-0.87l0,0v-0.43
			l0,0v-1.73l0,0v-0.87l0,0v-1.73l0,0v-0.87l0,0c0-0.43,0-0.87,0-1.73l-0.43-0.43l0,0h-0.43l0,0c-0.43,0-0.87,0-1.3,0v0.43h1.3
			l-0.43,0.43l0,0l-0.43,0.87l0,0v0.43l0,0v0.43l0,0v0.43l0,0v0.43h0.43v0.43l0,0l0,0h-0.43v0.43l0,0l0,0l-0.43,0.43v1.73
			l-0.43,0.43v0.43h-2.17l0,0h-0.43c0-0.43,0-0.43,0-0.87v-0.43l0,0v-0.43l0,0v-0.87l0,0l0,0l0,0v-0.43h0.43v-0.43l0,0
			c0-0.43,0-0.43,0.43-0.87l0,0l0,0l0,0v-1.73l0,0l0,0l0,0c0-0.43,0-0.43,0.43-0.87l0,0v-0.43l0.43-0.43v-0.43l0,0v-0.43l0,0l0,0
			l0,0l0.43-0.87l0.43-0.43v-0.43l0,0v-0.43l0,0v-0.43h0.43l0,0l0.43-0.43v1.3h0.43l0,0l0.43-0.43v-0.43h0.43
			c0-0.43,0.43-0.43,0.43-0.87h-1.3l0,0l0.87-0.43l0,0h0.43l0,0h0.43l0,0l0,0h0.87l0.87,0.87c0,0.43,0,0.43,0.43,0.87s0,0.43,0,0.87
			l0,0v2.6l0,0v0.43l0,0v0.43l0,0v0.87l0,0v0.43l0,0l-0.43,2.17l0,0l0,0l0,0v0.87l0,0v0.43l0,0v0.87l0,0c0,0.43,0,0.87,0,1.3l0,0
			v0.43l0,0v0.43l0,0v0.87l0,0v0.87l0,0v0.43l0,0v0.87c0,0.87-0.43,1.73-0.43,2.6v2.6c-0.43,1.3-0.43,2.6-0.43,3.9
			c0,0.43,0,0.87,0,0.87l0,0v1.3l0,0v0.43l0,0v0.43l0,0l0,0l0,0c0,0.43,0.43,0.43,0.43,0.87"/>
		<path class="st130" d="M587.73,757.99h2.6l0,0l0,0l0,0l1.73-0.43l0,0h0.43l0,0h0.43l0,0l0,0l0,0h0.43l0,0h0.43l0,0h0.43l0,0h0.43
			l0,0l0,0c0,0,0,0,0-0.43h0.43l0,0l0,0l0.43-0.43l0,0v-2.17c0-0.43,0-1.3,0-1.73c0-0.43,0-0.87,0-1.3v-0.43l0,0
			c0-0.43,0-0.87,0-1.3v-0.87l0,0v-3.9l0,0v-0.43l0,0v-0.43l0,0v0.87l0,0v-0.43l0,0c0-0.43,0-0.43,0-0.87l0,0v-0.87l0,0l0,0h0.43
			v-2.17l0,0v-0.43l0.43-0.43c0,0,0-0.43,0-0.87l0,0c0,0,0,0,0-0.43h0.43c0-0.43,0-0.43,0.43-0.87l0.43-0.43v-0.43l0,0v-0.43
			l0.87-0.43v-0.43l-1.3,0.87l0,0l0,0l0.43-0.43c0,0,0.43,0,0.43-0.43l0,0h0.87l0,0h3.47c0,0,0,0,0-0.43
			c0.87-0.43,1.3-0.43,2.17-0.43c0.43,0.43,0.43,0.43,0.87,0.43v0.43l0,0l0,0l0.43,0.43l0,0l0,0v0.43l0,0v0.87
			c0.43,0.43,0,0.87,0,1.3c0,1.73,0,3.03,0,4.77c0,0.43,0,0.87,0,1.73v1.73l0,0v1.3l0,0v1.3l0,0c0,0.87,0,2.17,0,3.03v0.87l0,0v0.43
			l0,0v0.87l0,0v0.43l0,0v0.43l0,0v0.43l0,0c0,0.43,0,0.87,0.43,0.87h0.43v0.43l0.87,0.43v0.43l0,0c0,0.43,0.43,0.43,0.43,0.87l0,0
			l0,0h0.87l0,0c0.87,0,1.73,0,3.03,0l0,0h0.43l0,0h0.43l0,0h0.43l0,0l0.87-0.43l0,0h0.43l0,0l0.43-0.43l0,0h0.43c0,0,0,0,0-0.43
			l0,0l0,0h0.43l0,0l0.43,0.43h0.43v0c-0.43,0-0.43,0.43-0.87,0.43v0.43l0,0c-0.43,0.87-0.87,1.3-1.73,1.73l-0.43,0.43h-0.43l0,0
			h-0.43l0,0h-0.43c0,0,0,0,0,0.43h-0.43v0.43l-0.43,0.43l0,0h-0.43v0.43h-0.43l0,0h-0.43c0,0,0,0,0,0.43h-0.43v0.43l0,0l0,0h-0.43
			l-0.43,0.43h-0.43c0,0,0,0,0,0.43h-0.43l0,0h-0.43l0,0h0.87l0,0h-0.43l0,0h2.17l0,0c-0.87,0-1.73,0-3.03,0l0,0h-0.87l0,0l0,0l0,0
			h-0.43l-0.43-0.43l0,0l-0.43-0.43h-0.43v-1.3l0,0l-0.43-0.43v-0.43h-0.43l0,0l0,0v-0.43l0,0l0,0l0,0v-0.43l0,0v-0.43l0,0v-1.73
			l0,0v-0.43l0,0v0l0,0l0,0l0,0v-1.73c0-0.87,0-1.73,0.43-2.6v-1.3l0,0v-0.43l0,0v-1.3l0,0v-1.3l0,0c0-0.43,0-1.73,0-2.17v-2.17l0,0
			c0-0.43,0-0.87,0-1.73l0,0v-0.87l0,0v-0.87l0,0l0,0l0,0v-0.43l-0.43-0.43c0,0,0,0,0-0.43h-0.43l0,0h-0.43l0,0
			c-0.43,0-0.87,0-1.3,0l0,0c-0.43,0.43,0,1.3,0,1.73c-0.43,2.17-0.43,4.33-0.43,6.5v2.6l0,0v0.43l0,0l0,0l0,0v0.87l0,0v0.43l0,0
			v0.43l0,0v0.43l0,0v0.43l0,0v0.43l0,0v0.43h-0.43v0.43l0,0v0.43l0,0v0.43l0,0v0.43h-0.43v0.43l0,0l0,0l0,0v1.3l-0.43,0.43v0.43
			h-0.43v0.43l0,0v0.43l0,0v0.43l-0.43,0.43v0.43c-0.43,0.43-0.43,0.43-0.87,0.87v0.43h-0.43l0,0h-0.43c0,0,0,0,0,0.43h0v0.43h-0.87
			l0,0h-0.43l0,0l0,0l0,0h-0.43l0,0l0,0l0,0h-1.3l0,0h-0.43l0,0h-0.43l0,0h-0.43l0,0c-0.87,0-1.3,0-2.17,0l0,0l-1.3,0.43
			c0-0.43-0.43-0.43-0.43-0.87h-0.43l0,0l0,0l0,0h-0.43v0.43l-1.3,0.43l0,0l0,0v0.43h-0.43l0,0l0,0l0,0c-0.43,0-0.43,0-0.87,0l0,0
			l0,0l0,0c-0.43,0-0.87,0-1.3,0l0,0l0,0l0,0h-0.43l0,0h-0.43l0,0h-2.6c-0.43,0-0.87,0-0.87,0l0,0h-0.87l-0.43-0.43l0,0v-0.43l0,0
			v-0.43l0,0v-0.43l0,0v-0.43l0,0v-0.43l0,0v3.03l0,0v-0.43l0,0v-1.3l0,0v-1.73l0,0v-1.3l0,0v-2.17l0,0v-0.43l0,0v-0.43l0,0v-0.87
			l0,0v-0.43l0,0v-1.3l0,0v-0.43l0,0v-0.87l0,0v-3.9l0,0v-1.3l0,0v-0.87l0,0v-0.43l0,0v-0.87l0,0v-1.3c0-1.3,0-2.6-0.43-3.9
			l-0.43-0.43v-0.43h-0.43c0,0.43-0.43,0.43-0.87,0.43v0.43l0,0v0.43l0,0l0,0h-0.43c0,0.43,0,0.87-0.43,1.3l0,0v0.43l0,0v0.43l0,0
			v0.43l0,0v0.43l0,0l0,0l-0.43,0.43v0.43l-0.43,0.43v0.43l0,0v0.43l0,0c0,0.43,0,0-0.43,0.43c0-0.43,0-1.3,0-1.73v-0.43l0,0v-0.43
			l0,0v-0.43l0,0l0,0l0,0v-0.43l0,0v-0.43l0,0c0-0.43,0-0.87,0.43-0.87l0,0c0-0.43,0-0.43,0.43-0.43l0,0v0.43l0,0v-0.43l0,0v-0.43
			l0,0v-0.43l0.43-0.43v-0.43h0.43v-0.43l0,0v-0.43l0,0v-0.43h0.43v-0.43c0,0,0.43,0,0.43-0.43l0,0l0.43-0.43l0,0l0,0v-0.43l0,0
			l0.87-0.87l0,0l0.43-0.43h0.43c0.43-0.43,0.87-0.43,1.3-0.43c0.43,0.43,0.43,0,0.43,0.43l0,0l0,0l0,0h0.43v0.43l0,0l0,0l0,0
			c0.43,1.3,0.43,2.6,0,3.9v1.73l0,0v0.43l0,0v1.3l0,0v0.43l0,0v0.43l0,0v1.3l0,0v0.87l0,0v0.43l0,0v0.43l0,0c0,0.87,0,1.73,0,2.17
			l0,0v0.43l0,0v0.43l0,0v0.43l0,0v3.03c0,1.3,0,3.03,0,4.77v0.43l0,0l0,0l0,0c0,0.43,0,0.43,0,0.87c0,0.43,0,0,0,0
			c0.87,0.87,3.03,0.43,3.9,0c0,0,0,0,0.43,0l0,0h1.3l0,0h0.43l0,0h0.43l0,0h0.43l0,0l0,0l0,0h0.43l0,0l0,0l0,0h0.43l0,0h-0.43l0,0
			h0.43l0,0l0.87-0.43l0,0h-4.33l0,0H586v-0.43h0.43v-0.43l0,0l0.43-0.43l0,0l0.43-0.43l0,0l0.43-0.43v-0.43l0.87-1.3h0.43l0,0v0.43
			c-0.43,0.43,0,0.43-0.43,0.87l0,0v0.43L587.73,757.99L587.73,757.99L587.73,757.99v0.43l0,0c0,0.43-0.43,0.43-0.43,0.87"/>
		<path class="st130" d="M589.46,746.29c-0.43,0-0.43,0-0.87,0l0,0l-0.87-0.43l0,0c-0.87,0-2.17,0-3.03,0.43h-0.87l0,0l-0.87,0.43
			l-1.3,1.3v0.43h-0.43l0,0h-0.43c0,0,0-0.43-0.43-0.43l1.3-3.47h0.43v-0.43l0,0v-0.43h0.43v-0.43l0.43-0.43l0,0l0.43-0.43v-0.43
			l0,0c0-0.43,0.43-0.43,0.43-0.87c0.43,0,0.43,0,0.43-0.43l0,0l0,0l0,0h0.87c0,0,0,0,0-0.43h0.43l0,0H586l0,0l0,0l0,0h0.43l0,0
			h0.43c0.87-0.43,1.73-0.43,2.6-0.43l0,0h1.73l0,0h0.43l0,0h0.43l0,0c0.43,0,0,0,0.43,0.43l0,0v0.87
			c-0.43,0.43-0.43,0.43-0.43,0.87l0,0v0.43l-0.43,0.43v0.43l0,0v0.43h-0.43v0.43l0,0v0.43l0,0v0.43l0,0l0,0h-0.43v0.43l0,0v0.43
			l0,0v0.43"/>
		<path class="st130" d="M520.58,748.46C520.58,748.46,520.15,748.46,520.58,748.46L520.58,748.46L520.58,748.46l-0.43,0.43l0,0l0,0
			c-0.43,0-0.43,0-0.43,0.43l-1.73-0.43l0,0h-0.43l0,0h-0.43l0,0l0,0l0,0h-0.43v-0.43h-1.3v-0.43l0,0l0,0c0,0,0,0-0.43-0.43
			c0-0.43,0-0.87,0-1.3l0,0l0,0l0,0v-0.87l0,0v-0.43l0,0l0,0l0,0v-0.43l0,0v-0.43l0,0c0.43-0.43,0-0.87,0.87-1.3
			c0-0.43,0-0.87,0.43-0.87l0,0h0.43c0,0,0,0,0-0.43h0.43c0,0.43,0.43,0,0.43,0.43l0,0l0,0l0.43,0.43h0.43l0,0h0.87l0,0l0,0v0.43
			l0,0l0,0h0.43l0.87,0.43v0.87l0,0v0.43l0,0l0,0l0,0v0.43l0,0v0.43l0,0v0.43l0,0v0.87l0,0v0.87l0,0l0,0l0,0V748.46"/>
		<path class="st130" d="M491.99,755.39c0,0.43-0.43,0.43-0.87,0.87l-0.87,0.87l0,0l0,0l0,0c0,0,0,0.43-0.43,0.43
			c0,2.17,0.87,3.9,2.6,4.77l0.87,0.87l0,0l0.43,0.43h0.43l0,0l0,0v0.43l0,0v0.43h0.43l0,0h0.43l0,0h0.43l0,0h0.43l0,0h0.43l0,0
			h0.43l0,0h0.87l0,0h0l0,0h0.87l0,0l0,0l0,0h0.43l0,0h0.43l0,0h0.43l0,0h1.3l0,0h0.43l0,0h0.43l0,0h0l0,0h1.3l0,0h0.87l0,0
			c0.43,0,0.87-0.43,1.73,0c0.87,0,1.73,0,2.17,0c1.3,0,3.03,0,4.33,0h3.9c0.87-0.43,2.17-0.43,3.03-0.43h0.87l0,0h0.87l0,0
			l1.3-0.43l0,0h0.43l0,0h1.3l0,0h0.43l0,0h0.87l0,0h0.43l0,0h1.3l0,0l0.87-0.43l0,0l0.87-0.43l0,0h0.43l0,0h0.43l0,0l0,0l0,0h0.43
			l0,0h0.43l0,0h0.43l0,0h0.43l0,0h0.87l0,0l0,0l0,0l0.87-0.43c0,0,0,0,0-0.43h0.43l0,0h0.43v-0.43h0.43l0,0l0,0l0,0
			c0.43-0.43,0.43-0.43,0.43-1.3l0,0v-0.43l0,0v-0.43l0,0v-0.43c-0.43,0-0.87-0.43-0.87-0.87c0,0,0,0,0-0.43h-0.43v0.43l0,0
			l-0.43-0.43l0,0v-0.43l0,0v-0.43l0,0v-0.43l0,0v-0.43l0,0v-0.87l0,0v-0.43l0,0v-0.87l0,0v-0.43l0,0v-0.43l0,0
			c0-0.43,0-0.43,0-0.87l0,0c0.43-0.43,0-0.87,0.87-0.87c0,0.43,0.43,0.43,0.87,0.43c0,0,0,0,0,0.43h0.43l0.43,0.43l0.87,0.87v0.43
			l0.87,0.87c0.43,0,0.87,0,0.87-0.43h0.87l0,0l0,0l0,0h2.6l0,0h0.43l0,0h0.43l0,0h0.43l0,0h0.43l0,0h0.87l0,0h0.43l0,0l0,0l0,0
			h0.43v-0.43h0.43v-0.43l0.87-0.43l0,0l0,0v-0.43l0,0v-3.03l0,0c0-0.43,0-0.43,0-0.87l0.43-0.43l0,0c0,0,0.43,0.43,0.43,0.87l0,0
			c0,0.43,0,0.43,0,0.87l0,0v0.43l0,0v0.43l0,0v0.43l0,0v0.43l0,0v0.87l0,0l0,0l0,0v0.43l0,0v0.43l0,0v0.43l0,0v0.87l0,0v0.43l0,0
			v0.43l0,0v0.43l0,0c0,0.43,0,1.3,0.43,1.73h0.43c0,0,1.3,0,1.73,0h0.43l0,0h1.73l0,0l1.3-0.43c0.43-0.87,0.87-1.73,1.3-3.03l0,0
			l0,0l0.43-0.43v-0.43l0,0v-0.43l0,0v-0.43l0,0v-0.43l0,0v-0.43l0,0v-0.43c0.43-0.43,0.87-1.3,1.73-1.3h0.43
			c0.87-0.43,1.3,0,1.73,0.43c0,0.43,0.43,0.43,0.43,0.43l0,0v0.43l0,0v1.3l0,0l0,0l0,0c0,0.43,0,0.87,0,1.3l0,0c0,0,0,0.43,0,0.87
			l0,0l0,0l0,0v0.43l0,0v0.87l0,0c0,0.43,0,0.43,0,0.87l0,0l0,0l0,0v0.43l0,0v0.43l-0.43,0.43c0,0.43,0,0.43,0,0.87l0,0v0.43l0,0
			v0.43l-0.43,0.43v0.43l0,0l-0.43,0.87l0,0l-0.43,0.43h-0.43c0,0,0,0,0,0.43l0,0v0.43h-0.43l-0.43,0.43h-0.87v0.43h-0.43l0,0l0,0
			l0,0h-0.43l0,0l0,0v0.43h-0.43l0,0h-0.43l0,0l0,0l0,0h-0.87l0,0h-0.87l0,0h-0.43l0,0h-0.43l0,0h-0.43l0,0c-0.87,0-2.17,0-3.03,0
			l-0.43-0.43l0,0v-0.87l0,0l0,0l0,0v-0.43l0,0c0-0.43,0-0.87,0-0.87l0,0v-3.47l0,0v-0.43l0,0v-1.3l-1.3,0.43v0.43h-0.43l0,0h-0.43
			l0,0h0l0,0h-0.87l0,0h-3.03l0,0h-0.43l0,0h-0.87l0,0l0,0l0,0h-1.73l0,0h-0.43c0,0.43,0,0.43-0.43,0.87l0,0l0,0l0,0v0.43l0,0v0.43
			l0,0l0,0l0,0v3.9l0,0v0.43l0,0l0,0l0,0v0.87h-0.43v0.43l0,0l0,0l-0.43,0.43v0.43l0,0v0.43l0,0v0.43c0,0-0.43,0-0.43,0.43v0.43
			l-1.3,1.3l0,0c0,0,0,0.43-0.43,0.43l0,0l-0.43,0.43l-0.87,0.43l0,0l0,0l0,0l0,0l0,0h-0.43l0,0h-0.43l0,0l-0.87,0.43l0,0h-0.87
			c0,0,0,0,0,0.43l-0.87,0.43l0,0l-0.87,0.43h-0.43l0,0h-0.43l0,0h-0.43c0,0,0,0,0,0.43h-0.87l0,0l0,0l0,0h-0.43l0,0l0,0l0,0h1.73
			l0,0h-0.87l0,0h-0.43l0,0h-0.43l0,0h-0.87l0,0h-0.87l0,0h-0.43l0,0h-1.3l0,0h-0.43l0,0h-0.43l0,0h-0.43l0,0h-0.43l0,0h-0.87
			c0,0,0,0-0.43,0s0,0,0,0l0,0h-0.43l0,0h-0.43l0,0h-0.87l0,0h-0.43h-1.73l0,0h-9.1l0,0h-1.73l0,0l0,0c-1.3,0-3.03,0-4.33-0.43
			h-0.43l0,0h-0.43l0,0h-0.87l0,0h-0.87l0,0h-0.43l0,0h0l0,0h-0.43l0,0l-1.3-0.43l0,0h-0.43l0,0l0,0l0,0h-0.87l0,0l-0.87-0.43l0,0
			c0,0,0,0-0.43,0l0,0h-0.43l0,0h-0.87l0,0h-0.43v-0.43h-0.43l0,0h-0.43v-0.43l0,0v-0.43l0,0l-0.43-0.43h-0.43v-0.43l0,0l-0.43-0.43
			h-0.43l0,0h-0.43v-0.43l-0.43-0.43v-0.43l-0.43-0.43l0,0l-0.43-0.43l0,0l0,0v-0.43l0,0v-0.43l0,0v-0.43l0,0v-0.43l0,0l0,0l0,0
			v-0.43c-0.43-1.73-0.87-3.47-0.43-5.2v-0.43l0,0v-0.43l0,0v0.87l0,0v-0.43l0,0v-0.43l0,0l0.43-0.87l0,0v-0.43l0,0l0,0l0,0v-0.43
			l0,0l0,0l0,0v-0.43l0,0v-0.43l0.43-0.43v-0.43l0.43-0.43v0l0.87-0.87l0.43-0.43h0.43l0.43-0.43l0,0l0.43-0.43h0.43l0,0l0.87-0.43
			l0.43-0.43l0,0l0.43-0.43l0,0v-0.43h0.43l0,0h0.43l0,0h0.87l0,0h0.43l0,0h0.43l0,0h0.43l0,0h0.43l0,0h0.43l0,0h0.87l0,0l0,0l0,0
			h3.47l0,0c1.3,0,2.17,0,3.47,0h0.87l0,0h1.3l0,0h0.43l0,0h0.43l0,0l0,0l0,0h0.43l0,0h0.87l0,0h0.43l0,0l0,0l0,0h0.87l0,0h1.73l0,0
			h0.43l0.43,0.43l0,0l0.43,0.43l0,0c0,0,0,0.43,0.43,0.43h0.43l0.43,0.43l0,0l0.87,0.87h0.43l0.43,0.43l0,0v0.43l0.43,0.43l0,0
			c0.43,0.43,0.87,0.87,1.73,1.3l0.43,1.3l0,0c0,0.43,0,0.87,0,1.3c-0.43,0.43-0.43,0.43-1.3,0.43l-0.43-0.43l0,0v-0.43l-0.43-0.43
			l0,0l0,0v-0.43l0,0l0,0l-0.43-0.43v-0.43h-0.43v-0.43h-0.43l0,0h-0.43l0,0l0,0l0,0h-0.43v-0.43h-0.43l-0.43-0.43l0,0v-0.43h-0.43
			v-0.43l0,0l0,0h-0.43l-0.43-0.43h-0.43l0,0l0,0l0,0h-0.43v-0.43h-0.87l0,0h-0.43l0,0h-0.43l0,0l0,0l0,0h-0.43l0,0h-0.43l0,0l0,0
			l0,0h-0.43l0,0h-1.3l0,0c-0.87,0-1.73,0-3.03,0l0,0h-2.17l0,0l0,0l0,0h-0.43l0,0h-0.87l0,0h-0.87l0,0h-1.73l0,0h-0.43l0,0h-0.43
			c0,0,0,0,0,0.43h-0.43l0,0h-0.87v0.43l0,0l0,0h-0.43l0,0h-0.43l0,0h-0.43l0,0h-0.87v0.43h-0.43l0,0l0,0l0,0l0,0c0,0,0,0,0,0.43h0
			l0,0c0,0.43-0.43,0.43-0.87,0.43"/>
		<path class="st130" d="M619.35,757.55L619.35,757.55l0.43-0.43v-0.43l0,0v0.43C619.79,757.55,619.79,757.55,619.35,757.55
			L619.35,757.55z"/>
		<path class="st130" d="M546.14,771.85c0,0.43,0,0.87,0,1.3l0,0v0.43l0,0v0.43l0,0v0.43l0,0v0.43h-0.43l0,0l0,0v0.43v0.43l0,0
			l-0.43,0.43v0.43l0,0v0.43l0,0v0.43l0,0c-0.43,0.43-0.43,1.3-1.3,1.3c-0.43-0.43-0.43-0.43-1.3-0.43l0,0l0,0l0,0
			c-0.43,0-0.87,0-1.3,0h-1.73l0,0h-0.87l0,0h-2.17l0,0h-0.43v0.43h-0.43v0.43c0,0-0.43,0-0.43,0.43v0.43h-0.43
			c-0.43,0.43,0,0.43-0.87,0.43c0-0.43,0-0.87,0-1.3l0,0v-0.43l0,0v-0.43l0,0l0,0l0,0v-0.43l0,0v-0.43l0,0v-0.43h0.43l0,0l0,0v-0.43
			l0,0v-0.43l0,0v0.87h0.43v-0.43l0,0v-0.43l0,0v-0.43l0,0v-0.43l0,0c0-0.43,0.43-0.43,0.43-0.87h0.43l0.43-0.43h0.43l0,0h0.43
			v-0.43h0.87l0,0c1.3-0.43,2.17-0.43,3.47-0.43l0,0h1.3l0,0h0.43c0.43,0,0.87,0.43,0.87,0.43"/>
		<path class="st130" d="M473.36,774.88c0.43,0,0.43,0,0.87,0.43v0.43l0.87,0.43c0,0,0,0,0,0.43h0.43v0.43h0.43l0,0l0,0l0,0l0,0
			v0.43l0,0v0.87l0,0v0.43l-0.43,0.43v0.43l0,0l0,0l0,0v0.87h-0.43v0.43l0,0v0.43l0,0v0.43l0,0v0.43l0,0v0.43l0,0v0.43l0,0
			c-0.43,0.43-0.87,0.87-1.73,1.3l0,0h-1.3l0,0h-0.43l-0.43-0.87l-1.3-0.87c0,0,0-0.43-0.43-0.43l0.43-0.87l0,0v-0.87l0,0v-0.43l0,0
			v-0.43l0,0v-0.43l0,0v-0.43l0,0v-0.43l0,0v-0.43l0.43-0.43c0,0,0,0,0-0.43l0,0v-0.43l0.43-0.43v-0.87l0,0l0,0h0.87L473.36,774.88z
			"/>
		<path class="st130" d="M416.6,756.25c0.43,0,0.43,0,0.87,0.43v0.43l0.87,0.43v0.43h0.43v0.43h0.43l0,0h0.43l0,0l0,0v0.43l0,0v0.87
			l0,0v0.43h-0.43v0.43l0,0v0.43l0,0v0.43h-0.43v0.43l0,0v0.43l0,0l0,0h-0.43v1.3l0,0v0.43h-0.43v0.43h-0.43
			c-0.43,0.43-0.87,0.87-1.73,1.3l0,0h-0.87l0,0h0.43l-0.43-0.87l-1.3-1.3c0-0.43,0-0.43-0.43-0.43s0-0.43,0.43-0.87l0,0
			c0-0.43,0-0.43,0-0.87H414v-0.43l0,0l0,0l0,0v-0.43l0,0v-0.43l0,0v-0.43h0.43v-1.73l0.43-0.43v-0.43l0,0v-0.43l0.43-0.43v-0.43
			l0,0l0,0l0,0L416.6,756.25z"/>
		<path class="st131" d="M436.53,797.41c-22.96,2.6-45.49,6.5-67.15,6.5c-9.53,0.43-25.13-1.73-25.13-14.73
			c0-11.7,8.66-19.06,15.6-25.13c13.86-11.26,30.33-19.06,48.09-22.96c7.8-0.87,17.76-2.6,25.56,6.07c6.07,9.53,2.6,18.2,0.87,24.26
			c-0.43-2.6-0.43-5.2-0.43-8.23c0.87-5.63-1.3-11.26-5.2-15.6c-12.13-6.93-28.59,0-45.92,8.23c-9.1,4.77-17.76,10.83-25.13,18.2
			c-7.8,7.36-10.83,19.5-2.6,21.23c20.79,4.77,51.12-2.6,79.71-5.2c58.92-7.36,113.51-6.93,152.93-0.43
			c39.42,6.5,64.12,15.6,66.72,19.93C611.56,795.25,528.81,785.28,436.53,797.41"/>
	</g>
</g>
</svg>
