<?xml version="1.0" encoding="utf-8"?>
<!-- Generator: Adobe Illustrator 27.6.1, SVG Export Plug-In . SVG Version: 6.00 Build 0)  -->
<svg version="1.1" id="Layer_1" xmlns="http://www.w3.org/2000/svg" xmlns:xlink="http://www.w3.org/1999/xlink" x="0px" y="0px"
	 viewBox="0 0 1000 1000" style="enable-background:new 0 0 1000 1000;" xml:space="preserve">
<style type="text/css">
	.st0{fill:#EEF2F8;}
	.st1{fill:#49A17B;}
	.st2{fill:#7631CD;}
	.st3{clip-path:url(#SVGID_00000008850456586241301620000013859054169046982074_);}
	.st4{fill:#404041;}
	.st5{clip-path:url(#SVGID_00000109024704600745100970000005416951173442334376_);}
	.st6{clip-path:url(#SVGID_00000048470166557011632100000000711528703802973616_);}
	.st7{fill:#7163EB;}
	.st8{fill:url(#SVGID_00000119812157062912548160000008691867261057818794_);}
	.st9{fill:url(#SVGID_00000074429535683290241540000013617049750003186578_);}
	.st10{fill:url(#SVGID_00000023283498843400129660000014273544849998000318_);}
	.st11{fill:url(#SVGID_00000062894286376425768650000016707955647418670754_);}
	.st12{fill:url(#SVGID_00000010991768652191502920000000208721393075338163_);}
	.st13{fill:url(#SVGID_00000130637625164607286330000013280430870862625465_);}
	.st14{fill:url(#SVGID_00000052794743882833024410000011615755788269936030_);}
	.st15{fill:url(#SVGID_00000000918460272281828670000014181356716056496780_);}
	.st16{fill:url(#SVGID_00000134961824499601363850000008471672156083685287_);}
	.st17{fill:url(#SVGID_00000151514254019033815460000001984305458283814021_);}
	.st18{fill:url(#SVGID_00000016044499734018838520000007724504613969549473_);}
	.st19{fill:url(#SVGID_00000029749405309679449050000017872292202079421826_);}
	.st20{fill:url(#SVGID_00000006709494383381062490000012102222375466217384_);}
	.st21{fill:url(#SVGID_00000180363735481451273980000008036571022344294027_);}
	.st22{fill:url(#SVGID_00000054259006045239962480000003157341713053102498_);}
	.st23{fill:url(#SVGID_00000154404625447386550530000008354289503280598708_);}
	.st24{fill:url(#SVGID_00000157994187097291217940000016755626423175783591_);}
	.st25{fill:url(#SVGID_00000170245597681775947660000012097522519214623645_);}
	.st26{fill:url(#SVGID_00000024691170819112456680000000713700568286809234_);}
	.st27{fill:url(#SVGID_00000049207062866822811290000013728713058809935512_);}
	.st28{fill:url(#SVGID_00000170257023272729885590000004708547317945714863_);}
	.st29{fill:url(#SVGID_00000081616284101257115440000017519081633777041557_);}
	.st30{fill:url(#SVGID_00000153705589350197322260000008206098499754120069_);}
	.st31{fill:url(#SVGID_00000062892344779518497030000003755221282828245913_);}
	.st32{fill:url(#SVGID_00000080900162186235531420000006565481323295648919_);}
	.st33{fill:url(#SVGID_00000120553401280237872700000014619248868042226087_);}
	.st34{fill:url(#SVGID_00000083807589273589439040000008072595318774579628_);}
	.st35{fill:url(#SVGID_00000026859050404958104270000008318830717104880552_);}
	.st36{fill:url(#SVGID_00000116221955969221642510000014697972627398740880_);}
	.st37{fill:url(#SVGID_00000059306423095343645310000010674893364713378205_);}
	.st38{fill:url(#SVGID_00000083803093034692886610000017231809998452093615_);}
	.st39{fill:url(#SVGID_00000036972180788240570170000012366540663862372797_);}
	.st40{fill:#3F4144;}
	.st41{fill:#2E3B89;}
	.st42{clip-path:url(#SVGID_00000005980405418131994590000008977537071154425738_);}
	.st43{clip-path:url(#SVGID_00000157293146400212560130000016584886490674743971_);}
	.st44{clip-path:url(#SVGID_00000002384627594780097780000014106730572346662534_);}
	.st45{fill:#F3B840;}
	.st46{fill:#E04430;}
	.st47{fill:#CA5C6C;}
	.st48{fill:#DD9033;}
	.st49{fill:#CD412D;}
	.st50{fill:#D47935;}
	.st51{fill:#D5709F;}
	.st52{fill:#E9BD8D;}
	.st53{fill:#E19F4B;}
	.st54{fill:#EABF4B;}
	.st55{fill:#CA582D;}
	.st56{fill:#DA8F38;}
	.st57{fill:#C04624;}
	.st58{fill:#C85E26;}
	.st59{fill:#B1341B;}
	.st60{fill:#B24C1F;}
	.st61{fill:#9E2B17;}
	.st62{opacity:0.52;fill:#5EC9E8;enable-background:new    ;}
	.st63{opacity:0.49;fill:#8462DA;enable-background:new    ;}
	.st64{opacity:0.52;fill:#2D63E5;enable-background:new    ;}
	.st65{fill-rule:evenodd;clip-rule:evenodd;fill:#439579;}
	.st66{fill:#3273C2;}
	.st67{fill:#575756;}
	.st68{fill:#1D2C66;}
	.st69{fill:#BCC0DA;}
	.st70{fill:#464B6F;}
	.st71{display:none;fill:#FFFFFF;}
	.st72{fill:#303030;}
	.st73{fill:#B73533;}
	.st74{fill:#04B15C;}
	.st75{fill:url(#SVGID_00000008860777194063895360000003035084244140226949_);}
	.st76{fill:url(#SVGID_00000134208060391169042630000000530378117278832275_);}
	.st77{fill:url(#SVGID_00000139262850486306924100000007634206486364026008_);}
	.st78{fill:url(#SVGID_00000047036334700900693770000002196638931933386148_);}
	.st79{fill:#D33B30;}
	.st80{fill:url(#SVGID_00000158734091029507586590000000534923154861103292_);}
	.st81{fill:url(#SVGID_00000003817907129721252710000011254773501624528570_);}
	.st82{fill:url(#SVGID_00000142891238569318387790000008148876560094276485_);}
	.st83{fill:url(#SVGID_00000119103619717164079170000003711886394800413108_);}
	.st84{fill-rule:evenodd;clip-rule:evenodd;fill:#469BC7;}
	.st85{fill:#222943;}
	.st86{fill-rule:evenodd;clip-rule:evenodd;fill:#1E4B91;}
	.st87{fill-rule:evenodd;clip-rule:evenodd;fill:#F0A140;}
	.st88{fill:#72D24C;}
	.st89{fill-rule:evenodd;clip-rule:evenodd;}
	.st90{display:none;fill:#FBFAFA;}
	.st91{fill:#242323;}
	.st92{fill:#BA3630;}
	.st93{opacity:0.35;fill:#53A0B1;enable-background:new    ;}
	.st94{fill:#20465E;}
	.st95{fill:url(#SVGID_00000116953748641115287320000007287797334250096277_);}
	.st96{fill:#367A8D;}
	.st97{fill:url(#SVGID_00000042006881206436509090000013834646560719655355_);}
	.st98{fill:url(#SVGID_00000003784118754210600620000002394852137845220536_);}
	.st99{opacity:0.88;fill:url(#SVGID_00000001655550698741918590000014152760059600052409_);enable-background:new    ;}
	.st100{fill:url(#SVGID_00000110431363174499966720000002006591175503630466_);}
	.st101{fill:#143661;}
	.st102{fill:#56BC8E;}
	.st103{fill:#2B2B37;}
	.st104{fill:#334C71;}
	.st105{fill:#3777E6;}
	.st106{fill:#A8EDE6;}
	.st107{fill:#EBC18E;}
	.st108{fill:#2A2F44;}
	.st109{fill:#1B4625;}
	.st110{fill:#98C355;}
	.st111{fill:#60B258;}
	.st112{fill:#41914D;}
	.st113{fill:#2B663D;}
	.st114{fill:#CCDA70;}
	.st115{fill:#34516A;}
	.st116{fill:url(#Path_164488_00000132054560752354601890000000307156435572978328_);}
	.st117{fill:#FFFFFF;}
	.st118{fill:#58595B;}
	.st119{fill:#55AC9B;}
	.st120{fill:#464442;}
	.st121{fill:#B7A891;}
	.st122{fill:#265674;}
	.st123{fill:#759ECF;}
	.st124{fill:#C9CACB;}
	.st125{fill:#F2F2F2;}
	.st126{fill:#2B3777;}
	.st127{fill:#27599E;}
	.st128{fill:#25589C;}
	.st129{fill:#2B63A5;}
	.st130{fill-rule:evenodd;clip-rule:evenodd;fill:#B9B9B9;}
	.st131{fill:#B9B9B9;}
	.st132{fill:#7185B5;}
	.st133{fill:#1C4882;}
	.st134{fill:#0F2C5A;}
	.st135{fill:#091C46;}
	.st136{fill:#54565A;}
	.st137{fill:#306541;}
	.st138{fill-rule:evenodd;clip-rule:evenodd;fill:#CAAD5D;}
	.st139{fill-rule:evenodd;clip-rule:evenodd;fill:#0D0D0D;}
	.st140{fill:#181818;stroke:#181818;stroke-width:0.3631;stroke-miterlimit:10;}
	.st141{fill:#305E3C;}
	.st142{fill:#181818;stroke:#181818;stroke-width:0.3631;stroke-miterlimit:9.9999;}
	.st143{fill:#181818;}
	.st144{fill:#141414;}
	.st145{fill:#1F4169;}
	.st146{fill:#49A2D9;}
	.st147{fill:#59585A;}
	.st148{fill:#030F97;}
	.st149{fill:#56A9DC;}
	.st150{fill:#4AA3DB;}
	.st151{fill:#545352;}
	.st152{fill:#412C6F;}
	.st153{fill:#BF2F7C;}
	.st154{fill:#215280;}
	.st155{fill:#7D7D7D;}
	.st156{fill:#456790;}
	.st157{fill:url(#C_00000183940042885592873480000004934947110709667971_);}
	.st158{fill:#C6C7C8;}
	.st159{fill:url(#SVGID_00000099641705776115974130000015425222510753996981_);}
	.st160{fill:#285E96;}
	.st161{fill:#61993F;}
	.st162{fill:#23568C;}
	.st163{fill:#4FA4DA;}
	.st164{fill:#6F80B0;}
	.st165{fill:#265896;}
	.st166{fill:#3B81B6;}
	.st167{fill:#275A6B;}
	.st168{fill:#595A5C;}
	.st169{fill:#D7393A;}
	.st170{fill:#8AC9D5;}
	.st171{fill:#D63939;}
	.st172{fill:#D63838;}
	.st173{fill:#3172B5;}
	.st174{fill:#3475B7;}
	.st175{fill:#3374B7;}
	.st176{fill:#7B7C7F;}
	.st177{fill:#7A7B7E;}
	.st178{fill:#3373B6;}
	.st179{fill:#7B7B7E;}
	.st180{fill:#7C7C7F;}
	.st181{fill:#7E7F81;}
	.st182{fill:#797A7D;}
	.st183{fill:#7D7D80;}
	.st184{fill:#7C7D80;}
	.st185{fill:#7C7B7E;}
	.st186{fill:#808184;}
	.st187{fill:#214167;}
	.st188{fill-rule:evenodd;clip-rule:evenodd;fill:#C8AC47;}
	.st189{fill:none;stroke:#C8AC47;stroke-width:9.5261;}
	.st190{fill:none;stroke:#E6BA5D;stroke-width:9.5261;stroke-miterlimit:10;}
	.st191{fill-rule:evenodd;clip-rule:evenodd;fill:#304567;}
	.st192{fill:#CFCECC;}
	.st193{clip-path:url(#SVGID_00000148629862811403638510000002161886522472542903_);}
	.st194{fill:#265B65;}
	.st195{fill:#767A52;}
	.st196{fill:#808082;}
	.st197{fill-rule:evenodd;clip-rule:evenodd;fill:url(#SVGID_00000147216838871837011930000003171495614878578343_);}
	.st198{fill-rule:evenodd;clip-rule:evenodd;fill:url(#SVGID_00000106859341020514174120000005834805783440986508_);}
	.st199{fill:#3A5CA5;}
	.st200{fill:#2F3A89;}
	.st201{fill:#6D6E71;}
	.st202{fill:#41918E;}
	.st203{fill:#445DA5;}
	.st204{clip-path:url(#SVGID_00000121972388381098761170000010858488710503675545_);}
	.st205{fill:#4A6EAF;}
	.st206{fill:#381D13;}
	.st207{clip-path:url(#SVGID_00000022555516772980258630000010459554532201963945_);}
	.st208{clip-path:url(#SVGID_00000173883178073763527300000011798353157779043989_);}
	.st209{clip-path:url(#SVGID_00000183250700524801053430000008254131860502505103_);}
	.st210{clip-path:url(#SVGID_00000041981403191022958710000016663949763990214794_);}
	.st211{clip-path:url(#SVGID_00000059271146017667086820000004512982028457775757_);}
	.st212{clip-path:url(#SVGID_00000101803737369189552140000012285509675951295635_);}
	.st213{clip-path:url(#SVGID_00000146464832946992378180000011732389772715682727_);}
	.st214{clip-path:url(#SVGID_00000006679306373541295950000016255639979011796668_);}
	.st215{clip-path:url(#SVGID_00000029729654236468618200000003953273330262970255_);}
	.st216{clip-path:url(#SVGID_00000078759723041318961960000011635765953801347513_);}
	.st217{clip-path:url(#SVGID_00000097485278757803889000000003840617985527122826_);}
	.st218{fill:#A2A8AC;}
	.st219{fill:#41834F;}
	.st220{fill:#265BB2;}
	.st221{fill:#293B90;}
	.st222{fill:#C99378;}
	.st223{fill:none;}
	.st224{enable-background:new    ;}
	.st225{fill:#203D35;}
	.st226{fill:#817771;}
	.st227{fill:#265C80;}
	.st228{fill:#2C2926;}
	.st229{fill:#59BCF8;}
	.st230{fill-rule:evenodd;clip-rule:evenodd;fill:#0101C2;}
	.st231{fill-rule:evenodd;clip-rule:evenodd;fill:#0202C6;}
	.st232{fill:#3A42F4;}
	.st233{fill-rule:evenodd;clip-rule:evenodd;fill:#050386;}
	.st234{fill:#3038F4;}
	.st235{clip-path:url(#SVGID_00000078026046590556667230000002701250792973249422_);}
	.st236{fill:#ED7D30;}
	.st237{fill:#479EE6;}
	.st238{fill:url(#Path_6_00000090275292080848038950000009790766257690504848_);}
	.st239{fill:#CC2C79;}
	.st240{fill:#1A1818;}
	.st241{fill-rule:evenodd;clip-rule:evenodd;fill:#FFFFFF;}
	.st242{fill-rule:evenodd;clip-rule:evenodd;fill:#469B88;}
	.st243{fill-rule:evenodd;clip-rule:evenodd;fill:#2C2E6A;}
	.st244{fill:#469B88;}
	.st245{fill:#1E1C44;}
	.st246{fill:#DA6D2A;}
	.st247{clip-path:url(#SVGID_00000016789116699151891750000006249749488540224413_);}
	.st248{fill:#273669;}
	.st249{fill:#567DF6;}
	.st250{fill:#70D3FA;}
	.st251{fill:#88FAC1;}
	.st252{fill:#070E51;}
	.st253{opacity:0.5;}
	.st254{fill:url(#SVGID_00000098199611472478257370000004419121897077505174_);}
	.st255{fill:url(#SVGID_00000176735590145731332590000017225011822720115375_);}
	.st256{fill:url(#SVGID_00000176012565688990498760000016520147649033715614_);}
	.st257{fill:#05039B;}
	.st258{fill:#406DAF;}
	.st259{fill:#808086;}
	.st260{fill:#84C6C9;}
	.st261{fill:#86398D;}
	.st262{fill:#8E599C;}
	.st263{fill:#E7963E;}
	.st264{fill:#70C3ED;}
	.st265{fill:#4B2A50;}
	.st266{fill:#333333;}
	.st267{fill:#75FAAA;}
	.st268{fill:url(#SVGID_00000017486412757451682360000016891447179965524638_);}
	.st269{fill:#160141;}
	.st270{fill:url(#SVGID_00000094590391751544894200000016264728038616388736_);}
	.st271{fill:url(#SVGID_00000029745539617038052360000009590019985261318319_);}
	.st272{fill:url(#SVGID_00000023992825015236925690000002680216773250065320_);}
	.st273{fill-rule:evenodd;clip-rule:evenodd;fill:url(#SVGID_00000101064567297047746830000012343751732551960245_);}
	.st274{fill-rule:evenodd;clip-rule:evenodd;fill:url(#SVGID_00000020369482479601835800000016334102973986519684_);}
	.st275{fill-rule:evenodd;clip-rule:evenodd;fill:url(#SVGID_00000011723967232620199040000000190858988361016241_);}
	.st276{fill-rule:evenodd;clip-rule:evenodd;fill:url(#SVGID_00000074403011741104489240000014450947045679006367_);}
	.st277{fill:#414042;}
</style>
<g>
	<g>
		<path class="st145" d="M764.52,544.48v-0.35l-10.97-18.37l-8.62-5.66l-2.96-11.32l-2.35-8.88l-5.66-3.57l-1.74-3.05
			c-0.17-0.17-0.35-0.26-0.52-0.44c-0.09-0.09-0.17-0.17-0.17-0.17s0,0,0-0.09c-1.57-1.91-2.18-2.96-2-3.74
			c0.09-0.7,0.17-2.87,0-4.27c-0.17-0.87-2.96-4.09-5.14-6.96c-2.52,6.96-3.83,14.45-3.83,22.28c0,30.29,20.11,55.88,47.7,64.06
			l-3.57-8.01v-11.49H764.52z"/>
		<path class="st146" d="M845.55,526.37c-3.22,4-6.44,6.79-8.01,7.4c-2.35,0.87-10.71,2.96-12.19,4.44s-2.35,4.44-3.83,6.27
			c-1.48,1.74-16.28,9.49-21.06,10.97c-4.79,1.48-16.02,4.18-17.5,5.05c-0.87,0.52-4.53,3.22-7.4,5.31
			c3.74,0.7,7.66,1.04,11.66,1.04c31.68,0,58.23-22.02,65.11-51.62c-0.7,1.48-1.39,2.79-2.09,4
			C848.86,521.85,847.21,524.28,845.55,526.37z"/>
		<path class="st146" d="M773.13,453.52l13.06,5.92c0,0,1.57-0.7,3.39-1.48c2.26,5.31,4.27,9.66,5.22,11.4
			c3.57,5.92,12.19,18.1,12.19,18.1s5.31-0.87,5.92,0s2.09,6.79,3.57,7.4c0.87,0.35,6.18-0.52,10.01-1.31
			c2.35-0.44,4.18-0.87,4.18-0.87s7.4-9.05,8.27-8.18s3.31,2.35,3.31,2.35l11.49,6.62c-3.31-33.86-31.77-60.41-66.5-60.41
			c-10.36,0-20.11,2.35-28.9,6.53c7.31,3.74,14.88,7.75,14.88,7.75L773.13,453.52z"/>
		<path class="st117" d="M853.74,493.47l-11.49-6.62c0,0-2.35-1.48-3.31-2.35c-0.87-0.87-8.27,8.18-8.27,8.18s-1.83,0.44-4.18,0.87
			c-3.83,0.78-9.14,1.74-10.01,1.31c-1.48-0.61-2.96-6.53-3.57-7.4c-0.61-0.87-5.92,0-5.92,0s-8.62-12.19-12.19-18.1
			c-1.04-1.74-2.96-6.09-5.22-11.4c-1.83,0.7-3.39,1.48-3.39,1.48l-13.06-5.92l0.09-6.01c0,0-7.57-4-14.88-7.75
			c-2.35,1.13-4.61,2.35-6.7,3.74c-10.27,6.53-18.63,15.67-24.11,26.64c-1.22,2.44-2.35,5.05-3.22,7.66
			c2.18,2.87,5.05,6.09,5.14,6.96c0.26,1.31,0.17,3.48,0,4.27c-0.09,0.7,0.52,1.83,2,3.74c0,0,0,0,0,0.09
			c0.09,0.09,0.17,0.17,0.17,0.17c0.17,0.17,0.35,0.35,0.52,0.44l1.74,3.05l5.66,3.57l2.35,8.88l2.96,11.32l8.62,5.66l10.97,18.37
			v0.35v11.49l3.57,8.01c2.44,0.7,4.87,1.31,7.4,1.74c2.87-2.09,6.53-4.79,7.4-5.31c1.48-0.87,12.8-3.57,17.5-5.05
			c4.79-1.48,19.58-9.23,21.06-10.97s2.35-4.79,3.83-6.27s9.84-3.57,12.19-4.44c1.57-0.61,4.79-3.39,8.01-7.4
			c1.65-2.09,3.31-4.53,4.7-7.14c0.7-1.22,1.31-2.52,2.09-4c1.13-4.87,1.74-10.01,1.74-15.23
			C854.08,497.74,854,495.65,853.74,493.47z"/>
	</g>
	<rect x="700.02" y="433.06" class="st146" width="3.39" height="133.7"/>
	<g>
		<g>
			<g>
				<path class="st147" d="M155.48,559.28l-2.26,7.49h-7.31l12.1-32.82h6.01l11.66,32.82h-7.49l-2.35-7.49H155.48z M156.78,553.88
					h7.92l-3.92-12.27h-0.09L156.78,553.88z"/>
				<path class="st147" d="M189.43,560.67h14.45v6.09h-21.76v-32.55h7.31V560.67z"/>
				<path class="st147" d="M223.81,566.76c-2.18,0-3.92-0.26-5.31-0.61l0.7-5.74c0.87,0.09,1.65,0.26,2.61,0.26
					c1.74,0,2.61-1.22,2.61-3.13V533.6h7.4v24.2C231.82,564.06,229.12,566.76,223.81,566.76z"/>
				<path class="st147" d="M251.92,559.28l-2.26,7.49h-7.22l12.1-32.82h6.01l11.66,32.82h-7.49l-2.35-7.49H251.92z M253.23,553.88
					h7.92l-3.92-12.27h-0.09L253.23,553.88z"/>
				<path class="st147" d="M301.88,560.67v6.09h-24.81v-4.87l14.88-21.67h-13.93v-6.09h23.24v4.96l-14.88,21.5v0.09H301.88z"/>
				<path class="st147" d="M317.9,534.21h7.4v32.55h-7.4V534.21z"/>
				<path class="st147" d="M367.08,566.76h-8.27l-6.09-11.58h-4.87v11.58h-7.4v-32.55h14.1c6.79,0,11.4,4,11.4,10.53
					c0,4.7-2.26,7.92-6.01,9.4L367.08,566.76z M358.55,544.65c0-3.13-2.18-4.44-4.61-4.44h-6.09v8.79h6.01
					C356.46,549.09,358.55,547.79,358.55,544.65z"/>
				<path class="st147" d="M380.48,559.28l-2.26,7.49h-7.31l12.1-32.82h6.01l11.66,32.82h-7.49l-2.35-7.49H380.48z M381.79,553.88
					h7.92l-3.92-12.27h-0.09L381.79,553.88z"/>
			</g>
			<g>
				<path class="st147" d="M448.99,540.3v26.55h-7.4V540.3h-8.79v-6.09h24.89v6.09H448.99z"/>
				<path class="st147" d="M477.28,559.36l-2.26,7.49h-7.31l12.1-32.82h6.01l11.75,32.82h-7.49l-2.35-7.49H477.28z M478.49,553.88
					h7.92l-3.92-12.27h-0.09L478.49,553.88z"/>
				<path class="st147" d="M505.74,566.85v-32.64h7.4v32.64H505.74z M533.85,534.21l-12.19,15.67l12.53,16.97h-9.49l-11.58-16.63
					l11.84-16.02H533.85z"/>
				<path class="st147" d="M551.87,559.36l-2.26,7.49h-7.22l12.1-32.82h6.01l11.75,32.82h-7.49l-2.35-7.49H551.87z M553.18,553.88
					h7.92l-3.92-12.27h-0.09L553.18,553.88z"/>
				<path class="st147" d="M591.21,540.3v7.66h12.1v6.09H591.3v12.88h-7.4v-32.73h21.59v6.09H591.21z"/>
				<path class="st147" d="M632.04,560.76c5.05,0,5.92-3.39,5.92-6.27v-20.72h7.4v20.72c0,8.44-5.4,12.36-13.32,12.36
					c-8.01,0-13.32-3.92-13.32-12.36v-20.72h7.4v20.72C626.03,557.36,626.99,560.76,632.04,560.76z"/>
				<path class="st147" d="M665.81,560.76h14.54v6.09H658.5v-32.64h7.4v26.55H665.81z"/>
			</g>
		</g>
		<g>
			<g>
				<path class="st147" d="M263.15,443.6c1.39,0,2.61-0.44,3.57-1.39s1.48-2.18,1.48-3.57c0-1.39-0.52-2.61-1.48-3.57
					c-0.96-0.96-2.18-1.48-3.57-1.48c-1.48,0-2.61,0.52-3.57,1.48c-0.96,0.96-1.39,2.18-1.39,3.57c0,1.39,0.44,2.61,1.39,3.57
					S261.76,443.6,263.15,443.6z"/>
				<path class="st147" d="M395.72,443.6c0.7,0,1.39-0.09,2-0.35c0.61-0.26,1.13-0.61,1.57-1.04s0.78-0.96,1.04-1.57
					c0.26-0.61,0.44-1.22,0.44-1.91c0-0.7-0.17-1.39-0.44-2c-0.26-0.61-0.61-1.13-1.04-1.57c-0.44-0.44-1.04-0.78-1.57-1.04
					c-0.61-0.26-1.31-0.44-2-0.44c-1.39,0-2.61,0.52-3.57,1.48c-0.96,0.96-1.39,2.18-1.39,3.57c0,1.39,0.44,2.61,1.39,3.57
					C393.19,443.16,394.32,443.6,395.72,443.6z"/>
				<path class="st147" d="M400.77,489.47v-30.55h-9.14v26.46h-22.63v-8.36c0-2.61-0.09-6.53-0.44-8.36
					c-0.26-1.83-0.7-3.31-1.39-4.53c-0.61-1.22-1.48-2.18-2.52-2.87c-1.04-0.7-2.26-1.22-3.83-1.57c-1.57-0.35-3.31-0.52-5.4-0.61
					c-2-0.09-4.44-0.09-7.05-0.09H326.6c1.57-2.87,3.57-3.74,6.01-5.92c2.44-2.18,5.05-3.92,8.01-5.4c2.87-1.48,5.92-2.52,9.05-3.22
					c3.13-0.7,6.18-1.04,9.14-1.04c0.09-1.65,0.09-3.13,0.17-4.53c0.09-1.39,0.09-2.96,0.17-4.61h-0.87
					c-3.83,0-7.75,0.44-11.66,1.39c-3.92,0.96-7.66,2.35-11.23,4.18c-3.57,1.83-6.79,4.18-9.66,6.88c-2.96,2.7-5.22,5.92-7.05,9.57
					c-1.04,2.09-1.57,2.44-1.57,4.44c0,1.04,0.17,2,0.44,2.87c0.26,0.87,0.78,1.65,1.39,2.35c0.61,0.7,1.39,1.22,2.35,1.57
					c0.96,0.44,2.09,0.61,3.39,0.61c4.53,0,9.14,0,13.67,0.09c4.53,0,9.05,0.09,13.67,0.09c1.74,0,3.22,0.09,4.18,0.17
					c1.04,0.17,1.83,0.52,2.35,1.04c0.52,0.61,0.87,1.48,0.96,2.7c0.17,1.22,0.17,4.61,0.17,6.7v6.53h-60.32v-52.23h-9.14v56.4
					c0,0.17-0.09,0.26-0.09,0.44c0,1.31,0.44,2.35,1.39,3.22c0.87,0.87,2,1.31,3.22,1.31h101.32c1.31,0,2.35-0.44,3.31-1.31
					c0.87-0.87,1.31-2,1.31-3.22C400.85,489.73,400.77,489.64,400.77,489.47z"/>
				<path class="st147" d="M383.44,443.6c1.39,0,2.61-0.44,3.57-1.39c0.96-0.96,1.39-2.18,1.39-3.57c0-1.39-0.52-2.61-1.39-3.57
					c-0.96-0.96-2.18-1.48-3.57-1.48c-1.39,0-2.61,0.52-3.57,1.48c-0.96,0.96-1.39,2.18-1.39,3.57c0,1.39,0.44,2.61,1.39,3.57
					C380.83,443.16,381.96,443.6,383.44,443.6z"/>
				<path class="st147" d="M280.12,465.1c0-0.87-0.17-1.74-0.52-2.44c-0.35-0.78-0.78-1.39-1.31-2c-0.61-0.61-1.22-0.96-1.91-1.31
					c-0.7-0.35-1.48-0.44-2.35-0.44h-14.01c-2.79,0-5.4,0.52-7.83,1.57c-2.44,1.04-4.53,2.52-6.35,4.35c-1.83,1.83-3.22,4-4.35,6.44
					c-1.04,2.44-1.57,5.05-1.57,7.83v6.27h-36.3v-52.23h-9.23v59.01v0.35c0,1.48-0.26,2.87-0.87,4.27
					c-0.61,1.31-1.39,2.52-2.44,3.57c-0.96,1.04-2.18,1.83-3.57,2.35c-1.39,0.61-2.79,0.87-4.27,0.87h-16.97
					c-1.57,0-2.96-0.26-4.27-0.87c-1.31-0.61-2.52-1.39-3.57-2.44c-1.04-0.96-1.83-2.18-2.35-3.48c-0.61-1.39-0.87-2.79-0.87-4.27
					v-3.31h-9.23v3.31c0,2.79,0.52,5.4,1.57,7.92c1.04,2.44,2.52,4.61,4.35,6.44c1.83,1.83,4,3.31,6.44,4.35
					c2.44,1.04,5.14,1.57,7.92,1.57h17.06c2.79,0,5.4-0.52,7.92-1.57c2.44-1.04,4.61-2.52,6.44-4.35c1.83-1.83,3.31-4,4.35-6.44
					c0.78-1.83,1.31-3.74,1.48-5.83h0.09h71.98c1.22,0,2.35-0.44,3.22-1.31c0.7-0.7,1.13-1.57,1.31-2.52c0-0.09,0.09-0.26,0.09-0.52
					v-0.17l0,0L280.12,465.1z M270.98,484.94l-21.85-0.09v-5.74c0-1.48,0.26-2.87,0.78-4.18c0.61-1.31,1.39-2.52,2.35-3.48
					c0.96-0.96,2.18-1.83,3.48-2.44c1.31-0.61,2.7-0.87,4.27-0.87l10.97,0.09V484.94z"/>
			</g>
			<g>
				<g>
					<path class="st147" d="M476.93,462.57c-0.35-0.78-0.78-1.39-1.31-1.91c-0.61-0.52-1.22-0.96-1.91-1.31
						c-0.7-0.35-1.48-0.44-2.35-0.44h-18.37c-2.79,0-5.4,0.52-7.83,1.57c-2.44,1.04-4.53,2.44-6.35,4.27
						c-1.83,1.83-3.22,3.92-4.27,6.35c-1.04,2.44-1.57,4.96-1.57,7.75v9.4c0,1.22,0.35,2.18,1.13,2.87c0.78,0.7,1.74,1.22,2.87,1.65
						c1.13,0.35,2.44,0.7,3.74,0.87c1.39,0.17,2.61,0.44,3.83,0.61h-0.09c1.48,0.17,2.87,0.35,4.27,0.44s2.87,0.17,4.35,0.17
						c2.79,0,10.01-0.17,12.8-0.52s5.48-0.87,8.01-1.57h0.09c1.04-0.17,1.91-0.7,2.61-1.57c0.7-0.87,1.04-1.83,1.04-2.87v-23.15
						C477.36,464.14,477.28,463.36,476.93,462.57z M468.22,484.51c-1.83,0.35-3.66,0.61-5.48,0.78c-1.83,0.17-8.01,0.26-9.84,0.26
						h-0.52c-0.78,0-1.57,0-2.26,0c-0.7,0-1.48-0.09-2.26-0.09c-0.78-0.09-1.65-0.17-2.61-0.35c-0.96-0.17-2-0.35-3.22-0.61
						l-0.09-5.66c0-1.39,0.26-2.79,0.87-4.09c0.52-1.31,1.39-2.44,2.35-3.48c0.96-0.96,2.18-1.74,3.48-2.35
						c1.31-0.61,2.79-0.87,4.27-0.87l15.32,0.09V484.51z"/>
					<rect x="671.21" y="433.06" class="st147" width="9.05" height="61.37"/>
					<path class="st147" d="M451.34,443.6c1.48,0,2.61-0.44,3.57-1.39c0.96-0.96,1.48-2.18,1.48-3.57c0-1.39-0.44-2.61-1.48-3.57
						c-0.96-0.96-2.18-1.48-3.57-1.48c-1.39,0-2.61,0.52-3.57,1.48c-0.96,0.96-1.48,2.18-1.48,3.57c0,1.39,0.52,2.61,1.48,3.57
						C448.73,443.16,449.94,443.6,451.34,443.6z"/>
					<path class="st147" d="M463.7,443.6c0.7,0,1.39-0.09,2-0.35c0.61-0.26,1.13-0.61,1.57-1.04s0.78-0.96,1.04-1.57
						c0.26-0.61,0.35-1.22,0.35-1.91c0-0.7-0.17-1.39-0.35-2c-0.26-0.61-0.61-1.13-1.04-1.57c-0.44-0.44-0.96-0.78-1.57-1.04
						c-0.61-0.26-1.31-0.44-2-0.44c-1.39,0-2.61,0.52-3.48,1.48c-0.96,0.96-1.39,2.18-1.39,3.57c0,1.39,0.52,2.61,1.39,3.57
						C461.09,443.16,462.3,443.6,463.7,443.6z"/>
					<path class="st147" d="M512.96,502.61c-1.39,0-2.61,0.52-3.57,1.48c-0.96,0.96-1.39,2.18-1.39,3.57c0,1.48,0.52,2.61,1.39,3.57
						c0.96,0.96,2.18,1.39,3.57,1.39c1.48,0,2.61-0.52,3.57-1.39c0.96-0.96,1.48-2.18,1.48-3.57s-0.52-2.61-1.48-3.57
						S514.44,502.61,512.96,502.61z"/>
					<path class="st147" d="M527.06,502.61c-1.39,0-2.61,0.52-3.57,1.48c-0.96,0.96-1.48,2.18-1.48,3.57c0,1.48,0.52,2.61,1.48,3.57
						c0.96,0.96,2.18,1.39,3.57,1.39s2.61-0.52,3.57-1.39c0.96-0.96,1.39-2.18,1.39-3.57s-0.52-2.61-1.39-3.57
						C529.68,503.13,528.46,502.61,527.06,502.61z"/>
					<path class="st147" d="M563.01,443.6c1.39,0,2.61-0.52,3.57-1.48s1.39-2.18,1.39-3.57c0-0.7-0.09-1.39-0.35-2
						c-0.26-0.61-0.61-1.13-1.04-1.57c-0.44-0.44-0.96-0.78-1.57-1.13c-0.61-0.26-1.22-0.35-2-0.35c-0.7,0-1.39,0.17-2,0.35
						c-0.61,0.26-1.13,0.61-1.57,1.13c-0.44,0.44-0.78,0.96-1.04,1.57c-0.26,0.61-0.44,1.31-0.44,2c0,1.39,0.52,2.61,1.48,3.57
						C560.4,443.16,561.62,443.6,563.01,443.6z"/>
					<path class="st147" d="M598.7,502.61c-1.39,0-2.61,0.52-3.57,1.48c-0.96,0.96-1.39,2.18-1.39,3.57c0,1.48,0.44,2.61,1.39,3.57
						c0.96,0.96,2.18,1.39,3.57,1.39c1.39,0,2.61-0.52,3.57-1.39c0.96-0.96,1.48-2.18,1.48-3.57s-0.52-2.61-1.48-3.57
						S600.18,502.61,598.7,502.61z"/>
					<path class="st147" d="M547.69,489.47v-30.55h-9.14v26.46h-37.43c0.09-0.52,0.09-1.13,0.09-1.83c0-0.7,0-1.31,0-2
						c0-0.7,0-1.39,0.09-2c0-0.7,0-1.22,0-1.83c0-0.35,0-1.04,0-2c0-0.96-0.09-2.09-0.09-3.39c-0.09-1.31-0.09-2.7-0.17-4.09
						c0-1.48-0.09-2.87-0.09-4.09c-0.09-1.22-0.09-2.35-0.09-3.31c0-0.96,0-1.57,0-1.83h-9.14c0,1.13,0,2.26,0.09,3.57
						c0,1.22,0.09,2.52,0.17,3.74c0.09,1.74,0.17,3.57,0.17,5.4c0,1.83,0,3.74,0,5.57c0,2.61-0.09,5.31-0.17,7.92
						c-0.17,2.61-0.44,5.22-0.96,7.66c-0.52,2.44-1.13,4.79-2,6.96c-0.87,2.18-2,4.09-3.48,5.74c-0.17,0.26-0.44,0.44-0.61,0.7
						l6.53,6.53l0.09-0.09c2.18-2.35,4-5.05,5.31-8.1c1.39-3.05,2.44-6.44,3.22-9.92h43.17c0.7,0,1.31-0.17,1.83-0.35
						c0.52-0.26,1.04-0.52,1.48-0.96c0.44-0.44,0.78-0.87,0.96-1.48c0.26-0.52,0.35-1.13,0.35-1.83
						C547.69,489.73,547.69,489.64,547.69,489.47z"/>
				</g>
				<path class="st147" d="M657.63,489.47v-56.4h-9.14v52.23h-14.8h-0.52h-7.92l0,0c-0.17-4.27-0.87-6.35-1.91-9.4
					c-1.13-3.13-2.61-5.83-4.44-7.92c-1.83-2.09-3.92-3.74-6.27-4.87c-2.35-1.22-4.79-2.09-7.4-2.7c-2.61-0.61-5.22-0.96-7.83-1.13
					c-2.7-0.17-5.22-0.26-7.66-0.35c-1.04,0-1.91-0.09-2.61-0.09c-0.7,0-1.48-0.09-2.44-0.09v7.92c0.44,0,0.26,0.09,0.78,0
					c0.52,0,1.13,0,1.65,0c1.83,0,3.74,0.09,5.83,0.09c2.09,0.09,4.18,0.35,6.27,0.78c2.09,0.44,4.09,1.04,6.01,1.91
					c1.91,0.87,3.66,2.09,5.22,3.57c1.57,1.57,2.79,3.48,3.83,5.83c0.96,2.26,1.57,3.48,1.74,6.44h-47.44
					c0-0.52,0.09-1.13,0.09-1.83s0-1.31,0-2s0-1.39,0.09-2c0-0.7,0-1.22,0-1.83c0-0.35,0-1.04,0-2c0-0.96-0.09-2.09-0.09-3.39
					c-0.09-1.31-0.09-2.7-0.17-4.09c0-1.48-0.09-2.87-0.09-4.09c-0.09-1.22-0.09-2.35-0.09-3.31c0-0.96,0-1.57,0-1.83h-9.14
					c0,1.13,0,2.26,0.09,3.57c0,1.22,0.09,2.52,0.17,3.74c0.09,1.74,0.09,3.57,0.17,5.4c0,1.83,0.09,3.74,0.09,5.57
					c0,2.61-0.09,5.31-0.17,7.92c-0.17,2.61-0.44,5.22-0.96,7.66c-0.44,2.44-1.13,4.79-2,6.96c-0.87,2.18-2,4.09-3.48,5.74
					c-0.17,0.26-0.44,0.44-0.7,0.7l6.53,6.53l0.09-0.09c2.18-2.35,4-5.05,5.31-8.1c1.39-3.05,2.44-6.44,3.13-9.92h85.82
					c1.31,0,2.35-0.44,3.22-1.31c0.87-0.87,1.39-2,1.39-3.22C657.72,489.73,657.72,489.64,657.63,489.47z"/>
			</g>
		</g>
	</g>
</g>
</svg>
