<?xml version="1.0" encoding="utf-8"?>
<!-- Generator: Adobe Illustrator 27.6.1, SVG Export Plug-In . SVG Version: 6.00 Build 0)  -->
<svg version="1.1" id="Layer_1" xmlns="http://www.w3.org/2000/svg" xmlns:xlink="http://www.w3.org/1999/xlink" x="0px" y="0px"
	 viewBox="0 0 1000 1000" style="enable-background:new 0 0 1000 1000;" xml:space="preserve">
<style type="text/css">
	.st0{fill:#EEF2F8;}
	.st1{fill:#49A17B;}
	.st2{fill:#7631CD;}
	.st3{clip-path:url(#SVGID_00000032625425473561817920000014572609291884652216_);}
	.st4{fill:#404041;}
	.st5{clip-path:url(#SVGID_00000145035872506467728770000016735991581810835083_);}
	.st6{clip-path:url(#SVGID_00000139286724588509040230000018060248479183953830_);}
	.st7{fill:#7163EB;}
	.st8{fill:url(#SVGID_00000003793200063244043460000005974212010478217129_);}
	.st9{fill:url(#SVGID_00000016056800151823286820000010194842502079986569_);}
	.st10{fill:url(#SVGID_00000168091438393091977340000017482055036872905858_);}
	.st11{fill:url(#SVGID_00000122714925382294062580000013554933217459380399_);}
	.st12{fill:url(#SVGID_00000147215971968525522550000014383340609898813338_);}
	.st13{fill:url(#SVGID_00000041278632456650392250000012963737092161627059_);}
	.st14{fill:url(#SVGID_00000081629970057667583200000010130559434209128364_);}
	.st15{fill:url(#SVGID_00000178915664869674644310000000402688134988456836_);}
	.st16{fill:url(#SVGID_00000069399561492724893900000013234813173377942149_);}
	.st17{fill:url(#SVGID_00000034086249721326435120000002909137504836848319_);}
	.st18{fill:url(#SVGID_00000096050755125791540480000014321347899801143714_);}
	.st19{fill:url(#SVGID_00000176756530989160146670000009010817507779220142_);}
	.st20{fill:url(#SVGID_00000087371800142014086310000013187528438836760232_);}
	.st21{fill:url(#SVGID_00000013877901223118235890000016048844727598488743_);}
	.st22{fill:url(#SVGID_00000052807789519603209630000010367400928332124811_);}
	.st23{fill:url(#SVGID_00000047782467973605011590000005470555534688400290_);}
	.st24{fill:url(#SVGID_00000047767878531476851230000015293387080848273305_);}
	.st25{fill:url(#SVGID_00000115507314925168198820000007152544042038206390_);}
	.st26{fill:url(#SVGID_00000041272642867172626060000012400143579638913429_);}
	.st27{fill:url(#SVGID_00000147925919708064889730000016506720594439549334_);}
	.st28{fill:url(#SVGID_00000137823559537758968390000008995464363821170080_);}
	.st29{fill:url(#SVGID_00000178178802752923534090000002383246127838548120_);}
	.st30{fill:url(#SVGID_00000032639981602220879430000017505301269781612714_);}
	.st31{fill:url(#SVGID_00000036959534701107034820000011978982044078522242_);}
	.st32{fill:url(#SVGID_00000141426013499183252130000012897871685231098514_);}
	.st33{fill:url(#SVGID_00000171717425964034385060000012259868115203913111_);}
	.st34{fill:url(#SVGID_00000112599536223586702550000012531520007819685513_);}
	.st35{fill:url(#SVGID_00000104670288711826636250000010382793479756581777_);}
	.st36{fill:url(#SVGID_00000111171520710935564480000000042983331882427032_);}
	.st37{fill:url(#SVGID_00000065769313466291615460000018028190348278070197_);}
	.st38{fill:url(#SVGID_00000043427483718154525880000010410270578831784855_);}
	.st39{fill:url(#SVGID_00000080921969273472364240000004737805837770002359_);}
	.st40{fill:#3F4144;}
	.st41{fill:#2E3B89;}
	.st42{clip-path:url(#SVGID_00000007411473290249123630000011740911989622598328_);}
	.st43{clip-path:url(#SVGID_00000023282765980173349180000018274654844102580887_);}
	.st44{clip-path:url(#SVGID_00000108302032147282697750000006437136767070953386_);}
	.st45{fill:#F3B840;}
	.st46{fill:#E04430;}
	.st47{fill:#CA5C6C;}
	.st48{fill:#DD9033;}
	.st49{fill:#CD412D;}
	.st50{fill:#D47935;}
	.st51{fill:#D5709F;}
	.st52{fill:#E9BD8D;}
	.st53{fill:#E19F4B;}
	.st54{fill:#EABF4B;}
	.st55{fill:#CA582D;}
	.st56{fill:#DA8F38;}
	.st57{fill:#C04624;}
	.st58{fill:#C85E26;}
	.st59{fill:#B1341B;}
	.st60{fill:#B24C1F;}
	.st61{fill:#9E2B17;}
	.st62{opacity:0.52;fill:#5EC9E8;enable-background:new    ;}
	.st63{opacity:0.49;fill:#8462DA;enable-background:new    ;}
	.st64{opacity:0.52;fill:#2D63E5;enable-background:new    ;}
	.st65{fill-rule:evenodd;clip-rule:evenodd;fill:#439579;}
	.st66{fill:#3273C2;}
	.st67{fill:#575756;}
	.st68{fill:#1D2C66;}
	.st69{fill:#BCC0DA;}
	.st70{fill:#464B6F;}
	.st71{display:none;fill:#FFFFFF;}
	.st72{fill:#303030;}
	.st73{fill:#B73533;}
	.st74{fill:#04B15C;}
	.st75{fill:url(#SVGID_00000150805047113652442790000003199685870625179788_);}
	.st76{fill:url(#SVGID_00000098933875351977816510000013941594839513709748_);}
	.st77{fill:url(#SVGID_00000157284616483338900880000003658480988682715280_);}
	.st78{fill:url(#SVGID_00000107554630838605830290000007850756655532930961_);}
	.st79{fill:#D33B30;}
	.st80{fill:url(#SVGID_00000040563026515360750830000012128905533748239016_);}
	.st81{fill:url(#SVGID_00000032624204336532571990000007437620340625299586_);}
	.st82{fill:url(#SVGID_00000094615304599048076880000001742965207062138536_);}
	.st83{fill:url(#SVGID_00000113338103739762045400000002136638117312996784_);}
	.st84{fill-rule:evenodd;clip-rule:evenodd;fill:#469BC7;}
	.st85{fill:#222943;}
	.st86{fill-rule:evenodd;clip-rule:evenodd;fill:#1E4B91;}
	.st87{fill-rule:evenodd;clip-rule:evenodd;fill:#F0A140;}
	.st88{fill:#72D24C;}
	.st89{fill-rule:evenodd;clip-rule:evenodd;}
	.st90{display:none;fill:#FBFAFA;}
	.st91{fill:#242323;}
	.st92{fill:#BA3630;}
	.st93{opacity:0.35;fill:#53A0B1;enable-background:new    ;}
	.st94{fill:#20465E;}
	.st95{fill:url(#SVGID_00000134244382957821580440000014469823642276559775_);}
	.st96{fill:#367A8D;}
	.st97{fill:url(#SVGID_00000109721375562296857280000018293275410084436385_);}
	.st98{fill:url(#SVGID_00000154388691555856019760000010846518816421834671_);}
	.st99{opacity:0.88;fill:url(#SVGID_00000150788977938785916000000000158561879003026049_);enable-background:new    ;}
	.st100{fill:url(#SVGID_00000109028101771252878290000002082847542065531559_);}
	.st101{fill:#143661;}
	.st102{fill:#56BC8E;}
	.st103{fill:#2B2B37;}
	.st104{fill:#334C71;}
	.st105{fill:#3777E6;}
	.st106{fill:#A8EDE6;}
	.st107{fill:#EBC18E;}
	.st108{fill:#2A2F44;}
	.st109{fill:#1B4625;}
	.st110{fill:#98C355;}
	.st111{fill:#60B258;}
	.st112{fill:#41914D;}
	.st113{fill:#2B663D;}
	.st114{fill:#CCDA70;}
	.st115{fill:#34516A;}
	.st116{fill:url(#Path_164488_00000008122233201827953330000011888109316442548123_);}
	.st117{fill:#FFFFFF;}
	.st118{fill:#58595B;}
	.st119{fill:#55AC9B;}
	.st120{fill:#464442;}
	.st121{fill:#B7A891;}
	.st122{fill:#265674;}
	.st123{fill:#759ECF;}
	.st124{fill:#C9CACB;}
	.st125{fill:#F2F2F2;}
	.st126{fill:#2B3777;}
	.st127{fill:#27599E;}
	.st128{fill:#25589C;}
	.st129{fill:#2B63A5;}
	.st130{fill-rule:evenodd;clip-rule:evenodd;fill:#B9B9B9;}
	.st131{fill:#B9B9B9;}
	.st132{fill:#7185B5;}
	.st133{fill:#1C4882;}
	.st134{fill:#0F2C5A;}
	.st135{fill:#091C46;}
	.st136{fill:#54565A;}
	.st137{fill:#306541;}
	.st138{fill-rule:evenodd;clip-rule:evenodd;fill:#CAAD5D;}
	.st139{fill-rule:evenodd;clip-rule:evenodd;fill:#0D0D0D;}
	.st140{fill:#181818;stroke:#181818;stroke-width:0.3631;stroke-miterlimit:10;}
	.st141{fill:#305E3C;}
	.st142{fill:#181818;stroke:#181818;stroke-width:0.3631;stroke-miterlimit:9.9999;}
	.st143{fill:#181818;}
	.st144{fill:#141414;}
	.st145{fill:#1F4169;}
	.st146{fill:#49A2D9;}
	.st147{fill:#59585A;}
	.st148{fill:#030F97;}
	.st149{fill:#56A9DC;}
	.st150{fill:#4AA3DB;}
	.st151{fill:#545352;}
	.st152{fill:#412C6F;}
	.st153{fill:#BF2F7C;}
	.st154{fill:#215280;}
	.st155{fill:#7D7D7D;}
	.st156{fill:#456790;}
	.st157{fill:url(#C_00000095330543098470807300000015172563406316167077_);}
	.st158{fill:#C6C7C8;}
	.st159{fill:url(#SVGID_00000126294911591450751580000010869922341174175113_);}
	.st160{fill:#285E96;}
	.st161{fill:#61993F;}
	.st162{fill:#23568C;}
	.st163{fill:#4FA4DA;}
	.st164{fill:#6F80B0;}
	.st165{fill:#265896;}
	.st166{fill:#3B81B6;}
	.st167{fill:#275A6B;}
	.st168{fill:#595A5C;}
	.st169{fill:#D7393A;}
	.st170{fill:#8AC9D5;}
	.st171{fill:#D63939;}
	.st172{fill:#D63838;}
	.st173{fill:#3172B5;}
	.st174{fill:#3475B7;}
	.st175{fill:#3374B7;}
	.st176{fill:#7B7C7F;}
	.st177{fill:#7A7B7E;}
	.st178{fill:#3373B6;}
	.st179{fill:#7B7B7E;}
	.st180{fill:#7C7C7F;}
	.st181{fill:#7E7F81;}
	.st182{fill:#797A7D;}
	.st183{fill:#7D7D80;}
	.st184{fill:#7C7D80;}
	.st185{fill:#7C7B7E;}
	.st186{fill:#808184;}
	.st187{fill:#214167;}
	.st188{fill-rule:evenodd;clip-rule:evenodd;fill:#C8AC47;}
	.st189{fill:none;stroke:#C8AC47;stroke-width:9.5261;}
	.st190{fill:none;stroke:#E6BA5D;stroke-width:9.5261;stroke-miterlimit:10;}
	.st191{fill-rule:evenodd;clip-rule:evenodd;fill:#304567;}
	.st192{fill:#CFCECC;}
	.st193{clip-path:url(#SVGID_00000096023348444577196380000015714152775085200558_);}
	.st194{fill:#265B65;}
	.st195{fill:#767A52;}
	.st196{fill:#808082;}
	.st197{fill-rule:evenodd;clip-rule:evenodd;fill:url(#SVGID_00000084519940214556831520000009829466474747936691_);}
	.st198{fill-rule:evenodd;clip-rule:evenodd;fill:url(#SVGID_00000003081631663185495330000007359690724245176449_);}
	.st199{fill:#3A5CA5;}
	.st200{fill:#2F3A89;}
	.st201{fill:#6D6E71;}
	.st202{fill:#41918E;}
	.st203{fill:#445DA5;}
	.st204{clip-path:url(#SVGID_00000116195321928341690130000016580284797257732511_);}
	.st205{fill:#4A6EAF;}
	.st206{fill:#381D13;}
	.st207{clip-path:url(#SVGID_00000083778298602335945890000017647918886900216987_);}
	.st208{clip-path:url(#SVGID_00000010298195351600029020000014128695567172922287_);}
	.st209{clip-path:url(#SVGID_00000141445101419467369250000003357695916493070242_);}
	.st210{clip-path:url(#SVGID_00000145038949519900803030000000733299066740513697_);}
	.st211{clip-path:url(#SVGID_00000158724085345060982850000009171055885899163529_);}
	.st212{clip-path:url(#SVGID_00000176765221951196172870000016355564076189779329_);}
	.st213{clip-path:url(#SVGID_00000116926994918398417410000015834840072940777897_);}
	.st214{clip-path:url(#SVGID_00000091002400837190569480000008424733576407451829_);}
	.st215{clip-path:url(#SVGID_00000061454015257179704330000011833197778725494942_);}
	.st216{clip-path:url(#SVGID_00000177459576162323201730000018240859631230203017_);}
	.st217{clip-path:url(#SVGID_00000170255846800820123310000017928138275379550892_);}
	.st218{fill:#A2A8AC;}
	.st219{fill:#41834F;}
	.st220{fill:#265BB2;}
	.st221{fill:#293B90;}
	.st222{fill:#C99378;}
	.st223{fill:none;}
	.st224{enable-background:new    ;}
	.st225{fill:#203D35;}
	.st226{fill:#817771;}
	.st227{fill:#265C80;}
	.st228{fill:#2C2926;}
	.st229{fill:#59BCF8;}
	.st230{fill-rule:evenodd;clip-rule:evenodd;fill:#0101C2;}
	.st231{fill-rule:evenodd;clip-rule:evenodd;fill:#0202C6;}
	.st232{fill:#3A42F4;}
	.st233{fill-rule:evenodd;clip-rule:evenodd;fill:#050386;}
	.st234{fill:#3038F4;}
	.st235{clip-path:url(#SVGID_00000150077449644871885320000010879036160523840672_);}
	.st236{fill:#ED7D30;}
	.st237{fill:#479EE6;}
	.st238{fill:url(#Path_6_00000093894256356081060170000002048936779648544650_);}
	.st239{fill:#CC2C79;}
	.st240{fill:#1A1818;}
	.st241{fill-rule:evenodd;clip-rule:evenodd;fill:#FFFFFF;}
	.st242{fill-rule:evenodd;clip-rule:evenodd;fill:#469B88;}
	.st243{fill-rule:evenodd;clip-rule:evenodd;fill:#2C2E6A;}
	.st244{fill:#469B88;}
	.st245{fill:#1E1C44;}
	.st246{fill:#DA6D2A;}
	.st247{clip-path:url(#SVGID_00000112634726527487519760000014544455876673528756_);}
	.st248{fill:#273669;}
	.st249{fill:#567DF6;}
	.st250{fill:#70D3FA;}
	.st251{fill:#88FAC1;}
	.st252{fill:#070E51;}
	.st253{opacity:0.5;}
	.st254{fill:url(#SVGID_00000168077316101804637110000006198612449871122620_);}
	.st255{fill:url(#SVGID_00000067936342557558744210000018261572435415304102_);}
	.st256{fill:url(#SVGID_00000036244819346543315120000010097872764687765147_);}
	.st257{fill:#05039B;}
	.st258{fill:#406DAF;}
	.st259{fill:#808086;}
	.st260{fill:#84C6C9;}
	.st261{fill:#86398D;}
	.st262{fill:#8E599C;}
	.st263{fill:#E7963E;}
	.st264{fill:#70C3ED;}
	.st265{fill:#4B2A50;}
	.st266{fill:#333333;}
	.st267{fill:#75FAAA;}
	.st268{fill:url(#SVGID_00000018938750241156009660000004370399788289317522_);}
	.st269{fill:#160141;}
	.st270{fill:url(#SVGID_00000036216366023761037570000017752074520554435717_);}
	.st271{fill:url(#SVGID_00000027565398438696842270000015812009708950134461_);}
	.st272{fill:url(#SVGID_00000108306862280780805160000002839244805470326442_);}
	.st273{fill-rule:evenodd;clip-rule:evenodd;fill:url(#SVGID_00000123440250197789746410000014884912196077182114_);}
	.st274{fill-rule:evenodd;clip-rule:evenodd;fill:url(#SVGID_00000034774483015420574070000002196265814092079255_);}
	.st275{fill-rule:evenodd;clip-rule:evenodd;fill:url(#SVGID_00000181794164695908497890000017206375407296877755_);}
	.st276{fill-rule:evenodd;clip-rule:evenodd;fill:url(#SVGID_00000127758461190159010350000007084025260079136650_);}
	.st277{fill:#414042;}
</style>
<g>
	<path class="st148" d="M796.14,449.92h-6.02c-2-0.11-3.84-1.16-4.94-2.84l-8.82-15.55c-0.93-1.55-0.19-2.84,1.63-2.84h34.55
		c5.99,0.34,11.47,3.51,14.73,8.55l31.72,54.92c2.68,5.36,2.68,11.67,0,17.02l-31.72,54.88c-3.27,5.03-8.74,8.19-14.73,8.51h-67.16
		c-4.76-1.05-8.79-4.17-11-8.51l-3.46-5.99l-8.86-15.31l-3.26-5.67l-2.8-4.82c-0.89-1.55-0.19-2.84,1.63-2.84h17.68
		c2,0.11,3.84,1.16,4.94,2.84l2.8,4.82l3.26,5.67v0.35c2.21,4.34,6.24,7.47,11,8.51h42.75c5.99-0.32,11.46-3.48,14.73-8.51
		l19.43-33.89c2.68-5.36,2.68-11.67,0-17.02l-19.43-33.93c-3.28-5.01-8.75-8.17-14.73-8.51h-4.28L796.14,449.92z"/>
	<path class="st149" d="M775.77,443.82l8.86,15.35l3.26,5.67l2.8,4.82c0.89,1.55,0,2.84-1.63,2.84h-17.72
		c-1.99-0.12-3.81-1.17-4.9-2.84l-2.6-4.82l-3.26-5.67l-0.19-0.27c-2.72-4.66-8.12-8.98-11.47-8.98h-42.75
		c-5.99,0.35-11.47,3.5-14.77,8.51l-19.43,33.89c-2.72,5.35-2.72,11.68,0,17.02l19.43,33.93c3.3,5.01,8.78,8.17,14.77,8.51h4.74h5.6
		c1.99,0.12,3.81,1.17,4.9,2.84l8.9,15.31c0.89,1.55,0.19,2.84-1.63,2.84h-12.13h-17.68l-4.97,0.23c-6-0.35-11.48-3.52-14.77-8.55
		l-31.87-55.11c-2.72-5.35-2.72-11.68,0-17.02l31.68-54.88c3.29-5.02,8.77-8.18,14.77-8.51h67.16c4.76,1.05,8.79,4.17,11,8.51
		L775.77,443.82z"/>
	<path class="st150" d="M449.72,518.64v48.89h7.15v-19.12l13.41,19.71l7-2.6l-12.4-16.79l9.52-11.89l-6.41-3.23l-11.12,14.69v-29.66
		C456.87,518.64,449.72,518.64,449.72,518.64z"/>
	<path class="st148" d="M561.26,451.9h8.67v-7.54h-8.67V451.9z M576.27,451.9h8.86v-7.54h-8.67L576.27,451.9z M576.27,470.79
		c0,6.72-3.15,8.12-5.79,8.12h-23.63c1.15-3.23,1.15-6.76,0-9.99c0,0-3.46-11.93-6.14-21.07l0,0c-3.03-10.46-3.15-16.64,7-19.43
		l10.96-3.19l3.15,3.96l6.1-1.79l-2.92-4.12l-3.19-4.78l-14.42,4.2c-20.21,5.91-17.8,16.44-14.26,28.61l3.15,10.8l2.76,9.44
		c1,2.36,0.91,5.05-0.23,7.35h-17.72c-2.64,0-5.79-1.4-5.79-8.12v-44.58h-8.78v44.35c-0.11,3.42,0.95,6.78,2.99,9.52
		c2.19,2.91,5.69,4.54,9.33,4.35h53.79c3.64,0.19,7.14-1.44,9.33-4.35c2.04-2.75,3.1-6.1,2.99-9.52V457.5h-8.63L576.27,470.79z
		 M347.46,470.79c0,6.72-3.15,8.12-5.79,8.12h-3.03v-28.64h-8.59v34.47c0.42,3.49-0.08,7.02-1.44,10.26
		c-0.84,1.54-2.23,2.7-3.89,3.26v2.72c9.83-0.23,14.03-5.21,14.03-16.56h5.13c3.64,0.19,7.14-1.44,9.33-4.35
		c2.04-2.75,3.1-6.1,2.99-9.52v-44.35h-8.71L347.46,470.79z M364.4,484.43h8.59v-58.3h-8.55L364.4,484.43z M276.64,447.7
		c-5.05-0.06-10.05,1.03-14.61,3.19v14.65h8.63v-11c1.99-0.94,4.17-1.39,6.37-1.32c8.86,0,18.23,8.28,18.23,23.32
		c-0.03,0.73-0.13,1.46-0.27,2.18h-39.76v-2.02c0-17.18-11.66-29.19-28.22-29.19c-5.04-0.06-10.02,1.03-14.58,3.19v14.65h8.59v-10.8
		c2.04-0.96,4.28-1.41,6.53-1.32c8.82,0,18.19,8.28,18.19,23.32v2.18h-41.9v-34.36h-7.77c-21.07,0-21.69,10.77-21.69,23.32v11.27
		c0,6.22-2.22,7.42-5.6,7.42h-6.69c-4.35,0-11.43-0.7-11.43-16.21c0-13.14,5.79-18.93,17.26-18.81v-5.01
		c-8.82,0-14.42,1.67-19.43,6.65c-4.52,4.65-6.86,10.98-6.45,17.45c0,16.09,7.15,21.53,16.83,21.53H171
		c7.77,0,12.01-4.9,12.01-13.76v-11.66c0-10.88,1.59-16.83,12.2-16.83v34.59h108.59c0.58-2.7,0.92-5.44,1.01-8.2
		c-0.31-16.75-11.66-28.53-28.18-28.53 M151.41,503.75h8.67v-7.54h-8.67V503.75z M166.41,503.75h8.63v-7.54h-8.63V503.75z
		 M276.95,498.39h8.63v-7.54h-8.63V498.39z M313.06,484.43h8.67v-58.3h-8.67V484.43z M483.68,431.19h-8.55v7.54h8.59L483.68,431.19z
		 M484.42,449.84v16.87h-3.58c-4.77,0.62-9.14-2.74-9.76-7.51c-0.05-0.37-0.07-0.75-0.07-1.12c0-5.4,3.11-8.24,9.41-8.24H484.42z
		 M462.58,457.62c0,8.51,5.91,14.03,15.97,14.03h6.1v0.78c0,4.24-1.94,6.41-5.67,6.41h-36.92v-52.63h-8.51v52.86
		c0,6.22-2.18,7.42-5.56,7.42h-6.84c-4.31,0-11.39-0.7-11.39-16.21c0-13.14,5.75-18.93,17.26-18.81v-5.13
		c-8.86,0-14.42,1.67-19.43,6.65c-4.49,4.66-6.8,11-6.37,17.45c0,16.09,7.15,21.53,16.87,21.53h12.13
		c5.08,0.41,9.73-2.86,11.08-7.77h39.76c3.57,0.19,7-1.4,9.17-4.24c1.99-2.7,3.01-5.98,2.92-9.33v-26.27h-13.41
		c-11.66,0-17.1,4.39-17.1,13.33"/>
	<g>
		<path class="st150" d="M398.45,567.53h-7.97v-42.48h-16.32v-6.41h40.3v6.41h-16.01V567.53z M528.5,567.53H521v-28.14h-5.01v-6.22
			H521v-0.7c-0.38-3.87,0.86-7.72,3.42-10.65c2.41-2.17,5.58-3.32,8.82-3.19c1.36,0,5.75,0.54,5.75,0.54v6.06l-4.74-0.39
			c-1.48-0.05-2.94,0.35-4.2,1.13c-0.74,0.47-1.55,1.83-1.55,5.48v1.71h9.99v6.22h-10.07v28.14H528.5z M190.63,518.6h7.23v48.89
			h-7.23V518.6z M163.66,529.25l6.76,20.64h-14.15L163.66,529.25z M161.05,521.01l-17.92,46.64h6.69l4.66-13.02h17.49l4.2,13.02h8.4
			l-16.56-46.64H161.05z M345.75,534.65h7.23v32.88h-7.23V534.65z M345.75,522.8h7.23v6.34h-7.23V522.8z M292.73,522.8h7.23v6.34
			h-7.23V522.8z M307.97,518.6v48.93h7.27v-19.71c-0.58-4.45,2.56-8.52,7.01-9.1c0.34-0.04,0.69-0.07,1.04-0.07
			c4.55,0,7.23,3.03,7.23,8.55v20.33h7.27v-21.34c0-8.2-3.89-12.36-11-12.36c-4.04-0.05-7.91,1.65-10.61,4.66l-1.01,1.17V518.6
			H307.97z M572.73,567.53v-32.73h-7.03v19.71c0.58,4.45-2.56,8.52-7.01,9.1c-0.36,0.05-0.72,0.07-1.08,0.07
			c-4.55,0-7.23-3.03-7.23-8.55v-20.33h-7.23v21.34c0,8.2,3.69,12.36,10.96,12.36c4.05,0.08,7.93-1.63,10.61-4.66l1.01-1.13v4.82
			L572.73,567.53z M228.95,525.63h5.95c4.09-0.21,7.58,2.94,7.79,7.03c0.02,0.35,0.01,0.7-0.02,1.05c0.32,4.95-3.43,9.22-8.38,9.54
			c-0.16,0.01-0.32,0.02-0.49,0.02h-4.86V525.63z M221.68,521.01v46.64h7.27v-19.78h6.02l9.48,20.44l8.32-1.59l-10.61-20.21
			l0.51-0.31c4.74-2.73,7.56-7.87,7.31-13.33c0-7.42-5.17-11.66-13.88-11.66L221.68,521.01z M292.73,534.65v33.15
			c0.08,2.92-0.33,5.84-1.2,8.63c-0.67,1.36-1.89,2.36-3.34,2.76v2.29c8.28-0.19,11.66-4.39,11.66-13.95v-32.88H292.73z
			 M274.19,561.35c-1.13,1.39-2.8,2.24-4.59,2.33c-2.79-0.34-4.79-2.88-4.47-5.67c-0.07-4.06,2.75-7.6,6.72-8.43l4.78-1.63
			l0.78-0.27v0.82C278.11,553.03,276.95,557.67,274.19,561.35 M272.05,534.14c-4.28-0.12-8.44,1.38-11.66,4.2l2.1,3.23
			c2.29-2.24,5.35-3.51,8.55-3.54c3.2,0.07,5.82,2.56,6.06,5.75v0.54l-7.77,2.41c-7.77,2.37-11.66,6.14-11.66,11.66
			c-0.56,4.91,2.96,9.33,7.87,9.89c0.29,0.03,0.58,0.05,0.87,0.06c4.43-0.32,8.44-2.73,10.8-6.49v5.67h7.42V545.8
			c0-8.01-4.28-12.09-12.67-12.09"/>
		<path class="st150" d="M429.89,561.35c-1.12,1.41-2.79,2.26-4.59,2.33c-2.79-0.34-4.77-2.88-4.43-5.67
			c-0.07-4.06,2.75-7.6,6.72-8.43l4.78-1.63l0.78-0.27v0.82C433.85,553.04,432.67,557.68,429.89,561.35 M427.76,534.14
			c-4.27-0.11-8.43,1.39-11.66,4.2l2.14,3.23c2.26-2.23,5.3-3.49,8.47-3.54c3.2,0.07,5.82,2.56,6.06,5.75v0.54l-7.77,2.41
			c-7.77,2.37-11.66,6.14-11.66,11.66c-0.43,4.92,3.21,9.25,8.12,9.69c0.18,0.02,0.36,0.03,0.54,0.03
			c4.42-0.31,8.42-2.73,10.77-6.49v5.67h7.42V545.8c0-8.01-4.24-12.09-12.67-12.09 M499.08,561.35c-1.12,1.41-2.79,2.26-4.59,2.33
			c-2.79-0.34-4.79-2.88-4.47-5.67c-0.07-4.07,2.77-7.61,6.76-8.43l4.74-1.63l0.78-0.27v0.82
			C503,553.03,501.83,557.67,499.08,561.35 M496.94,534.14c-4.28-0.12-8.44,1.38-11.66,4.2l2.1,3.23c2.24-2.19,5.22-3.46,8.36-3.54
			c3.2,0.07,5.82,2.56,6.06,5.75v0.54l-7.77,2.41c-7.77,2.37-11.66,6.14-11.66,11.66c-0.45,4.89,3.15,9.23,8.04,9.68
			c0.21,0.02,0.41,0.03,0.62,0.04c4.42-0.33,8.42-2.74,10.77-6.49v5.67h7.42V545.8c0-8.01-4.28-12.09-12.67-12.09 M578.75,518.6
			h7.27v48.89h-7.27V518.6z"/>
	</g>
</g>
</svg>
