<?xml version="1.0" encoding="utf-8"?>
<!-- Generator: Adobe Illustrator 27.6.1, SVG Export Plug-In . SVG Version: 6.00 Build 0)  -->
<svg version="1.1" id="Layer_1" xmlns="http://www.w3.org/2000/svg" xmlns:xlink="http://www.w3.org/1999/xlink" x="0px" y="0px"
	 viewBox="0 0 1000 1000" style="enable-background:new 0 0 1000 1000;" xml:space="preserve">
<style type="text/css">
	.st0{fill:#EEF2F8;}
	.st1{fill:#49A17B;}
	.st2{fill:#7631CD;}
	.st3{clip-path:url(#SVGID_00000066506520864275594810000017283354024930488229_);}
	.st4{fill:#404041;}
	.st5{clip-path:url(#SVGID_00000036933954235885585620000012961520456330025648_);}
	.st6{clip-path:url(#SVGID_00000182501136992792078370000013493781730902782121_);}
	.st7{fill:#7163EB;}
	.st8{fill:url(#SVGID_00000091010684763077211500000007411702444008737691_);}
	.st9{fill:url(#SVGID_00000134235110515119016270000006287427915446666894_);}
	.st10{fill:url(#SVGID_00000160153916938458997220000002183809833028190132_);}
	.st11{fill:url(#SVGID_00000004506873953541568750000009879893186230826121_);}
	.st12{fill:url(#SVGID_00000078047009706098694010000015693320585038222507_);}
	.st13{fill:url(#SVGID_00000085946533602118010970000005141948545278394008_);}
	.st14{fill:url(#SVGID_00000030471709543706368400000011936463689237189520_);}
	.st15{fill:url(#SVGID_00000163771075668159771670000006179800927783550644_);}
	.st16{fill:url(#SVGID_00000150821890015689454950000008708995399416028069_);}
	.st17{fill:url(#SVGID_00000143607856348080269010000008285863663680465041_);}
	.st18{fill:url(#SVGID_00000112613266927214965620000004899386833818516127_);}
	.st19{fill:url(#SVGID_00000084502897525353325900000009025734966784542133_);}
	.st20{fill:url(#SVGID_00000157300857461255512070000016302083079536562832_);}
	.st21{fill:url(#SVGID_00000055701034108585562970000011486041080061627541_);}
	.st22{fill:url(#SVGID_00000079484609496211381390000018105713551209875082_);}
	.st23{fill:url(#SVGID_00000109747776325425694740000015323717055893844617_);}
	.st24{fill:url(#SVGID_00000044162973223327795840000002482959924545919672_);}
	.st25{fill:url(#SVGID_00000072963659420219432200000004254186076400782993_);}
	.st26{fill:url(#SVGID_00000144306909997703774050000001310420006701157554_);}
	.st27{fill:url(#SVGID_00000031904889290310625700000013792228159509024932_);}
	.st28{fill:url(#SVGID_00000005969497514983807210000010222772344009450679_);}
	.st29{fill:url(#SVGID_00000160149027683212096960000015449616103618027648_);}
	.st30{fill:url(#SVGID_00000142888527817626012130000004307754851156779141_);}
	.st31{fill:url(#SVGID_00000155842086506180206850000011134607992311655612_);}
	.st32{fill:url(#SVGID_00000122686837926087239550000006763423520901610422_);}
	.st33{fill:url(#SVGID_00000025440752565426227680000016236326502072991137_);}
	.st34{fill:url(#SVGID_00000091716131860883742250000005960492283341436591_);}
	.st35{fill:url(#SVGID_00000067214304512682603750000001863129622216300728_);}
	.st36{fill:url(#SVGID_00000036933319761088092040000014868141855223688834_);}
	.st37{fill:url(#SVGID_00000011722518240828758280000012512054953645948591_);}
	.st38{fill:url(#SVGID_00000126309073943949579710000003744837172256094870_);}
	.st39{fill:url(#SVGID_00000082339134176934991720000006566430660980069043_);}
	.st40{fill:#3F4144;}
	.st41{fill:#2E3B89;}
	.st42{clip-path:url(#SVGID_00000183247367395362770380000013975205741354172085_);}
	.st43{clip-path:url(#SVGID_00000048496011094956945940000006988426927927059360_);}
	.st44{clip-path:url(#SVGID_00000159438207130951576180000015507621079629203607_);}
	.st45{fill:#F3B840;}
	.st46{fill:#E04430;}
	.st47{fill:#CA5C6C;}
	.st48{fill:#DD9033;}
	.st49{fill:#CD412D;}
	.st50{fill:#D47935;}
	.st51{fill:#D5709F;}
	.st52{fill:#E9BD8D;}
	.st53{fill:#E19F4B;}
	.st54{fill:#EABF4B;}
	.st55{fill:#CA582D;}
	.st56{fill:#DA8F38;}
	.st57{fill:#C04624;}
	.st58{fill:#C85E26;}
	.st59{fill:#B1341B;}
	.st60{fill:#B24C1F;}
	.st61{fill:#9E2B17;}
	.st62{opacity:0.52;fill:#5EC9E8;enable-background:new    ;}
	.st63{opacity:0.49;fill:#8462DA;enable-background:new    ;}
	.st64{opacity:0.52;fill:#2D63E5;enable-background:new    ;}
	.st65{fill-rule:evenodd;clip-rule:evenodd;fill:#439579;}
	.st66{fill:#3273C2;}
	.st67{fill:#575756;}
	.st68{fill:#1D2C66;}
	.st69{fill:#BCC0DA;}
	.st70{fill:#464B6F;}
	.st71{display:none;fill:#FFFFFF;}
	.st72{fill:#303030;}
	.st73{fill:#B73533;}
	.st74{fill:#04B15C;}
	.st75{fill:url(#SVGID_00000015314376678377899310000016296746811922257849_);}
	.st76{fill:url(#SVGID_00000173139045933785935390000008360032976877944228_);}
	.st77{fill:url(#SVGID_00000040574036133283115760000008961562217156386690_);}
	.st78{fill:url(#SVGID_00000132810686792298532070000001482035364284129429_);}
	.st79{fill:#D33B30;}
	.st80{fill:url(#SVGID_00000120520917333610332070000004706448144704279974_);}
	.st81{fill:url(#SVGID_00000088832535179292653300000011808177582007993751_);}
	.st82{fill:url(#SVGID_00000134220949035996554200000006246950106027867306_);}
	.st83{fill:url(#SVGID_00000038376151935810186340000002164845835948666272_);}
	.st84{fill-rule:evenodd;clip-rule:evenodd;fill:#469BC7;}
	.st85{fill:#222943;}
	.st86{fill-rule:evenodd;clip-rule:evenodd;fill:#1E4B91;}
	.st87{fill-rule:evenodd;clip-rule:evenodd;fill:#F0A140;}
	.st88{fill:#72D24C;}
	.st89{fill-rule:evenodd;clip-rule:evenodd;}
	.st90{display:none;fill:#FBFAFA;}
	.st91{fill:#242323;}
	.st92{fill:#BA3630;}
	.st93{opacity:0.35;fill:#53A0B1;enable-background:new    ;}
	.st94{fill:#20465E;}
	.st95{fill:url(#SVGID_00000141421265925801581630000003199645966963071144_);}
	.st96{fill:#367A8D;}
	.st97{fill:url(#SVGID_00000006709820869213501140000005882903558408792731_);}
	.st98{fill:url(#SVGID_00000024691306336771497350000001382573170554778283_);}
	.st99{opacity:0.88;fill:url(#SVGID_00000105397732194642218190000011160351551689112999_);enable-background:new    ;}
	.st100{fill:url(#SVGID_00000161612068216181278200000012744253132409343915_);}
	.st101{fill:#143661;}
	.st102{fill:#56BC8E;}
	.st103{fill:#2B2B37;}
	.st104{fill:#334C71;}
	.st105{fill:#3777E6;}
	.st106{fill:#A8EDE6;}
	.st107{fill:#EBC18E;}
	.st108{fill:#2A2F44;}
	.st109{fill:#1B4625;}
	.st110{fill:#98C355;}
	.st111{fill:#60B258;}
	.st112{fill:#41914D;}
	.st113{fill:#2B663D;}
	.st114{fill:#CCDA70;}
	.st115{fill:#34516A;}
	.st116{fill:url(#Path_164488_00000133508975525757909860000014932239050545466761_);}
	.st117{fill:#FFFFFF;}
	.st118{fill:#58595B;}
	.st119{fill:#55AC9B;}
	.st120{fill:#464442;}
	.st121{fill:#B7A891;}
	.st122{fill:#265674;}
	.st123{fill:#759ECF;}
	.st124{fill:#C9CACB;}
	.st125{fill:#F2F2F2;}
	.st126{fill:#2B3777;}
	.st127{fill:#27599E;}
	.st128{fill:#25589C;}
	.st129{fill:#2B63A5;}
	.st130{fill-rule:evenodd;clip-rule:evenodd;fill:#B9B9B9;}
	.st131{fill:#B9B9B9;}
	.st132{fill:#7185B5;}
	.st133{fill:#1C4882;}
	.st134{fill:#0F2C5A;}
	.st135{fill:#091C46;}
	.st136{fill:#54565A;}
	.st137{fill:#306541;}
	.st138{fill-rule:evenodd;clip-rule:evenodd;fill:#CAAD5D;}
	.st139{fill-rule:evenodd;clip-rule:evenodd;fill:#0D0D0D;}
	.st140{fill:#181818;stroke:#181818;stroke-width:0.3631;stroke-miterlimit:10;}
	.st141{fill:#305E3C;}
	.st142{fill:#181818;stroke:#181818;stroke-width:0.3631;stroke-miterlimit:9.9999;}
	.st143{fill:#181818;}
	.st144{fill:#141414;}
	.st145{fill:#1F4169;}
	.st146{fill:#49A2D9;}
	.st147{fill:#59585A;}
	.st148{fill:#030F97;}
	.st149{fill:#56A9DC;}
	.st150{fill:#4AA3DB;}
	.st151{fill:#545352;}
	.st152{fill:#412C6F;}
	.st153{fill:#BF2F7C;}
	.st154{fill:#215280;}
	.st155{fill:#7D7D7D;}
	.st156{fill:#456790;}
	.st157{fill:url(#C_00000050659259900111802340000010414126359935678088_);}
	.st158{fill:#C6C7C8;}
	.st159{fill:url(#SVGID_00000000939769117753185860000003118058052017265800_);}
	.st160{fill:#285E96;}
	.st161{fill:#61993F;}
	.st162{fill:#23568C;}
	.st163{fill:#4FA4DA;}
	.st164{fill:#6F80B0;}
	.st165{fill:#265896;}
	.st166{fill:#3B81B6;}
	.st167{fill:#275A6B;}
	.st168{fill:#595A5C;}
	.st169{fill:#D7393A;}
	.st170{fill:#8AC9D5;}
	.st171{fill:#D63939;}
	.st172{fill:#D63838;}
	.st173{fill:#3172B5;}
	.st174{fill:#3475B7;}
	.st175{fill:#3374B7;}
	.st176{fill:#7B7C7F;}
	.st177{fill:#7A7B7E;}
	.st178{fill:#3373B6;}
	.st179{fill:#7B7B7E;}
	.st180{fill:#7C7C7F;}
	.st181{fill:#7E7F81;}
	.st182{fill:#797A7D;}
	.st183{fill:#7D7D80;}
	.st184{fill:#7C7D80;}
	.st185{fill:#7C7B7E;}
	.st186{fill:#808184;}
	.st187{fill:#214167;}
	.st188{fill-rule:evenodd;clip-rule:evenodd;fill:#C8AC47;}
	.st189{fill:none;stroke:#C8AC47;stroke-width:9.5261;}
	.st190{fill:none;stroke:#E6BA5D;stroke-width:9.5261;stroke-miterlimit:10;}
	.st191{fill-rule:evenodd;clip-rule:evenodd;fill:#304567;}
	.st192{fill:#CFCECC;}
	.st193{clip-path:url(#SVGID_00000177460747462674079750000005624375025460589501_);}
	.st194{fill:#265B65;}
	.st195{fill:#767A52;}
	.st196{fill:#808082;}
	.st197{fill-rule:evenodd;clip-rule:evenodd;fill:url(#SVGID_00000099648584165157522140000005710736003223734206_);}
	.st198{fill-rule:evenodd;clip-rule:evenodd;fill:url(#SVGID_00000075857739986752764560000016892721144329489541_);}
	.st199{fill:#3A5CA5;}
	.st200{fill:#2F3A89;}
	.st201{fill:#6D6E71;}
	.st202{fill:#41918E;}
	.st203{fill:#445DA5;}
	.st204{clip-path:url(#SVGID_00000026884331399333043100000015750741784361669000_);}
	.st205{fill:#4A6EAF;}
	.st206{fill:#381D13;}
	.st207{clip-path:url(#SVGID_00000031914198522825128300000004037588618325729719_);}
	.st208{clip-path:url(#SVGID_00000086662311724752621630000004517823119771855260_);}
	.st209{clip-path:url(#SVGID_00000124150272606832504940000001709904386963730348_);}
	.st210{clip-path:url(#SVGID_00000170279094300478003880000004473037589288488576_);}
	.st211{clip-path:url(#SVGID_00000082343311641673520380000014289326074492082571_);}
	.st212{clip-path:url(#SVGID_00000153666428892104363590000011360168969443581114_);}
	.st213{clip-path:url(#SVGID_00000147192935480671785480000015721670300852407447_);}
	.st214{clip-path:url(#SVGID_00000084527569291579962630000011462614633179624834_);}
	.st215{clip-path:url(#SVGID_00000023241879693913498520000018310031772627797652_);}
	.st216{clip-path:url(#SVGID_00000174591092703116024390000005520444775040874669_);}
	.st217{clip-path:url(#SVGID_00000156569172951246625930000005768227305236519556_);}
	.st218{fill:#A2A8AC;}
	.st219{fill:#41834F;}
	.st220{fill:#265BB2;}
	.st221{fill:#293B90;}
	.st222{fill:#C99378;}
	.st223{fill:none;}
	.st224{enable-background:new    ;}
	.st225{fill:#203D35;}
	.st226{fill:#817771;}
	.st227{fill:#265C80;}
	.st228{fill:#2C2926;}
	.st229{fill:#59BCF8;}
	.st230{fill-rule:evenodd;clip-rule:evenodd;fill:#0101C2;}
	.st231{fill-rule:evenodd;clip-rule:evenodd;fill:#0202C6;}
	.st232{fill:#3A42F4;}
	.st233{fill-rule:evenodd;clip-rule:evenodd;fill:#050386;}
	.st234{fill:#3038F4;}
	.st235{clip-path:url(#SVGID_00000044864556039087639720000003479983688169652386_);}
	.st236{fill:#ED7D30;}
	.st237{fill:#479EE6;}
	.st238{fill:url(#Path_6_00000147929102544270384480000011367622083998121351_);}
	.st239{fill:#CC2C79;}
	.st240{fill:#1A1818;}
	.st241{fill-rule:evenodd;clip-rule:evenodd;fill:#FFFFFF;}
	.st242{fill-rule:evenodd;clip-rule:evenodd;fill:#469B88;}
	.st243{fill-rule:evenodd;clip-rule:evenodd;fill:#2C2E6A;}
	.st244{fill:#469B88;}
	.st245{fill:#1E1C44;}
	.st246{fill:#DA6D2A;}
	.st247{clip-path:url(#SVGID_00000174584299992475210400000010926375942523721629_);}
	.st248{fill:#273669;}
	.st249{fill:#567DF6;}
	.st250{fill:#70D3FA;}
	.st251{fill:#88FAC1;}
	.st252{fill:#070E51;}
	.st253{opacity:0.5;}
	.st254{fill:url(#SVGID_00000009556725628656850920000012931059736688536485_);}
	.st255{fill:url(#SVGID_00000151545534134034759640000011922991207956442784_);}
	.st256{fill:url(#SVGID_00000134953703221102790140000017506617164288813708_);}
	.st257{fill:#05039B;}
	.st258{fill:#406DAF;}
	.st259{fill:#808086;}
	.st260{fill:#84C6C9;}
	.st261{fill:#86398D;}
	.st262{fill:#8E599C;}
	.st263{fill:#E7963E;}
	.st264{fill:#70C3ED;}
	.st265{fill:#4B2A50;}
	.st266{fill:#333333;}
	.st267{fill:#75FAAA;}
	.st268{fill:url(#SVGID_00000101081239981599433430000016460603985975922110_);}
	.st269{fill:#160141;}
	.st270{fill:url(#SVGID_00000063617332545616329670000012178575987323115186_);}
	.st271{fill:url(#SVGID_00000049938135488101397000000011520904915292529024_);}
	.st272{fill:url(#SVGID_00000131347827339209173670000009220531482029520547_);}
	.st273{fill-rule:evenodd;clip-rule:evenodd;fill:url(#SVGID_00000087379371420266659420000011245653705832995774_);}
	.st274{fill-rule:evenodd;clip-rule:evenodd;fill:url(#SVGID_00000134957904576337250540000009829110884464639922_);}
	.st275{fill-rule:evenodd;clip-rule:evenodd;fill:url(#SVGID_00000110440824262000313780000013004970341724182190_);}
	.st276{fill-rule:evenodd;clip-rule:evenodd;fill:url(#SVGID_00000057147909186341568700000018149931517888686986_);}
	.st277{fill:#414042;}
</style>
<g>
	<path class="st132" d="M549.71,471.03c0.01-13.65-7.98-26.04-20.42-31.66c2.01,4.5,3.06,9.37,3.06,14.3
		c0.01,6.09-1.59,12.08-4.64,17.36c3.05,5.28,4.65,11.26,4.64,17.36c0,4.93-1.05,9.8-3.06,14.3
		C541.73,497.07,549.71,484.68,549.71,471.03 M467.55,471.03c-5.59-9.69-6.17-21.47-1.55-31.66c-17.48,7.87-25.28,28.42-17.41,45.91
		c3.48,7.74,9.67,13.93,17.41,17.41C461.39,492.51,461.96,480.72,467.55,471.03 M497.63,501.11c-9.68,5.57-21.44,6.16-31.62,1.58
		c7.89,17.47,28.46,25.24,45.93,17.35c7.7-3.48,13.87-9.65,17.35-17.35C519.09,507.27,507.32,506.68,497.63,501.11 M497.63,440.96
		c9.69-5.57,21.46-6.16,31.66-1.58c-7.89-17.47-28.46-25.24-45.93-17.35c-7.7,3.48-13.87,9.65-17.35,17.35
		C476.19,434.8,487.95,435.39,497.63,440.96"/>
	<g>
		<path class="st133" d="M527.7,471.03c-3.64,6.29-9.16,11.29-15.77,14.3c-3.01,6.62-8.01,12.13-14.3,15.77
			c9.69,5.57,21.46,6.16,31.66,1.58c2.01-4.5,3.06-9.37,3.06-14.3C532.35,482.3,530.75,476.31,527.7,471.03"/>
		<path class="st133" d="M497.63,501.11c-6.28-3.64-11.27-9.16-14.26-15.77c-6.62-3.02-12.15-8.01-15.81-14.3
			c-5.62,9.71-6.19,21.53-1.55,31.73c10.18,4.58,21.95,3.99,31.62-1.58 M497.63,440.96c6.28,3.65,11.28,9.16,14.3,15.77
			c6.62,3.01,12.13,8.01,15.77,14.3c3.05-5.28,4.65-11.26,4.64-17.36c0-4.93-1.05-9.8-3.06-14.3
			C519.09,434.8,507.32,435.39,497.63,440.96"/>
		<path class="st133" d="M467.55,471.03c3.67-6.29,9.19-11.28,15.81-14.3c2.99-6.62,7.98-12.13,14.26-15.77
			c-9.68-5.57-21.44-6.16-31.62-1.58C461.39,449.56,461.96,461.35,467.55,471.03"/>
	</g>
	<g>
		<path class="st134" d="M483.37,485.33c2.98,6.62,7.97,12.14,14.26,15.77c6.29-3.64,11.29-9.16,14.3-15.77
			C502.84,489.41,492.45,489.41,483.37,485.33 M511.93,456.73c-3.02-6.61-8.02-12.12-14.3-15.77c-6.28,3.64-11.27,9.16-14.26,15.77
			C492.45,452.65,502.84,452.65,511.93,456.73"/>
		<path class="st134" d="M511.93,456.73c4.08,9.1,4.08,19.5,0,28.6c6.62-3.01,12.13-8.01,15.77-14.3
			C524.06,464.74,518.55,459.74,511.93,456.73 M483.37,456.73c-6.62,3.02-12.15,8.01-15.81,14.3c3.67,6.29,9.19,11.28,15.81,14.3
			C479.24,476.25,479.24,465.82,483.37,456.73"/>
	</g>
	<path class="st135" d="M511.93,456.73c-9.08-4.08-19.48-4.08-28.56,0c-4.13,9.09-4.13,19.51,0,28.6c9.08,4.08,19.48,4.08,28.56,0
		C516.01,476.24,516.01,465.83,511.93,456.73"/>
	<path class="st117" d="M526.63,488.39c-0.02-16-13-28.97-29.01-28.97c-2.04,0-3.69,1.65-3.69,3.69v46.81
		c-11.89-1.97-19.92-13.21-17.95-25.1c1.24-7.47,6.26-13.76,13.27-16.62c0.88-0.37,1.58-1.07,1.95-1.95
		c0.66-1.93-0.37-4.02-2.29-4.68c-0.77-0.26-1.61-0.26-2.39,0c-14.82,6.08-21.91,23.02-15.84,37.84
		c3.97,9.68,12.83,16.47,23.21,17.78v5.75c2.38,0.25,4.77,0.25,7.15,0v-5.75c14.53-1.79,25.45-14.14,25.43-28.78 M501.06,466.87
		c11.89,1.97,19.92,13.21,17.95,25.1c-1.53,9.21-8.74,16.42-17.95,17.95V466.87z"/>
	<g>
		<path class="st136" d="M194.01,572.28c-5.37,5.59-12.81,8.71-20.57,8.62c-7.65,0.13-15.01-2.91-20.34-8.4
			c-11.13-11.22-11.13-29.32,0-40.54c5.32-5.51,12.69-8.57,20.34-8.44c7.67-0.12,15.05,2.93,20.38,8.44
			c5.49,5.33,8.53,12.69,8.4,20.34v24.69c0.01,1.09-0.41,2.14-1.18,2.91c-0.77,0.78-1.82,1.2-2.91,1.18
			c-2.26,0.02-4.11-1.79-4.13-4.05c0-0.01,0-0.02,0-0.04V572.28z M173.45,531.73c-11.36,0-20.57,9.21-20.57,20.57
			c0,11.36,9.21,20.57,20.57,20.57c11.36,0,20.57-9.21,20.57-20.57C194.01,540.94,184.8,531.73,173.45,531.73L173.45,531.73
			 M218.7,576.81c0.22,2.27-1.45,4.28-3.72,4.5c-2.27,0.22-4.28-1.45-4.5-3.72c-0.02-0.26-0.02-0.52,0-0.78v-49.35
			c0.22-2.27,2.23-3.93,4.5-3.72c1.97,0.19,3.53,1.75,3.72,3.72v1.11c4-3.46,9.13-5.32,14.41-5.23c6.02-0.1,11.81,2.3,16,6.63
			c0.91,0.91,1.75,1.9,2.51,2.95c0.78-1.04,1.63-2.03,2.54-2.95c8.81-8.83,23.12-8.85,31.95-0.04c4.26,4.25,6.65,10.02,6.64,16.04
			v30.85c-0.22,2.27-2.23,3.93-4.5,3.72c-1.97-0.19-3.53-1.75-3.72-3.72v-30.85c-0.4-7.95-7.17-14.07-15.12-13.66
			c-7.39,0.37-13.29,6.28-13.66,13.66v30.85c0,2.26-1.83,4.09-4.09,4.09c-0.04,0-0.07,0-0.11,0c-1.08,0.02-2.12-0.41-2.87-1.18
			c-0.79-0.76-1.23-1.81-1.22-2.91v-30.85c0.03-3.77-1.47-7.39-4.16-10.02c-2.65-2.79-6.32-4.38-10.17-4.39
			c-7.94,0.02-14.37,6.47-14.37,14.41L218.7,576.81z M350.32,572.28c-11.12,11.36-29.35,11.55-40.71,0.42s-11.55-29.35-0.42-40.71
			c11.12-11.36,29.35-11.55,40.7-0.42c0.07,0.07,0.14,0.13,0.2,0.2c5.47,5.34,8.48,12.7,8.33,20.34v24.69
			c0,2.26-1.83,4.09-4.09,4.09c-0.01,0-0.02,0-0.04,0c-1.09,0.05-2.14-0.38-2.87-1.18c-0.79-0.76-1.23-1.81-1.22-2.91L350.32,572.28
			z M329.75,531.73c-11.36,0.1-20.48,9.39-20.39,20.74s9.39,20.48,20.74,20.39c11.36-0.1,20.48-9.39,20.39-20.74
			c-0.05-5.38-2.2-10.53-6-14.34C340.64,533.79,335.29,531.6,329.75,531.73 M366.75,527.46c0.02-2.27,1.86-4.11,4.13-4.13
			c1.1-0.01,2.15,0.43,2.91,1.22c0.77,0.77,1.19,1.82,1.18,2.91v3.32c10.68-10.22,27.61-9.85,37.83,0.83
			c4.76,4.98,7.42,11.6,7.43,18.48v26.72c0,2.26-1.83,4.09-4.09,4.09c-0.01,0-0.02,0-0.04,0c-1.09,0.05-2.14-0.38-2.87-1.18
			c-0.79-0.76-1.23-1.81-1.22-2.91v-26.72c0-10.23-8.29-18.52-18.52-18.52s-18.52,8.29-18.52,18.52v26.72
			c0.01,1.09-0.41,2.14-1.18,2.91c-0.77,0.78-1.82,1.2-2.91,1.18c-2.26,0.02-4.11-1.79-4.13-4.05c0-0.01,0-0.02,0-0.04
			L366.75,527.46z M477.8,572.28c-5.37,5.59-12.81,8.71-20.57,8.62c-15.9-0.02-28.77-12.92-28.75-28.82
			c0.02-15.9,12.92-28.77,28.82-28.75c15.88,0.02,28.75,12.9,28.75,28.78v24.69c0,2.28-1.84,4.13-4.12,4.13
			c-2.28,0-4.13-1.84-4.13-4.12c0,0,0-0.01,0-0.01V572.28z M457.23,531.73c-11.36,0.1-20.48,9.39-20.39,20.74
			s9.39,20.48,20.74,20.39s20.48-9.39,20.39-20.74c-0.05-5.38-2.2-10.53-6-14.34C468.13,533.78,462.78,531.59,457.23,531.73
			 M855.98,503.24c0,1.7-0.88,2.51-2.62,2.51h-12.75h-1.84c-1.13-0.24-1.89-1.29-1.77-2.43c0-1.58,1.14-2.4,3.35-2.51h0.26
			l-0.74-1.44c-0.29-0.8-0.44-1.65-0.44-2.51c-0.14-4.41,3.32-8.11,7.74-8.25c0.11,0,0.22,0,0.34,0h0.33
			c3.55-0.07,6.7,2.28,7.63,5.71c0,1.84-0.74,2.76-2.25,2.76c-0.64,0.01-1.27-0.19-1.77-0.59c-0.29-0.38-0.56-0.77-0.81-1.18
			l-0.66-1.03c-0.23-0.25-0.52-0.44-0.85-0.55c-0.49-0.2-1.02-0.28-1.55-0.26c-0.99-0.08-1.96,0.33-2.58,1.11
			c-0.56,0.74-0.86,1.65-0.85,2.58c-0.02,0.79,0.21,1.56,0.66,2.21c0.21,0.32,0.49,0.6,0.81,0.81c0.23,0.18,0.47,0.33,0.74,0.44h0.7
			h0.44h5.86c1.25-0.2,2.42,0.66,2.61,1.9c0.04,0.22,0.04,0.45,0,0.68 M572.19,566.71c-3.84-3.72-6.01-8.84-6.01-14.19v-0.41
			c-0.02-15.92-12.94-28.8-28.86-28.78s-28.8,12.94-28.78,28.86c0.02,15.92,12.94,28.8,28.86,28.78c10.07-0.01,19.4-5.28,24.62-13.9
			c1.23,1.98,2.69,3.81,4.35,5.45c5.37,5.56,12.83,8.62,20.57,8.44v-8.18c-5.54,0.15-10.89-2.03-14.74-6.01 M537.4,572.79
			c-11.38,0.02-20.62-9.19-20.64-20.57c-0.02-11.38,9.19-20.62,20.57-20.64c11.38-0.02,20.62,9.19,20.64,20.57c0,0.01,0,0.02,0,0.04
			c0.02,11.36-9.17,20.58-20.53,20.6C537.42,572.79,537.41,572.79,537.4,572.79 M756.47,572.79v8.26
			c7.67,0.12,15.05-2.93,20.38-8.44c1.65-1.65,3.11-3.48,4.35-5.45c8.25,13.64,25.99,18.01,39.63,9.76
			c13.64-8.25,18.01-25.99,9.76-39.63c-8.25-13.64-25.99-18.01-39.63-9.76c-8.63,5.22-13.91,14.57-13.92,24.66v0.41
			C776.85,563.82,767.69,572.81,756.47,572.79 M785.29,552.19c0-11.38,9.22-20.6,20.6-20.6c11.38,0,20.6,9.22,20.6,20.6
			c0,11.38-9.22,20.6-20.6,20.6c-0.02,0-0.05,0-0.07,0c-11.36,0.02-20.58-9.17-20.6-20.53c0-0.02,0-0.05,0-0.07"/>
		<path class="st136" d="M687.8,531.37c-0.76-0.79-1.82-1.22-2.91-1.22c-2.27,0.02-4.11,1.86-4.13,4.13v24.03
			c0.04,7.96-6.38,14.44-14.34,14.48c-0.02,0-0.05,0-0.07,0h-81.08v8.26h81.08c12.51-0.02,22.65-10.16,22.67-22.67v-24.1
			C689.04,533.18,688.6,532.12,687.8,531.37 M849.42,508.48c-0.78-0.76-1.82-1.19-2.91-1.18c-1.09-0.01-2.14,0.41-2.91,1.18
			c-0.79,0.76-1.22,1.82-1.22,2.91v65.46c0.02,2.27,1.86,4.11,4.13,4.13c1.1,0.01,2.15-0.43,2.91-1.22
			c0.78-0.76,1.21-1.82,1.18-2.91v-65.46C850.62,510.3,850.19,509.25,849.42,508.48 M757.87,572.79h-37.08
			c-7.92,0.04-14.37-6.34-14.41-14.26c0-0.05,0-0.1,0-0.15v-46.99c0.01-1.1-0.43-2.15-1.22-2.91c-1.63-1.56-4.2-1.56-5.82,0
			c-0.79,0.76-1.22,1.82-1.22,2.91v46.92c0,12.52,10.15,22.67,22.67,22.67h37.08L757.87,572.79z M689.02,520.75
			c0,3.16-2.56,5.71-5.71,5.71c-3.16,0-5.71-2.56-5.71-5.71c0-3.15,2.56-5.71,5.71-5.71c1.52,0,2.97,0.6,4.04,1.67
			C688.42,517.78,689.02,519.24,689.02,520.75 M552.69,515.04c0.02,3.15-2.52,5.73-5.68,5.75c-3.15,0.02-5.73-2.52-5.75-5.68
			c-0.02-3.15,2.52-5.73,5.68-5.75c0.01,0,0.02,0,0.04,0C550.12,509.36,552.67,511.9,552.69,515.04 M539.53,515.04
			c0.02,3.15-2.52,5.73-5.68,5.75c-3.15,0.02-5.73-2.52-5.75-5.68c-0.02-3.15,2.52-5.73,5.68-5.75c0.02,0,0.05,0,0.07,0
			C536.98,509.38,539.51,511.91,539.53,515.04"/>
	</g>
</g>
</svg>
