<?xml version="1.0" encoding="UTF-8"?><svg id="Layer_1" xmlns="http://www.w3.org/2000/svg" viewBox="0 0 1000 1000"><defs><style>.cls-1{fill:#236630;}.cls-2{fill:#7fca26;}.cls-3{fill:#45b338;}</style></defs><g id="Page-1"><g id="Arabian-Shield-Insurance"><path id="Path" class="cls-3" d="m602.58,491.49v27.71c.69,13.48-.63,26.99-3.91,40.09-2.75,10.76-6.99,21.09-12.59,30.68-4.88,8.3-10.9,15.87-17.89,22.49-6.09,5.77-12.8,10.86-19.99,15.19-5.96,3.61-12.3,6.55-18.9,8.79-4.74,1.65-9.63,2.81-14.6,3.48-3.79.41-6.15.11-7.09-.89-.93-1.01.26-2.44,3.6-4.29,7.65-4.2,14.76-9.3,21.19-15.2,5.96-5.55,11.02-11.99,14.99-19.09,4.16-7.56,7.22-15.68,9.09-24.1,2.19-9.98,3.23-20.17,3.11-30.38l.2-70.69h42.91l-.13,16.21Z"/><path id="Path-2" class="cls-2" d="m602.69,419.56v-130.46c.01-2.4-.46-4.77-1.39-6.98-.89-2.11-2.15-4.04-3.73-5.69-1.54-1.62-3.38-2.93-5.42-3.86-2.07-.92-4.32-1.39-6.59-1.39h-24.98c-5.64.29-11.3.16-16.92-.39-4.35-.44-8.66-1.19-12.89-2.25-3.43-.89-6.79-2.04-10.04-3.46-2.79-1.22-5.51-2.59-8.14-4.11-2.04,2.91-3.51,6.18-4.33,9.64-.92,3.73-1.13,7.6-.59,11.41.58,4.11,1.99,8.06,4.13,11.61,2.52,4.1,5.91,7.6,9.94,10.24,5.15,3.36,10.84,5.82,16.82,7.28,7.26,1.8,14.73,2.67,22.21,2.56v105.94l-50.9.1v24.99c-.08,4.76,1.85,9.33,5.31,12.6,3.41,3.41,8.06,5.28,12.89,5.18h74.63l.04-42.96h-.04Z"/><path id="Path-3" class="cls-1" d="m397.54,402.65v16.91h.2c.16,4.46,1.61,8.78,4.19,12.42.76,1.07,1.6,2.09,2.52,3.04,4.27,4.51,10.24,7.03,16.45,6.94-4.63-.08-9.16,1.31-12.96,3.96-1.25.88-2.43,1.88-3.5,2.97-3.68,3.68-6,8.49-6.58,13.66-.13,1.05-.19,2.1-.2,3.16v37.17-17.32,33.63c-.69,13.48.62,26.99,3.89,40.09,2.76,10.76,7.01,21.09,12.61,30.68,4.87,8.3,10.9,15.88,17.89,22.49,6.09,5.77,12.79,10.86,19.98,15.19,5.97,3.6,12.3,6.55,18.9,8.79,4.74,1.64,9.63,2.81,14.59,3.48,3.79.41,6.15.1,7.09-.89.93-.99-.26-2.44-3.59-4.29-7.65-4.2-14.77-9.3-21.19-15.2-5.96-5.55-11.01-11.99-14.99-19.09-4.16-7.56-7.23-15.67-9.11-24.1-2.17-9.98-3.21-20.17-3.09-30.38l-.19-83.46h31.68c4.82.1,9.48-1.78,12.89-5.19,3.45-3.28,5.37-7.85,5.3-12.61v-24.99l-50.86-.1v-105.92c7.48.1,14.95-.76,22.21-2.56,5.97-1.46,11.66-3.92,16.81-7.28,4.03-2.63,7.43-6.13,9.94-10.24,2.15-3.55,3.55-7.5,4.14-11.61.53-3.81.33-7.68-.6-11.41-.82-3.46-2.29-6.74-4.33-9.65-2.64,1.53-5.37,2.9-8.17,4.13-3.25,1.41-6.6,2.57-10.03,3.46-4.23,1.06-8.54,1.81-12.89,2.24-5.63.55-11.29.69-16.93.4h-24.96c-2.27,0-4.52.47-6.59,1.39-2.04.93-3.88,2.24-5.42,3.86-1.58,1.65-2.84,3.58-3.73,5.69-.93,2.21-1.41,4.58-1.39,6.98v113.53Z"/><polygon id="Path-4" class="cls-1" points="323.15 671.04 319.55 671.04 319.55 674.79 323.15 674.79 323.15 671.04"/><polygon id="Path-5" class="cls-1" points="353.73 699.64 357.33 699.64 357.33 695.9 353.73 695.9 353.73 699.64"/><polygon id="Path-6" class="cls-1" points="347.76 699.64 351.42 699.64 351.42 695.9 347.76 695.9 347.76 699.64"/><path id="Shape" class="cls-1" d="m378.02,688.07c-.77,1.01-1.97,1.58-3.24,1.55-1.29,0-2.52-.57-3.35-1.55-1.09-1.36-1.65-3.07-1.55-4.8-.11-1.72.38-3.42,1.39-4.81.78-1,1.98-1.57,3.24-1.55,1.29,0,2.51.57,3.35,1.55,1.08,1.36,1.63,3.07,1.55,4.81.11,1.71-.38,3.41-1.39,4.8m-3.7-13.88c-2.35-.05-4.6.94-6.16,2.7-1.56,1.76-2.26,4.11-1.93,6.44-.04,2.17.66,4.3,1.99,6.02h-10.11c-1.04-.04-2.01-.52-2.67-1.31-1-1.12-1.54-2.58-1.5-4.08-.05-3.06-.1-6.12-.1-9.23h-3.34c.15,8.26.15,11.99.05,11.22.02,1.1-.56,2.12-1.51,2.67-.75.48-1.63.74-2.52.73h-8.02c-1.05-.04-2.02-.54-2.67-1.36-.98-1.15-1.51-2.62-1.5-4.13l-.05-4.52h-3.3l.15,9.9c.08,2.73-.94,5.38-2.83,7.34-1.71,1.97-4.2,3.09-6.8,3.06-2.6.02-5.09-1.1-6.79-3.06-1.86-1.94-2.88-4.54-2.82-7.23,0-.29-.05-1.85-.1-4.63-.04-2.87-.04-4.66-.04-5.39h-3.34c0,.68.05,2.48.15,5.34.05,2.62.09,4.16.09,4.63-.07,3.61,1.29,7.11,3.79,9.72,2.31,2.59,5.61,4.05,9.08,4.03,3.45.05,6.75-1.4,9.04-3.98,2.48-2.57,3.86-6,3.84-9.57.78,1.78,2.53,2.93,4.47,2.96h8.64c2.62-.01,4.99-1.55,6.08-3.93.26.77.67,1.48,1.21,2.09.88,1.16,2.25,1.85,3.7,1.85h16.27c5.05,0,8.01-3.44,8.01-9.13.05-2.26-.71-4.46-2.14-6.21-1.51-1.9-3.83-2.98-6.27-2.92"/><path id="Path-7" class="cls-1" d="m394.04,656.53h-1.8c-1.37,0-2.04-.73-2.04-2.14,0-1.5.49-2.24,1.5-2.24.59.03,1.13.34,1.46.83l.73-1.07c-.52-.7-1.34-1.12-2.21-1.12-.88,0-1.72.37-2.33,1.02-.61.64-.92,1.5-.88,2.38,0,.84.29,1.66.83,2.31h-2.19l-.87,1.5h7.82l-.02-1.49Z"/><polygon id="Path-8" class="cls-1" points="412.54 667.06 408.9 667.06 408.9 670.8 412.54 670.8 412.54 667.06"/><polygon id="Path-9" class="cls-1" points="406.57 667.06 402.97 667.06 402.97 670.8 406.57 670.8 406.57 667.06"/><path id="Path-10" class="cls-1" d="m444.15,661.04h-3.35c0,2.28.05,6.48.1,12.53.05,5.24.1,9.42.1,12.49.07.9-.25,1.78-.89,2.42-.64.64-1.52.96-2.41.89h-6.75c-1.03-.06-2-.53-2.67-1.31-.94-.93-1.49-2.17-1.55-3.49-.15-9.18-.19-17.05-.24-23.6h-3.33c.15,9.91.25,18.26.25,25.01.01,1.08-.54,2.1-1.46,2.67-.76.47-1.63.72-2.52.73h-5.65c-1.04-.04-2.01-.52-2.67-1.31-1-1.12-1.54-2.58-1.5-4.08-.05-3.06-.1-6.12-.1-9.23h-3.35c.14,8.26.14,12,.05,11.22.02,1.07-.54,2.07-1.46,2.62-.76.48-1.63.73-2.53.73-.39,0-1.31,0-2.78.05h-4.63c-1.51-.24-2.28-1.26-2.28-3.05l-.15-25.26h-3.35l.14,25.69c-.08,1.61.52,3.18,1.66,4.32.91.92,2.16,1.42,3.45,1.39h8.83c2.62-.01,4.99-1.55,6.07-3.93.27.77.68,1.48,1.22,2.09.88,1.16,2.25,1.85,3.7,1.85h6.21c2.63,0,5.01-1.54,6.09-3.93.26.77.68,1.48,1.22,2.09.87,1.17,2.25,1.85,3.7,1.85h6.48c1.76.21,3.52-.37,4.79-1.59,1.28-1.22,1.94-2.95,1.81-4.72,0-3.11-.05-7.28-.1-12.53-.05-6.17-.1-10.34-.1-12.58"/><polygon id="Path-11" class="cls-1" points="472.7 710.44 476.3 710.44 476.3 706.65 472.7 706.65 472.7 710.44"/><polygon id="Path-12" class="cls-1" points="466.73 710.44 470.32 710.44 470.32 706.65 466.73 706.65 466.73 710.44"/><polygon id="Path-13" class="cls-1" points="501.15 699.59 504.75 699.59 504.75 695.86 501.15 695.86 501.15 699.59"/><path id="Path-14" class="cls-1" d="m507.47,674.73h-3.34c.09,7.36.14,11.11.15,11.33.07.89-.26,1.77-.89,2.41s-1.52.95-2.41.88h-7.68c-1.62-.14-2.91-1.43-3.06-3.05-.15-2.47-.69-4.89-1.6-7.19-1.26-3.09-4.34-5.03-7.67-4.85-6.17,0-9.25,4.08-9.25,12.23h9.03l.1,2.78c.06,2.72-.95,5.36-2.82,7.33-1.71,1.96-4.19,3.08-6.8,3.06-2.59.01-5.06-1.08-6.8-3.01-1.87-1.96-2.88-4.58-2.82-7.28-.05-2.96-.1-4.95-.1-5.97h-3.35c.1,2.78.14,4.71.19,5.92-.08,3.61,1.28,7.11,3.79,9.72,2.32,2.57,5.62,4.04,9.08,4.04s6.76-1.47,9.08-4.04c2.5-2.59,3.86-6.07,3.79-9.66l-.14-5.97h-8.72c-.04-1.57.54-3.08,1.61-4.23,1.04-1.14,2.53-1.76,4.08-1.7,2.11-.08,4.05,1.16,4.86,3.1.75,1.97,1.18,4.06,1.26,6.17.11,1.57.8,3.05,1.95,4.13.99.99,2.33,1.57,3.73,1.6h8.3c1.76.22,3.52-.37,4.8-1.59,1.28-1.22,1.94-2.96,1.81-4.72,0,.05-.05-3.74-.15-11.42"/><path id="Shape-2" class="cls-1" d="m556.71,686.35c-2.6-4.18-6.54-7.37-11.17-9.03,1.26-.72,2.6-1.3,3.98-1.75,1.87-.47,3.8-.7,5.73-.68,2.41-.04,4.8.46,6.99,1.46.82.53,1.65,1.07,2.53,1.6-2.05,3.35-4.8,6.22-8.06,8.4m22.62-25.3h-3.35c0,2.28.05,6.48.09,12.53.05,5.24.1,9.42.1,12.49.07.9-.25,1.78-.89,2.42-.64.64-1.52.96-2.42.89h-12.29c-.72-.03-1.41-.26-1.99-.68,4.25-2.92,7.72-6.84,10.1-11.42-1.12-1.23-2.48-2.24-3.98-2.96-2.97-1.6-6.29-2.44-9.67-2.43-4.47-.33-8.89,1.11-12.29,4.03v3.98c2.42.2,4.73,1.13,6.61,2.67,1.83,1.56,3.48,3.3,4.95,5.19-2.02,1.02-4.24,1.57-6.51,1.61h-22.8c-1.02-.06-1.98-.51-2.67-1.26-.96-.97-1.5-2.28-1.51-3.65l-.05-9.66h-3.35l.05,13.7c.09,2.99-.95,5.91-2.92,8.16-1.97,2.21-4.81,3.43-7.77,3.35.63,1.39,1.12,2.43,1.46,3.01,3.34-.19,6.47-1.67,8.74-4.13,2.35-2.59,3.71-5.93,3.84-9.43.8,1.79,2.56,2.96,4.52,3.01h22.53c2.94-.06,5.81-.86,8.36-2.31,1.22,1.48,3.04,2.33,4.95,2.31h11.75c1.76.21,3.52-.37,4.8-1.59,1.28-1.22,1.94-2.95,1.81-4.72,0-3.11-.05-7.28-.1-12.53-.05-6.17-.1-10.35-.1-12.58"/><polygon id="Path-15" class="cls-1" points="585.84 661.04 586.08 692.46 589.43 692.46 589.19 661.04 585.84 661.04"/><path id="Path-16" class="cls-1" d="m613.47,683.52h9.18v-3.1h-4.22c-1.22.03-2.41-.45-3.26-1.33s-1.29-2.08-1.21-3.3c-.05-2.86,1.21-4.32,3.79-4.32,1.19.11,2.33.58,3.24,1.36l1.8-1.89c-1.34-1.71-3.42-2.66-5.59-2.57-1.68.02-3.3.69-4.51,1.85-1.43,1.33-2.22,3.2-2.19,5.15-.07,1.89.59,3.74,1.85,5.15-5.32.4-9.37,4.93-9.17,10.26.2,5.33,4.57,9.55,9.9,9.56h6.8v-3.3h-6.4c-1.8.01-3.52-.71-4.77-2.01-1.27-1.26-1.99-2.97-1.99-4.76s.72-3.5,1.99-4.76c1.25-1.29,2.97-2.01,4.76-1.99"/><path id="Path-17" class="cls-1" d="m632.6,674.79l.05,13.69c.08,3.02-.99,5.96-3.01,8.21-1.94,2.18-4.75,3.39-7.67,3.3.63,1.41,1.12,2.43,1.46,3.02,3.56-.18,6.88-1.86,9.13-4.63,2.4-2.94,3.64-6.65,3.49-10.44l-.09-13.16h-3.35Z"/><path id="Path-18" class="cls-1" d="m681.98,661.04h-3.35c0,2.28.05,6.48.1,12.53.05,5.24.1,9.42.1,12.49.07.9-.25,1.78-.89,2.42-.64.64-1.52.96-2.42.89h-16.2c-.14-3.94-1.39-7.76-3.6-11.03-1.4-2.17-3.78-3.52-6.36-3.59v3.01c1.6,0,3.06,1.07,4.42,3.24,1.55,2.51,2.37,5.4,2.38,8.35h-13.28l-1.02,3.1h33.7c1.76.22,3.52-.37,4.8-1.59,1.28-1.22,1.94-2.95,1.81-4.72,0-3.11-.05-7.29-.1-12.54-.05-6.17-.1-10.34-.1-12.58"/><polygon id="Path-19" class="cls-1" points="691.83 661.04 688.49 661.04 688.73 692.46 692.08 692.46 691.83 661.04"/><path id="Shape-3" class="cls-3" d="m326.79,734.38l-4.98-13.19-5.15,13.19h10.14Zm-3.5-15.65l10.08,25.74h-2.62l-3.13-8.01h-11.72l-3.1,8.01h-2.6l10.35-25.74h2.74Z"/><path id="Path-20" class="cls-3" d="m337.38,725.87v4.36h.07c.5-1.42,1.44-2.64,2.68-3.5,1.29-.83,2.81-1.22,4.34-1.12v2.27c-.95-.06-1.91.08-2.81.41-.81.31-1.56.78-2.18,1.39-.62.61-1.11,1.34-1.43,2.14-.34.87-.52,1.79-.5,2.72v9.91h-2.27v-18.6h2.09Z"/><path id="Shape-4" class="cls-3" d="m358.47,734.31c-.18.3-.48.51-.83.57-.35.11-.71.19-1.08.25-.97.17-1.96.32-2.98.46-.94.12-1.87.31-2.78.59-.77.22-1.48.61-2.07,1.14-.56.55-.86,1.32-.81,2.11-.01.53.1,1.06.34,1.53.23.44.54.83.93,1.15.39.33.84.58,1.33.74.5.17,1.02.25,1.55.25.85,0,1.69-.13,2.49-.4.76-.25,1.46-.64,2.07-1.15.59-.51,1.06-1.14,1.39-1.85.36-.77.53-1.6.52-2.45v-2.96h-.08Zm-11.36-5.55c.36-.76.9-1.43,1.57-1.94.69-.52,1.48-.9,2.31-1.12.97-.25,1.96-.37,2.96-.36.82,0,1.64.08,2.45.23.79.14,1.53.44,2.2.88.67.46,1.22,1.09,1.59,1.82.44.95.65,2,.61,3.05v9.87c-.07.37.05.76.31,1.03s.64.41,1.02.36c.25,0,.49-.04.72-.14v1.92c-.26.05-.5.08-.7.11-.2.02-.46.04-.77.04-.47.02-.95-.06-1.39-.24-.33-.14-.61-.37-.81-.67-.2-.31-.33-.66-.38-1.03-.06-.44-.09-.87-.09-1.31h-.07c-.38.56-.79,1.1-1.24,1.6-.4.46-.87.85-1.39,1.17-.55.33-1.14.57-1.76.72-.77.18-1.57.27-2.36.25-.82,0-1.64-.1-2.43-.31-.72-.19-1.39-.52-1.98-.98-.57-.45-1.03-1.03-1.33-1.69-.35-.76-.51-1.6-.49-2.43-.06-1.08.24-2.16.87-3.04.6-.75,1.39-1.33,2.29-1.68,1.03-.41,2.11-.68,3.21-.81,1.19-.16,2.4-.31,3.62-.46.46-.05.9-.11,1.26-.18.33-.05.65-.19.93-.38.25-.19.44-.44.56-.74.15-.39.21-.81.2-1.23.03-.65-.1-1.3-.37-1.89-.24-.48-.6-.88-1.05-1.17-.47-.3-1-.5-1.55-.59-.62-.11-1.26-.17-1.89-.17-1.26-.06-2.5.31-3.53,1.03-.97.81-1.51,2.03-1.44,3.3h-2.27c.04-.97.27-1.93.68-2.81"/><path id="Shape-5" class="cls-3" d="m379.89,732.31c-.21-.9-.57-1.76-1.08-2.54-.49-.74-1.13-1.36-1.89-1.82-.84-.49-1.8-.74-2.78-.71-1.06-.03-2.11.21-3.05.71-.8.44-1.49,1.07-2.01,1.82-.53.77-.91,1.63-1.12,2.54-.46,1.88-.46,3.85,0,5.73.21.91.59,1.77,1.12,2.54.52.75,1.21,1.38,2.01,1.82.94.49,1.99.73,3.05.7.97.03,1.93-.21,2.78-.7.76-.46,1.4-1.08,1.89-1.82.51-.78.87-1.64,1.08-2.54.46-1.88.46-3.85,0-5.73m-12.28-13.57v10.64h.07c.23-.65.58-1.25,1.03-1.76.44-.51.96-.94,1.54-1.28.57-.35,1.2-.61,1.85-.77.66-.17,1.34-.25,2.02-.25,1.28-.03,2.55.24,3.7.79,1.02.51,1.91,1.24,2.61,2.15.71.94,1.24,2,1.55,3.13.67,2.47.67,5.07,0,7.53-.31,1.13-.84,2.2-1.55,3.13-.7.9-1.59,1.63-2.61,2.13-1.16.54-2.42.81-3.7.78-1.42.02-2.82-.34-4.06-1.05-1.17-.68-2.08-1.73-2.57-2.99h-.07v3.54h-2.07v-25.71h2.27Z"/><path id="Shape-6" class="cls-3" d="m388.35,744.48h-2.27v-18.6h2.27v18.6Zm0-22.1h-2.27v-3.64h2.27v3.64Z"/><path id="Shape-7" class="cls-3" d="m404.53,734.31c-.18.3-.48.51-.83.57-.35.11-.71.19-1.08.25-.96.17-1.95.32-2.98.46-.94.11-1.87.31-2.78.59-.77.22-1.48.61-2.07,1.14-.57.55-.86,1.32-.81,2.11,0,.53.11,1.06.34,1.53.23.44.54.84.93,1.15.39.33.84.58,1.33.74.5.17,1.02.25,1.55.25.84,0,1.68-.13,2.48-.4.76-.24,1.46-.64,2.07-1.15,1.26-1.07,1.97-2.64,1.93-4.29v-2.96h-.09Zm-11.35-5.55c.36-.76.9-1.43,1.57-1.94.69-.52,1.48-.9,2.31-1.12.97-.25,1.96-.37,2.96-.36.82,0,1.64.08,2.45.23.79.14,1.54.44,2.2.88.67.46,1.22,1.09,1.58,1.82.45.95.66,2,.62,3.05v9.87c-.07.37.05.76.31,1.03s.64.41,1.02.36c.25,0,.49-.04.72-.14v1.92c-.26.05-.5.08-.71.11s-.46.04-.77.04c-.47.02-.95-.06-1.39-.24-.33-.14-.61-.37-.81-.67-.2-.31-.33-.66-.37-1.03-.06-.44-.09-.87-.09-1.31h-.07c-.38.56-.79,1.1-1.24,1.6-.4.46-.87.85-1.39,1.17-.55.33-1.15.57-1.77.72-.77.18-1.57.27-2.36.25-.82,0-1.64-.1-2.43-.31-.72-.19-1.4-.52-1.99-.98-.57-.45-1.03-1.03-1.33-1.69-.34-.76-.51-1.6-.49-2.43-.06-1.08.24-2.16.87-3.04.61-.75,1.41-1.33,2.31-1.68,1.03-.41,2.11-.68,3.21-.81,1.19-.16,2.4-.31,3.62-.46.46-.05.93-.11,1.26-.18.33-.06.65-.19.93-.38.25-.19.44-.45.56-.74.15-.39.21-.81.2-1.23.03-.65-.1-1.3-.38-1.89-.24-.48-.6-.88-1.05-1.17-.47-.3-1-.5-1.55-.59-.62-.11-1.25-.17-1.89-.17-1.26-.06-2.5.31-3.54,1.03-.97.81-1.51,2.03-1.44,3.3h-2.27c.04-.97.28-1.93.68-2.81"/><path id="Path-21" class="cls-3" d="m413.65,725.87v3.21h.07c.44-1.14,1.26-2.1,2.31-2.72,1.09-.68,2.35-1.04,3.64-1.03,1.11-.03,2.21.14,3.26.5.81.29,1.54.78,2.11,1.42.54.65.93,1.43,1.12,2.25.23.98.34,1.99.32,2.99v11.97h-2.28v-11.61c0-.75-.07-1.49-.21-2.22-.13-.64-.39-1.25-.76-1.78-.38-.52-.88-.93-1.46-1.19-.72-.31-1.5-.45-2.29-.43-.84-.01-1.67.15-2.43.49-.69.31-1.3.76-1.8,1.33-.51.59-.9,1.28-1.15,2.02-.29.82-.44,1.68-.46,2.55v10.85h-2.27v-18.6h2.28Z"/><path id="Path-22" class="cls-3" d="m442.98,739.32c.4.85,1.02,1.59,1.79,2.13.81.55,1.73.94,2.69,1.13,1.09.23,2.2.35,3.31.34.74,0,1.48-.11,2.2-.29.78-.19,1.53-.5,2.22-.93.68-.42,1.26-.97,1.71-1.62.47-.71.71-1.55.68-2.4.02-.66-.14-1.3-.46-1.87-.32-.53-.75-.98-1.26-1.33-.53-.37-1.11-.66-1.72-.88-.61-.22-1.22-.41-1.85-.56l-5.73-1.39c-.74-.19-1.47-.43-2.18-.72-.68-.27-1.31-.66-1.85-1.15-.54-.5-.97-1.1-1.28-1.77-.35-.81-.51-1.68-.49-2.56.02-.75.14-1.49.36-2.2.27-.88.73-1.7,1.35-2.38.76-.82,1.69-1.46,2.73-1.89,1.41-.57,2.92-.83,4.43-.78,1.23,0,2.46.17,3.64.5,1.09.31,2.12.82,3.02,1.52,1.85,1.42,2.91,3.65,2.85,5.98h-2.45c-.02-.9-.25-1.78-.67-2.58-.38-.72-.91-1.35-1.55-1.85-.66-.5-1.4-.88-2.2-1.12-.85-.25-1.73-.38-2.61-.38-.83,0-1.65.08-2.46.27-.73.16-1.43.45-2.05.87-.6.4-1.09.94-1.43,1.57-.38.74-.57,1.57-.54,2.41-.01.54.09,1.07.31,1.57.2.44.49.82.85,1.13.37.32.79.58,1.24.76.48.2.98.35,1.49.46l6.27,1.55c.88.23,1.74.53,2.58.88.77.33,1.48.76,2.12,1.3.62.52,1.11,1.17,1.44,1.9.37.85.55,1.77.52,2.7,0,.39-.04.77-.09,1.15-.07.53-.22,1.04-.43,1.53-.26.59-.58,1.14-.98,1.64-.48.6-1.06,1.11-1.73,1.49-.85.49-1.77.86-2.72,1.08-1.27.3-2.58.44-3.89.42-1.42,0-2.84-.17-4.22-.52-1.2-.3-2.33-.85-3.32-1.61-.92-.73-1.65-1.69-2.11-2.78-.52-1.29-.74-2.68-.63-4.07h2.45c-.06,1.14.15,2.27.61,3.32"/><path id="Path-23" class="cls-3" d="m465.72,718.74v10.34h.07c.44-1.14,1.26-2.1,2.31-2.72,1.09-.68,2.35-1.04,3.64-1.03,1.11-.03,2.21.14,3.26.5.81.29,1.54.78,2.11,1.42.55.65.93,1.42,1.12,2.25.23.98.34,1.99.32,2.99v11.97h-2.27v-11.61c0-.74-.07-1.49-.22-2.22-.13-.64-.38-1.25-.76-1.78-.37-.52-.88-.93-1.46-1.19-.72-.31-1.5-.45-2.29-.43-.84-.02-1.67.15-2.44.49-.69.31-1.3.76-1.8,1.33-.51.59-.9,1.28-1.15,2.02-.29.82-.44,1.67-.46,2.54v10.85h-2.27v-25.73h2.27Z"/><path id="Shape-8" class="cls-3" d="m485.15,744.48h-2.27v-18.6h2.27v18.6Zm0-22.1h-2.27v-3.64h2.27v3.64Z"/><path id="Shape-9" class="cls-3" d="m502.44,731.39c-.26-.77-.66-1.48-1.17-2.11-.51-.61-1.14-1.12-1.85-1.48-.76-.38-1.6-.57-2.45-.56-.86-.02-1.71.17-2.48.56-.71.36-1.34.87-1.85,1.48-.52.64-.92,1.35-1.2,2.12-.3.8-.5,1.63-.6,2.47h12.03c-.02-.85-.18-1.69-.46-2.48m-11.24,6.94c.21.85.59,1.65,1.1,2.36.51.7,1.16,1.29,1.91,1.73.85.48,1.81.71,2.78.68,1.42.08,2.81-.38,3.89-1.3.98-.93,1.66-2.14,1.94-3.46h2.27c-.35,1.87-1.27,3.58-2.65,4.9-1.54,1.24-3.49,1.86-5.46,1.73-1.31.03-2.61-.23-3.81-.78-1.03-.48-1.93-1.21-2.61-2.12-.69-.94-1.2-2.01-1.49-3.14-.32-1.23-.48-2.5-.46-3.77-.01-1.22.14-2.43.46-3.6.3-1.13.81-2.2,1.49-3.16.68-.94,1.58-1.7,2.61-2.24,1.18-.59,2.49-.88,3.81-.85,1.33-.04,2.65.27,3.82.9,1.03.57,1.92,1.38,2.58,2.36.68,1.02,1.17,2.15,1.43,3.35.29,1.26.41,2.55.36,3.84h-14.26c0,.86.12,1.71.34,2.54"/><polygon id="Path-24" class="cls-3" points="510.53 744.48 508.26 744.48 508.26 718.74 510.53 718.74 510.53 744.48"/><path id="Shape-10" class="cls-3" d="m516.71,738.05c.21.91.58,1.77,1.08,2.55.49.74,1.13,1.36,1.89,1.82.84.49,1.8.73,2.78.7,2.01.09,3.93-.86,5.07-2.52.53-.77.91-1.63,1.12-2.55.46-1.88.46-3.84,0-5.72-.21-.91-.59-1.77-1.12-2.55-.53-.75-1.22-1.37-2.02-1.82-.94-.49-1.99-.74-3.04-.7-.97-.03-1.93.22-2.78.7-.76.46-1.41,1.08-1.89,1.82-.51.78-.87,1.64-1.08,2.55-.46,1.88-.46,3.84,0,5.72m12.45,6.44v-3.54h-.05c-.25.62-.61,1.18-1.06,1.66-.47.5-1.01.93-1.6,1.28-.61.35-1.26.62-1.93.81-.66.19-1.35.28-2.04.29-1.28.03-2.54-.23-3.7-.77-1.03-.5-1.92-1.23-2.62-2.13-.71-.94-1.24-2-1.55-3.13-.67-2.47-.67-5.07,0-7.54.31-1.13.83-2.2,1.55-3.13.7-.9,1.59-1.64,2.62-2.14,1.15-.56,2.42-.83,3.7-.8.69,0,1.37.08,2.04.25.65.17,1.27.43,1.85.78.57.35,1.09.78,1.53,1.28.45.52.8,1.12,1.03,1.76h.07v-10.68h2.27v25.73h-2.1Z"/><polygon id="Path-25" class="cls-3" points="548.67 744.48 546.23 744.48 546.23 718.74 548.69 718.74 548.67 744.48"/><path id="Path-26" class="cls-3" d="m555.84,725.87v3.21h.07c.44-1.14,1.26-2.1,2.31-2.72,1.09-.68,2.35-1.04,3.64-1.03,1.1-.03,2.2.14,3.24.5.81.29,1.54.78,2.11,1.42.54.65.93,1.43,1.12,2.25.23.98.34,1.99.32,2.99v11.97h-2.27v-11.61c0-.75-.07-1.49-.22-2.22-.13-.64-.39-1.25-.76-1.78-.38-.52-.88-.93-1.46-1.19-.72-.31-1.5-.45-2.29-.43-.84-.01-1.66.15-2.43.49-.69.31-1.31.76-1.8,1.33-.51.59-.9,1.28-1.15,2.02-.29.82-.44,1.68-.46,2.55v10.85h-2.27v-18.6h2.3Z"/><path id="Path-27" class="cls-3" d="m583.67,729.5c-.25-.5-.62-.94-1.07-1.28-.46-.34-.98-.6-1.53-.74-.6-.16-1.23-.24-1.85-.24-.52,0-1.03.06-1.53.17-.5.1-.98.28-1.43.54-.42.24-.78.58-1.05.99-.27.45-.41.98-.39,1.51-.02.46.12.91.38,1.28.26.35.58.65.95.88.4.25.82.45,1.26.6.46.15.87.28,1.26.37l3.03.68c.66.1,1.31.28,1.93.52.61.24,1.19.57,1.69.99.5.42.92.93,1.21,1.51.32.66.48,1.39.46,2.12.03.91-.21,1.8-.68,2.58-.45.7-1.05,1.29-1.75,1.73-.74.45-1.55.78-2.4.95-.86.19-1.75.29-2.63.29-1.89.09-3.76-.46-5.31-1.55-1.46-1.24-2.3-3.06-2.31-4.97h2.27c0,1.35.62,2.63,1.68,3.48,1.1.81,2.44,1.22,3.8,1.18.58,0,1.15-.06,1.72-.18.58-.12,1.13-.33,1.64-.62.49-.27.91-.65,1.24-1.1.34-.48.51-1.06.49-1.64.02-.49-.1-.97-.34-1.39-.24-.37-.55-.69-.93-.93-.41-.27-.85-.48-1.31-.63-.5-.17-.99-.31-1.49-.43l-2.92-.65c-.7-.18-1.39-.4-2.05-.67-.59-.23-1.14-.54-1.64-.93-.47-.37-.85-.85-1.11-1.39-.28-.63-.41-1.31-.39-2-.02-.85.2-1.68.63-2.41.41-.66.97-1.22,1.64-1.63.7-.41,1.46-.72,2.25-.9.81-.19,1.64-.28,2.47-.29.88,0,1.76.11,2.61.36.78.23,1.5.61,2.13,1.12.61.5,1.11,1.14,1.46,1.85.38.83.59,1.72.61,2.63h-2.27c-.01-.63-.16-1.25-.43-1.82"/><path id="Path-28" class="cls-3" d="m603.27,744.48v-3.35h-.07c-.56,1.2-1.47,2.2-2.61,2.87-1.15.66-2.47,1.01-3.8.99-1.03.03-2.05-.14-3.01-.49-.78-.29-1.47-.77-2.02-1.39-.54-.64-.93-1.39-1.14-2.2-.25-.97-.37-1.96-.36-2.96v-12.08h2.27v12.11c-.05,1.37.36,2.72,1.18,3.82,1.79,1.45,4.27,1.71,6.32.67.7-.42,1.29-.99,1.74-1.68.47-.73.81-1.54,1-2.39.22-.91.33-1.84.33-2.78v-9.77h2.27v18.6h-2.1Z"/><path id="Path-29" class="cls-3" d="m611.74,725.87v4.36h.07c.5-1.42,1.44-2.64,2.68-3.5,1.29-.83,2.81-1.22,4.34-1.12v2.27c-.95-.06-1.91.08-2.81.41-1.64.62-2.95,1.9-3.6,3.54-.34.87-.52,1.79-.5,2.72v9.91h-2.29v-18.6h2.11Z"/><path id="Shape-11" class="cls-3" d="m632.82,734.31c-.18.3-.48.51-.82.57-.35.11-.72.19-1.08.25-.96.17-1.95.32-2.97.46-.94.12-1.87.31-2.78.59-.77.22-1.47.61-2.07,1.14-.56.55-.86,1.32-.81,2.11-.01.53.1,1.06.34,1.53.23.44.54.83.93,1.15.39.33.84.58,1.33.74.5.17,1.02.25,1.55.25.85,0,1.69-.13,2.49-.4.76-.24,1.46-.64,2.07-1.15.59-.51,1.06-1.14,1.39-1.85.36-.77.54-1.6.52-2.45v-2.96h-.08Zm-11.35-5.55c.36-.76.9-1.43,1.57-1.94.69-.52,1.48-.9,2.31-1.12.97-.25,1.96-.37,2.96-.36.82,0,1.64.08,2.45.23.79.14,1.53.44,2.2.88.67.46,1.22,1.09,1.59,1.82.44.95.65,2,.61,3.05v9.87c-.07.38.05.76.32,1.03s.64.41,1.02.35c.25,0,.49-.04.72-.14v1.92c-.26.05-.5.08-.7.11-.2.02-.46.04-.77.04-.47.02-.95-.06-1.39-.24-.33-.14-.61-.37-.81-.67-.2-.31-.32-.66-.37-1.03-.06-.44-.09-.87-.09-1.31h-.07c-.38.56-.79,1.1-1.24,1.6-.4.46-.87.85-1.39,1.17-.55.33-1.15.57-1.77.72-.77.18-1.57.27-2.36.25-.82,0-1.64-.1-2.43-.31-.72-.19-1.4-.52-1.99-.98-.57-.45-1.03-1.03-1.33-1.69-.34-.77-.51-1.6-.49-2.43-.06-1.08.24-2.16.87-3.04.6-.75,1.39-1.33,2.29-1.68,1.03-.41,2.11-.68,3.21-.81,1.18-.16,2.4-.31,3.62-.46.46-.05.9-.11,1.26-.18.33-.06.63-.19.9-.38.25-.19.44-.44.56-.74.15-.39.21-.81.2-1.23.03-.65-.1-1.3-.38-1.89-.24-.48-.6-.88-1.04-1.17-.47-.3-1-.5-1.55-.59-.62-.11-1.25-.17-1.89-.17-1.26-.06-2.5.31-3.53,1.03-.98.81-1.52,2.03-1.46,3.29h-2.27c.05-.97.28-1.93.68-2.81"/><path id="Path-30" class="cls-3" d="m641.94,725.87v3.21h.08c.44-1.14,1.26-2.1,2.31-2.72,1.09-.68,2.35-1.04,3.64-1.03,1.1-.03,2.2.14,3.24.5.81.29,1.54.78,2.11,1.42.55.65.93,1.42,1.12,2.25.23.98.34,1.99.33,2.99v11.97h-2.27v-11.61c0-.75-.07-1.49-.22-2.22-.12-.64-.38-1.25-.76-1.78-.37-.52-.88-.93-1.46-1.19-.73-.31-1.52-.46-2.31-.43-.84-.01-1.67.15-2.43.49-.69.31-1.3.76-1.8,1.33-.51.59-.9,1.28-1.15,2.02-.29.82-.44,1.68-.46,2.55v10.85h-2.27v-18.6h2.3Z"/><path id="Path-31" class="cls-3" d="m670.45,728.44c-.98-.84-2.24-1.27-3.53-1.19-.99-.02-1.98.21-2.85.68-.8.44-1.5,1.06-2.04,1.8-.55.77-.97,1.63-1.23,2.54-.55,1.9-.55,3.91,0,5.81.26.91.67,1.77,1.23,2.54.54.74,1.23,1.36,2.04,1.8.87.47,1.86.71,2.85.68.68,0,1.35-.13,1.98-.4.62-.26,1.18-.63,1.66-1.1.49-.48.9-1.05,1.19-1.68.31-.67.51-1.39.57-2.12h2.27c-.19,2-1.07,3.86-2.48,5.28-1.42,1.28-3.28,1.96-5.19,1.89-1.3.02-2.59-.24-3.77-.77-1.06-.49-2-1.21-2.75-2.11-.76-.92-1.34-1.98-1.69-3.12-.77-2.48-.77-5.13,0-7.6.35-1.14.93-2.2,1.69-3.12.75-.9,1.69-1.62,2.75-2.12,1.18-.55,2.47-.82,3.77-.8,1.82-.05,3.6.5,5.06,1.59,1.45,1.19,2.34,2.92,2.47,4.79h-2.27c-.23-1.24-.84-2.39-1.73-3.28"/><path id="Shape-12" class="cls-3" d="m690.69,731.39c-.26-.77-.66-1.48-1.17-2.11-.51-.61-1.14-1.12-1.85-1.48-.76-.38-1.6-.57-2.45-.56-.86-.02-1.71.17-2.48.56-.71.36-1.34.87-1.85,1.48-.52.64-.92,1.35-1.2,2.12-.3.8-.5,1.63-.59,2.47h12.03c-.02-.85-.18-1.69-.46-2.48m-11.24,6.94c.21.85.59,1.65,1.1,2.36.51.7,1.16,1.29,1.91,1.73.85.48,1.81.71,2.78.68,1.42.08,2.81-.38,3.89-1.3.98-.93,1.66-2.14,1.95-3.46h2.27c-.35,1.87-1.27,3.58-2.65,4.9-1.54,1.24-3.49,1.86-5.46,1.73-1.31.03-2.61-.23-3.8-.78-1.03-.49-1.93-1.21-2.61-2.12-.69-.94-1.2-2.01-1.49-3.14-.33-1.23-.49-2.49-.49-3.77,0-1.22.16-2.43.49-3.6.3-1.13.81-2.2,1.49-3.16.69-.94,1.58-1.7,2.61-2.24,1.18-.59,2.49-.88,3.8-.85,2.55-.1,4.97,1.12,6.4,3.24.68,1.02,1.16,2.15,1.42,3.35.29,1.26.41,2.55.36,3.84h-14.27c0,.86.12,1.71.34,2.54"/></g></g></svg>