<?xml version="1.0" encoding="utf-8"?>
<!-- Generator: Adobe Illustrator 27.6.1, SVG Export Plug-In . SVG Version: 6.00 Build 0)  -->
<svg version="1.1" id="Layer_1" xmlns="http://www.w3.org/2000/svg" xmlns:xlink="http://www.w3.org/1999/xlink" x="0px" y="0px"
	 viewBox="0 0 1000 1000" style="enable-background:new 0 0 1000 1000;" xml:space="preserve">
<style type="text/css">
	.st0{fill:#EEF2F8;}
	.st1{fill:#49A17B;}
	.st2{fill:#7631CD;}
	.st3{clip-path:url(#SVGID_00000044885071219613460220000016731357906116495268_);}
	.st4{fill:#404041;}
	.st5{clip-path:url(#SVGID_00000174584801578036755450000003299823016204264125_);}
	.st6{clip-path:url(#SVGID_00000097468666679960377000000000597324456522916751_);}
	.st7{fill:#7163EB;}
	.st8{fill:url(#SVGID_00000085958131984877223830000003573787370829616292_);}
	.st9{fill:url(#SVGID_00000066486046164614926810000003060164194936241325_);}
	.st10{fill:url(#SVGID_00000016052707758740219210000003796654442069900697_);}
	.st11{fill:url(#SVGID_00000119840433043268931640000003192734153409548181_);}
	.st12{fill:url(#SVGID_00000013891825009312711770000018221844133960693653_);}
	.st13{fill:url(#SVGID_00000142152350450928957480000016760253101106060188_);}
	.st14{fill:url(#SVGID_00000078727294564479204740000015407787325983881135_);}
	.st15{fill:url(#SVGID_00000013173043197954878490000002083039636581095585_);}
	.st16{fill:url(#SVGID_00000152236891101022043300000008061797842928556206_);}
	.st17{fill:url(#SVGID_00000134946089338479963280000005625811700696832930_);}
	.st18{fill:url(#SVGID_00000021094213534246093100000002197255296505397439_);}
	.st19{fill:url(#SVGID_00000061452032240588726800000003855952931120692146_);}
	.st20{fill:url(#SVGID_00000038380716139251337030000015740392062113951155_);}
	.st21{fill:url(#SVGID_00000178917484266559828460000012754179888909170581_);}
	.st22{fill:url(#SVGID_00000039816638817524090670000001819838213359196840_);}
	.st23{fill:url(#SVGID_00000173843685292380375230000016714613577949687691_);}
	.st24{fill:url(#SVGID_00000039839191838220295630000004608812903121287597_);}
	.st25{fill:url(#SVGID_00000025412217998591376110000012600633861391351480_);}
	.st26{fill:url(#SVGID_00000098930820783768418420000010585811911966454173_);}
	.st27{fill:url(#SVGID_00000067924039723151708500000009263241690340712347_);}
	.st28{fill:url(#SVGID_00000101810574548429758100000009041000560740503460_);}
	.st29{fill:url(#SVGID_00000052791898231074625540000012277081510587255220_);}
	.st30{fill:url(#SVGID_00000005242238774699417940000015345749174167933116_);}
	.st31{fill:url(#SVGID_00000037663453480038135060000014147912961941534651_);}
	.st32{fill:url(#SVGID_00000088108400966417434090000016581705337056028311_);}
	.st33{fill:url(#SVGID_00000026137544021014887430000001050518488205225601_);}
	.st34{fill:url(#SVGID_00000092448240029237436400000011572627508355528614_);}
	.st35{fill:url(#SVGID_00000016763357331604024850000014482737686927420319_);}
	.st36{fill:url(#SVGID_00000170978460729617742800000014889960713826168235_);}
	.st37{fill:url(#SVGID_00000005958824212046600060000012598239636318772107_);}
	.st38{fill:url(#SVGID_00000060021661971391214820000004339549907769542803_);}
	.st39{fill:url(#SVGID_00000103979061047712953020000007755126317876801933_);}
	.st40{fill:#3F4144;}
	.st41{fill:#2E3B89;}
	.st42{clip-path:url(#SVGID_00000069385564899496600220000001998550485221272468_);}
	.st43{clip-path:url(#SVGID_00000012432257376059013280000010781166373732198807_);}
	.st44{clip-path:url(#SVGID_00000140706961753029631170000004427631912579568792_);}
	.st45{fill:#F3B840;}
	.st46{fill:#E04430;}
	.st47{fill:#CA5C6C;}
	.st48{fill:#DD9033;}
	.st49{fill:#CD412D;}
	.st50{fill:#D47935;}
	.st51{fill:#D5709F;}
	.st52{fill:#E9BD8D;}
	.st53{fill:#E19F4B;}
	.st54{fill:#EABF4B;}
	.st55{fill:#CA582D;}
	.st56{fill:#DA8F38;}
	.st57{fill:#C04624;}
	.st58{fill:#C85E26;}
	.st59{fill:#B1341B;}
	.st60{fill:#B24C1F;}
	.st61{fill:#9E2B17;}
	.st62{opacity:0.52;fill:#5EC9E8;enable-background:new    ;}
	.st63{opacity:0.49;fill:#8462DA;enable-background:new    ;}
	.st64{opacity:0.52;fill:#2D63E5;enable-background:new    ;}
	.st65{fill-rule:evenodd;clip-rule:evenodd;fill:#439579;}
	.st66{fill:#3273C2;}
	.st67{fill:#575756;}
	.st68{fill:#1D2C66;}
	.st69{fill:#BCC0DA;}
	.st70{fill:#464B6F;}
	.st71{display:none;fill:#FFFFFF;}
	.st72{fill:#303030;}
	.st73{fill:#B73533;}
	.st74{fill:#04B15C;}
	.st75{fill:url(#SVGID_00000026156118181882537420000011324620702883346346_);}
	.st76{fill:url(#SVGID_00000087414548684716344730000008807600633644719787_);}
	.st77{fill:url(#SVGID_00000037657140935013978420000016106758416691971249_);}
	.st78{fill:url(#SVGID_00000088812942668109775820000003970712159285212595_);}
	.st79{fill:#D33B30;}
	.st80{fill:url(#SVGID_00000047741381913259460380000015721363452482867604_);}
	.st81{fill:url(#SVGID_00000114767386495924024800000011864630917373067667_);}
	.st82{fill:url(#SVGID_00000108280715134602729280000015908553033153688461_);}
	.st83{fill:url(#SVGID_00000021110286536537948960000004317851055152578973_);}
	.st84{fill-rule:evenodd;clip-rule:evenodd;fill:#469BC7;}
	.st85{fill:#222943;}
	.st86{fill-rule:evenodd;clip-rule:evenodd;fill:#1E4B91;}
	.st87{fill-rule:evenodd;clip-rule:evenodd;fill:#F0A140;}
	.st88{fill:#72D24C;}
	.st89{fill-rule:evenodd;clip-rule:evenodd;}
	.st90{display:none;fill:#FBFAFA;}
	.st91{fill:#242323;}
	.st92{fill:#BA3630;}
	.st93{opacity:0.35;fill:#53A0B1;enable-background:new    ;}
	.st94{fill:#20465E;}
	.st95{fill:url(#SVGID_00000178194597063289111300000004902214741358522294_);}
	.st96{fill:#367A8D;}
	.st97{fill:url(#SVGID_00000070802968863493234840000014362051913517011624_);}
	.st98{fill:url(#SVGID_00000000211397378299008700000014320405872361854608_);}
	.st99{opacity:0.88;fill:url(#SVGID_00000140727465243802458750000007794313757631445930_);enable-background:new    ;}
	.st100{fill:url(#SVGID_00000000922361033199952940000006237952353964246146_);}
	.st101{fill:#143661;}
	.st102{fill:#56BC8E;}
	.st103{fill:#2B2B37;}
	.st104{fill:#334C71;}
	.st105{fill:#3777E6;}
	.st106{fill:#A8EDE6;}
	.st107{fill:#EBC18E;}
	.st108{fill:#2A2F44;}
	.st109{fill:#1B4625;}
	.st110{fill:#98C355;}
	.st111{fill:#60B258;}
	.st112{fill:#41914D;}
	.st113{fill:#2B663D;}
	.st114{fill:#CCDA70;}
	.st115{fill:#34516A;}
	.st116{fill:url(#Path_164488_00000105420982377718669470000000551483319652946049_);}
	.st117{fill:#FFFFFF;}
	.st118{fill:#58595B;}
	.st119{fill:#55AC9B;}
	.st120{fill:#464442;}
	.st121{fill:#B7A891;}
	.st122{fill:#265674;}
	.st123{fill:#759ECF;}
	.st124{fill:#C9CACB;}
	.st125{fill:#F2F2F2;}
	.st126{fill:#2B3777;}
	.st127{fill:#27599E;}
	.st128{fill:#25589C;}
	.st129{fill:#2B63A5;}
	.st130{fill-rule:evenodd;clip-rule:evenodd;fill:#B9B9B9;}
	.st131{fill:#B9B9B9;}
	.st132{fill:#7185B5;}
	.st133{fill:#1C4882;}
	.st134{fill:#0F2C5A;}
	.st135{fill:#091C46;}
	.st136{fill:#54565A;}
	.st137{fill:#306541;}
	.st138{fill-rule:evenodd;clip-rule:evenodd;fill:#CAAD5D;}
	.st139{fill-rule:evenodd;clip-rule:evenodd;fill:#0D0D0D;}
	.st140{fill:#181818;stroke:#181818;stroke-width:0.3631;stroke-miterlimit:10;}
	.st141{fill:#305E3C;}
	.st142{fill:#181818;stroke:#181818;stroke-width:0.3631;stroke-miterlimit:9.9999;}
	.st143{fill:#181818;}
	.st144{fill:#141414;}
	.st145{fill:#1F4169;}
	.st146{fill:#49A2D9;}
	.st147{fill:#59585A;}
	.st148{fill:#030F97;}
	.st149{fill:#56A9DC;}
	.st150{fill:#4AA3DB;}
	.st151{fill:#545352;}
	.st152{fill:#412C6F;}
	.st153{fill:#BF2F7C;}
	.st154{fill:#215280;}
	.st155{fill:#7D7D7D;}
	.st156{fill:#456790;}
	.st157{fill:url(#C_00000001665011253953379730000008723337534992865415_);}
	.st158{fill:#C6C7C8;}
	.st159{fill:url(#SVGID_00000053529523374962399910000001996328630077309103_);}
	.st160{fill:#285E96;}
	.st161{fill:#61993F;}
	.st162{fill:#23568C;}
	.st163{fill:#4FA4DA;}
	.st164{fill:#6F80B0;}
	.st165{fill:#265896;}
	.st166{fill:#3B81B6;}
	.st167{fill:#275A6B;}
	.st168{fill:#595A5C;}
	.st169{fill:#D7393A;}
	.st170{fill:#8AC9D5;}
	.st171{fill:#D63939;}
	.st172{fill:#D63838;}
	.st173{fill:#3172B5;}
	.st174{fill:#3475B7;}
	.st175{fill:#3374B7;}
	.st176{fill:#7B7C7F;}
	.st177{fill:#7A7B7E;}
	.st178{fill:#3373B6;}
	.st179{fill:#7B7B7E;}
	.st180{fill:#7C7C7F;}
	.st181{fill:#7E7F81;}
	.st182{fill:#797A7D;}
	.st183{fill:#7D7D80;}
	.st184{fill:#7C7D80;}
	.st185{fill:#7C7B7E;}
	.st186{fill:#808184;}
	.st187{fill:#214167;}
	.st188{fill-rule:evenodd;clip-rule:evenodd;fill:#C8AC47;}
	.st189{fill:none;stroke:#C8AC47;stroke-width:9.5261;}
	.st190{fill:none;stroke:#E6BA5D;stroke-width:9.5261;stroke-miterlimit:10;}
	.st191{fill-rule:evenodd;clip-rule:evenodd;fill:#304567;}
	.st192{fill:#CFCECC;}
	.st193{clip-path:url(#SVGID_00000121970125425454279080000007049341884745216180_);}
	.st194{fill:#265B65;}
	.st195{fill:#767A52;}
	.st196{fill:#808082;}
	.st197{fill-rule:evenodd;clip-rule:evenodd;fill:url(#SVGID_00000125589988983713519160000001806231224920107199_);}
	.st198{fill-rule:evenodd;clip-rule:evenodd;fill:url(#SVGID_00000044161913638102226790000009367982505053785234_);}
	.st199{fill:#3A5CA5;}
	.st200{fill:#2F3A89;}
	.st201{fill:#6D6E71;}
	.st202{fill:#41918E;}
	.st203{fill:#445DA5;}
	.st204{clip-path:url(#SVGID_00000075862361707371005220000010218620504206555035_);}
	.st205{fill:#4A6EAF;}
	.st206{fill:#381D13;}
	.st207{clip-path:url(#SVGID_00000070828355264046050540000016673096463799925391_);}
	.st208{clip-path:url(#SVGID_00000007405354011679870610000012292910265181296527_);}
	.st209{clip-path:url(#SVGID_00000142860519963016594040000005452730819435257493_);}
	.st210{clip-path:url(#SVGID_00000004510451956999944600000008185225865583031743_);}
	.st211{clip-path:url(#SVGID_00000081611526967396431920000008228764765537117324_);}
	.st212{clip-path:url(#SVGID_00000121996824301822815810000003689694311342858407_);}
	.st213{clip-path:url(#SVGID_00000116217285566342030530000000327603208519856301_);}
	.st214{clip-path:url(#SVGID_00000011023189710524656930000015653753116639942029_);}
	.st215{clip-path:url(#SVGID_00000003815745233093726950000010126272469405648802_);}
	.st216{clip-path:url(#SVGID_00000157310498022252815500000010013377524256660394_);}
	.st217{clip-path:url(#SVGID_00000042722029808570651420000010810574830888596145_);}
	.st218{fill:#A2A8AC;}
	.st219{fill:#41834F;}
	.st220{fill:#265BB2;}
	.st221{fill:#293B90;}
	.st222{fill:#C99378;}
	.st223{fill:none;}
	.st224{enable-background:new    ;}
	.st225{fill:#203D35;}
	.st226{fill:#817771;}
	.st227{fill:#265C80;}
	.st228{fill:#2C2926;}
	.st229{fill:#59BCF8;}
	.st230{fill-rule:evenodd;clip-rule:evenodd;fill:#0101C2;}
	.st231{fill-rule:evenodd;clip-rule:evenodd;fill:#0202C6;}
	.st232{fill:#3A42F4;}
	.st233{fill-rule:evenodd;clip-rule:evenodd;fill:#050386;}
	.st234{fill:#3038F4;}
	.st235{clip-path:url(#SVGID_00000113329866431555521830000017987303504179770510_);}
	.st236{fill:#ED7D30;}
	.st237{fill:#479EE6;}
	.st238{fill:url(#Path_6_00000039854467318919145900000007587292342286200220_);}
	.st239{fill:#CC2C79;}
	.st240{fill:#1A1818;}
	.st241{fill-rule:evenodd;clip-rule:evenodd;fill:#FFFFFF;}
	.st242{fill-rule:evenodd;clip-rule:evenodd;fill:#469B88;}
	.st243{fill-rule:evenodd;clip-rule:evenodd;fill:#2C2E6A;}
	.st244{fill:#469B88;}
	.st245{fill:#1E1C44;}
	.st246{fill:#DA6D2A;}
	.st247{clip-path:url(#SVGID_00000182517991304477885640000009065816929157294494_);}
	.st248{fill:#273669;}
	.st249{fill:#567DF6;}
	.st250{fill:#70D3FA;}
	.st251{fill:#88FAC1;}
	.st252{fill:#070E51;}
	.st253{opacity:0.5;}
	.st254{fill:url(#SVGID_00000070078433542007022460000003530727878006982838_);}
	.st255{fill:url(#SVGID_00000079473901460069621690000007043518456836707466_);}
	.st256{fill:url(#SVGID_00000180331418701860041840000013157809606032784058_);}
	.st257{fill:#05039B;}
	.st258{fill:#406DAF;}
	.st259{fill:#808086;}
	.st260{fill:#84C6C9;}
	.st261{fill:#86398D;}
	.st262{fill:#8E599C;}
	.st263{fill:#E7963E;}
	.st264{fill:#70C3ED;}
	.st265{fill:#4B2A50;}
	.st266{fill:#333333;}
	.st267{fill:#75FAAA;}
	.st268{fill:url(#SVGID_00000053524040505138509300000011765457318461097614_);}
	.st269{fill:#160141;}
	.st270{fill:url(#SVGID_00000059281772803041025870000018222246655680034467_);}
	.st271{fill:url(#SVGID_00000012457613981061453900000008522119824996978328_);}
	.st272{fill:url(#SVGID_00000024702901577673762590000005226222277355877004_);}
	.st273{fill-rule:evenodd;clip-rule:evenodd;fill:url(#SVGID_00000030481270238975857130000017186607620512335783_);}
	.st274{fill-rule:evenodd;clip-rule:evenodd;fill:url(#SVGID_00000018945498462579732020000006961261265136718989_);}
	.st275{fill-rule:evenodd;clip-rule:evenodd;fill:url(#SVGID_00000044880058432007865500000001634954485627167631_);}
	.st276{fill-rule:evenodd;clip-rule:evenodd;fill:url(#SVGID_00000010284665796450691070000007873119766047950484_);}
	.st277{fill:#414042;}
</style>
<g>
	<path class="st154" d="M171.32,395.8c6.83,0.04,12.4-5.46,12.44-12.3c0.04-6.83-5.46-12.4-12.3-12.44
		c-6.83-0.04-12.4,5.46-12.44,12.3c0,0.06,0,0.12,0,0.19C159.16,390.27,164.59,395.68,171.32,395.8 M197.62,395.8
		c6.83,0.06,12.42-5.43,12.48-12.26c0.06-6.83-5.43-12.42-12.26-12.48c-6.83-0.06-12.42,5.43-12.48,12.26c0,0.07,0,0.15,0,0.22
		C185.5,390.25,190.9,395.66,197.62,395.8 M343.95,541.38c-6.83,0.02-12.35,5.58-12.33,12.41c0.02,6.83,5.58,12.35,12.41,12.33
		c6.79-0.02,12.29-5.51,12.33-12.3C356.29,547,350.78,541.46,343.95,541.38 M273.14,541.16c-6.83,0.02-12.35,5.58-12.33,12.41
		c0.02,6.83,5.58,12.35,12.41,12.33c6.79-0.02,12.29-5.51,12.33-12.3C285.51,546.76,279.98,541.22,273.14,541.16 M299.33,541.16
		c-6.83,0.06-12.32,5.65-12.26,12.48c0.06,6.83,5.65,12.32,12.48,12.26c6.76-0.06,12.22-5.54,12.26-12.3
		C311.77,546.74,306.2,541.18,299.33,541.16 M306.57,519.99h57.39c7.47-0.28,14.09-4.9,16.94-11.81c0.99-1.94,1.82-3.95,2.49-6.02
		l0,0l0.41-1.34c2.5-7.68,3.76-15.7,3.71-23.78c0.03-7.97-1.22-15.9-3.71-23.48l-5.8-11.63l-4.57-7.43
		c-1.9-2.71-3.01-5.88-3.23-9.18c-0.16-0.73-0.67-1.33-1.37-1.6c-0.52-0.24-1.12-0.24-1.63,0l0,0
		c-17.65,13.19-17.05,19.95-5.65,36.22c4.13,8.87,6.49,18.46,6.95,28.23v0.19v0.37v0.93H316.2c-3.78-0.03-7.43-1.34-10.36-3.71
		c-3.05-2.21-4.86-5.74-4.87-9.51c0.15-5.18,0.6-10.36,1.34-15.49c0.73-5.12,1.16-10.28,1.3-15.45l0,0c0-0.26,0.22-0.52,0.33-0.85
		c0.18-0.54,0.07-1.13-0.3-1.56c-0.26-0.36-0.67-0.57-1.11-0.56l0,0c-16.64,2.01-18.57,6.72-17.39,21.84l0,0
		c-0.02,0.16-0.02,0.32,0,0.48c-0.33,13.22-1.19,21.25-2.67,24.52l-0.19,0.48h-31.95c-14.3,0-19.43-2.27-24.37-6.69
		c-0.52-0.45-1.6-1.37-7.1-31.09l-0.33-1.78l-1.37-7.17l-1.52-8.32l-1.26-6.87l-0.59-3.31l-0.71-4.01
		c-1.4-6.08-1.89-12.35-1.45-18.57c0.15-0.63-0.04-1.28-0.48-1.75c-0.31-0.33-0.74-0.51-1.19-0.52h-0.3
		c-4.37,0.83-8.6,2.3-12.56,4.35c-2.07,1.12-3.81,2.77-5.02,4.79c-2.97,5.16-1.6,13.08,0.85,24.48v0.56l-0.48,0.3l-8.92,5.31
		c-18.8,10.51-29.72,17.01-32.02,19.32c-5.89,5.83-9.95,13.25-11.66,21.36c-0.97,6.29,0.89,12.68,5.09,17.46
		c4,5.39,9.67,9.31,16.12,11.14c7.76,2.13,15.69,3.61,23.7,4.42c3.49,0,6.91-3.45,10.1-10.33c3.97-8.25,6.91-12.78,8.99-13.82
		l0.89-0.45l0.26,0.93l6.17,19.95l0,0l0,0c2.38,6.4,8.56,10.58,15.38,10.4h42.65c3.31-0.31,6.21-2.32,7.65-5.31
		c1.07-1.64,2.03-3.35,2.86-5.13l1.34-2.53c0.71-1.19,1.34-2.41,1.97-3.71s1-1.93,1.45-2.67l0.93-1.56l0.56,1.67
		c3.94,12.89,10.66,19.17,20.62,19.17 M201.55,476.26c-0.21,0.21-0.48,0.34-0.78,0.37c-10.43,0.26-20.84-0.99-30.91-3.71
		c-0.34-0.12-0.59-0.4-0.67-0.74c-0.11-0.43,0.01-0.89,0.3-1.23c1.52-1.67,6.39-5.83,11.55-10.18c5.8-4.98,11.81-10.07,13.67-12.15
		c0.19-0.22,0.45-0.36,0.74-0.37c0.48,0,0.91,0.32,1.04,0.78c3.34,14.86,5.16,23.74,5.39,26.3c0.01,0.35-0.11,0.69-0.33,0.97
		 M662.65,484.96l-2.27-15.83l-1.37-8.92l-3.16-29.01l-3.31-35.74c-0.67-11.14-0.56-17.68,0.41-20.39c0.26-0.71,0.11-1.5-0.37-2.08
		c-0.34-0.46-0.88-0.74-1.45-0.74l0,0l-1.75,0.22c-15.38,2.12-20.58,6.46-21.51,16.27c-0.26,6.31,0.08,12.63,1,18.87l2.27,15.83
		l2.27,19.5l0.56,4.31l0.56,3.42l1.15,10.66l3.27,35.77c0.46,5.86,0.46,11.75,0,17.61c-0.21,1.23-0.29,2.47-0.26,3.71
		c0,1.19,0.48,1.97,1.71,1.89c0.63,0,1.23,0,1.82-0.22h1.04c14.67-2.19,19.58-6.61,20.43-16.42c0.23-6.21-0.11-12.43-1-18.57
		 M618.25,453.08l-0.89-8.28l-0.37-3.53v-0.67v-0.48l-0.89-8.43l-3.31-35.77c-0.67-11.14-0.56-17.65,0.41-20.39
		c0.21-0.71,0.08-1.49-0.37-2.08c-0.35-0.45-0.88-0.72-1.45-0.74l0,0c-21.99,2.64-24.78,8.88-22.96,28.86v0.74l0.63,5.76l2.27,15.83
		l1.34,8.92l1.37,10.1l0.59,4.35c1.97,12.37,3.71,27.19,5.02,39.12v0.41l-0.3,0.3c-3.09,1.99-6.73,2.95-10.4,2.71h-33.73l0.22-0.97
		c1.36-3.65,3.26-7.07,5.65-10.14c2.62-3.17,4.24-7.05,4.64-11.14c-0.26-3.38-1.37-6.64-3.23-9.47
		c-6.55-11.81-19.2-18.91-32.69-18.35c-9.19-0.28-18.25,2.2-26,7.13c-2.74,1.91-4.97,4.46-6.5,7.43c-4.09,8.58-3.71,14.6-2.82,17.39
		c0.76,1.45,2.12,2.5,3.71,2.86c3.93,0.59,7.71,1.93,11.14,3.94c4.19,2.37,7.66,5.84,10.03,10.03l0.63,1.19h-38.97
		c-6.07-0.69-11.77-3.29-16.27-7.43l-1.23-1.23l0,0v-0.22l0,0c-5.14-6.58-9.88-13.47-14.19-20.62l-0.78-0.97l0,0
		c-5.61-8.54-4.83-9.55-5.31-12.15c-0.13-0.69-0.61-1.27-1.26-1.52c-0.47-0.22-1.02-0.22-1.49,0l0,0
		c-16.42,12.26-16.12,18.13-5.42,33.43l3.16,4.53c2.66,4.39,4.61,9.18,5.76,14.19c0.64,3.68,1.03,7.41,1.15,11.14l0,0l0,0v0.33v0.26
		c-11.14,22.29-32.47,36.26-55.72,36.26h-2.08l0,0c-8.78-0.41-17.37-2.75-25.15-6.84c-3.12-1.6-2.9,3.38-0.82,5.72
		c10.43,12.63,25.94,19.95,42.31,19.99c2.64,0,5.27-0.2,7.88-0.59c4.65-0.65,9.19-1.9,13.52-3.71c3.49-1.44,6.84-3.21,9.99-5.28
		c13.66-9.1,23.5-22.9,27.64-38.78c0.41-1.37,1.71,0,1.71,0c3.67,2.38,8,3.55,12.37,3.34h11.63h8.02h14.04h1.19
		c4.9-0.18,9.5-2.39,12.7-6.09c2.34-2.77,4.19-5.93,5.46-9.32l0.59-1.56l0.82,1.45l0,0l0,0c1.15,3.08,2.77,5.96,4.79,8.54
		c3.24,4.69,8.5,7.58,14.19,7.8h27.49h0.82h17.83c7.95-0.12,15.33-4.14,19.76-10.74c0.98-1.96,1.82-3.98,2.53-6.06
		c1.18-3.61,1.93-7.35,2.23-11.14c0.85-7.43-1.75-32.73-2.34-38.15L618.25,453.08z"/>
	<g>
		<path class="st155" d="M713.87,632.81h-2.64h-2.53l-2.08-6.87h-3.71h-3.16l-2.04,6.87h-1.37h-1.49l8.51-23.59
			c0.39,0.1,0.79,0.16,1.19,0.19c0.38-0.03,0.75-0.09,1.11-0.19l8.32,23.59 M706.04,623.89l-2.67-8.1l-2.79,8.1H706.04z
			 M740.18,618.95l-0.22-9.4c0.82,0.07,1.64,0.07,2.45,0c0.82,0.07,1.64,0.07,2.45,0l-0.22,9.4v4.61l0.22,9.4h-2.45h-2.45l0.22-9.4
			V618.95z M792.33,628.42c-0.38,0.96-0.62,1.98-0.71,3.01c-1.89,0.97-4,1.45-6.13,1.37c-5.84,0.32-10.83-4.16-11.14-10
			c-0.02-0.38-0.02-0.76,0-1.15c0-9.36,5.61-13,11.92-13c2.15,0,4.26,0.59,6.09,1.71c-0.36,1.09-0.57,2.23-0.63,3.38h-0.45
			c-1.09-1.83-3.07-2.96-5.2-2.97c-3.19,0-6.8,3.16-6.8,10.4c0,7.24,3.71,9.73,7.1,9.73c2.09-0.08,4.06-1,5.46-2.56L792.33,628.42z
			 M839.29,628.42c-0.33,0.98-0.56,1.98-0.67,3.01c-1.88,0.97-3.98,1.45-6.09,1.37c-5.82,0.34-10.81-4.1-11.14-9.92
			c-0.02-0.41-0.02-0.82,0-1.22c0-9.36,5.61-13,11.89-13c2.16-0.01,4.28,0.58,6.13,1.71c-0.37,1.09-0.59,2.23-0.67,3.38h-0.45
			c-1.08-1.83-3.04-2.96-5.16-2.97c-3.19,0-6.84,3.16-6.84,10.4c0,7.24,3.71,9.73,7.13,9.73c2.08-0.09,4.03-1.01,5.42-2.56
			L839.29,628.42z M854,639.87H679.21v-38.08H854V639.87z M680.66,638.38h171.85v-35.11H680.66V638.38z M305.05,612.3
			c1.5,1.05,3.14,1.89,4.87,2.49c0.22,0,0.85-0.59,1.86-1.71c0.63-0.74,1.23-1.5,1.78-2.3l-5.05-2.67l-3.19,2.53
			c-1.64-0.51-3.15-1.37-4.42-2.53l-3.53,4.01c1.53,1.06,3.19,1.92,4.94,2.56L305.05,612.3 M331.39,643.65
			c-1.49-0.77-2.92-1.65-4.27-2.64c-0.57,0.74-1.17,1.45-1.82,2.12c-0.61,0.63-1.12,1.36-1.49,2.15c1.46,1.11,3.05,2.03,4.76,2.71
			c0.72-0.97,1.54-1.85,2.45-2.64c1.39,1.09,2.93,1.98,4.57,2.64c0,0,0.78-0.59,1.71-1.78l1.71-2.27l-4.9-3.08L331.39,643.65z
			 M349.37,642.84c-0.72-0.81-1.59-1.48-2.56-1.97c-0.87,0.55-1.67,1.21-2.38,1.97c-1.37,1.34-2.08,2.12-2.08,2.34
			c0,0.22,0.67,0.93,2.04,1.97s2.15,1.67,2.49,1.67c3.12-1.75,4.68-2.93,4.68-3.71c0-0.78-0.71-1.04-2.19-2.38 M333.4,633.81
			c0.67,2.53,2.12,3.71,4.2,3.71h17.01c1.23,0,1.82-2.97,1.82-9.03c-0.03-2-0.45-3.99-1.23-5.83c-0.73-1.82-1.89-3.44-3.38-4.72
			l-3.71,6.17c0.96,0.91,1.75,1.98,2.34,3.16c0.8,1.09,1.29,2.37,1.41,3.71l0,0h-12.15c-1.34,0.18-2.57-0.77-2.75-2.11
			c-0.03-0.21-0.03-0.42,0-0.64c-0.06-0.74-0.06-1.49,0-2.23c0.13-0.71,0.22-1.43,0.26-2.15v-3.16l-2.67,2.75
			c-0.91,0.78-1.54,1.84-1.78,3.01v2.3c0.04,0.77-0.13,1.54-0.48,2.23h-11.14c-1.56,0-2.49-0.52-2.79-1.37
			c-0.81-2.77-1.43-5.58-1.86-8.43l-1.63-8.95l-0.33-0.22l-3.71,6.17c0.16,0.61,0.37,1.21,0.63,1.78l-6.54,3.71
			c-1.39,0.83-2.54,2.01-3.34,3.42c-1.06,2.31-1.86,4.72-2.38,7.21l10.77,1.89c0.56,0,1.26-0.52,2.08-1.97
			c0.52-0.98,1.11-1.92,1.75-2.82l1.23,3.71c0.41,1.29,1.58,2.19,2.93,2.27h13.11l2.27-3.71 M307.32,627.57
			c0.67-0.62,1.43-1.14,2.27-1.52c0.98-0.88,1.88-1.85,2.67-2.9l1.08,5.24L307.32,627.57z M411.33,613.27
			c-1.93-1.19-3.01-2.01-3.19-2.53c-0.23-0.63-0.34-1.3-0.33-1.97l-0.37-0.3c-1.72,2.13-3.14,4.48-4.23,6.98
			c0.53,0.7,1.16,1.33,1.86,1.86c0.62,2.06,1.05,4.18,1.3,6.32c0.38,2.21,0.64,4.45,0.78,6.69c-0.03,0.21-0.09,0.41-0.19,0.59h-7.99
			l1.3-2.12c0.4-0.66,0.66-1.39,0.74-2.15c-0.13-1.78-1.13-3.38-2.67-4.27c-1.45-1.02-3.17-1.59-4.94-1.63
			c-2.26-0.21-4.5,0.54-6.17,2.08c-1.24,1.79-2.27,3.71-3.08,5.72l2.15-0.3c1.91,0.03,3.66,1.04,4.64,2.67h-8.58
			c-2.23,0.11-4.37-0.86-5.76-2.6l-3.71-5.35c-0.72,0.94-1.36,1.94-1.93,2.97c-0.62,0.84-1.11,1.76-1.45,2.75
			c0.5,0.83,1.07,1.61,1.71,2.34c0.87,0.9,1.47,2.02,1.75,3.23c0,1.41-1.67,3.19-5.02,5.42c-2.14,1.75-4.7,2.89-7.43,3.31
			c-1.32-0.08-2.59-0.49-3.71-1.19l-1.97-1.19c0.15,0-0.3,0-0.3,0v0.78c1.71,1.57,3.69,2.82,5.83,3.71c1.97,1.17,4.18,1.9,6.46,2.12
			c2.49-0.18,4.74-1.57,6.02-3.71l3.71-6.5l0.33-0.33c0.7,0.39,1.47,0.63,2.27,0.71h12.44l1.93-2.97l1.71,2.97h13.49
			c0.59-0.3,0.89-0.48,0.93-0.59c0.57-1.17,0.93-2.42,1.08-3.71c0.33-1.21,0.53-2.46,0.59-3.71l-0.74-8.06l4.64-6.06
			c-1.28-0.62-2.52-1.31-3.71-2.08 M424.71,610.78c-1.9,2.48-3.42,5.24-4.49,8.17l2.64,19.21c2.4-2.81,3.64-6.42,3.49-10.1
			c-0.2-5.67-0.77-11.31-1.71-16.9"/>
		<path class="st155" d="M448.63,619.99c0.78-0.53,1.47-1.18,2.04-1.93c0.76-0.72,1.42-1.53,1.97-2.41l-5.09-2.9
			c-1.48,1.1-2.74,2.46-3.71,4.01c0,0.37,1.67,1.49,4.98,3.23 M465.42,642.99c-1.48-0.62-2.85-1.49-4.05-2.56
			c-1.2,1.3-2.33,2.66-3.38,4.09c1.28,1.25,2.87,2.13,4.61,2.56c0,0,0.48-0.33,1.19-1.08l1.19-1.37l4.61,2.71
			c1.35-1.15,2.49-2.52,3.38-4.05l-4.64-2.9L465.42,642.99 M492.02,623.04c0-0.63-0.3-1.3-0.41-1.97c-0.25-0.65-0.91-1.05-1.6-0.97
			c-2.05,0.19-3.99,1-5.57,2.3c-1.78,1.13-3.23,2.7-4.2,4.57c-0.49,1.32-1.15,2.57-1.97,3.71h-5.8c-0.3,0-0.52-0.26-0.78-0.89
			c-0.57-1.98-1.03-3.99-1.37-6.02l-0.97-6.09l-3.08,4.49c-1.13,1.44-2.88,2.27-4.72,2.23c-1.09-0.03-2.08-0.64-2.6-1.6l-1.52-2.79
			l-3.12,6.35l2.12,4.57c0.73,1.43,1.19,2.98,1.37,4.57c0,1.08-1.41,2.01-4.23,2.82c-1.88,0.51-3.81,0.8-5.76,0.85
			c-5.05,0-7.43-2.08-7.43-6.09c0.48-2.92,1.34-5.77,2.56-8.47l-0.22-0.26c-1.89,1.44-3.27,3.44-3.94,5.72
			c-1.02,2.35-1.61,4.87-1.75,7.43c0,5.46,3.08,8.17,9.21,8.17c3.93,0.19,7.79-1.14,10.77-3.71c2.76-2.7,4.13-6.52,3.71-10.36v-0.48
			h0.22c1.39-0.16,2.69-0.75,3.71-1.71c1.11-0.92,1.97-2.11,2.49-3.45c0,0.41,0.41,2.15,0.93,5.16c0.31,1.7,0.74,3.37,1.26,5.02
			c0.29,0.83,1.09,1.37,1.97,1.34h5.94c0.45,0,1-0.67,1.67-1.93c0.28-0.84,0.77-1.59,1.41-2.19c3.37,0.98,6.62,2.37,9.66,4.12
			l2.15-3.38c0.79-1.1,1.3-2.37,1.49-3.71c-0.06-1.28-0.33-2.53-0.82-3.71c-0.35-1.19-0.76-2.43-1.23-3.71 M483.51,626.9
			c0.76-0.61,1.7-0.97,2.67-1.04h0.33c0.53,0.87,0.93,1.81,1.19,2.79L483.51,626.9z M497.56,610.04c1.89-1.31,4.09-2.12,6.39-2.34
			c0.48-0.55,0.9-1.15,1.26-1.78c-3.71,0-5.8-0.45-6.24-1.3c0.49-0.32,1.01-0.58,1.56-0.78l1.67,0.97c0.31-0.55,0.68-1.06,1.11-1.52
			c0-0.39-0.26-0.74-0.63-0.85c-0.35-0.21-0.74-0.33-1.15-0.33c-1.11,0.05-2.15,0.56-2.86,1.41c-0.82,0.78-1.3,1.84-1.34,2.97
			c0,0.22,0.37,0.48,1.04,0.78l1.52,0.45l-1.37,1.08C497.93,609.26,497.56,609.7,497.56,610.04 M516.13,614.23l5.09,2.53
			c1.57-1.03,2.86-2.45,3.71-4.12l-5.09-2.64l-1.67,1.37c-0.46,0.42-0.97,0.78-1.52,1.08c-1.64-0.49-3.16-1.33-4.46-2.45l-3.71,3.71
			c1.42,1.32,3.12,2.28,4.98,2.82c0.3,0,1.23-0.82,2.75-2.38 M535.19,613.45c-1.21-0.59-2.29-1.42-3.16-2.45
			c-0.19-0.65-0.31-1.33-0.33-2.01l-0.33-0.22c-1.72,2.07-3.12,4.39-4.16,6.87c0.54,0.66,1.15,1.26,1.82,1.78
			c0.6,2.03,1.02,4.1,1.26,6.2c0.4,2.17,0.66,4.37,0.78,6.58c-0.01,0.19-0.09,0.38-0.22,0.52h-7.43c-0.22,0-0.56-0.3-0.89-0.93
			c-0.32-0.38-0.52-0.85-0.59-1.34c0.04-0.83,0.13-1.66,0.26-2.49c0.19-0.82,0.3-1.65,0.33-2.49v-2.67l-2.53,2.6
			c-0.82,0.89-1.75,2.3-1.75,2.9c0.14,1.49-0.04,3-0.52,4.42h-10.77c-1.11,0-1.78-0.3-1.86-0.93c-0.68-3.38-1.11-6.81-1.26-10.25
			l-0.74-10.7c-0.79,0.84-1.53,1.72-2.23,2.64c-0.74,0.8-1.34,1.72-1.78,2.71l2.04,23.03h15.31c0.65-1.28,1.37-2.52,2.15-3.71
			c0.63,2.53,1.89,3.71,3.71,3.71h9.96c0.59-0.3,0.89-0.48,0.93-0.63c0.56-1.09,0.93-2.27,1.08-3.49c0.35-1.21,0.52-2.46,0.48-3.71
			l-0.67-7.95l4.61-5.91c-1.28-0.6-2.52-1.28-3.71-2.04 M543.55,618.8l2.67,18.91c2.3-2.8,3.5-6.34,3.38-9.96
			c-0.18-5.58-0.75-11.14-1.71-16.64C546.11,613.47,544.65,616.06,543.55,618.8 M571.89,612.3c1.47,1.08,3.12,1.91,4.87,2.45
			c0.22,0,0.82-0.56,1.78-1.71c0.63-0.68,1.2-1.41,1.71-2.19l-4.94-2.64l-3.12,2.45c-1.62-0.48-3.12-1.32-4.38-2.45l-3.45,3.71
			c1.48,1.07,3.11,1.92,4.83,2.53l2.71-2.34 M602.69,624l-6.61-5.05l12.52-3.71c0.67-2.48,1.23-4.63,1.67-6.46l-18.57,5.42
			l-0.97,3.71c-0.35,1.21-0.54,2.46-0.59,3.71c0,0.37,0.67,1.26,2.12,2.71c1.45,1.45,2.27,2.27,2.67,2.27
			c0.44-0.02,0.83-0.32,0.97-0.74l6.61,5.02h-14.53c-1.52,0-2.45-0.45-2.75-1.34c-0.8-2.71-1.42-5.46-1.86-8.25l-1.6-8.8l-0.3-0.19
			l-3.71,6.06c0.16,0.59,0.36,1.18,0.59,1.75l-6.43,3.71c-1.36,0.81-2.49,1.96-3.27,3.34c-1.01,2.28-1.79,4.66-2.34,7.1l10.66,1.86
			c0.48,0,1.11-0.52,1.97-1.93c0.46-0.99,1.04-1.91,1.75-2.75l1.19,3.71c0.37,1.3,1.54,2.22,2.9,2.27h21.14
			c0.83-2.26,1.47-4.58,1.93-6.95c0-1.11-1.71-3.19-5.16-6.13 M574.16,627.72c0.65-0.63,1.41-1.14,2.23-1.52
			c0.96-0.86,1.83-1.82,2.6-2.86l1.08,5.16L574.16,627.72z M649.09,613.12c0.56,0.49,1.18,0.91,1.86,1.23
			c0.68-0.25,1.3-0.64,1.82-1.15c0.65-0.5,1.23-1.07,1.75-1.71c-1.05-1.24-2.31-2.3-3.71-3.12c-0.7,0.35-1.32,0.85-1.82,1.45
			c-1,1-1.56,1.56-1.56,1.78s0.56,0.67,1.56,1.52 M650.94,617.69c1.57,0.94,3.2,1.8,4.87,2.56c0.33,0,0.97-0.56,1.93-1.75
			c0.66-0.66,1.22-1.41,1.67-2.23l-5.05-2.79l-1.6,1.52c-0.43,0.46-0.95,0.82-1.52,1.08c-1.57-0.55-3.03-1.38-4.31-2.45
			c-0.3,0-0.93,0.59-1.93,1.71c-0.68,0.65-1.28,1.37-1.78,2.15c1.4,1.3,3.11,2.21,4.98,2.64L650.94,617.69 M659.23,625.12
			c-0.9,0.9-1.53,2.03-1.82,3.27c-0.04,0.33-0.04,0.67,0,1v1.08c0,0.13-0.07,0.24-0.19,0.3h-4.16c0,0-0.19,0-0.19-0.22
			c0.12-1.28,0.42-2.53,0.89-3.71c0.37-1.07,0.65-2.18,0.82-3.31v-0.41c-1.41,0.45-2.93,2.19-4.49,5.16
			c-0.26,0.78-0.42,1.59-0.48,2.41h-6.17c0.86-2.11,1.44-4.32,1.75-6.58v-1.52c-1.02,0.59-1.9,1.39-2.6,2.34
			c-0.82,0.73-1.4,1.69-1.67,2.75c0,1.06-0.28,2.1-0.82,3.01h-5.16c-2.17,0.13-4.28-0.79-5.65-2.49l-3.53-5.31
			c-0.3,0.41-0.93,1.37-1.93,2.97c-0.56,0.84-1.03,1.74-1.41,2.67c0.51,0.82,1.08,1.61,1.71,2.34c0.86,0.88,1.44,1.99,1.67,3.19
			c0,1.34-1.6,3.12-4.83,5.28c-2.14,1.73-4.71,2.86-7.43,3.27c-1.31-0.08-2.59-0.48-3.71-1.15c-0.66-0.35-1.29-0.75-1.89-1.19h-0.3
			v0.97c1.68,1.55,3.62,2.81,5.72,3.71c1.93,1.14,4.08,1.85,6.32,2.08c2.46-0.18,4.68-1.57,5.91-3.71l3.71-6.39l0.3-0.37
			c0.7,0.42,1.49,0.67,2.3,0.74h7.43c0.33,0,0.71-0.26,1.15-0.74c0.27-0.35,0.58-0.66,0.93-0.93c0.3,0.51,0.49,1.08,0.56,1.67h7.69
			l0.89-0.97c0.28,0.28,0.5,0.61,0.67,0.97h8.92l1.45-3.71c0.51-1.28,0.77-2.64,0.78-4.01v-6.91c-1,0.79-1.89,1.71-2.64,2.75
			 M145.31,612.41c1.46,1.07,3.07,1.89,4.79,2.45c0.22,0,0.82-0.56,1.78-1.71c0.64-0.67,1.21-1.41,1.71-2.19l-4.9-2.64l-3.08,2.45
			c-1.61-0.49-3.1-1.32-4.35-2.45l-3.49,3.71c1.51,1.05,3.14,1.9,4.87,2.53c0.84-0.84,1.73-1.62,2.67-2.34 M171.32,643.06
			c-1.46-0.73-2.85-1.59-4.16-2.56c-0.56,0.74-1.15,1.41-1.78,2.12c-0.6,0.6-1.1,1.29-1.49,2.04c1.42,1.13,3.02,2.03,4.72,2.67
			c0.66-0.96,1.46-1.81,2.38-2.53c1.36,1.01,2.83,1.85,4.38,2.53c0.26,0,0.85-0.56,1.75-1.78l1.71-2.19l-4.79-2.97L171.32,643.06z
			 M189.89,612.78c-1.81-0.82-3.56-1.76-5.24-2.82l-4.5,4.68c1.98,0.81,3.92,1.72,5.8,2.75
			C187.39,615.97,188.71,614.43,189.89,612.78 M173.1,633.48c0.67,2.49,2.01,3.71,4.09,3.71h14.67c0.68-2.83,1.12-5.71,1.3-8.62
			c0-1.88-0.45-3.74-1.3-5.42c-0.91-1.63-1.94-3.2-3.08-4.68l-3.38,5.68c1.52,2.02,2.77,4.23,3.71,6.58h-9.77
			c-1.3,0.18-2.5-0.74-2.67-2.04c-0.03-0.21-0.03-0.43,0-0.64v-2.12c0.14-0.7,0.22-1.41,0.22-2.12v-3.12l-2.56,2.67
			c-0.91,0.78-1.53,1.84-1.78,3.01v2.19c0.06,0.75-0.11,1.5-0.48,2.15h-11.14c-1.52,0-2.41-0.45-2.75-1.34
			c-0.8-2.69-1.39-5.43-1.78-8.21l-1.67-8.77l-0.3-0.19l-3.45,6.02c0.12,0.61,0.32,1.19,0.59,1.75l-6.43,3.71
			c-1.34,0.83-2.46,1.96-3.27,3.31c-1.03,2.27-1.79,4.65-2.27,7.1l10.51,1.86c0.52,0,1.15-0.52,2.04-1.93
			c0.45-0.98,1.01-1.9,1.67-2.75l1.19,3.71c0.4,1.28,1.56,2.17,2.9,2.23h12.78l2.19-3.71 M147.28,627.64
			c0.69-0.6,1.45-1.11,2.27-1.52c0.97-0.87,1.85-1.83,2.64-2.86l1,5.16L147.28,627.64z M206.72,620.55c-2.1,0.85-3.8,2.47-4.76,4.53
			c-1.21,1.9-1.91,4.07-2.04,6.32c0,3.38,1.34,5.05,3.94,5.05c1.2,0.12,2.4-0.27,3.31-1.08c0.69-0.98,1.26-2.04,1.71-3.16
			c0.04,0.23,0.04,0.47,0,0.71c-0.01,0.55-0.11,1.09-0.3,1.6c-0.87,2.06-2.18,3.91-3.83,5.42c-1.81,1.65-3.93,2.91-6.24,3.71
			c-1.33,0.22-2.67,0.34-4.01,0.37c-1.25,0.02-2.5,0.17-3.71,0.45v0.48c3.66,1.93,7.81,2.72,11.92,2.27c3.01,0,5.46-2.04,7.43-6.24
			c1.6-3.18,2.46-6.69,2.49-10.25c0.01-2.02-0.41-4.02-1.23-5.87c-0.61-1.91-2.04-3.45-3.9-4.2 M207.68,630.02
			c-0.56,0.26-1.14,0.44-1.75,0.56c-0.97-0.1-1.89-0.49-2.64-1.11c0.18-0.58,0.5-1.1,0.93-1.52c0.37-0.44,0.91-0.7,1.49-0.71
			c0.6,0.02,1.14,0.35,1.45,0.85c0.34,0.53,0.52,1.15,0.52,1.78V630.02z M254.27,614.46l5.05,2.45c1.59-0.98,2.88-2.38,3.71-4.05
			l-5.05-2.64c-0.57,0.43-1.11,0.89-1.63,1.37c-0.45,0.43-0.97,0.79-1.52,1.08c-1.65-0.48-3.17-1.32-4.46-2.45l-3.71,3.71
			c1.42,1.3,3.12,2.26,4.98,2.79c1.01-0.65,1.92-1.44,2.71-2.34 M273.18,613.68c-1.19-0.59-2.24-1.43-3.08-2.45
			c-0.2-0.65-0.31-1.33-0.33-2.01h-0.41c-1.65,2.08-3.03,4.36-4.09,6.8c0.53,0.68,1.14,1.29,1.82,1.82
			c0.58,2.01,1.01,4.06,1.26,6.13c0.4,2.16,0.66,4.34,0.78,6.54c0.06,0.18,0.06,0.38,0,0.56h-7.43c-0.26,0-0.63-0.3-0.97-0.93
			c-0.29-0.4-0.48-0.85-0.56-1.34c0.02-0.83,0.1-1.66,0.22-2.49c0.21-0.8,0.34-1.62,0.37-2.45v-2.71l-2.49,2.64
			c-0.78,0.89-1.82,2.23-1.82,2.86c0.13,1.49-0.02,2.99-0.45,4.42h-11.89l1.23-2.01c0.45-0.61,0.72-1.33,0.78-2.08
			c-0.06-1.75-1.03-3.34-2.56-4.2c-1.42-1.03-3.11-1.6-4.87-1.63c-2.18-0.19-4.34,0.55-5.94,2.04c-1.26,1.73-2.3,3.62-3.08,5.61
			l2.12-0.3c1.85,0.01,3.57,0.98,4.53,2.56h-10.59c-1.11,0-1.75-0.3-1.89-0.93c-0.67-3.37-1.09-6.78-1.26-10.22l-0.71-10.62
			c-0.81,0.82-1.56,1.69-2.27,2.6c-0.71,0.8-1.28,1.72-1.67,2.71l2.01,22.92h16.64l1.86-2.97l1.71,2.97h14.15
			c0.64-1.28,1.36-2.52,2.15-3.71c0.56,2.49,1.82,3.71,3.71,3.71h9.96c0.36-0.15,0.69-0.36,0.97-0.63c0.5-1.1,0.85-2.26,1.04-3.45
			c0.34-1.21,0.51-2.46,0.52-3.71l-0.67-7.88l4.53-5.91c-1.04-0.48-2.27-1.19-3.71-2.04 M285.73,611.56
			c-1.79,2.25-3.24,4.76-4.31,7.43l2.6,18.8c2.33-2.75,3.55-6.28,3.42-9.88c-0.23-5.54-0.81-11.06-1.71-16.53"/>
	</g>
	<path class="st156" d="M766.44,595.7c-117.95-68.5-80.5-198.71-78.42-217.21c47.4,23,78.42,20.21,78.42,20.21V595.7z"/>
	<g transform="translate(-6 -36.92)">
		
			<linearGradient id="C_00000026124989001944944690000011143204964923973306_" gradientUnits="userSpaceOnUse" x1="772.4401" y1="9737.9893" x2="858.1783" y2="9737.9893" gradientTransform="matrix(1 0 0 -1 -6 10225.0801)">
			<stop  offset="0" style="stop-color:#CDCDCE"/>
			<stop  offset="0" style="stop-color:#CDCDCE"/>
			<stop  offset="0.68" style="stop-color:#939393"/>
			<stop  offset="1" style="stop-color:#7E7E7D"/>
		</linearGradient>
		<path id="C" style="fill:url(#C_00000026124989001944944690000011143204964923973306_);" d="M766.44,595.7
			c118.13-68.5,80.5-198.71,78.42-217.21c-47.4,23-78.42,20.21-78.42,20.21V595.7z"/>
	</g>
	<g>
		<path id="C_00000134228076265639089210000011550123146527333544_" class="st158" d="M766.44,595.7
			c118.13-68.5,80.5-198.71,78.42-217.21c-47.4,23-78.42,20.21-78.42,20.21V595.7z"/>
	</g>
	
		<linearGradient id="SVGID_00000095300662872174580670000003778115811340197269_" gradientUnits="userSpaceOnUse" x1="772.4401" y1="9737.9893" x2="853.8362" y2="9737.9893" gradientTransform="matrix(1 0 0 -1 -6 10225.0801)">
		<stop  offset="0" style="stop-color:#CDCDCE"/>
		<stop  offset="0" style="stop-color:#CDCDCE"/>
		<stop  offset="0.68" style="stop-color:#939393"/>
		<stop  offset="1" style="stop-color:#7E7E7D"/>
	</linearGradient>
	<path style="fill:url(#SVGID_00000095300662872174580670000003778115811340197269_);" d="M766.44,595.7
		c100.49-74.07,80.5-198.71,78.42-217.21c-47.4,23-78.42,20.21-78.42,20.21V595.7z"/>
	<g>
		<path class="st155" d="M224.44,385.28v14.49c-0.14,6.24,2.21,12.29,6.54,16.79c3.9,4.34,9.47,6.79,15.31,6.72
			c3.85,0.04,7.62-1.06,10.85-3.16c3.25-2.01,5.91-4.86,7.69-8.25h129.39c2.85,4.01,7.53,6.32,12.44,6.13
			c8.33,0.2,15.24-6.39,15.43-14.72c0.01-0.39,0-0.79-0.02-1.18c0.43-8.44-6.06-15.63-14.5-16.07c-0.3-0.02-0.61-0.02-0.91-0.02
			c-8.33-0.28-15.3,6.25-15.58,14.57c-0.01,0.42-0.01,0.84,0.01,1.25c-0.04,0.62-0.04,1.24,0,1.86v0.33h-38.15
			c1.46-2.39,2.08-5.2,1.75-7.99v-11.52c-0.03-2.08,0.17-4.16,0.59-6.2c-1.12-0.34-2.28-0.53-3.45-0.56c-2.82,0-4.94,1.41-4.94,3.71
			v6.87v8.02c0.1,1.78-0.18,3.57-0.82,5.24c-0.97,1.63-2.8,2.55-4.68,2.34h-73.85c0.25-1.39,0.37-2.79,0.37-4.2v-17.91
			c0-1.25,0.13-2.5,0.41-3.71c-1.12-0.35-2.28-0.54-3.45-0.56c-2.79,0-4.9,1.41-4.9,3.71v7.84v9.47c0.12,4.11-1.05,8.15-3.34,11.55
			c-4.08,5.84-12.11,7.26-17.95,3.19c-1.24-0.87-2.32-1.95-3.19-3.19c-2.32-3.4-3.52-7.44-3.42-11.55v-14.86
			c-0.03-1.97,0.17-3.94,0.59-5.87c-1.12-0.34-2.28-0.53-3.45-0.56c-2.82,0-4.94,1.41-4.94,3.71v3.71L224.44,385.28z M406.24,393.05
			c4.55,0.26,8.02,4.16,7.76,8.7c-0.01,0.15-0.02,0.29-0.04,0.43c0.56,4.23-2.42,8.11-6.65,8.67c-0.26,0.03-0.52,0.05-0.78,0.06
			c-4.55-0.2-8.07-4.06-7.87-8.61c0.01-0.15,0.02-0.31,0.03-0.46c-0.5-4.34,2.62-8.27,6.96-8.76c0.16-0.02,0.31-0.03,0.47-0.04
			 M435.07,359.13h-5.57c-0.86-0.54-1.35-1.51-1.26-2.53c-0.08-1.35,0.94-2.51,2.3-2.6c0.01,0,0.03,0,0.04,0
			c0.94-0.11,1.8,0.55,1.93,1.49l2.49-1.3c-0.68-1.81-2.41-3.01-4.35-3.01c-2.95,0-5.35,2.39-5.35,5.34c0,0.08,0,0.15,0,0.23
			c0.13,0.81,0.32,1.6,0.59,2.38h-2.71v3.19h11.89V359.13z"/>
		<path class="st155" d="M563.61,411.96h7.65v-27.04l0.3-12.63c-0.03-2.33,0.19-4.66,0.67-6.95c-1.21-0.35-2.46-0.54-3.71-0.56
			c-2.93,0-5.16,1.49-5.16,4.05v6.98L563.61,411.96z M433.21,396.36v-23.14v-1.71c-0.05-2.28,0.16-4.56,0.63-6.8
			c-1.21-0.34-2.46-0.53-3.71-0.56c-2.9,0-5.09,1.45-5.09,3.97l0.26,16.23l0,0v15.08c-0.19,3.2,0.77,6.36,2.71,8.92
			c2.1,2.53,5.27,3.9,8.54,3.71h108.1c7.69,0,11.55-4.12,11.55-12.44v-15.6l0.33-11.63c-0.05-2.33,0.16-4.66,0.63-6.95
			c-1.21-0.36-2.46-0.54-3.71-0.56c-2.93,0-5.16,1.49-5.16,4.05v3.97v24c0.09,1.67-0.1,3.34-0.56,4.94
			c-1.03,1.67-2.96,2.56-4.9,2.27h-28.01c1.38-2.42,1.95-5.22,1.63-7.99v-7.17v-4.35c-0.05-2.28,0.16-4.56,0.63-6.8
			c-1.2-0.37-2.45-0.57-3.71-0.59c-2.9,0-5.09,1.49-5.09,4.01v6.65v8.66c0.12,1.79-0.16,3.57-0.82,5.24
			c-0.95,1.63-2.77,2.55-4.64,2.34h-61.52c-2.04,0.17-4.08-0.23-5.91-1.15C433.68,401.23,432.87,398.78,433.21,396.36
			 M514.65,375.29c2.56,0,4.64-2.08,4.64-4.64c0-2.56-2.08-4.64-4.64-4.64c-2.56,0-4.64,2.08-4.64,4.64c0,0.01,0,0.02,0,0.04
			c0,2.54,2.06,4.61,4.61,4.61C514.62,375.29,514.63,375.29,514.65,375.29 M501.31,375.29c2.56,0.02,4.66-2.04,4.68-4.61
			c0.02-2.56-2.04-4.66-4.61-4.68c-2.56-0.02-4.66,2.04-4.68,4.61c0,0.02,0,0.05,0,0.07C496.72,373.22,498.77,375.27,501.31,375.29
			 M345.92,423.36c-0.02,2.56,2.04,4.66,4.61,4.68s4.66-2.04,4.68-4.61c0.02-2.56-2.04-4.66-4.61-4.68c-0.01,0-0.02,0-0.04,0
			C348.01,418.76,345.94,420.81,345.92,423.36 M246.02,375.29c2.56,0,4.64-2.08,4.64-4.64c0-2.56-2.08-4.64-4.64-4.64
			c-2.56,0-4.64,2.08-4.64,4.64c0,0.01,0,0.02,0,0.04C241.4,373.24,243.47,375.29,246.02,375.29 M332.73,423.36
			c0,2.54,2.06,4.61,4.61,4.61c2.54,0,4.61-2.06,4.61-4.61s-2.06-4.61-4.61-4.61c-1.22,0-2.39,0.49-3.26,1.35
			C333.21,420.97,332.73,422.14,332.73,423.36"/>
	</g>
</g>
</svg>
