<?xml version="1.0" encoding="utf-8"?>
<!-- Generator: Adobe Illustrator 27.6.1, SVG Export Plug-In . SVG Version: 6.00 Build 0)  -->
<svg version="1.1" id="Layer_1" xmlns="http://www.w3.org/2000/svg" xmlns:xlink="http://www.w3.org/1999/xlink" x="0px" y="0px"
	 viewBox="0 0 1000 1000" style="enable-background:new 0 0 1000 1000;" xml:space="preserve">
<style type="text/css">
	.st0{fill:#EEF2F8;}
	.st1{fill:#49A17B;}
	.st2{fill:#7631CD;}
	.st3{clip-path:url(#SVGID_00000083076476012870606270000010755278565633266108_);}
	.st4{fill:#404041;}
	.st5{clip-path:url(#SVGID_00000051383063260755764000000011295925849267225992_);}
	.st6{clip-path:url(#SVGID_00000140009590015318490360000017239509168448862128_);}
	.st7{fill:#7163EB;}
	.st8{fill:url(#SVGID_00000153686836539023267730000001056201063759771781_);}
	.st9{fill:url(#SVGID_00000142135463825388893270000018262231933317530769_);}
	.st10{fill:url(#SVGID_00000169540663321432697370000006128470416005350792_);}
	.st11{fill:url(#SVGID_00000059998699842130094410000004040064064393673128_);}
	.st12{fill:url(#SVGID_00000183236858573151715380000010446295511487115665_);}
	.st13{fill:url(#SVGID_00000067916639307824257520000017318320261099816610_);}
	.st14{fill:url(#SVGID_00000073688855726942631050000018150132072412286897_);}
	.st15{fill:url(#SVGID_00000031891734329243680950000001446312156205696703_);}
	.st16{fill:url(#SVGID_00000056393933211109703850000007918398383702969000_);}
	.st17{fill:url(#SVGID_00000168833186833292016940000007380575307523942819_);}
	.st18{fill:url(#SVGID_00000041288309039585840940000016917927681255640739_);}
	.st19{fill:url(#SVGID_00000181776533990636461560000010231675090716737468_);}
	.st20{fill:url(#SVGID_00000119098544225031477520000006033417054283189412_);}
	.st21{fill:url(#SVGID_00000142141331285912386720000015972245469788379813_);}
	.st22{fill:url(#SVGID_00000051370098217443983420000015476362167978507152_);}
	.st23{fill:url(#SVGID_00000027604219397365201140000008621159361435608215_);}
	.st24{fill:url(#SVGID_00000172435162845323978220000015611030621258276793_);}
	.st25{fill:url(#SVGID_00000037690722915112360130000003163845779170800524_);}
	.st26{fill:url(#SVGID_00000038394904486382251550000009110439496269030808_);}
	.st27{fill:url(#SVGID_00000108304793337559370650000015933635343032003736_);}
	.st28{fill:url(#SVGID_00000073700925074081064330000009501443729731896238_);}
	.st29{fill:url(#SVGID_00000057124078278257857040000011527841163035904931_);}
	.st30{fill:url(#SVGID_00000050634244637834152390000004890172185231880891_);}
	.st31{fill:url(#SVGID_00000011745774077538642730000012285259388225157042_);}
	.st32{fill:url(#SVGID_00000096054492549334332670000009964207457057226387_);}
	.st33{fill:url(#SVGID_00000075128296686400684800000000934440304552923305_);}
	.st34{fill:url(#SVGID_00000103964685842463743450000000248078273382291135_);}
	.st35{fill:url(#SVGID_00000011007697627695978780000000165101371818465159_);}
	.st36{fill:url(#SVGID_00000118373528139404806020000017691403348519138458_);}
	.st37{fill:url(#SVGID_00000118372849233428995870000006746032395751957172_);}
	.st38{fill:url(#SVGID_00000080901487141390347570000011548560574114991036_);}
	.st39{fill:url(#SVGID_00000024709758697247449700000001935993860716282524_);}
	.st40{fill:#3F4144;}
	.st41{fill:#2E3B89;}
	.st42{clip-path:url(#SVGID_00000152953857018169111340000018339378349834051240_);}
	.st43{clip-path:url(#SVGID_00000054979561550087296000000010596722479237052052_);}
	.st44{clip-path:url(#SVGID_00000118379006063713626050000003764047091460778138_);}
	.st45{fill:#F3B840;}
	.st46{fill:#E04430;}
	.st47{fill:#CA5C6C;}
	.st48{fill:#DD9033;}
	.st49{fill:#CD412D;}
	.st50{fill:#D47935;}
	.st51{fill:#D5709F;}
	.st52{fill:#E9BD8D;}
	.st53{fill:#E19F4B;}
	.st54{fill:#EABF4B;}
	.st55{fill:#CA582D;}
	.st56{fill:#DA8F38;}
	.st57{fill:#C04624;}
	.st58{fill:#C85E26;}
	.st59{fill:#B1341B;}
	.st60{fill:#B24C1F;}
	.st61{fill:#9E2B17;}
	.st62{opacity:0.52;fill:#5EC9E8;enable-background:new    ;}
	.st63{opacity:0.49;fill:#8462DA;enable-background:new    ;}
	.st64{opacity:0.52;fill:#2D63E5;enable-background:new    ;}
	.st65{fill-rule:evenodd;clip-rule:evenodd;fill:#439579;}
	.st66{fill:#3273C2;}
	.st67{fill:#575756;}
	.st68{fill:#1D2C66;}
	.st69{fill:#BCC0DA;}
	.st70{fill:#464B6F;}
	.st71{display:none;fill:#FFFFFF;}
	.st72{fill:#303030;}
	.st73{fill:#B73533;}
	.st74{fill:#04B15C;}
	.st75{fill:url(#SVGID_00000088112941713698103080000014691481443242417564_);}
	.st76{fill:url(#SVGID_00000055704168846063936470000009113981428467696546_);}
	.st77{fill:url(#SVGID_00000107574932768844350870000014996272224523291316_);}
	.st78{fill:url(#SVGID_00000116948015853274322410000011795294754413185677_);}
	.st79{fill:#D33B30;}
	.st80{fill:url(#SVGID_00000090973675739916786230000017830198876889247920_);}
	.st81{fill:url(#SVGID_00000091015602958631993620000006646927895222917770_);}
	.st82{fill:url(#SVGID_00000119832172322058235300000003442684886293289905_);}
	.st83{fill:url(#SVGID_00000060732205182419111660000015626687961581565609_);}
	.st84{fill-rule:evenodd;clip-rule:evenodd;fill:#469BC7;}
	.st85{fill:#222943;}
	.st86{fill-rule:evenodd;clip-rule:evenodd;fill:#1E4B91;}
	.st87{fill-rule:evenodd;clip-rule:evenodd;fill:#F0A140;}
	.st88{fill:#72D24C;}
	.st89{fill-rule:evenodd;clip-rule:evenodd;}
	.st90{display:none;fill:#FBFAFA;}
	.st91{fill:#242323;}
	.st92{fill:#BA3630;}
	.st93{opacity:0.35;fill:#53A0B1;enable-background:new    ;}
	.st94{fill:#20465E;}
	.st95{fill:url(#SVGID_00000005230528382148308980000012692127522380955811_);}
	.st96{fill:#367A8D;}
	.st97{fill:url(#SVGID_00000093877907861223474050000009921880098845329038_);}
	.st98{fill:url(#SVGID_00000092417754916890784440000007004580516125174408_);}
	.st99{opacity:0.88;fill:url(#SVGID_00000023961612257437731150000006804660765815150469_);enable-background:new    ;}
	.st100{fill:url(#SVGID_00000059310926455809814730000014347570489201667483_);}
	.st101{fill:#143661;}
	.st102{fill:#56BC8E;}
	.st103{fill:#2B2B37;}
	.st104{fill:#334C71;}
	.st105{fill:#3777E6;}
	.st106{fill:#A8EDE6;}
	.st107{fill:#EBC18E;}
	.st108{fill:#2A2F44;}
	.st109{fill:#1B4625;}
	.st110{fill:#98C355;}
	.st111{fill:#60B258;}
	.st112{fill:#41914D;}
	.st113{fill:#2B663D;}
	.st114{fill:#CCDA70;}
	.st115{fill:#34516A;}
	.st116{fill:url(#Path_164488_00000069391037574197413380000009813406619587083689_);}
	.st117{fill:#FFFFFF;}
	.st118{fill:#58595B;}
	.st119{fill:#55AC9B;}
	.st120{fill:#464442;}
	.st121{fill:#B7A891;}
	.st122{fill:#265674;}
	.st123{fill:#759ECF;}
	.st124{fill:#C9CACB;}
	.st125{fill:#F2F2F2;}
	.st126{fill:#2B3777;}
	.st127{fill:#27599E;}
	.st128{fill:#25589C;}
	.st129{fill:#2B63A5;}
	.st130{fill-rule:evenodd;clip-rule:evenodd;fill:#B9B9B9;}
	.st131{fill:#B9B9B9;}
	.st132{fill:#7185B5;}
	.st133{fill:#1C4882;}
	.st134{fill:#0F2C5A;}
	.st135{fill:#091C46;}
	.st136{fill:#54565A;}
	.st137{fill:#306541;}
	.st138{fill-rule:evenodd;clip-rule:evenodd;fill:#CAAD5D;}
	.st139{fill-rule:evenodd;clip-rule:evenodd;fill:#0D0D0D;}
	.st140{fill:#181818;stroke:#181818;stroke-width:0.3631;stroke-miterlimit:10;}
	.st141{fill:#305E3C;}
	.st142{fill:#181818;stroke:#181818;stroke-width:0.3631;stroke-miterlimit:9.9999;}
	.st143{fill:#181818;}
	.st144{fill:#141414;}
	.st145{fill:#1F4169;}
	.st146{fill:#49A2D9;}
	.st147{fill:#59585A;}
	.st148{fill:#030F97;}
	.st149{fill:#56A9DC;}
	.st150{fill:#4AA3DB;}
	.st151{fill:#545352;}
	.st152{fill:#412C6F;}
	.st153{fill:#BF2F7C;}
	.st154{fill:#215280;}
	.st155{fill:#7D7D7D;}
	.st156{fill:#456790;}
	.st157{fill:url(#C_00000151504687040042573940000013619712328460730796_);}
	.st158{fill:#C6C7C8;}
	.st159{fill:url(#SVGID_00000067942265103141886630000009303718045431576982_);}
	.st160{fill:#285E96;}
	.st161{fill:#61993F;}
	.st162{fill:#23568C;}
	.st163{fill:#4FA4DA;}
	.st164{fill:#6F80B0;}
	.st165{fill:#265896;}
	.st166{fill:#3B81B6;}
	.st167{fill:#275A6B;}
	.st168{fill:#595A5C;}
	.st169{fill:#D7393A;}
	.st170{fill:#8AC9D5;}
	.st171{fill:#D63939;}
	.st172{fill:#D63838;}
	.st173{fill:#3172B5;}
	.st174{fill:#3475B7;}
	.st175{fill:#3374B7;}
	.st176{fill:#7B7C7F;}
	.st177{fill:#7A7B7E;}
	.st178{fill:#3373B6;}
	.st179{fill:#7B7B7E;}
	.st180{fill:#7C7C7F;}
	.st181{fill:#7E7F81;}
	.st182{fill:#797A7D;}
	.st183{fill:#7D7D80;}
	.st184{fill:#7C7D80;}
	.st185{fill:#7C7B7E;}
	.st186{fill:#808184;}
	.st187{fill:#214167;}
	.st188{fill-rule:evenodd;clip-rule:evenodd;fill:#C8AC47;}
	.st189{fill:none;stroke:#C8AC47;stroke-width:9.5261;}
	.st190{fill:none;stroke:#E6BA5D;stroke-width:9.5261;stroke-miterlimit:10;}
	.st191{fill-rule:evenodd;clip-rule:evenodd;fill:#304567;}
	.st192{fill:#CFCECC;}
	.st193{clip-path:url(#SVGID_00000090265859607781214310000006995716062333146300_);}
	.st194{fill:#265B65;}
	.st195{fill:#767A52;}
	.st196{fill:#808082;}
	.st197{fill-rule:evenodd;clip-rule:evenodd;fill:url(#SVGID_00000132796610070814624410000002072929404952701879_);}
	.st198{fill-rule:evenodd;clip-rule:evenodd;fill:url(#SVGID_00000080912235866386957570000009605366362054470547_);}
	.st199{fill:#3A5CA5;}
	.st200{fill:#2F3A89;}
	.st201{fill:#6D6E71;}
	.st202{fill:#41918E;}
	.st203{fill:#445DA5;}
	.st204{clip-path:url(#SVGID_00000078739235906919899410000014607861483888278693_);}
	.st205{fill:#4A6EAF;}
	.st206{fill:#381D13;}
	.st207{clip-path:url(#SVGID_00000146482649631293283880000010493055209564140177_);}
	.st208{clip-path:url(#SVGID_00000029725799050254460960000016371448581302069128_);}
	.st209{clip-path:url(#SVGID_00000092421787829062989940000002077390344003659409_);}
	.st210{clip-path:url(#SVGID_00000159431893651147654000000007828521529847561656_);}
	.st211{clip-path:url(#SVGID_00000140003528789295044460000011920981476258622611_);}
	.st212{clip-path:url(#SVGID_00000018227804287461056990000002472148954633462461_);}
	.st213{clip-path:url(#SVGID_00000085237429432783117610000000004708278770779302_);}
	.st214{clip-path:url(#SVGID_00000029726582875711802470000009896316980996320129_);}
	.st215{clip-path:url(#SVGID_00000049194426525256757780000010968932067652512178_);}
	.st216{clip-path:url(#SVGID_00000165934596730388458520000014937123335075423383_);}
	.st217{clip-path:url(#SVGID_00000000934747187334994790000014684869974496684932_);}
	.st218{fill:#A2A8AC;}
	.st219{fill:#41834F;}
	.st220{fill:#265BB2;}
	.st221{fill:#293B90;}
	.st222{fill:#C99378;}
	.st223{fill:none;}
	.st224{enable-background:new    ;}
	.st225{fill:#203D35;}
	.st226{fill:#817771;}
	.st227{fill:#265C80;}
	.st228{fill:#2C2926;}
	.st229{fill:#59BCF8;}
	.st230{fill-rule:evenodd;clip-rule:evenodd;fill:#0101C2;}
	.st231{fill-rule:evenodd;clip-rule:evenodd;fill:#0202C6;}
	.st232{fill:#3A42F4;}
	.st233{fill-rule:evenodd;clip-rule:evenodd;fill:#050386;}
	.st234{fill:#3038F4;}
	.st235{clip-path:url(#SVGID_00000143604850372744406660000013643821484128534424_);}
	.st236{fill:#ED7D30;}
	.st237{fill:#479EE6;}
	.st238{fill:url(#Path_6_00000000909875387883493580000011760553228488202398_);}
	.st239{fill:#CC2C79;}
	.st240{fill:#1A1818;}
	.st241{fill-rule:evenodd;clip-rule:evenodd;fill:#FFFFFF;}
	.st242{fill-rule:evenodd;clip-rule:evenodd;fill:#469B88;}
	.st243{fill-rule:evenodd;clip-rule:evenodd;fill:#2C2E6A;}
	.st244{fill:#469B88;}
	.st245{fill:#1E1C44;}
	.st246{fill:#DA6D2A;}
	.st247{clip-path:url(#SVGID_00000139996847681866568620000007341884535818227341_);}
	.st248{fill:#273669;}
	.st249{fill:#567DF6;}
	.st250{fill:#70D3FA;}
	.st251{fill:#88FAC1;}
	.st252{fill:#070E51;}
	.st253{opacity:0.5;}
	.st254{fill:url(#SVGID_00000151515819552189728200000010811389193094817177_);}
	.st255{fill:url(#SVGID_00000084532097884019289850000008899990363158549180_);}
	.st256{fill:url(#SVGID_00000067225955082814094030000003415932363450045092_);}
	.st257{fill:#05039B;}
	.st258{fill:#406DAF;}
	.st259{fill:#808086;}
	.st260{fill:#84C6C9;}
	.st261{fill:#86398D;}
	.st262{fill:#8E599C;}
	.st263{fill:#E7963E;}
	.st264{fill:#70C3ED;}
	.st265{fill:#4B2A50;}
	.st266{fill:#333333;}
	.st267{fill:#75FAAA;}
	.st268{fill:url(#SVGID_00000047748763509359644670000009963718113152026772_);}
	.st269{fill:#160141;}
	.st270{fill:url(#SVGID_00000155127418369558685760000013096779376511967897_);}
	.st271{fill:url(#SVGID_00000093889465916406197920000008921605104955541945_);}
	.st272{fill:url(#SVGID_00000040553646154008432410000009067055574591825296_);}
	.st273{fill-rule:evenodd;clip-rule:evenodd;fill:url(#SVGID_00000087397049620586044570000000546283172649439142_);}
	.st274{fill-rule:evenodd;clip-rule:evenodd;fill:url(#SVGID_00000115515288480805606750000000588739903063740296_);}
	.st275{fill-rule:evenodd;clip-rule:evenodd;fill:url(#SVGID_00000011025659690545230780000008316737501985566890_);}
	.st276{fill-rule:evenodd;clip-rule:evenodd;fill:url(#SVGID_00000086653664102108408010000014335988367838813860_);}
	.st277{fill:#414042;}
</style>
<g>
	<path class="st171" d="M378.8,465.38c2.55-0.32,5.1-0.64,7.64-0.96c3.72-0.42,7.43-0.85,11.15-1.38c0.32,0,0.64-0.11,0.96-0.21
		c0.11,0,0.32,0.11,0.42,0.11c3.93-0.32,7.75-0.64,11.68-0.96c0.32,0,0.74-0.21,1.06-0.32c1.91,0,3.72,0,5.63-0.11
		c9.98-0.53,20.07-0.53,30.05,0c5.31,0.32,10.72,0.64,16.03,1.06c4.35,0.42,8.6,1.06,12.95,1.59c0.64,0.11,1.27,0.11,1.8,0.11
		c1.06,0.21,2.12,0.53,3.19,0.74c2.23,0.42,4.35,0.74,6.58,1.06c7.86,1.7,15.61,3.61,23.25,6.05c0.21,0.11,0.42-0.11,0.74-0.11
		c0-0.53,0-0.96,0-1.38c0-10.09,0-20.28-0.11-30.37c0-2.97-0.21-5.95-0.42-8.81c-0.32-3.72-2.12-5.63-5.73-6.37
		c-1.38-0.32-2.76-0.42-4.14-0.53c-0.96-0.11-1.91,0-2.76-0.53c0-0.42-0.11-0.74-0.11-1.17c0.85-0.64,1.91-0.64,2.87-0.64
		c3.72,0.11,7.33,0.11,11.04,0.21c4.14,0.21,8.28,0.11,12.42,0c5.1-0.11,10.19-0.32,15.18-0.21c5.52,0.11,11.04,0.85,16.35,2.76
		c8.6,3.08,14.23,9.13,16.88,17.84c1.17,3.93,1.06,8.07,0.53,12.1c-0.85,6.37-3.4,12.1-7.11,17.41c-4.88,6.9-10.51,12.95-17.94,17.2
		c-0.21,0.11-0.42,0.32-0.85,0.64c0.74,0.64,1.27,1.06,1.91,1.59c6.37,4.78,12.21,10.19,17.2,16.46
		c6.37,8.07,11.04,16.99,13.91,26.86c0.11,0.32,0.21,0.64,0.21,0.96c0,0.11,0,0.32,0,0.64c-1.17,0.42-2.44,0.21-3.61,0.21
		s-2.34,0-3.5,0c-1.27,0-2.44,0-3.5,0c-0.32-0.32-0.53-0.32-0.53-0.53c-3.5-8.6-8.92-15.93-15.29-22.51
		c-8.49-9.02-18.47-16.03-29.2-21.98c-0.42-0.21-0.85-0.32-1.38-0.53c0,0.53-0.11,0.74-0.11,1.06c0,7.54,0,14.97,0.11,22.51
		c0.11,3.93,0.42,7.75,0.74,11.68c0.11,1.06,0.32,2.12,0.64,3.19c0.74,2.34,2.23,3.93,4.78,4.25c2.12,0.32,4.14,0.53,6.26,0.74
		c0.42,0,0.96,0,1.38,0.11c0.21,0.11,0.64,0.32,0.64,0.53c0,0.32-0.11,0.85-0.32,0.96c-0.32,0.21-0.85,0.32-1.27,0.42
		c-1.17,0.11-2.34,0.11-3.5,0.11c-5.1-0.11-10.09-0.32-15.18-0.42c-3.4,0-6.69,0.21-10.09,0.32c-1.27,0-2.65,0.11-3.93,0.11
		c-0.74,0-1.38,0-2.12-0.11c-0.64-0.11-1.06-0.53-0.96-1.06c0-0.53,0.42-0.74,0.96-0.85c0.96-0.11,2.02-0.21,2.97-0.42
		c0.53-0.11,1.06-0.21,1.59-0.32c1.49-0.32,2.55-1.27,3.08-2.55c0.32-0.74,0.64-1.59,0.74-2.44c0.32-1.8,0.74-3.72,0.85-5.52
		c0.21-4.25,0.42-8.6,0.53-12.85c0.11-7.86,0-15.71,0.11-23.68c0-0.53,0-1.06-0.11-1.7c-0.85-0.32-1.7-0.74-2.55-1.06
		c-6.58-2.65-13.27-4.88-20.17-6.8c-0.32-0.11-0.74-0.11-1.17-0.11c-3.19-0.74-6.37-1.59-9.56-2.34c-0.32-0.11-0.53-0.32-0.85-0.32
		c-7.43-1.59-14.86-2.87-22.3-3.82c-5.31-0.64-10.51-1.06-15.82-1.59c-8.6-0.85-17.31-0.96-25.91-0.74c-0.64,0-1.17,0.21-1.8,0.32
		c-4.35,0-8.71,0.32-13.06,0.85c-2.76,0.21-5.52,0.42-8.28,0.85c-4.57,0.64-9.02,1.38-13.48,2.23c-0.74,0.11-1.49,0.42-2.23,0.53
		c-5.1,0.85-9.98,2.02-14.97,3.4c-2.97,0.74-5.95,1.49-8.92,2.34c-1.8,0.53-3.5,1.17-5.31,1.7c-2.12,0.64-4.25,1.38-6.37,2.02
		c-1.91,0.64-3.72,1.38-5.63,2.12c-0.85,0.21-1.59,0.42-2.44,0.74c-14.23,5.31-27.92,11.79-41.3,19.11
		c-0.64,0.32-1.17,1.06-2.12,0.74l0,0c0.11-0.53,0.21-1.06,0.32-1.59c1.38-3.82,2.87-7.54,4.14-11.36c0.42-1.17,1.06-1.8,2.12-2.23
		c6.58-3.08,13.38-5.73,20.28-8.18c5.73-2.02,11.68-3.82,17.52-5.73c0.42-0.11,0.85-0.32,1.27-0.53c0.21,0,0.42,0,0.74,0
		c4.14-1.17,8.28-2.23,12.42-3.4c0.64-0.21,1.17-0.42,1.7-0.64c0.64-0.11,1.38-0.21,2.02-0.32c4.67-1.06,9.24-2.02,13.91-3.08
		c2.12-0.42,4.25-0.96,6.37-1.38c1.17-0.11,2.44-0.21,3.61-0.42C375.72,466.02,377.21,465.7,378.8,465.38z M524.15,476.85
		c0.32,0.32,0.42,0.42,0.53,0.53c3.93,1.91,7.86,3.82,11.79,5.73c0.64,0.32,1.38,0.42,2.02,0.53c2.34,0.11,4.67,0,7.01-0.32
		c4.78-0.64,8.49-2.97,11.15-6.9c1.7-2.44,2.76-5.1,3.61-7.86c1.38-4.99,1.7-9.98,1.27-15.08c-0.32-3.93-1.06-7.75-2.65-11.36
		c-3.93-9.02-10.72-13.8-20.49-14.76c-3.19-0.32-6.37,0-9.56,0.11c-0.85,0-1.7,0.21-2.55,0.42c-1.49,0.32-2.02,0.85-2.02,2.34
		c0,0.42,0,0.96,0,1.38c0,14.33,0,28.67,0,43C524.15,475.47,524.15,476.11,524.15,476.85z"/>
	<path class="st172" d="M516.83,299.97c31.11,17.84,62.11,35.57,93.22,53.3c0.11,0,0.11,0.32,0.11,0.42c-62.22,0-124.44,0-186.65,0
		c0-0.21,0-0.42,0.11-0.53C454.61,335.53,485.61,317.7,516.83,299.97z"/>
	<path class="st173" d="M526.49,412.09c2.12-1.49,91.63-52.66,93.54-53.51c1.7,0.64,90.14,51.18,93.22,53.19
		c-0.11,0.53-0.64,0.32-0.96,0.32c-0.53,0-1.06,0-1.59,0c-60.41,0-120.83,0-181.24,0C528.61,412.09,527.76,412.09,526.49,412.09z"/>
	<path class="st173" d="M507.38,411.77c-0.21,0.11-0.32,0.32-0.42,0.32c-62.01,0-123.9,0-185.8,0c-0.21-0.74,0.42-0.85,0.74-0.96
		c5.31-3.08,10.51-6.05,15.82-9.02c24.63-14.12,49.26-28.14,73.9-42.26c0.85-0.42,1.59-0.85,2.55-1.38
		c30.9,17.73,61.79,35.36,92.69,52.98C507.06,411.45,507.17,411.66,507.38,411.77z"/>
	<path class="st174" d="M666.32,464c0,8.07,0.11,16.03,0,24.1c-0.11,6.9-0.85,13.91-2.76,20.6c-1.38,4.88-3.29,9.56-6.37,13.7
		c-5.1,6.9-11.89,11.36-19.85,14.12c-4.14,1.49-8.49,2.12-12.85,2.34c-5.95,0.21-11.89-0.21-17.62-1.7
		c-14.55-3.82-23.57-13.17-27.5-27.5c-1.8-6.58-2.44-13.38-2.44-20.17c0-13.7,0-27.29,0-40.98c0-5.1-0.21-10.09-0.42-15.18
		c0-1.17-0.21-2.34-0.53-3.5c-0.53-2.02-1.8-3.4-3.72-4.14c-1.8-0.74-3.72-0.96-5.73-1.06c-0.74,0-1.38-0.11-2.12-0.21
		c-0.21,0-0.53-0.42-0.53-0.64c0-0.32,0.11-0.85,0.42-0.96c0.64-0.21,1.38-0.42,2.02-0.42c2.55,0,5.2,0,7.75,0.11
		c6.26,0.32,12.42,0.42,18.69,0c1.91-0.11,3.93-0.11,5.84-0.11c0.64,0,1.27,0.11,1.8,0.32c0.21,0.11,0.53,0.64,0.53,0.96
		c0,0.32-0.42,0.74-0.64,0.85c-1.17,0.21-2.44,0.32-3.72,0.53c-0.42,0.11-0.96,0.11-1.38,0.21c-1.8,0.53-3.19,1.49-3.72,3.29
		c-0.42,1.27-0.74,2.76-0.85,4.14c-0.21,3.93-0.42,7.75-0.42,11.68c0,14.86-0.11,29.83,0,44.7c0,6.69,0.53,13.38,2.34,19.96
		c1.38,5.1,3.5,9.87,7.11,13.8c5.41,6.05,12.1,9.66,20.39,10.19c5.31,0.32,10.41,0,15.4-1.91c8.39-3.19,14.33-8.92,17.52-17.41
		c1.7-4.67,2.65-9.45,3.29-14.33c0.53-4.57,0.64-9.13,0.64-13.8c0-14.01,0-27.92,0-41.94c0-2.97-0.11-5.95-0.21-8.92
		c0-1.38-0.21-2.76-0.42-4.14c-0.42-2.55-1.91-4.25-4.35-4.99c-1.49-0.42-3.08-0.64-4.57-0.85c-0.74-0.11-1.59-0.11-2.34-0.11
		c-0.64-0.11-1.17-0.42-1.17-0.96c0-0.53,0.42-0.96,1.06-1.06c0.64-0.11,1.27-0.21,1.8-0.11c2.34,0,4.67,0,7.01,0.11
		c5.41,0.32,10.72,0.42,16.14,0c1.38-0.11,2.76-0.11,4.25-0.11c1.27,0,2.55,0.53,3.61,0.32c1.27-0.21,2.44-0.32,3.72-0.32
		c2.65,0,5.31,0.11,7.96,0.21c5.31,0.32,10.62,0.21,15.93,0c2.02-0.11,4.03-0.11,6.05-0.21c0.64,0,1.27,0.11,1.8,0.21
		c0.64,0.11,1.06,0.74,0.96,1.17c-0.11,0.53-0.53,0.74-1.06,0.85c-1.27,0.21-2.44,0.32-3.72,0.53c-0.42,0.11-0.96,0.11-1.38,0.32
		c-1.7,0.53-2.97,1.7-3.61,3.4c-0.64,1.7-0.85,3.5-0.85,5.31c-0.11,3.61-0.21,7.22-0.21,10.72c0,20.49,0,41.09,0,61.58
		c0,6.37-0.11,12.85-0.32,19.22c-0.21,5.41-0.74,10.72-2.23,15.93c-1.8,6.48-4.99,12.1-9.56,16.88c-2.55,2.65-5.31,5.1-8.18,7.33
		c-3.29,2.44-6.58,4.78-9.87,7.11c-0.74,0.53-1.59,0.96-2.44,1.38c-0.32,0.21-0.74,0.21-1.17,0.21c-0.64,0-1.17-0.85-0.74-1.38
		c0.42-0.53,0.96-1.06,1.49-1.49c1.27-0.96,2.76-1.8,3.93-2.87c7.33-6.37,12.1-14.12,13.91-23.78c0.96-5.31,1.59-10.62,1.91-16.03
		c0.53-7.54,0.53-15.08,0.53-22.72c0-17.52,0-34.93,0-52.45c0-5.1,0-10.19-0.11-15.18c0-2.23-0.21-4.57-0.42-6.8
		c0-0.74-0.21-1.38-0.42-2.02c-0.53-2.02-1.91-3.4-3.82-4.14c-1.59-0.64-3.29-0.85-4.99-0.96c-0.96-0.11-2.02-0.21-2.97-0.32
		c-0.11,0-0.11-0.11-0.21-0.11c-2.23,0.42-4.46,0.74-6.58,1.27c-1.7,0.42-2.76,1.8-3.29,3.4c-0.32,1.06-0.53,2.12-0.64,3.19
		c-0.21,3.08-0.42,6.26-0.42,9.34C666.43,449.03,666.43,456.47,666.32,464C666.43,464,666.43,464,666.32,464z"/>
	<path class="st174" d="M359.58,476.32c4.88-1.38,9.87-2.55,14.97-3.4c1.38,0.64,2.65,1.27,4.03,1.91
		c4.99,2.55,9.34,5.95,12.95,10.19c10.51,12.63,8.49,30.05-1.7,40.77c-5.1,5.31-11.25,8.49-18.37,10.09
		c-4.67,1.06-9.34,1.49-14.12,1.17c-5.73-0.32-11.36-0.64-17.09-0.74c-4.57-0.11-9.02,0.21-13.59,0.32c-0.96,0-1.91,0-2.76,0
		c-0.32,0-0.74-0.21-1.06-0.42c-0.21-0.21-0.32-0.53-0.32-0.85c0-0.21,0.32-0.53,0.53-0.64s0.64-0.11,0.96-0.11
		c1.06-0.11,2.12-0.32,3.29-0.42c2.34-0.21,3.72-1.49,4.35-3.72c0.42-1.8,0.96-3.61,1.06-5.52c0.32-4.25,0.53-8.39,0.53-12.63
		c0.11-9.24,0.11-18.58,0.21-27.82c1.91-0.74,3.72-1.49,5.63-2.12c2.12-0.74,4.25-1.38,6.37-2.02c0,0.74,0.11,1.38,0.11,2.12
		c0,9.77,0,19.54,0.11,29.3c0,1.8,0,3.61,0.11,5.41c0.11,2.34,0.32,4.67,0.53,7.01c0.21,2.44,1.49,4.25,3.61,5.41
		c1.06,0.53,2.12,0.96,3.19,1.38c2.76,0.85,5.63,1.17,8.49,1.38c2.55,0.11,4.99,0.11,7.43-0.42c9.66-2.02,15.18-8.6,16.14-17.62
		c0.42-3.93,0.11-7.75-0.64-11.68c-1.06-5.31-3.08-10.3-6.37-14.65c-4.46-5.95-10.19-10.09-17.62-11.36
		C360.11,476.53,359.9,476.43,359.58,476.32z"/>
	<path class="st175" d="M398.55,469.42c4.35-0.53,8.71-0.85,13.06-0.85c0,5.95,0.11,11.89,0.11,17.73c0,5.2,0.21,10.4,0.96,15.61
		c0.64,4.35,1.59,8.6,3.29,12.63c3.72,8.28,9.66,14.01,18.26,17.09c2.87,0.96,5.73,1.27,8.71,1.49c3.93,0.32,7.75-0.11,11.57-1.17
		c7.96-2.44,14.44-7.01,18.26-14.55c1.06-2.12,1.91-4.25,2.65-6.48c1.8-5.63,2.55-11.47,2.76-17.31c0.21-5.31,0.11-10.62,0.21-15.93
		c0-0.96,0-1.91,0.11-2.76c3.19,0.74,6.37,1.59,9.56,2.34c0,5.73,0.11,11.36-0.42,17.09c-0.42,5.41-1.27,10.72-2.76,15.82
		c-3.93,13.38-12.85,21.98-25.8,26.54c-4.25,1.49-8.6,2.12-13.06,2.34c-5.84,0.21-11.68-0.21-17.41-1.7
		c-14.44-3.82-23.46-12.95-27.5-27.29c-1.49-5.31-2.23-10.72-2.34-16.14C398.55,485.66,398.55,477.49,398.55,469.42z"/>
	<path class="st176" d="M345.46,582.49c1.91-0.32,3.61-0.32,5.41,0c0.11,0.64,0.21,1.27,0.21,1.8c0,3.93,0,7.75,0,11.68
		c0,7.11,0,14.23,0,21.34c0,0.96,0,1.91,0.11,2.76c0.11,0.96,0.64,1.59,1.59,1.8c0.64,0.21,1.38,0.32,2.02,0.32
		c3.72,0,7.33,0.11,11.04,0c1.49,0,2.97-0.32,4.46-0.42c0.32,0,0.53-0.21,0.96-0.32c0-0.42,0-0.74-0.11-1.17
		c-0.96-3.93-3.19-7.11-6.48-9.45c-0.74-0.53-1.38-1.06-2.12-1.49c-0.85-0.53-1.27-1.38-1.17-2.34c0.11-0.85,0.11-1.7,0-2.55
		c-0.11-1.27,0.53-2.02,1.59-2.55c4.78-2.34,9.77-3.29,14.97-2.76c1.49,0.11,2.97,0.42,4.35,0.74c5.2,1.59,7.86,6.16,6.9,11.47
		c-0.64,3.72-2.65,6.58-5.31,9.13c-0.42,0.42-0.96,0.85-1.38,1.27c0,0,0,0.11,0,0.21c0.11,0.42,0.53,0.21,0.74,0.32
		c4.88,0,9.66,0,14.55,0c3.19,0,3.93-0.74,3.93-4.03c0-5.1,0-10.19,0-15.18c0-0.74,0-1.49,0.11-2.44c1.8-0.53,3.61-0.32,5.52-0.11
		c0,0.85,0.11,1.59,0.11,2.44c0,4.35,0,8.71,0,13.06c0,0.64,0,1.27,0,1.91c0.21,2.12,1.27,3.5,3.29,4.03
		c0.85,0.21,1.7,0.32,2.55,0.42c1.7,0.11,3.4,0,5.1,0c0.53,0,1.06-0.11,1.59-0.32c0.85-0.21,1.38-0.85,1.38-1.7
		c0.11-1.17,0.21-2.34,0.21-3.5c0-10.51,0-21.02,0-31.64c0-0.85-0.11-1.7,0.21-2.65c1.8-0.32,3.5-0.21,5.41,0
		c0.11,0.74,0.11,1.38,0.11,2.02c0,11.47,0,22.93,0,34.4c0,1.06-0.11,2.23-0.32,3.29c-0.64,3.61-2.97,4.99-5.95,5.31
		c-0.96,0.11-1.91,0-2.76,0.11c-1.8,0-3.61,0-5.41,0c-2.34,0.11-4.25-0.64-5.84-2.44c-0.11-0.21-0.32-0.32-0.53-0.42
		c-0.21,0.11-0.42,0.21-0.53,0.42c-1.49,1.8-3.61,2.44-5.84,2.44c-5.73,0-11.57,0-17.31,0c-2.65,0-4.14-0.42-7.33-1.8
		c-2.02,0.53-3.82,1.06-5.73,1.49c-0.96,0.21-2.02,0.32-2.97,0.32c-4.67,0-9.34,0-14.01,0c-1.17,0-2.34-0.21-3.4-0.53
		c-1.7-0.53-2.87-1.59-3.4-3.29c-0.42-1.38-0.74-2.76-0.74-4.14c-0.11-11.89,0-23.68,0-35.57
		C345.36,583.45,345.36,583.03,345.46,582.49z M377.1,619.34c2.02-1.27,3.61-2.65,4.78-4.57c0.64-1.06,1.17-2.23,1.49-3.4
		c0.85-3.08-0.64-5.52-3.72-6.48c-0.53-0.21-1.06-0.32-1.59-0.32c-2.02,0-4.03-0.11-6.05,0.11c-1.49,0.11-2.97,0.53-4.35,1.38
		C373.6,611.05,374.24,612.01,377.1,619.34z"/>
	<path class="st174" d="M348.12,471.54c-0.53,0.21-1.17,0.53-1.7,0.64c-4.14,1.17-8.28,2.23-12.42,3.4c-0.21,0.11-0.42,0-0.74,0
		c0-7.64,0-15.29,0-22.93c0-6.05-0.21-12.21-0.32-18.26c0-1.27-0.21-2.65-0.42-3.93c-0.42-2.55-1.91-4.25-4.35-4.99
		c-1.7-0.53-3.5-0.85-5.31-0.85c-0.74,0-1.38,0-2.12-0.21c-0.32-0.11-0.53-0.53-0.64-0.85c0-0.21,0.21-0.64,0.42-0.74
		c0.64-0.21,1.38-0.42,2.02-0.42c2.65,0,5.31,0,7.96,0.11c6.26,0.32,12.42,0.32,18.69,0c4.46-0.21,9.02-0.32,13.59,0.32
		c4.25,0.53,8.39,1.59,12.21,3.82c6.05,3.4,9.87,8.49,11.15,15.4c0.74,4.35,0.11,8.71-1.38,12.85c-1.06,3.08-2.65,5.84-4.57,8.39
		c-0.53,0.64-0.96,1.38-1.49,2.12c-1.59,0.32-3.19,0.64-4.67,0.96c-1.17,0.21-2.44,0.32-3.61,0.42c0.21-0.32,0.42-0.64,0.64-0.96
		c2.55-4.03,3.82-8.28,3.72-13.06c0-2.44-0.11-4.78-0.64-7.22c-0.64-3.4-1.7-6.69-3.5-9.66c-2.76-4.57-6.58-7.64-11.89-8.71
		c-3.4-0.74-6.8-0.53-10.19,0c-3.08,0.53-3.19,0.64-3.19,3.72c0,8.92,0,17.94,0,26.86c0,3.5,0,7.01,0,10.51
		c0,0.85-0.11,1.7,0.42,2.55c0.21,0.11,0.53,0.32,0.85,0.32C347.16,471.33,347.69,471.44,348.12,471.54z"/>
	<path class="st177" d="M535.62,624.54c-0.21,0.11-0.32,0.11-0.42,0.21c-1.7,2.02-4.14,2.44-6.58,2.55c-1.8,0.11-3.61,0-5.41,0
		c-2.12,0-3.93-0.64-5.41-2.34c-0.11-0.21-0.32-0.32-0.53-0.42c-0.11,0.11-0.32,0.11-0.42,0.21c-1.7,2.02-3.93,2.65-6.48,2.65
		c-2.23,0-4.57,0-6.8,0c-1.7,0-3.29-0.21-4.67-1.17c-0.21-0.11-0.53-0.21-0.96-0.32c-0.11,0.74-0.11,1.38-0.11,2.02
		c-0.42,5.84-3.82,10.19-9.34,11.79c-4.25,1.27-8.6,1.27-12.95-0.11c-5.41-1.8-8.49-5.63-9.13-11.25s0.96-10.83,3.93-15.5
		c0.11-0.21,0.32-0.42,0.42-0.64c1.8,0.64,3.29,1.38,4.67,2.44c0,0.96-0.53,1.59-0.85,2.23c-0.96,1.91-1.91,3.93-2.23,6.16
		c-0.21,1.38-0.32,2.76-0.11,4.14c0.42,3.93,3.19,6.9,7.11,7.64c1.91,0.42,3.82,0.42,5.84,0.11c4.14-0.74,6.58-3.4,7.01-7.64
		c0.11-0.74,0-1.38,0-2.12c0-5.52,0-11.04,0-16.67c0-0.74,0-1.59,0-2.34c1.8-0.64,3.5-0.32,5.31-0.32c0.11,0.53,0.32,1.06,0.32,1.49
		c0,2.55,0,4.99,0,7.54c0,0.74,0,1.38,0,2.12c0,2.34,0.96,4.25,3.82,4.78c0.74,0.11,1.49,0.32,2.34,0.32c1.59,0,3.08,0,4.67,0
		c0.53,0,1.06-0.11,1.59-0.21c1.17-0.21,1.8-0.96,1.91-2.12c0.11-0.64,0.11-1.38,0.11-2.12c0-4.99,0-9.98,0-14.97
		c0-0.74,0.11-1.49,0.11-2.44c1.8-0.42,3.5-0.21,5.1-0.11c0.64,0.53,0.53,1.17,0.53,1.8c0,4.57,0,9.24,0,13.8
		c0,0.74,0,1.59,0.11,2.34c0.21,1.7,1.27,2.87,2.87,3.4c0.85,0.32,1.8,0.42,2.76,0.53c1.38,0.11,2.76,0.11,4.25,0
		c2.02-0.11,3.4-1.06,3.93-2.97c0.32-1.06,0.42-2.12,0.42-3.19c0.11-1.49,0-2.97,0.11-4.46c0.11-1.38,0.21-2.76,0.64-4.14
		c1.06-3.93,3.5-6.48,7.43-7.64c3.19-0.96,6.26-0.96,9.45,0c3.61,1.06,6.05,3.5,7.11,7.11c1.17,4.03,1.27,8.18,0.32,12.21
		c-1.27,5.1-4.57,7.96-9.77,8.71c-2.02,0.21-4.03,0.21-6.05-0.21c-1.91-0.42-3.72-1.17-5.2-2.44
		C536.15,624.86,535.83,624.75,535.62,624.54z M552.5,613.92c-0.21-1.7-0.21-3.5-0.74-5.1c-0.74-1.91-1.8-3.5-3.82-4.03
		c-2.12-0.64-4.35-0.64-6.37,0.53c-1.49,0.85-2.34,2.23-2.76,3.93c-0.85,3.08-0.85,6.16,0,9.24c0.11,0.42,0.32,0.85,0.53,1.27
		c0.64,1.17,1.59,2.12,2.97,2.55c1.7,0.53,3.5,0.74,5.31,0.21c2.12-0.53,3.61-1.8,4.25-3.93C552.08,617,552.18,615.41,552.5,613.92z
		"/>
	<path class="st176" d="M586.48,600.33c2.02-0.11,3.72-0.32,5.31,0.11c0.53,0.85,0.32,1.8,0.32,2.65c0,4.35,0,8.71,0,13.06
		c0,0.64,0,1.27,0,1.91c0.11,1.91,1.06,3.08,2.76,3.61c0.64,0.21,1.38,0.42,2.02,0.42c2.23,0.11,4.35,0.11,6.58,0
		c1.59-0.11,2.34-0.85,2.65-2.44c0.11-0.85,0.11-1.7,0.11-2.55c0-10.62,0-21.23,0-31.85c0-0.85,0-1.7,0-2.65
		c1.8-0.53,3.61-0.32,5.31-0.11c0.42,0.85,0.32,1.8,0.32,2.55c0,10.19,0,20.49,0,30.68c0,0.64,0,1.27,0,1.91
		c0.11,2.02,1.06,3.4,2.97,4.03c0.85,0.21,1.7,0.42,2.55,0.53c1.8,0.11,3.61,0,5.41,0c0.21,0,0.42,0,0.74,0
		c1.59-0.32,2.34-0.96,2.44-2.65c0.11-0.74,0-1.38,0-2.12c0-10.72,0-21.34,0-32.06c0-0.85,0-1.7,0-2.65
		c1.8-0.64,3.61-0.32,5.41-0.21c0.53,0.85,0.32,1.7,0.32,2.55c0,8.49,0,16.99,0,25.48c0,3.08,0,6.05,0,9.13
		c0,1.27-0.11,2.44-0.53,3.72c-0.64,1.8-1.91,3.08-3.72,3.61c-0.96,0.21-2.02,0.42-2.97,0.42c-2.34,0.11-4.67,0-7.01,0
		s-4.35-0.64-5.84-2.44c-0.11-0.21-0.32-0.32-0.53-0.42c-0.21,0.11-0.42,0.21-0.53,0.42c-1.59,1.8-3.61,2.44-5.84,2.44
		c-2.44,0-4.88,0-7.22,0s-4.25-0.74-5.84-2.55c-0.11-0.11-0.21-0.21-0.42-0.32c-0.21,0.21-0.53,0.42-0.85,0.74
		c-1.38,1.49-3.08,2.12-4.99,2.12c-4.14,0.11-8.28,0-12.42,0c-0.74,0-1.59-0.21-2.34-0.42c-1.8-0.53-3.08-1.7-3.72-3.61
		c-0.53-1.49-0.74-3.08-0.64-4.57c0-8.07,0-16.03,0-24.1c0-3.29,0-6.58,0-9.87c0-0.64,0.11-1.38,0.11-2.23
		c1.8-0.42,3.61-0.32,5.31-0.11c0.64,0.85,0.42,1.7,0.42,2.55c0,10.4,0,20.92,0,31.32c0,0.85,0,1.7,0,2.55
		c0.11,2.34,0.96,3.19,3.4,3.19c0.96,0,1.91,0,2.76,0c1.49,0,2.97,0,4.46,0c0.64,0,1.27-0.11,1.8-0.21c0.96-0.21,1.49-0.85,1.59-1.8
		c0.11-0.64,0.11-1.38,0.11-2.12c0-5.1,0-10.19,0-15.18C586.37,602.03,586.48,601.29,586.48,600.33z"/>
	<path class="st177" d="M266.47,622.42c0.64-1.8,1.06-3.29,1.8-4.67c0.74-0.32,1.27,0,1.91,0.21c1.91,0.74,3.72,1.49,5.63,2.23
		c2.23,0.85,4.46,1.59,6.69,1.91c0.74,0.11,1.38,0.21,2.12,0.21c3.08,0,6.26,0,9.34,0c3.08,0,3.93-0.74,3.93-3.82
		c0-5.1,0-10.3,0-15.4c0-0.74,0.11-1.49,0.11-2.44c1.91-0.42,3.61-0.32,5.52-0.11c0.11,0.64,0.21,1.27,0.21,1.91
		c0,5.41,0,10.94,0,16.35c0,1.06-0.11,2.23-0.32,3.29c-0.53,3.19-2.44,4.99-5.63,5.41c-0.74,0.11-1.38,0.11-2.12,0.11
		c-2.65,0-5.31,0-7.96,0c-0.64,0-1.27,0-1.8,0c-0.53,0.74,0,1.27,0.21,1.91c0.42,1.38,0.53,2.76,0.21,4.14
		c-0.53,2.34-1.8,4.14-3.93,5.31c-1.91,1.06-3.93,1.59-6.05,1.8c-0.74,0.11-1.38,0.11-2.12,0.11c-5.52,0-11.04,0-16.56,0
		c-2.34,0-4.67-0.32-6.9-1.06c-4.67-1.7-7.43-4.99-8.39-9.87c-1.17-6.16,0.53-11.68,3.82-16.88c0.11-0.21,0.32-0.32,0.64-0.53
		c1.59,0.53,3.08,1.38,4.57,2.34c-0.21,0.53-0.32,0.96-0.42,1.27c-0.53,1.17-1.17,2.34-1.7,3.61c-0.96,2.23-1.38,4.46-1.17,6.8
		c0.21,4.57,2.97,7.75,7.54,8.49c1.49,0.21,2.97,0.32,4.46,0.42c4.46,0,8.92,0,13.38,0c1.27,0,2.65-0.21,3.93-0.32
		c0.96-0.11,1.8-0.53,2.55-1.17c1.7-1.38,1.49-3.61,0.42-4.78c-0.74-0.74-1.59-1.49-2.55-2.02c-1.49-0.74-2.97-1.27-4.46-1.91
		c-1.7-0.64-3.4-1.17-5.1-1.8C267.64,622.95,267.21,622.73,266.47,622.42z"/>
	<path class="st178" d="M411.72,461.67c-0.32,0.11-0.74,0.32-1.06,0.32c-3.93,0.32-7.75,0.64-11.68,0.96
		c-0.11,0-0.32-0.11-0.42-0.11c-0.11-9.66,0.21-19.32-0.32-28.99c-0.11-1.27-0.21-2.44-0.53-3.72c-0.42-2.23-1.8-3.72-3.93-4.57
		c-1.7-0.64-3.5-0.96-5.31-0.96c-0.74,0-1.59,0-2.34-0.21c-0.32-0.11-0.64-0.53-0.64-0.85c0-0.32,0.21-0.85,0.53-0.85
		c0.64-0.21,1.38-0.32,2.02-0.32c2.55,0,5.1,0,7.75,0.11c6.16,0.32,12.32,0.42,18.47,0c1.91-0.11,3.93-0.11,5.84-0.11
		c0.64,0,1.27,0.11,1.8,0.32c0.42,0.11,0.64,0.42,0.64,0.85c0,0.53-0.32,0.85-0.85,0.96c-0.42,0.11-0.74,0.11-1.17,0.11
		c-1.17,0.21-2.34,0.32-3.5,0.53c-2.23,0.42-3.61,1.7-4.25,3.82c-0.32,1.06-0.53,2.23-0.64,3.4c-0.21,2.65-0.32,5.31-0.42,7.96
		C411.72,447.44,411.72,454.56,411.72,461.67z"/>
	<path class="st176" d="M699.13,640.36c-0.42-1.59-0.32-3.19-0.11-4.88c0.74-0.11,1.38-0.11,2.02-0.11c2.23,0,4.35,0,6.58,0
		c0.96,0,1.91-0.21,2.76-0.42c1.7-0.42,2.76-1.7,3.19-3.4c0.32-1.27,0.32-2.55,0.11-4.03c-0.64,0-1.17-0.11-1.7-0.11
		c-2.02,0-4.03,0-6.05,0c-1.7,0-3.4-0.32-5.1-0.85c-2.87-0.96-4.78-2.87-5.84-5.63c-0.53-1.49-0.96-2.97-0.96-4.57
		c-0.11-2.76-0.21-5.41,0.53-8.18c0.96-3.08,2.55-5.63,5.31-7.43c1.8-1.06,3.72-1.7,5.73-1.8c3.72-0.21,7.33,0.42,10.19,3.08
		c2.02,1.91,2.97,4.35,3.4,7.01c0.21,1.8,0.42,3.61,0.42,5.31c0.11,4.46,0,8.92,0,13.38c0,1.27-0.11,2.65-0.32,3.93
		c-0.74,5.2-4.14,8.28-9.45,8.71c-2.12,0.21-4.35,0.11-6.58,0.11C701.99,640.57,700.61,640.78,699.13,640.36z M713.57,622.2
		c0.21-0.42,0.32-0.53,0.32-0.64c0-3.4,0-6.9,0-10.3c0-1.38-0.53-2.76-1.17-4.03c-0.74-1.38-1.91-2.23-3.4-2.65
		c-3.82-1.06-7.11,0.53-8.6,4.25c-1.17,2.97-1.27,6.05-0.42,9.13c0.53,2.02,2.02,3.29,4.03,3.82c0.64,0.21,1.17,0.32,1.8,0.32
		C708.47,622.2,710.91,622.2,713.57,622.2z"/>
	<path class="st177" d="M315.84,640.57c-0.21-1.8-0.21-3.4,0-4.99c0.53-0.11,0.96-0.21,1.38-0.21c2.34,0,4.67,0,7.01,0
		c0.96,0,1.91-0.11,2.76-0.32c1.8-0.42,2.76-1.59,3.29-3.29c0.42-1.27,0.42-2.65,0.21-4.03c-0.53-0.11-1.06-0.21-1.59-0.21
		c-2.12,0-4.25,0-6.37,0c-1.59,0-3.08-0.32-4.57-0.74c-3.19-0.96-5.41-2.97-6.48-6.26c-1.49-4.57-1.38-9.24,0.32-13.8
		c2.02-5.31,6.8-7.96,12.63-7.64c1.59,0.11,3.29,0.32,4.78,0.96c2.87,1.17,4.88,3.29,5.95,6.26c0.53,1.59,0.96,3.29,0.96,4.99
		c0,6.37,0,12.85,0,19.22c0,1.27-0.32,2.55-0.74,3.61c-1.49,4.14-4.78,6.05-8.92,6.37c-2.12,0.21-4.35,0.11-6.58,0.11
		C318.71,640.57,317.43,640.57,315.84,640.57z M330.28,622.2c0.21-0.42,0.32-0.53,0.32-0.64c0-3.19,0.11-6.37,0-9.56
		c0-1.59-0.42-3.19-1.27-4.67c-0.85-1.38-2.02-2.44-3.61-2.76c-3.93-0.74-7.01,0.21-8.6,4.78c-0.32,0.74-0.42,1.7-0.53,2.44
		c-0.11,1.27-0.11,2.44-0.11,3.72c0.21,5.2,3.08,6.16,6.37,6.58c0.11,0,0.11,0,0.21,0C325.5,622.2,327.84,622.2,330.28,622.2z"/>
	<path class="st174" d="M487.95,466.23c-2.23-0.32-4.35-0.74-6.58-1.06c-1.06-0.21-2.12-0.42-3.19-0.74c0-6.9,0-13.91,0-20.81
		c0-2.76,0-5.63-0.11-8.39c-0.11-1.49-0.21-2.97-0.42-4.46c-0.42-2.65-1.91-4.57-4.57-5.31c-1.7-0.53-3.29-0.74-5.1-0.85
		c-0.74,0-1.38,0-2.12-0.21c-0.32-0.11-0.64-0.53-0.74-0.74c0-0.32,0.21-0.85,0.53-0.85c0.64-0.21,1.38-0.42,2.02-0.42
		c2.55,0,5.1,0,7.75,0.21c5.2,0.21,10.4,0.42,15.61,0c1.59-0.11,3.29-0.11,4.88-0.11c0.96,0,1.91,0.11,2.65,0.64
		c0,0.42,0.11,0.74,0.11,1.17c-0.53,0.42-1.27,0.53-2.02,0.53c-1.06,0.11-2.12,0.21-3.19,0.53c-2.55,0.53-4.14,2.02-4.78,4.57
		c-0.21,0.64-0.32,1.38-0.42,2.02c-0.21,2.12-0.42,4.14-0.42,6.26C488.05,447.44,488.05,456.78,487.95,466.23z"/>
	<path class="st179" d="M659.52,604.79c2.12-2.87,4.67-4.57,7.96-5.41c2.97-0.74,6.05-0.64,9.02,0.21c5.2,1.38,8.28,4.78,9.45,9.87
		c0.74,3.29,0.74,6.69,0.42,9.98c0,0.53-0.21,1.06-0.32,1.59c-1.06,4.25-3.4,5.73-7.22,6.16c-0.74,0.11-1.38,0.11-2.12,0.11
		c-3.61,0-7.22,0-10.72,0c-0.53,0-1.06,0-1.59,0c-1.27,0-2.55,0.21-3.19,1.49c-0.85,1.49-0.85,2.97-0.21,4.46
		c0.32,0.74,0.96,1.27,1.7,1.49c1.06,0.21,2.12,0.32,3.19,0.42c1.06,0.11,2.23-0.11,3.29,0.21c0.53,1.59,0.42,3.19,0.11,4.78
		c-2.97,0.64-7.33,0.32-9.77-0.74c-3.08-1.27-4.67-3.5-4.88-6.8c-0.11-1.17-0.11-2.34,0.11-3.5c0.64-3.82,3.61-6.58,7.75-7.01
		c0.85-0.11,1.7-0.11,2.55-0.11c3.08,0,6.05,0,9.13,0c1.06,0,2.12-0.21,3.29-0.32c1.49-0.21,2.34-1.17,2.76-2.55
		c0.11-0.42,0.21-0.74,0.21-1.17c0.11-2.55,0.21-4.99-0.42-7.43c-0.85-3.19-2.55-5.52-5.95-6.16c-3.19-0.64-6.26-0.11-8.81,2.02
		c-0.53,0.42-1.06,0.85-1.7,1.38C661.97,607.34,660.9,606.17,659.52,604.79z"/>
	<path class="st180" d="M751.9,600.33c1.7,0,3.29,0,4.99,0c0.11,0.53,0.32,0.96,0.32,1.38c0,6.05,0,12,0,18.05
		c0,1.27-0.32,2.44-0.64,3.61c-0.53,1.91-1.8,3.08-3.72,3.61c-0.85,0.21-1.7,0.42-2.55,0.42c-2.76,0.11-5.41,0-8.18,0
		c-1.06,0-2.02-0.21-2.97-0.64c-0.53-0.21-0.96-0.53-1.38-0.74c-0.64,0.21-0.53,0.64-0.53,1.06c0,1.27,0,2.55,0,3.72
		c0,0.96-0.21,1.91-0.42,2.76c-0.85,3.5-3.08,5.73-6.58,6.58c-1.8,0.42-3.93,0.53-6.16,0.11c-0.21-1.49-0.21-2.97,0-4.67
		c0.42-0.11,0.85-0.21,1.27-0.32c0.21,0,0.42,0,0.74,0c4.14,0.11,5.52-2.65,5.52-5.52c0-4.99,0-9.98,0-14.97c0-3.93,0-7.96,0-11.89
		c0-0.74,0-1.49,0.11-2.34c1.8-0.53,3.5-0.21,5.1-0.21c0.74,0.64,0.53,1.38,0.53,2.02c0,4.57,0,9.24,0,13.8c0,0.74,0,1.38,0.11,2.12
		c0.21,1.8,1.27,2.97,3.08,3.5c0.85,0.32,1.8,0.42,2.76,0.42c1.59,0.11,3.29,0,4.88,0c0.53,0,1.06-0.11,1.59-0.32
		c0.96-0.21,1.49-0.85,1.59-1.8c0.11-0.74,0.11-1.59,0.11-2.34c0-4.88,0-9.87,0-14.76C751.36,602.14,751.15,601.29,751.9,600.33z"/>
	<path class="st180" d="M260.63,678.05c0.11,0.11,0.11,0.32,0.21,0.32c2.97,2.12,3.29,5.1,2.76,8.39c-0.42,2.44-2.02,4.14-4.35,5.1
		c-1.38,0.53-2.87,0.74-4.35,0.85c-3.4,0.11-6.69,0-10.09,0c-0.32,0-0.64-0.11-0.96-0.21c-0.32-2.34-0.11-4.67-0.11-7.01
		c0-2.23,0-4.57,0-6.8c0-2.34,0-4.67,0-7.01c0-2.23-0.11-4.46,0-6.8c0.64-0.11,1.06-0.32,1.49-0.32c3.19,0,6.37,0,9.56,0
		c1.06,0,2.23,0.11,3.19,0.42c3.19,0.85,5.1,3.29,5.31,6.58c0.11,2.34-0.42,4.35-2.34,5.84c-0.11,0.11-0.21,0.21-0.32,0.32
		C260.63,677.94,260.63,677.94,260.63,678.05z M248.74,681.02c-0.21,2.34-0.21,4.67,0,7.22c2.44,0.21,4.67,0.21,7.01,0
		c0.42,0,0.85-0.32,1.27-0.53c1.27-0.74,1.91-2.23,1.7-3.82c-0.32-1.8-1.38-2.87-2.97-3.19C254.79,680.6,250.23,680.7,248.74,681.02
		z M248.74,676.14c2.34,0.21,4.57,0.21,6.69,0c1.17-0.11,2.12-0.74,2.55-1.8c0.85-2.12,0.11-5.1-3.19-5.2c-1.59-0.11-3.08,0-4.67,0
		c-0.42,0-0.85,0.11-1.38,0.21C248.53,671.57,248.63,673.7,248.74,676.14z"/>
	<path class="st181" d="M425.62,691.43c0,2.97-0.11,5.52-0.11,8.18c-1.7,0.53-2.02,0.53-4.57,0.21c-0.11-0.42-0.21-0.85-0.21-1.27
		c-0.32-7.43-0.11-23.57,0.32-25.59c0.64,0,1.27-0.11,2.02-0.11c0.74,0,1.38,0,2.02,0c0.32,0.32,0.64,0.64,0.96,0.96
		c0.32-0.21,0.64-0.32,0.96-0.53c1.91-1.17,3.82-1.06,5.84-0.64c2.23,0.42,3.72,1.8,4.57,3.93c0.21,0.53,0.32,1.06,0.53,1.59
		c0.64,3.08,0.64,6.16,0,9.24c-1.17,4.99-6.16,7.33-10.72,5.1C426.79,692.17,426.47,691.96,425.62,691.43z M425.52,682.62
		c0.11,1.06,0.11,1.91,0.21,2.76c0.11,0.53,0.21,1.06,0.42,1.59c0.74,1.49,1.91,2.12,3.82,2.02c1.59-0.11,2.65-0.85,3.08-2.34
		c0.74-2.55,0.74-5.1,0-7.54c-0.21-0.74-0.74-1.38-1.38-1.8c-2.34-1.49-5.31-0.21-5.84,2.44
		C425.62,680.6,425.62,681.66,425.52,682.62z"/>
	<path class="st176" d="M368.29,672.53c-0.53-0.74-0.85-1.38-1.27-1.91c-1.38-1.7-3.19-2.23-5.2-1.91c-2.02,0.32-3.29,1.7-3.93,3.61
		c-0.21,0.85-0.42,1.7-0.42,2.55c-0.11,2.44-0.11,4.88,0,7.22c0,0.96,0.21,1.91,0.42,2.76c1.38,4.57,6.69,4.57,8.81,2.12
		c0.53-0.64,1.06-1.38,1.59-2.02c0.85-0.11,1.49,0.42,2.12,0.74c0.64,0.32,1.27,0.64,1.91,1.06c-0.21,0.53-0.21,0.96-0.42,1.27
		c-1.8,3.08-4.46,4.88-8.18,4.99c-1.38,0-2.87,0-4.14-0.32c-4.03-1.06-6.05-3.93-6.8-7.86c-0.74-4.03-0.64-8.07,0-12.1
		c0.32-2.12,1.06-4.14,2.65-5.63c3.29-3.19,7.11-3.5,11.25-2.23c2.76,0.85,4.57,2.87,5.73,5.52
		C371.16,671.36,369.88,671.89,368.29,672.53z"/>
	<path class="st182" d="M442.29,627.3c-1.7,0-3.4,0-5.1,0c-0.11-0.42-0.21-0.85-0.32-1.38c0-0.42,0-0.96,0-1.38
		c0-13.17,0-26.33,0-39.5c0-0.74,0-1.59,0-2.44c1.91-0.53,3.61-0.32,5.31-0.21c0.64,0.74,0.42,1.38,0.42,2.12c0,4.35,0,8.71,0,13.06
		c0,8.92,0,17.94,0,26.86C442.51,625.39,442.72,626.24,442.29,627.3z"/>
	<path class="st183" d="M692.86,692.49c-1.27,0.32-2.44,0.32-3.61,0.11c-0.32,0-0.64-0.53-1.17-0.96c-0.11,0-0.42,0.11-0.64,0.32
		c-2.02,1.27-4.25,1.38-6.58,0.96c-2.65-0.53-4.46-2.55-4.67-5.1c-0.21-3.29,1.06-5.41,3.82-6.48c1.27-0.42,2.55-0.64,3.93-0.64
		s2.76,0.11,4.03-0.11c0.53-0.85,0.32-1.49,0.21-2.23c-0.32-1.17-1.06-1.91-2.34-2.02c-2.44-0.21-3.72-0.42-6.58,1.17
		c-0.96-0.74-1.38-1.91-2.02-3.08c0.42-0.32,0.64-0.64,1.06-0.85c1.49-0.85,3.19-1.38,4.88-1.38c1.8,0,3.61-0.11,5.31,0.42
		c2.23,0.64,3.61,2.02,4.03,4.35c0.11,0.64,0.21,1.38,0.21,2.12c0,4.14,0,8.28,0,12.42C692.97,691.85,692.86,692.07,692.86,692.49z
		 M688.4,684.21c-1.7-0.11-3.29-0.21-4.78,0.11c-0.42,0.11-0.96,0.21-1.38,0.32c-0.96,0.42-1.38,1.17-1.38,2.23
		c0,1.06,0.42,1.8,1.49,2.12c0.96,0.21,2.02,0.32,2.97,0.21c2.44-0.32,3.29-1.59,3.19-3.5C688.51,685.27,688.4,684.95,688.4,684.21z
		"/>
	<path class="st184" d="M703.69,692.49c-1.7,0.32-2.97,0.21-4.46,0.11c-0.11-0.42-0.21-0.74-0.21-1.17c0-5.73,0-11.57,0-17.31
		c0-0.42,0.11-0.74,0.21-1.17c1.27-0.32,2.55-0.21,3.72-0.11c0.42,0,0.85,0.53,1.27,0.96c0.32-0.21,0.74-0.42,1.17-0.64
		c4.57-2.44,9.66,0.21,10.3,5.31c0.11,0.42,0.11,0.96,0.11,1.38c0,3.82,0,7.64,0,11.47c0,0.42-0.11,0.74-0.11,1.27
		c-1.49,0.21-2.87,0.21-4.35,0c-0.11-0.53-0.21-1.06-0.21-1.59c0-3.08,0-6.26,0-9.34c0-0.74,0-1.59-0.21-2.34
		c-0.32-1.7-1.59-2.76-3.29-2.76c-1.8-0.11-3.19,0.96-3.61,2.65c-0.21,0.85-0.21,1.7-0.21,2.55c0,2.76,0,5.41,0,8.18
		C703.69,690.69,703.69,691.43,703.69,692.49z"/>
	<path class="st185" d="M565.99,689.52c-1.7,2.23-3.93,3.19-6.37,3.5c-1.17,0.11-2.34,0.11-3.5,0c-3.19-0.32-5.31-1.91-6.58-4.88
		c-0.74-1.8-0.96-3.82-0.85-5.73c0-1.38,0.21-2.76,0.53-4.14c0.74-2.97,2.76-4.78,5.73-5.52c2.12-0.53,4.14-0.42,6.16,0.42
		c2.12,0.85,3.61,2.44,4.35,4.57c0.64,2.02,0.85,4.14,0.53,6.37c-0.53,0.11-1.06,0.21-1.59,0.21c-2.76,0-5.63,0-8.39,0
		c-0.74,0-1.59,0-2.34,0.11c-0.64,1.17,0,2.02,0.53,2.87c0.53,0.96,1.38,1.49,2.44,1.59c1.91,0.32,3.72,0.11,5.31-1.17
		c0.32-0.21,0.64-0.42,0.96-0.74C564.18,687.5,565.14,688.35,565.99,689.52z M561.42,680.6c0.21-1.38-0.32-2.44-1.17-3.29
		c-0.85-0.74-1.91-1.06-2.97-1.06c-2.02,0.11-4.35,1.8-3.61,4.25C555.58,680.81,559.3,680.81,561.42,680.6z"/>
	<path class="st185" d="M745.63,684.21c-0.21,1.49,0.32,2.44,0.96,3.29c0.64,0.85,1.59,1.27,2.65,1.38c1.8,0.11,3.61-0.11,4.99-1.38
		c0.21-0.21,0.53-0.32,0.74-0.53c1.17,0.64,1.91,1.49,2.87,2.44c-0.32,0.53-0.53,0.96-0.85,1.17c-1.7,1.49-3.61,2.34-5.95,2.44
		c-1.06,0-2.23,0.11-3.29,0c-2.97-0.42-5.1-1.91-6.26-4.67c-0.85-1.91-0.96-3.93-0.96-5.95c0-1.49,0.21-2.97,0.64-4.35
		c0.74-2.76,2.65-4.46,5.41-5.31c2.12-0.53,4.14-0.53,6.16,0.21c2.34,0.85,3.93,2.55,4.67,4.88c0.64,1.91,0.64,3.93,0.53,6.16
		c-0.64,0.11-1.17,0.21-1.59,0.21c-2.76,0-5.63,0-8.39,0C747.33,684.21,746.59,684.21,745.63,684.21z M745.63,680.6
		c2.87,0.32,6.05,0.21,7.75-0.11c0-1.59-0.21-2.34-1.06-3.08c-0.85-0.74-1.91-1.17-2.97-1.06c-1.06,0-2.12,0.32-2.97,1.27
		C745.74,678.37,745.31,679.32,745.63,680.6z"/>
	<path class="st185" d="M459.92,684c-1.59,0.32-2.97,0.11-4.35,0.11c-1.27,0-2.65,0-3.93,0c-1.38,0-2.76-0.11-4.14,0.11
		c-0.42,1.27,0.11,2.12,0.74,2.97c0.64,0.85,1.49,1.38,2.55,1.59c1.91,0.21,3.72,0.11,5.31-1.27c0.11-0.11,0.21-0.21,0.32-0.32
		c0.11-0.11,0.32-0.11,0.53-0.32c1.17,0.42,1.8,1.49,2.87,2.34c-0.32,0.53-0.53,0.85-0.85,1.17c-0.85,0.96-2.02,1.49-3.19,1.91
		c-2.23,0.85-4.57,0.96-6.9,0.42c-2.65-0.53-4.57-2.23-5.52-4.88c-0.32-1.06-0.64-2.12-0.74-3.19c-0.11-1.49-0.11-2.97,0-4.46
		c0.21-3.08,1.38-5.63,4.35-7.01c3.08-1.49,6.16-1.38,9.24,0.32c1.27,0.74,2.23,1.91,2.87,3.29
		C460.13,679.11,460.02,681.55,459.92,684z M455.14,680.6c0.32-1.27-0.11-2.23-0.85-3.08c-0.85-0.85-2.02-1.27-3.19-1.17
		c-1.06,0.11-2.12,0.42-2.87,1.27c-0.74,0.85-1.17,1.8-0.85,2.97C449.19,680.81,452.8,680.92,455.14,680.6z"/>
	<path class="st180" d="M376.04,682.83c0-1.59,0.11-3.29,0.64-4.88c0.53-1.91,1.59-3.4,3.29-4.35c3.29-1.8,6.69-1.91,9.98,0.11
		c1.49,0.85,2.44,2.12,2.97,3.72c1.17,3.4,1.17,6.8,0.11,10.09c-0.96,3.19-3.29,4.99-6.69,5.41c-1.17,0.11-2.34,0.11-3.5,0
		c-3.19-0.53-5.41-2.34-6.37-5.52c-0.21-0.64-0.32-1.17-0.42-1.8C376.04,684.74,376.04,683.78,376.04,682.83z M388.99,682.72
		c-0.11-1.06-0.11-2.12-0.32-3.19c-0.32-1.8-1.7-2.87-3.4-2.97c-1.91-0.11-3.4,0.74-4.03,2.55c-0.74,2.44-0.74,4.88,0,7.33
		c0.32,1.06,0.96,1.8,2.02,2.12c2.44,0.74,4.88,0.11,5.41-2.97C388.89,684.63,388.89,683.78,388.99,682.72z"/>
	<path class="st185" d="M494.21,680.6c0-0.53,0.11-0.85,0.11-1.17c-0.21-2.12-0.85-2.76-2.87-2.97c-1.91-0.21-3.93-0.21-5.63,0.96
		c-0.21,0.11-0.42,0.11-0.74,0.21c-0.85-0.85-1.27-1.91-1.8-3.08c0.42-0.32,0.74-0.64,1.06-0.85c1.49-0.85,3.19-1.38,4.88-1.38
		c1.7,0,3.4-0.11,5.1,0.42c2.65,0.74,4.03,2.34,4.35,5.1c0,0.42,0,0.96,0,1.38c0,3.82,0,7.64,0,11.47c0,0.53-0.11,1.06-0.11,1.7
		c-1.27,0.32-2.44,0.21-3.5,0.11c-0.32,0-0.64-0.53-1.06-0.96c-0.21,0.11-0.53,0.32-0.96,0.53c-2.12,1.27-4.46,1.27-6.8,0.64
		c-3.19-0.85-4.14-3.19-4.25-5.73c0-2.97,1.49-4.78,4.25-5.73c1.17-0.42,2.44-0.53,3.72-0.53
		C491.35,680.7,492.73,680.92,494.21,680.6z M494.11,684.31c-2.02-0.21-3.93-0.32-5.84,0.32c-1.17,0.32-1.7,1.17-1.7,2.23
		c0,1.17,0.74,2.02,1.91,2.34c0.74,0.11,1.59,0.11,2.34,0.11C493.68,689.09,494.85,687.39,494.11,684.31z"/>
	<path class="st183" d="M321.15,672.95c0.42-0.11,0.74-0.21,1.06-0.21c1.06,0,2.12,0,3.29,0c0.11,0.53,0.32,0.85,0.32,1.17
		c0,5.84,0,11.68,0,17.52c0,0.32-0.11,0.64-0.21,0.96c-1.27,0.32-2.55,0.21-3.72,0.11c-0.42,0-0.85-0.64-1.27-1.06
		c-1.17,0.74-2.44,1.38-3.93,1.49c-4.03,0.32-7.22-2.34-7.43-6.37c-0.21-4.46,0-9.02,0-13.59c1.49-0.53,2.87-0.32,4.46-0.21
		c0.11,0.64,0.21,1.06,0.21,1.59c0,3.19,0,6.37,0,9.56c0,0.85,0.11,1.7,0.32,2.55c0.53,1.59,1.7,2.23,3.4,2.23
		c1.7-0.11,2.87-0.96,3.19-2.55c0.21-0.85,0.21-1.7,0.21-2.55c0-2.76,0-5.63,0-8.39C321.04,674.55,321.15,673.8,321.15,672.95z"/>
	<path class="st176" d="M415.54,682.72c0,1.59-0.11,3.29-0.64,4.88c-1.06,3.19-3.5,5.2-6.9,5.41c-1.27,0.11-2.55,0.11-3.72-0.11
		c-2.97-0.64-4.99-2.34-5.84-5.41c-0.85-3.08-0.85-6.16-0.11-9.24c0.85-3.19,2.97-4.99,6.16-5.73c1.49-0.32,2.97-0.32,4.46,0
		c3.61,0.74,5.95,3.29,6.37,7.11C415.54,680.7,415.54,681.66,415.54,682.72z M402.58,682.62c0.11,1.17,0.11,2.23,0.32,3.19
		c0.32,1.91,1.7,2.97,3.61,3.08c2.12,0.11,3.4-0.74,4.03-2.76c0.11-0.42,0.21-0.96,0.21-1.38c0-1.27,0.11-2.65,0-3.93
		c-0.11-0.85-0.32-1.7-0.74-2.44c-0.53-1.17-1.59-1.7-2.87-1.8c-2.12-0.11-3.61,0.85-4.14,2.97
		C402.69,680.49,402.69,681.66,402.58,682.62z"/>
	<path class="st180" d="M653.15,692.49c-1.49,0.42-2.76,0.32-4.03,0.11c-0.32,0-0.64-0.64-1.06-0.96c-0.21,0.11-0.53,0.21-0.74,0.42
		c-1.8,1.27-3.82,1.27-5.84,0.85c-2.55-0.53-4.46-2.87-4.88-5.63c-0.11-0.42-0.11-0.96-0.11-1.38c0-3.93,0-7.75,0-11.68
		c0-0.32,0.11-0.64,0.11-1.06c1.38-0.53,2.87-0.32,4.35-0.21c0.11,0.64,0.21,1.06,0.21,1.59c0,3.19,0,6.37,0,9.56
		c0,0.85,0.11,1.7,0.32,2.55c0.53,1.59,1.7,2.23,3.4,2.23c1.7-0.11,2.87-0.96,3.19-2.55c0.21-0.85,0.21-1.7,0.21-2.55
		c0-2.76,0-5.63,0-8.39c0-0.74,0.11-1.49,0.11-2.34c1.49-0.32,2.87-0.21,4.46-0.11c0.11,0.42,0.32,0.85,0.32,1.38
		c0,5.73,0,11.36,0,17.09C653.26,691.64,653.15,691.96,653.15,692.49z"/>
	<path class="st184" d="M280.06,691.53c-1.59,1.27-3.4,1.8-5.41,1.49c-2.97-0.32-5.1-2.23-5.73-5.31c-0.11-0.64-0.21-1.38-0.21-2.12
		c0-3.93,0-7.75,0-11.68c0-0.32,0.11-0.64,0.11-1.06c1.49-0.32,2.87-0.21,4.46,0c0,0.74,0.11,1.38,0.11,2.12c0,2.76,0,5.63,0,8.39
		c0,0.85,0,1.7,0.11,2.55c0.32,1.59,1.27,2.55,2.76,2.76c1.8,0.21,3.08-0.42,3.82-1.91c0.42-0.85,0.42-1.8,0.42-2.76
		c0-2.87,0-5.73,0-8.6c0-0.74,0-1.49,0-2.44c1.59-0.53,2.97-0.32,4.35-0.21c0.32,1.91,0.42,17.09,0.11,19.54
		c-1.17,0.53-2.44,0.32-3.61,0.21C281.02,692.6,280.7,691.96,280.06,691.53z"/>
	<path class="st180" d="M614.51,689.73c0.21-0.32,0.42-0.64,0.64-0.85c0.64-0.64,1.27-1.38,2.02-2.12c0.53,0.21,0.96,0.42,1.27,0.64
		c1.27,0.85,2.65,1.38,4.14,1.59c1.06,0.21,2.23,0,3.19-0.42c0.85-0.32,1.38-1.27,1.27-2.02c-0.11-0.85-0.64-1.38-1.49-1.59
		c-1.06-0.21-2.12-0.32-3.19-0.53c-0.96-0.11-1.91-0.21-2.76-0.53c-2.34-0.64-3.72-2.23-3.93-4.67s0.53-4.46,2.65-5.84
		c0.53-0.32,1.06-0.64,1.7-0.74c3.61-0.96,7.11-0.53,10.3,1.59c0.21,0.21,0.42,0.42,0.64,0.74c-0.64,1.17-1.38,2.12-2.44,2.97
		c-0.53-0.21-0.96-0.53-1.49-0.74c-1.17-0.53-2.34-0.85-3.61-0.85c-0.74,0-1.38,0.11-2.02,0.32c-0.74,0.21-1.17,0.74-1.17,1.59
		c0,0.85,0.42,1.38,1.06,1.59c0.74,0.21,1.49,0.42,2.23,0.53c1.06,0.21,2.12,0.21,3.29,0.42c2.97,0.64,4.57,2.23,4.88,4.88
		c0.21,2.02-0.53,4.88-3.4,6.37c-1.38,0.74-2.97,0.96-4.57,0.96C620.13,693.34,617.37,692.28,614.51,689.73z"/>
	<path class="st180" d="M597.63,692.38c-1.7,0.32-3.08,0.21-4.35,0.11c-0.11-0.42-0.21-0.64-0.21-0.85c0-6.05,0-12,0-18.05
		c0-0.21,0.11-0.42,0.21-0.74c1.38-0.21,2.76-0.21,4.14-0.11c0.21,0.42,0.32,0.74,0.53,1.17c0.42-0.21,0.85-0.53,1.17-0.74
		c4.25-2.44,10.51-0.42,10.62,6.05c0.11,3.93,0,7.96,0,11.89c0,0.32-0.11,0.64-0.11,1.06c-1.38,0.53-2.87,0.32-4.35,0.11
		c-0.11-0.64-0.11-1.17-0.11-1.7c0-3.08,0-6.26,0-9.34c0-0.96-0.11-1.91-0.42-2.76c-0.42-1.38-1.59-2.02-3.08-2.12
		c-1.59-0.11-2.76,0.53-3.4,1.91c-0.32,0.96-0.53,1.91-0.53,2.97c-0.11,2.76,0,5.63,0,8.39
		C597.63,690.69,597.63,691.43,597.63,692.38z"/>
	<path class="st180" d="M527.34,672.95c0.53-0.11,0.85-0.11,1.17-0.11c1.06,0,2.12,0,3.4,0c0.21,0.53,0.53,0.96,0.74,1.49
		c1.06,2.97,2.12,6.05,3.08,9.02c0.21,0.64,0.42,1.27,0.74,2.23c0.32-0.53,0.53-0.96,0.74-1.27c1.06-3.19,2.12-6.37,3.19-9.56
		c0.21-0.53,0.42-1.17,0.64-1.7c1.59-0.21,2.97-0.21,4.46,0c-0.21,1.59-5.52,16.35-6.9,19.32c-1.59,0.53-1.59,0.53-4.03,0.21
		c-0.21-0.32-0.53-0.74-0.64-1.17c-2.12-5.73-4.25-11.57-6.37-17.31C527.44,673.8,527.44,673.49,527.34,672.95z"/>
	<path class="st184" d="M736.61,675.82c-0.74,0.96-1.8,1.8-2.87,2.65c-0.64-0.42-1.06-0.85-1.59-1.17c-2.76-1.8-5.95-0.42-6.26,2.76
		c-0.21,1.8-0.21,3.61,0,5.31c0.42,3.19,3.4,4.46,6.16,2.76c0.53-0.32,1.06-0.74,1.59-1.17c0.53,0.32,1.06,0.74,1.49,1.06
		c0.53,0.42,0.96,0.96,1.49,1.49c-0.53,1.17-1.38,1.8-2.34,2.34c-2.65,1.49-5.41,1.49-8.18,0.64c-2.44-0.85-4.03-2.55-4.78-5.1
		c-0.85-3.19-0.85-6.37,0-9.45c0.74-2.76,2.65-4.57,5.41-5.31c3.5-0.85,6.69-0.42,9.34,2.23c0.21,0.21,0.32,0.32,0.42,0.53
		C736.61,675.61,736.5,675.61,736.61,675.82z"/>
	<path class="st183" d="M505.25,676.78c-0.74-0.21-1.27-0.32-1.8-0.42c-0.53-1.06-0.21-2.12-0.21-3.19c0.64-0.21,1.17-0.32,1.8-0.42
		c0.64-1.8,0-3.72,0.42-5.52c1.38-0.53,2.12-0.53,4.35-0.11c0.53,1.8,0,3.61,0.32,5.52c0.85,0.74,2.02,0,2.97,0.74
		c0.21,0.96,0.21,2.02,0,3.19c-0.96,0.11-1.8,0.21-2.87,0.32c-0.11,0.42-0.21,0.85-0.21,1.27c0,2.76,0,5.63,0,8.39
		c0,0.11,0,0.32,0,0.42c0.11,1.38,0.32,1.7,1.8,1.91c0.42,0.11,0.74,0.11,1.17,0.11c0.42,1.27,0.32,2.44,0.11,3.82
		c-1.91,0.53-3.82,0.42-5.63-0.42c-1.27-0.64-1.91-1.8-2.12-3.19c-0.11-0.74-0.11-1.59-0.11-2.34c0-2.55,0-5.1,0-7.75
		C505.25,678.37,505.25,677.63,505.25,676.78z"/>
	<path class="st181" d="M586.48,692.49c-1.49,0.32-2.97,0.32-4.57-0.11c-0.11-0.32-0.11-0.64-0.11-0.96c0-8.6,0-17.31,0-25.91
		c0-0.21,0.11-0.42,0.21-0.74c1.49-0.32,2.97-0.32,4.57,0c0.11,0.32,0.21,0.53,0.21,0.74c0,8.71,0,17.41,0,26.22
		C586.69,691.96,586.58,692.17,586.48,692.49z"/>
	<path class="st184" d="M465.55,692.6c-0.32-2.55-0.32-17.84,0-19.64c1.38-0.32,2.76-0.11,4.14-0.11c0.21,0.42,0.42,0.74,0.53,1.06
		c0.11,0,0.32,0.11,0.42,0c1.49-1.38,3.29-1.8,5.2-1.59c1.38,0.11,2.65,0.74,3.61,1.8c-0.64,1.38-1.59,2.23-2.44,3.29
		c-0.53-0.21-0.96-0.32-1.38-0.53c-0.42-0.11-0.85-0.32-1.38-0.42c-2.12-0.32-3.72,0.74-4.14,2.87c-0.21,0.96-0.21,1.8-0.21,2.76
		c0,2.55,0,5.1,0,7.75c0,0.74,0,1.59,0,2.34C468.52,693.02,467.14,692.7,465.55,692.6z"/>
	<path class="st180" d="M291.85,672.95c1.38,0,2.76,0,4.14,0c0.21,0.42,0.42,0.74,0.64,1.17c0.21-0.11,0.53-0.32,0.74-0.42
		c2.65-1.7,5.41-1.7,7.86,0c0.21,0.11,0.32,0.32,0.42,0.53c-0.64,1.59-0.74,1.7-2.55,3.4c-0.53-0.21-1.06-0.42-1.7-0.64
		c-2.65-0.85-4.67,0.42-4.99,3.19c-0.11,0.64-0.11,1.27-0.11,1.91c0,2.76,0,5.41,0,8.18c0,0.74,0,1.49,0,2.34
		c-1.59,0.53-2.97,0.32-4.57,0.21c-0.42-1.38-0.21-2.65-0.21-3.93s0-2.65,0-3.93c0-1.27,0-2.44,0-3.72s0-2.65,0-3.93
		C291.63,675.61,291.31,674.23,291.85,672.95z"/>
	<path class="st180" d="M328.48,699.92c0-1.38,0-2.55,0-3.61c0.53-0.74,1.27-0.42,1.8-0.53c1.17-0.21,1.59-0.64,1.7-1.8
		c0.11-0.64,0-1.27,0-1.91c0-5.52,0-11.04,0-16.56c0-0.74,0-1.59,0-2.23c1.59-0.53,2.23-0.53,4.57-0.21c0,0.42,0.11,0.85,0.11,1.27
		c0,6.37,0,12.74,0,19.11c0,0.53,0,1.06-0.11,1.59c-0.42,2.65-2.02,4.35-4.67,4.78C330.92,700.03,329.86,699.92,328.48,699.92z"/>
	<path class="st176" d="M659.52,672.85c1.59,0,2.87,0,4.25,0c0.21,0.42,0.42,0.74,0.53,1.17c3.93-2.34,6.69-2.34,9.13,0.21
		c-0.42,1.27-1.49,2.02-2.23,3.19c-0.64-0.21-1.06-0.42-1.59-0.53c-0.74-0.21-1.49-0.42-2.23-0.42c-1.27,0-2.23,0.64-2.76,1.91
		c-0.42,1.06-0.64,2.12-0.64,3.19c0,2.97,0,5.95,0,8.92c0,0.53,0,1.06,0,1.7c-1.49,0.64-2.97,0.32-4.46,0.21
		c-0.42-1.7-0.21-3.29-0.21-4.88c0-1.59,0-3.29,0-4.88s0-3.08,0-4.67C659.42,676.35,659.31,674.76,659.52,672.85z"/>
	<path class="st181" d="M562.16,578.88c0-0.85,0-1.59,0-2.44c0.74-0.21,1.49-0.32,2.23-0.53c0.32-0.53-0.11-1.06-0.32-1.49
		c-0.42-1.27-0.42-2.44-0.21-3.72c0.53-2.97,2.87-4.99,5.84-5.1c1.27-0.11,2.65-0.11,3.93,0.42c1.06,0.42,1.91,1.06,2.44,2.02
		c-0.21,1.06-1.06,1.38-1.8,1.91c-0.53-0.32-1.06-0.74-1.59-0.96c-1.49-0.85-3.29-0.74-4.35,0.21c-1.17,0.96-1.59,2.97-0.96,4.57
		c0.11,0.32,0.32,0.74,0.53,1.06c0.64,0.96,1.49,1.49,2.76,1.49c1.27-0.11,2.44,0,3.72,0c0.64,0,1.27,0.11,1.8,0.11
		c0.53,1.38,0.53,1.38,0.21,2.65C574.59,579.2,564.71,579.2,562.16,578.88z"/>
	<path class="st180" d="M518.63,672.95c1.49-0.21,2.76-0.21,4.25,0c0.32,2.23,0.11,4.35,0.21,6.48c0,2.12,0,4.25,0,6.26
		c0,2.12,0,4.35,0,6.58c-1.49,0.32-2.87,0.21-4.35,0.11c-0.11-0.32-0.32-0.74-0.32-1.06c0-5.95,0-11.79,0-17.73
		C518.53,673.59,518.53,673.38,518.63,672.95z"/>
	<path class="st186" d="M265.73,651.93c-0.53-1.8-0.53-4.25,0-6.05c1.59-0.42,3.19-0.21,4.78-0.11c0.53,0,0.85,0.42,0.85,0.96
		c0,1.49,0,2.97,0,4.46c0,0.53-0.32,0.96-0.85,0.96C269.02,652.14,267.32,652.36,265.73,651.93z"/>
	<path class="st186" d="M487.31,604.26c-2.02,0.32-3.72,0.21-5.63,0.11c-0.42-2.02-0.21-3.93-0.21-5.73
		c0.53-0.64,1.27-0.53,1.8-0.53c0.74,0,1.38,0,2.12,0c0.64,0,1.27-0.11,1.8,0.53C487.52,600.33,487.52,602.14,487.31,604.26z"/>
	<path class="st183" d="M755.4,639.51c-1.8,0-3.5,0-5.2,0c-0.85-0.96-0.42-2.02-0.42-2.97c0-0.96-0.21-2.02,0.21-2.97
		c1.8-0.53,3.72-0.53,5.52,0C755.93,635.26,755.93,637.39,755.4,639.51z"/>
	<path class="st186" d="M263.18,651.93c-1.8,0.32-3.5,0.21-5.1,0.11c-0.53,0-0.85-0.42-0.85-0.96c0-1.49,0-2.97,0-4.46
		c0-0.53,0.32-0.96,0.85-0.96c1.59-0.11,3.19-0.21,4.88,0.11C263.5,647.9,263.28,649.81,263.18,651.93z"/>
	<path class="st183" d="M513.22,633.56c0,1.06,0.11,1.7,0.11,2.44c0,1.17,0,2.34,0,3.4c-1.91,0.64-4.03,0.64-5.84,0
		c-0.21-1.8-0.21-3.61,0-5.63C509.39,633.25,511.2,633.56,513.22,633.56z"/>
	<path class="st183" d="M521.5,639.51c-1.91,0.53-3.72,0.32-5.63,0.21c-0.42-2.02-0.21-3.93-0.21-5.95
		c2.02-0.42,3.82-0.32,5.73-0.11C521.82,635.69,521.71,637.49,521.5,639.51z"/>
	<path class="st184" d="M587.96,587.7c0.21,2.12,0.32,3.93,0,5.73c-1.7,0.42-3.61,0.53-5.73,0.11c-0.32-0.85-0.11-1.8-0.21-2.65
		c0-0.96,0-1.8,0-2.87C584.03,587.27,585.84,587.59,587.96,587.7z"/>
	<path class="st183" d="M303.63,593.54c-1.8,0.32-3.61,0.21-5.41,0.11c-0.53-1.38-0.64-3.19-0.21-5.84c1.8-0.42,3.61-0.21,5.63-0.11
		C303.95,589.61,303.95,591.52,303.63,593.54z"/>
	<path class="st183" d="M672.16,639.4c0-1.91,0-3.72,0-5.41c0.96-0.74,2.02-0.42,2.97-0.42s1.8-0.11,2.87,0.21
		c0.32,1.8,0.21,3.72,0.11,5.52c-0.96,0.74-2.02,0.42-2.97,0.42C674.18,639.72,673.22,639.83,672.16,639.4z"/>
	<path class="st183" d="M411.61,587.7c0,1.7,0,3.19,0,4.67c0,0.42-0.11,0.74-0.11,1.17c-1.91,0.32-3.72,0.32-5.73,0
		c-0.21-1.91-0.11-3.72-0.11-5.73C407.68,587.27,409.49,587.59,411.61,587.7z"/>
	<path class="st183" d="M596.03,587.7c0.21,2.02,0.21,3.93,0,5.84c-1.91,0.32-3.72,0.32-5.63,0c-0.32-2.02-0.32-3.93,0-5.84
		C592.32,587.48,594.12,587.48,596.03,587.7z"/>
	<path class="st182" d="M403.22,593.64c-1.91,0-3.61,0-5.41,0c-0.53-1.91-0.32-3.82-0.11-5.84c1.8-0.42,3.61-0.21,5.41-0.11
		C403.65,589.61,403.43,591.52,403.22,593.64z"/>
	<path class="st180" d="M332.19,664.89c1.59-0.42,2.97-0.32,4.46-0.11c0,0.74,0.11,1.49,0.11,2.12c0,0.64,0,1.27,0,1.91
		c-1.59,0.53-2.97,0.32-4.57,0.21C331.98,667.65,332.09,666.37,332.19,664.89z"/>
	<path class="st183" d="M518.63,669.13c-0.21-1.59-0.21-2.87,0-4.25c1.49-0.42,2.87-0.42,4.35,0c0.21,1.38,0.21,2.65,0,4.03
		C521.6,669.34,520.22,669.03,518.63,669.13z"/>
	<path class="st171" d="M287.6,505.2c0,0.11-0.11,0.21-0.11,0.21v-0.11C287.49,505.2,287.6,505.2,287.6,505.2L287.6,505.2z"/>
</g>
</svg>
