<?xml version="1.0" encoding="utf-8"?>
<!-- Generator: Adobe Illustrator 27.6.1, SVG Export Plug-In . SVG Version: 6.00 Build 0)  -->
<svg version="1.1" id="Layer_1" xmlns="http://www.w3.org/2000/svg" xmlns:xlink="http://www.w3.org/1999/xlink" x="0px" y="0px"
	 viewBox="0 0 1000 1000" style="enable-background:new 0 0 1000 1000;" xml:space="preserve">
<style type="text/css">
	.st0{fill:#EEF2F8;}
	.st1{fill:#49A17B;}
	.st2{fill:#7631CD;}
	.st3{clip-path:url(#SVGID_00000049221898179265640540000003629353847915564455_);}
	.st4{fill:#404041;}
	.st5{clip-path:url(#SVGID_00000038405802033014040830000004218464321897210770_);}
	.st6{clip-path:url(#SVGID_00000078027294760708908630000010241492125917444995_);}
	.st7{fill:#7163EB;}
	.st8{fill:url(#SVGID_00000143585461680940959220000016417252160656455051_);}
	.st9{fill:url(#SVGID_00000103957568666602381710000013134337939714502295_);}
	.st10{fill:url(#SVGID_00000181791648114912498110000010732136307838931092_);}
	.st11{fill:url(#SVGID_00000081633176431042372000000002315751590271541910_);}
	.st12{fill:url(#SVGID_00000124129422427864802980000012338938514794426031_);}
	.st13{fill:url(#SVGID_00000106128963872453886420000015675243848677939123_);}
	.st14{fill:url(#SVGID_00000122696384812819940570000004191043465660416677_);}
	.st15{fill:url(#SVGID_00000016761212453981362310000012863745324154858373_);}
	.st16{fill:url(#SVGID_00000101090350714893617520000004271342769569999788_);}
	.st17{fill:url(#SVGID_00000181797507519763708750000010934967375406576294_);}
	.st18{fill:url(#SVGID_00000085241537460474866750000018348393524471188107_);}
	.st19{fill:url(#SVGID_00000160160901391405117530000001930337427512526484_);}
	.st20{fill:url(#SVGID_00000118363602689105434160000006006204230047373958_);}
	.st21{fill:url(#SVGID_00000050647435698324463470000013694299285344598949_);}
	.st22{fill:url(#SVGID_00000041274367480717460580000013045972682608866704_);}
	.st23{fill:url(#SVGID_00000018938158807690044680000000392342673954739379_);}
	.st24{fill:url(#SVGID_00000140007882295293654820000012127223415043751309_);}
	.st25{fill:url(#SVGID_00000047053777829929786890000012186323403776657061_);}
	.st26{fill:url(#SVGID_00000134218171342369178620000010867949117143056058_);}
	.st27{fill:url(#SVGID_00000139287660588087307020000012846411551971209878_);}
	.st28{fill:url(#SVGID_00000130637391737855617740000014974414363629177728_);}
	.st29{fill:url(#SVGID_00000142137082677652975260000014993871265758566537_);}
	.st30{fill:url(#SVGID_00000013191181936901554480000007563100634579814551_);}
	.st31{fill:url(#SVGID_00000132787225940200332440000000011649174368269996_);}
	.st32{fill:url(#SVGID_00000105410912497974656110000018329284350501744796_);}
	.st33{fill:url(#SVGID_00000073002535459704818810000018251070262946602381_);}
	.st34{fill:url(#SVGID_00000134243313425151951030000010986364304680820106_);}
	.st35{fill:url(#SVGID_00000098904989401334689970000001994791193552778665_);}
	.st36{fill:url(#SVGID_00000121271857553242727840000000569746032908327853_);}
	.st37{fill:url(#SVGID_00000075156322910737247160000017077280465276156580_);}
	.st38{fill:url(#SVGID_00000025422780291855234180000014542995991703291533_);}
	.st39{fill:url(#SVGID_00000108281543605523934150000011377644145234999986_);}
	.st40{fill:#3F4144;}
	.st41{fill:#2E3B89;}
	.st42{clip-path:url(#SVGID_00000013892821965817287020000014743662099375883680_);}
	.st43{clip-path:url(#SVGID_00000039836841963222965590000005140143740934804356_);}
	.st44{clip-path:url(#SVGID_00000142165795983303005350000007153688055645606050_);}
	.st45{fill:#F3B840;}
	.st46{fill:#E04430;}
	.st47{fill:#CA5C6C;}
	.st48{fill:#DD9033;}
	.st49{fill:#CD412D;}
	.st50{fill:#D47935;}
	.st51{fill:#D5709F;}
	.st52{fill:#E9BD8D;}
	.st53{fill:#E19F4B;}
	.st54{fill:#EABF4B;}
	.st55{fill:#CA582D;}
	.st56{fill:#DA8F38;}
	.st57{fill:#C04624;}
	.st58{fill:#C85E26;}
	.st59{fill:#B1341B;}
	.st60{fill:#B24C1F;}
	.st61{fill:#9E2B17;}
	.st62{opacity:0.52;fill:#5EC9E8;enable-background:new    ;}
	.st63{opacity:0.49;fill:#8462DA;enable-background:new    ;}
	.st64{opacity:0.52;fill:#2D63E5;enable-background:new    ;}
	.st65{fill-rule:evenodd;clip-rule:evenodd;fill:#439579;}
	.st66{fill:#3273C2;}
	.st67{fill:#575756;}
	.st68{fill:#1D2C66;}
	.st69{fill:#BCC0DA;}
	.st70{fill:#464B6F;}
	.st71{display:none;fill:#FFFFFF;}
	.st72{fill:#303030;}
	.st73{fill:#B73533;}
	.st74{fill:#04B15C;}
	.st75{fill:url(#SVGID_00000089560662704828305800000008065708805097648556_);}
	.st76{fill:url(#SVGID_00000084513729961680439240000003475621558090328755_);}
	.st77{fill:url(#SVGID_00000155848277489031975110000013322390520773089410_);}
	.st78{fill:url(#SVGID_00000085950450083990887750000009700245930226924177_);}
	.st79{fill:#D33B30;}
	.st80{fill:url(#SVGID_00000029034079105318179430000010900869244260760450_);}
	.st81{fill:url(#SVGID_00000061456990061678965100000003724346152265566626_);}
	.st82{fill:url(#SVGID_00000075134146385225784840000013227615769276579000_);}
	.st83{fill:url(#SVGID_00000161620162548481129310000003471483901413715334_);}
	.st84{fill-rule:evenodd;clip-rule:evenodd;fill:#469BC7;}
	.st85{fill:#222943;}
	.st86{fill-rule:evenodd;clip-rule:evenodd;fill:#1E4B91;}
	.st87{fill-rule:evenodd;clip-rule:evenodd;fill:#F0A140;}
	.st88{fill:#72D24C;}
	.st89{fill-rule:evenodd;clip-rule:evenodd;}
	.st90{display:none;fill:#FBFAFA;}
	.st91{fill:#242323;}
	.st92{fill:#BA3630;}
	.st93{opacity:0.35;fill:#53A0B1;enable-background:new    ;}
	.st94{fill:#20465E;}
	.st95{fill:url(#SVGID_00000111874256573395250760000000465930568723784323_);}
	.st96{fill:#367A8D;}
	.st97{fill:url(#SVGID_00000080904329263394833320000012122344847395047812_);}
	.st98{fill:url(#SVGID_00000156579176967972428020000011686611004506109593_);}
	.st99{opacity:0.88;fill:url(#SVGID_00000090258153747957236340000016317623563573951420_);enable-background:new    ;}
	.st100{fill:url(#SVGID_00000069371348462409866150000006224913308210047873_);}
	.st101{fill:#143661;}
	.st102{fill:#56BC8E;}
	.st103{fill:#2B2B37;}
	.st104{fill:#334C71;}
	.st105{fill:#3777E6;}
	.st106{fill:#A8EDE6;}
	.st107{fill:#EBC18E;}
	.st108{fill:#2A2F44;}
	.st109{fill:#1B4625;}
	.st110{fill:#98C355;}
	.st111{fill:#60B258;}
	.st112{fill:#41914D;}
	.st113{fill:#2B663D;}
	.st114{fill:#CCDA70;}
	.st115{fill:#34516A;}
	.st116{fill:url(#Path_164488_00000157306268203521380560000001730639783436192433_);}
	.st117{fill:#FFFFFF;}
	.st118{fill:#58595B;}
	.st119{fill:#55AC9B;}
	.st120{fill:#464442;}
	.st121{fill:#B7A891;}
	.st122{fill:#265674;}
	.st123{fill:#759ECF;}
	.st124{fill:#C9CACB;}
	.st125{fill:#F2F2F2;}
	.st126{fill:#2B3777;}
	.st127{fill:#27599E;}
	.st128{fill:#25589C;}
	.st129{fill:#2B63A5;}
	.st130{fill-rule:evenodd;clip-rule:evenodd;fill:#B9B9B9;}
	.st131{fill:#B9B9B9;}
	.st132{fill:#7185B5;}
	.st133{fill:#1C4882;}
	.st134{fill:#0F2C5A;}
	.st135{fill:#091C46;}
	.st136{fill:#54565A;}
	.st137{fill:#306541;}
	.st138{fill-rule:evenodd;clip-rule:evenodd;fill:#CAAD5D;}
	.st139{fill-rule:evenodd;clip-rule:evenodd;fill:#0D0D0D;}
	.st140{fill:#181818;stroke:#181818;stroke-width:0.3631;stroke-miterlimit:10;}
	.st141{fill:#305E3C;}
	.st142{fill:#181818;stroke:#181818;stroke-width:0.3631;stroke-miterlimit:9.9999;}
	.st143{fill:#181818;}
	.st144{fill:#141414;}
	.st145{fill:#1F4169;}
	.st146{fill:#49A2D9;}
	.st147{fill:#59585A;}
	.st148{fill:#030F97;}
	.st149{fill:#56A9DC;}
	.st150{fill:#4AA3DB;}
	.st151{fill:#545352;}
	.st152{fill:#412C6F;}
	.st153{fill:#BF2F7C;}
	.st154{fill:#215280;}
	.st155{fill:#7D7D7D;}
	.st156{fill:#456790;}
	.st157{fill:url(#C_00000047755882305188488970000007006293044930870451_);}
	.st158{fill:#C6C7C8;}
	.st159{fill:url(#SVGID_00000126293697027360212990000015184395666201820607_);}
	.st160{fill:#285E96;}
	.st161{fill:#61993F;}
	.st162{fill:#23568C;}
	.st163{fill:#4FA4DA;}
	.st164{fill:#6F80B0;}
	.st165{fill:#265896;}
	.st166{fill:#3B81B6;}
	.st167{fill:#275A6B;}
	.st168{fill:#595A5C;}
	.st169{fill:#D7393A;}
	.st170{fill:#8AC9D5;}
	.st171{fill:#D63939;}
	.st172{fill:#D63838;}
	.st173{fill:#3172B5;}
	.st174{fill:#3475B7;}
	.st175{fill:#3374B7;}
	.st176{fill:#7B7C7F;}
	.st177{fill:#7A7B7E;}
	.st178{fill:#3373B6;}
	.st179{fill:#7B7B7E;}
	.st180{fill:#7C7C7F;}
	.st181{fill:#7E7F81;}
	.st182{fill:#797A7D;}
	.st183{fill:#7D7D80;}
	.st184{fill:#7C7D80;}
	.st185{fill:#7C7B7E;}
	.st186{fill:#808184;}
	.st187{fill:#214167;}
	.st188{fill-rule:evenodd;clip-rule:evenodd;fill:#C8AC47;}
	.st189{fill:none;stroke:#C8AC47;stroke-width:9.5261;}
	.st190{fill:none;stroke:#E6BA5D;stroke-width:9.5261;stroke-miterlimit:10;}
	.st191{fill-rule:evenodd;clip-rule:evenodd;fill:#304567;}
	.st192{fill:#CFCECC;}
	.st193{clip-path:url(#SVGID_00000017502817411809447370000000950805154589017510_);}
	.st194{fill:#265B65;}
	.st195{fill:#767A52;}
	.st196{fill:#808082;}
	.st197{fill-rule:evenodd;clip-rule:evenodd;fill:url(#SVGID_00000018947777083136585500000013306152714588712084_);}
	.st198{fill-rule:evenodd;clip-rule:evenodd;fill:url(#SVGID_00000011750289778466202750000000241249858350843532_);}
	.st199{fill:#3A5CA5;}
	.st200{fill:#2F3A89;}
	.st201{fill:#6D6E71;}
	.st202{fill:#41918E;}
	.st203{fill:#445DA5;}
	.st204{clip-path:url(#SVGID_00000097489286450052582140000002571532639400394113_);}
	.st205{fill:#4A6EAF;}
	.st206{fill:#381D13;}
	.st207{clip-path:url(#SVGID_00000123412422112554761530000007513318684858513597_);}
	.st208{clip-path:url(#SVGID_00000088817135327671088230000000411879281940464296_);}
	.st209{clip-path:url(#SVGID_00000113336993385218582960000017672456226145186726_);}
	.st210{clip-path:url(#SVGID_00000168080413694134246140000010105947289223826328_);}
	.st211{clip-path:url(#SVGID_00000150786488707134889890000010426348752506231210_);}
	.st212{clip-path:url(#SVGID_00000127046143888065682810000017296645871090281625_);}
	.st213{clip-path:url(#SVGID_00000004528632171833692740000000139220935531112622_);}
	.st214{clip-path:url(#SVGID_00000080923859152850466340000008987612669450675604_);}
	.st215{clip-path:url(#SVGID_00000085220392132859114060000018130110278411194793_);}
	.st216{clip-path:url(#SVGID_00000023273601207808838250000008623559275718820995_);}
	.st217{clip-path:url(#SVGID_00000141436536952769283540000003037009331949323156_);}
	.st218{fill:#A2A8AC;}
	.st219{fill:#41834F;}
	.st220{fill:#265BB2;}
	.st221{fill:#293B90;}
	.st222{fill:#C99378;}
	.st223{fill:none;}
	.st224{enable-background:new    ;}
	.st225{fill:#203D35;}
	.st226{fill:#817771;}
	.st227{fill:#265C80;}
	.st228{fill:#2C2926;}
	.st229{fill:#59BCF8;}
	.st230{fill-rule:evenodd;clip-rule:evenodd;fill:#0101C2;}
	.st231{fill-rule:evenodd;clip-rule:evenodd;fill:#0202C6;}
	.st232{fill:#3A42F4;}
	.st233{fill-rule:evenodd;clip-rule:evenodd;fill:#050386;}
	.st234{fill:#3038F4;}
	.st235{clip-path:url(#SVGID_00000158003483520899027300000005763702659555206065_);}
	.st236{fill:#ED7D30;}
	.st237{fill:#479EE6;}
	.st238{fill:url(#Path_6_00000031924829194942472510000015733538516954733708_);}
	.st239{fill:#CC2C79;}
	.st240{fill:#1A1818;}
	.st241{fill-rule:evenodd;clip-rule:evenodd;fill:#FFFFFF;}
	.st242{fill-rule:evenodd;clip-rule:evenodd;fill:#469B88;}
	.st243{fill-rule:evenodd;clip-rule:evenodd;fill:#2C2E6A;}
	.st244{fill:#469B88;}
	.st245{fill:#1E1C44;}
	.st246{fill:#DA6D2A;}
	.st247{clip-path:url(#SVGID_00000151524502619808356690000014993565338747059850_);}
	.st248{fill:#273669;}
	.st249{fill:#567DF6;}
	.st250{fill:#70D3FA;}
	.st251{fill:#88FAC1;}
	.st252{fill:#070E51;}
	.st253{opacity:0.5;}
	.st254{fill:url(#SVGID_00000054267034914902526900000000161828242584843414_);}
	.st255{fill:url(#SVGID_00000098193747752893342620000011608997980128499626_);}
	.st256{fill:url(#SVGID_00000072247674500630434340000012855745637711137199_);}
	.st257{fill:#05039B;}
	.st258{fill:#406DAF;}
	.st259{fill:#808086;}
	.st260{fill:#84C6C9;}
	.st261{fill:#86398D;}
	.st262{fill:#8E599C;}
	.st263{fill:#E7963E;}
	.st264{fill:#70C3ED;}
	.st265{fill:#4B2A50;}
	.st266{fill:#333333;}
	.st267{fill:#75FAAA;}
	.st268{fill:url(#SVGID_00000103222695268171866570000000135344616940692413_);}
	.st269{fill:#160141;}
	.st270{fill:url(#SVGID_00000003082341833908106950000015202256176865953718_);}
	.st271{fill:url(#SVGID_00000183940446307363099720000013974275129273650332_);}
	.st272{fill:url(#SVGID_00000140713717206984049770000000857671202924273594_);}
	.st273{fill-rule:evenodd;clip-rule:evenodd;fill:url(#SVGID_00000009560415873192530520000005860496442600910746_);}
	.st274{fill-rule:evenodd;clip-rule:evenodd;fill:url(#SVGID_00000179638048477260506380000002815437799407332789_);}
	.st275{fill-rule:evenodd;clip-rule:evenodd;fill:url(#SVGID_00000031929141412081122730000015332407420959765665_);}
	.st276{fill-rule:evenodd;clip-rule:evenodd;fill:url(#SVGID_00000123423503245022939990000016966042037041775504_);}
	.st277{fill:#414042;}
</style>
<g>
	<circle class="st187" cx="500" cy="360.32" r="199"/>
	<path class="st188" d="M509.76,202.19c-0.07,0.68-0.07,1.37,0,2.05v1.71h-2.29v-1.48c-0.38-3.33-2.76-3-2.81,0.38V206h-2.1
		c-1.14-0.01-2.26,0.28-3.24,0.86c-0.42,0.3-0.87,0.55-1.33,0.76l-2.62,1.67l-5.62,3.57c-3.91,2.38-3.43,1.19-4.76,11.67l-0.76,6.81
		l-0.52,4.76l-2,16.91l-2.24,19.05l-1.05,9.1l-0.71,6.43l-0.52,4.76c0,1.33-0.43,3.95-0.67,5.81l-0.76,6.24l-0.57,4.76l-0.71,5.67
		l-2.71,24.29l-1.14,9.53l-0.52,4.76c0,1.24-0.38,3.29-0.57,4.52l-0.57,4.76l-0.52,4.76c0,1.33-0.43,3.62-0.57,5.14l-2.05,17.86
		c0,1.19-0.38,3.24-0.52,4.76l-0.62,4.76l-1.1,9.53c0,1.24-0.38,3.43-0.57,4.76l-0.57,5.14l-0.86,7.62c-0.71,6.38-0.71,6.1,0,6.43
		c1.49,0.89,3.42,0.41,4.31-1.07c0.29-0.48,0.44-1.03,0.45-1.59c0-4.43,0.29-4.76,3.24-3.91l3.14,0.9l1.71,0.52l1.71,0.52l6.53,1.76
		c3.14,0.86,2.91,0.33,2.76,6.67v5.48l1.1,0.33c1.21,0.4,2.53,0.3,3.67-0.29c0.33,0,0.43-1.29,0.43-5.1s0-4.76,0.52-5.05
		c0.52-0.29,26.01-0.71,37.77-0.71c4.76,0,4.14-0.48,4.33,4.76c-0.03,1.6,0.09,3.19,0.38,4.76c1.56,0.46,3.21,0.46,4.76,0l0.76-0.33
		v-2.86l-1-15.05c0-2.33-0.43-6.05-0.57-8.24l-0.57-7.95l-1.1-15.34l-2.86-41.77c0-2.48-0.43-6.19-0.57-8.19l-0.43-6.14l-1-13.91
		c0-1.95-0.38-5.33-0.52-7.53l-0.43-5.81l-0.48-6.05l-0.57-8.1l-0.71-10.57l-2.86-41.63c0-0.9-0.29-3.43-0.43-5.53l-1.1-16.05
		c0-2.19-0.43-6.05-0.57-8.62c-0.06-1.6-0.22-3.19-0.48-4.76c-1.58-0.24-3.17-0.38-4.76-0.43c-5.14,0-5.14,0-5.53-2.05
		c-0.57-2.62-1.91-4.05-2.43-2.52 M516,208.05c-1.79,2.14-3.83,4.04-6.1,5.67c-1.72-1.07-3.24-2.44-4.48-4.05
		c-1.76-1.95-1.91-1.91,4.48-1.91c4.48,0,5.67,0,5.67,0.38 M504.05,210c5.19,4.43,5.14,4.24,1.91,7.05
		c-3.24,2.81-3.52,3.05-4.76,2.62l-0.9-0.38v-5.38c0-5.14,0.29-5.81,1.05-5.86c0.76-0.05,1.14,0.86,2.43,1.95 M517.19,210
		c0.67,3.47,0.89,7,0.67,10.53c-0.43,0.43-1.1,0-4.24-2.91c-3.14-2.91-3.05-3.1-1.52-4.43C516.19,209.62,516.86,209.34,517.19,210
		 M495.62,211.24c0,0.52-1.19,2.24-1.86,2.33c-0.67,0.1-1.38-0.86-1.05-1.38C493.05,211.67,495.38,210.53,495.62,211.24
		 M491.86,214.57c0.9,1.19,0.9,1.14-0.33,2.76c-1.24,1.62-1.76,1.86-1.57-0.81C490.14,213.86,490.47,212.81,491.86,214.57
		 M495.48,215.72c0,0.57-0.57,1.24-1,0.81c-0.43-0.43,0-0.43,0-0.76c0-0.33,0.76-0.57,0.95,0 M512.1,217.86
		c3.29,3.14,3.29,3.19-2.24,3.19c-6.43,0-6.43,0-3.24-3.19S509.29,215.15,512.1,217.86 M494.05,218.86
		c0.86,1.14,0.62,1.62-0.81,1.62c-1.43,0-1.91-0.62-0.95-1.62C493.24,217.86,493.47,218.05,494.05,218.86 M494.71,222.81
		c-0.27,1.43-0.98,2.73-2.05,3.72c-0.43,0.29-2.71-2.76-2.71-3.62c0-0.86,4.76-1.38,4.76,0 M503.48,223.34
		c1.95,1.24,3.71,2.74,5.24,4.48c-2.7,2.86-5.7,5.41-8.95,7.62c-0.62,0-0.67-0.62-0.38-6.33
		C499.76,221.58,500.24,220.91,503.48,223.34 M514.57,223.01c0,0.81-3.67,4.19-4.38,3.91c-0.77-0.43-1.5-0.92-2.19-1.48
		c-4-3.05-3.91-3.19,2.05-3.1c4.24,0,4.48,0,4.76,0.67 M518.43,223.62c0,0.38,0.67,7.29,0.71,9.81c0,0.9-1,0.52-2.71-1l-3-2.57
		c-1.81-1.48-1.71-1.81,0.71-3.91l2.19-2C517,223.15,518.19,222.96,518.43,223.62 M489.85,225.34c1.64,2.05,1.48,5-0.38,6.86
		c-1.1,1.1-1.24,0.81-1.14-2.86C488.43,225.67,488.76,224.58,489.85,225.34 M494.95,227.58c0.52,1.38,0,4.38-0.52,4.38
		c-0.52,0-1.67-2.43-1-4.1C493.71,227.01,494.67,226.86,494.95,227.58 M514,232.34c4.05,3.33,4.19,3.24-4.19,3.33
		c-8.38,0.1-8.38,0-3.05-3.95C510.19,229.01,509.86,229.01,514,232.34 M492.9,232.86c1.43,1.86,1,2.57-1.57,2.57
		c-2.57,0-2.24-0.48-1-2.33C491.57,231.25,491.66,231.25,492.9,232.86 M492.9,237.63c0.02,0.72-0.18,1.44-0.57,2.05l-1.1,2.14
		c-0.57,1.14-1.19,0.71-2.71-2s-0.67-2.71,2.43-2.76C492.47,237.06,492.71,237.06,492.9,237.63 M515.34,237.63
		c-1.86,2.21-4.03,4.15-6.43,5.76c-0.37-0.04-0.73-0.17-1.05-0.38c-5.43-4.48-6.24-5.24-5.67-5.62
		C506.57,237.08,510.97,237.16,515.34,237.63 M519.1,241.63c0.76,9.19,0.43,10.96-1.67,9.1l-5.72-4.76
		c-1.43-1.05-1.71-1.95,4.14-6.67c3-2.38,2.86-2.48,3.24,2.43 M502.48,240.01c5.57,4.76,5.53,4.52,2.86,6.76l-3.48,2.91
		c-3.72,3.24-3.81,3.14-3.57-4.76c0.24-7.91,0-8.05,4.19-4.76 M488.19,242.3c1.36,1.98,1.36,4.59,0,6.57c-2.24,4.43-3,4.38-2.52,0
		c0-1.62,0.38-3.76,0.43-4.76c0.38-4.14,0.9-4.52,2.29-1.62 M494.05,244.82v4.48c0,2.05-0.81,1.86-1.81-0.43
		c-1.08-2.04-1.08-4.48,0-6.53c1.62-2.62,2.19-1.91,1.95,2.48 M512.76,248.68l3.43,2.95c0,0.95,0,1-7.57,1s-8.24,0-6.72-1.38
		c2.09-2.07,4.41-3.89,6.91-5.43C510.23,246.62,511.56,247.58,512.76,248.68 M491.9,250.96c1.86,3.57,1.57,4.1-2.19,4.38h-2.76
		v-0.71c0.57-2.37,1.62-4.59,3.1-6.53c0.43,0,0.86,0.38,2.05,2.67 M515.62,253.77c0.9,0.33,0.43,0.9-2.43,3.33
		c-3.95,3.29-4.38,3.24-9.53-1.76c-0.52-0.48-0.52-1.38,0-1.57C507.65,253.56,511.64,253.56,515.62,253.77 M502.67,256.01
		c3.67,2.81,5.19,4.14,5.19,4.76c-2.74,3.23-5.95,6.02-9.53,8.29c-0.66-4.58-0.66-9.23,0-13.81c0.24-1.52,1.33-1.29,4.29,0.95
		 M520.15,255.54c0,0.67,0,2.24,0.29,3.48c0.29,1.24,0.29,3.72,0.43,5.48c0.43,5.1,0,5.14-5.81,0.29l-2.43-1.81
		c-2.38-1.81-2.38-1.76,1.29-4.76l4-3.24c1.33-1.1,2.05-0.9,2.24,0.52 M491.19,256.44c0.67,0.29,0.52,1.05-0.43,2.38
		s-1.57,1.29-2.52-0.62S489,255.63,491.19,256.44 M487.28,259.59c1.57,2.95,1.57,3.43-0.38,6.53c-2.95,4.76-3.48,4.48-2.67-0.95
		c0-1.05,0.38-3.14,0.52-4.76c0.43-4.19,0.71-4.33,2.52-0.9 M493.33,262.82c0,4.76-0.33,5.24-1.86,2.71s-1.43-3.19,0-4.76
		c1.43-1.57,1.86-1.91,1.86,2.19 M513.34,264.87c6.24,5.14,6.48,4.76-3.95,4.76c-10.43,0-9.53,0-5.86-3.1l2.91-2.38
		c2.71-2.57,3.05-2.52,6.91,0.67 M489.52,265.59c1.1,1.84,2.04,3.77,2.81,5.76c-2.31,0.33-4.65,0.33-6.95,0c0-0.24,0-0.38,1.67-3.62
		c1.67-3.24,1.76-3.05,2.48-2.19 M500.76,272.64l3.62,2.86c3.48,2.67,3.67,3.19,1.81,4.76l-1.52,1.19
		c-8.57,6.81-7.95,6.76-7.86,0.76c0-12.24,0-12.34,3.95-9.53 M516.86,271.02c0.29,0.48,0,1-1.29,1.86
		c-1.29,0.86-2.29,1.71-3.62,2.81c-2.91,2.24-2.81,2.24-5.14,0.52c-5.43-3.91-6.14-4.76-5.48-5.24c5.17-0.29,10.36-0.29,15.53,0
		 M521.62,272.49c0.51,4.74,0.7,9.52,0.57,14.29c-0.38,0.38-1.24,0-3.76-2l-3.86-2.86c-4.76-3.57-5.05-3.05,1-7.19l4.19-3.05
		c1.24-1.05,1.67-0.81,1.86,0.95 M490.81,273.49c-0.18,1.13-0.68,2.19-1.43,3.05v0.43c0,0.43-1,1.1-1.38,0.86
		c-1.02-1.44-1.76-3.05-2.19-4.76c0.29-0.71,5.1-0.43,5.24,0.24 M485.76,276.78c1.48,2.81,1.57,3.76,0.52,5.24
		c-0.54,0.85-1.05,1.73-1.52,2.62c-1.43,2.62-3.05,3.19-2.62,0.95c0-0.9,0.43-3.52,0.9-8.67c0.33-3.62,0.86-3.67,2.71,0
		 M492.76,279.78c0,5.91-0.33,6.14-2.29,3.1c-1.95-3.05-1.67-2.71,0-5.53c1.67-2.81,2.29-3.19,2.19,2.43 M513.96,282.59
		c6.43,4.76,6.67,5.24,2.48,5.29h-9.24c-9.53,0.29-9.53,0.43-4.33-3.48l4.76-3.72c1.81-1.43,2.1-1.33,6.19,1.67 M489,282.88
		c0.28,0.35,0.52,0.74,0.71,1.14c0.24,0.55,0.52,1.08,0.86,1.57c1.57,2.71,1.57,2.71-2.76,2.81c-4.33,0.1-4.48,0-2.81-2.57
		l1.71-2.67C487.62,281.69,488.04,281.64,489,282.88 M501.67,291.88c6,4.76,5.72,4.52,5.62,5.33c-0.1,0.81-1.24,1.67-7.91,6.43
		c-3.67,2.62-3.48,3.24-3-8.57v-6.05h0.76c0.52,0,1.81,0.9,4.29,2.86 M517.72,289.31c0,0.33-0.43,1.05-2.43,2.52l-3.52,2.71
		c-2.76,2.19-2.76,2.19-7.05-1.43c-5.1-4.33-5.33-4.1,4.76-4.1c2.8-0.1,5.6,0,8.38,0.29 M522.62,289.31
		c0.38,2.14,0.59,4.31,0.62,6.48c0,3.33,0.38,7.05,0.48,8.24c0,3-0.38,3.48-2.14,1.91c-0.38-0.38-1.71-1.43-2.95-2.33l-2.43-1.86
		c-0.05-0.1-1.67-1.38-2.86-2.29c-2.71-2.05-2.86-2.71-0.9-3.95l4.24-3.05C521.43,288.88,522.05,288.59,522.62,289.31
		 M489.28,290.12c0.38,0.43,0,0.81-1.29,3.29c-1.29,2.48-1.91,2.81-4.05-0.95c-0.62-1.05-0.76-1.81-0.48-2.29
		c1.91-0.48,3.9-0.48,5.81,0 M491.57,293.26c0.16,3.6-0.05,7.21-0.62,10.76c-1.7-1.98-3.01-4.25-3.86-6.72
		c0.34-0.96,0.82-1.86,1.43-2.67C491.05,290.97,491.43,290.78,491.57,293.26 M484.14,294.69c1.57,2.38,1.48,3.24-0.81,6.91
		c-2.29,3.67-3.1,4.43-2.91,1.67C481.19,292.55,481.81,291.12,484.14,294.69 M511.1,298.59l4,3.29c5.33,4.33,5.67,4.05-5.91,4.52
		h-9.53c0-0.29-0.38-1.24,0.52-1.91c0.43-0.27,0.85-0.57,1.24-0.9c0.9-0.71,1.84-1.38,2.81-2l3.67-2.62c1.29-1,2.71-1.24,3.38-0.57
		 M488.57,302.07c3.05,4.76,3.05,4.76-2.33,4.43c-4.76,0-4.76,0-2.81-2.86C486.57,298.88,486.52,298.88,488.57,302.07
		 M490.14,308.17c-0.88,2.55-2.25,4.9-4.05,6.91c-0.62,0.52-0.9,0-3-3.81c-2.1-3.81-2-4.19,3.24-4.1h3.72v0.9 M521.58,308.07
		c0,0.43-0.67,1.1-2.86,2.71l-5.1,3.76c-2.91,2.19-3.1,2.1-8.48-2.76l-2.48-2.14c-0.67-0.52-1.48-1.62-1-2.1
		C508.31,307.15,514.97,307.32,521.58,308.07 M500.95,310.07l5.38,4.48c3.57,2.95,3.57,3,0,5.57l-3.95,3
		c-5.76,4.48-7.1,5.05-7.1,3.05c0.3-6.12,0.73-12.23,1.29-18.34c0.14-0.33,1.71,0,4.43,2.24 M524.82,311.07
		c0,1.71,0.81,12,0.9,14.77c0,1.95-0.62,1.81-3.81-0.76l-4.76-3.91c-2.95-2.24-4.14-3.33-4.14-3.76c2.14-2.06,4.47-3.91,6.95-5.53
		l1.76-1.24c2.33-2.14,3-2.1,3.29,0.43 M481.23,310.12c1.06,1.51,2,3.1,2.81,4.76c1.24,2.29,1.1,2.81-2,7.43
		c-3.1,4.62-3.81,5.24-3.14-0.86c0-1.71,0.52-4.76,0.76-7.19c0.52-4.76,0.62-5.24,1.57-4.1 M491.66,317.46
		c0,8.05-0.33,8.53-2.24,5.24l-1.71-2.95c-0.75-2.37-0.09-4.96,1.71-6.67c0.36-0.43,0.68-0.89,0.95-1.38
		C491.66,309.74,491.81,310.31,491.66,317.46 M514.67,320.7l5.24,4.14c4.1,3.19,4.76,3.05-8.95,2.95c-3.81,0.13-7.63,0-11.43-0.38
		c3.55-3.29,7.38-6.27,11.43-8.91c1.13,0.61,2.18,1.34,3.14,2.19 M485.95,319.98c1.38,2.25,2.52,4.65,3.38,7.14
		c0,0.29-1.33,0.43-4.29,0.57c-5.67,0.29-5.95,0-3.62-3.38c3.24-4.76,3.76-5.29,4.76-4.33 M488.52,329.51
		c0.81,0.48-3.62,7.19-4.76,7.05c-1.66-2.06-2.9-4.42-3.67-6.95c2.75-0.43,5.54-0.43,8.29,0 M497.09,329.98
		c1.05,0.71,9,7.14,10.1,8.1l1.19,1c1.1,0.76,0.48,1.62-2.57,3.72l-3.67,2.62c-2.31,1.85-4.82,3.45-7.48,4.76c-0.52,0-0.52,0,0-8.72
		c0.43-12.38,0.62-13.05,2.62-11.57 M523.15,329.89c0,0.33,0,0.67-0.48,1l-4.1,3c-7.81,5.72-7.34,5.57-10.57,3.14
		c-7.48-5.76-8.48-6.67-8.05-7.19c7.72-0.67,15.48-0.67,23.2,0 M479.42,331.65c4.14,7.38,4.1,6.91,0.86,11.76
		c-4.76,6.81-4.48,6.86-3.62-1.67c0-1.43,0.38-4.19,0.57-6.14C477.76,329.46,477.99,329.08,479.42,331.65 M526.2,331.65
		c0,0.38,0,2.52,0.29,4.76c0.29,2.24,0.29,6.38,0.43,9.1c0.33,6.57,0.43,6.48-4.24,2.91l-6.67-5.05c-1.26-0.88-2.43-1.88-3.48-3
		c0-0.38,1.86-1.81,8.43-6.48l3.14-2.29c0.38-0.33,1.95-0.76,2.1,0 M490.33,339.8c0,6.57,0,7.24-0.67,7.34
		c-0.31,0.03-0.59-0.15-0.71-0.43c0-0.29-1-1.91-2-3.57c-1.86-3.19-2.19-4.29-1.48-5.29c5.43-7.57,5.05-7.72,4.76,1.95
		 M485.19,342.65c0.3,0.38,0.55,0.8,0.76,1.24c0,0,0.71,1.24,1.57,2.57c2.29,3.52,2.43,3.43-4,3.43h-5.57v-0.71
		c0.14-0.92,0.57-1.78,1.24-2.43l2.29-3.19c1.76-2.62,2.43-2.76,3.62-0.9 M513.19,342.65l2.19,1.71l3.62,2.62
		c2.57,1.86,3.19,2.43,3.14,2.95v0.57h-12h-12v-0.67c0-0.52,0.81-1.19,3.91-3.29l5.91-4.05c2.52-1.81,3.1-1.81,5.33,0
		 M486.19,351.27c1.81,0,2.05,0.62,1.14,1.91l-2.67,3.86c-1.48,2.24-2.1,2.86-2.52,2.81c-2-2.45-3.61-5.2-4.76-8.14
		c0-0.81,3.43-0.95,8.72-0.43 M524.2,352.13c1.43,0.29,0.76,1.19-2.81,3.81L515,360.7c-3.1,2.29-4.38,2.67-5.24,1.67
		c-0.59-0.55-1.21-1.08-1.86-1.57c-1.18-0.86-2.32-1.77-3.43-2.71l-3.05-2.48c-5.1-3.95-5.48-3.81,9.53-3.67l13.05,0.29
		 M497.29,353.8l2.1,1.67l3.81,3.14c6.76,5.43,6.67,5.24,3.52,7.38l-2.19,1.57l-3.43,2.52l-4.76,3.43c-2.95,2.14-3.1,2-3-3.29
		c-0.18-5.87,0.2-11.74,1.14-17.53C495.14,352.18,495.19,352.18,497.29,353.8 M476.14,353.42c1.21,1.76,2.27,3.6,3.19,5.53
		c1.57,3.05,1.52,3.48-1.52,7.95c-4.76,6.72-5.48,7.29-4.76,3.14l1.43-12.72c0.48-4.33,0.81-5.05,1.76-3.91 M527.34,354.7
		c0.38,1.67,1.48,20.86,1.24,21.2c-0.24,0.33-1,0.43-3.62-1.71l-2.57-2.05l-9.53-7.53c-0.29-0.19,0-1,1.14-1.71l2.24-1.57l1.86-1.33
		l8.81-5.91c0.19,0,0.29,0.29,0.33,0.62 M489.14,355.08l-0.71,16.77c-0.19,0.24-1.67-1.1-1.67-1.62c-0.38-0.84-0.83-1.65-1.33-2.43
		c-3.24-5.43-3.24-5.72-1.1-8.48l2.62-3.48C488.09,354.27,489.14,353.89,489.14,355.08 M484.38,368.71
		c2.71,5.29,2.76,5.53,0.71,5.53c-3.39-0.07-6.78-0.34-10.15-0.81c1.24-2.52,2.84-4.85,4.76-6.91c2.33-3.1,2.38-3.1,5.1,2.19
		 M513.38,366.37l2.48,1.91l2,1.57l3.57,2.81c3.67,2.86,4.14,3.33,3.76,3.76c-0.38,0.43-22.48,0.29-26.63,0
		c-4.14-0.29-3.33-0.62,8.34-8.43c1.07-0.69,2.11-1.44,3.1-2.24c0.86-0.76,1.67-0.62,3.38,0.71 M483.47,375.66
		c3.95,0.29,3.91,0.52-1.19,6.95c-2.76,3.48-2.57,3.62-6-4.05c-1.52-3.48-1.48-3.52,1.91-3.24L483.47,375.66 M473.47,376.09
		l2.76,5.14c3.29,6.43,3.52,5.29-3.05,13.81c-3.29,4.29-3.38,4.1-2.52-4.14c0-1.38,0.52-5.1,0.86-8.24
		C472.23,375.99,472.56,374.95,473.47,376.09 M414.17,376.09c-1.06,0.37-2.14,0.66-3.24,0.86c-2.78,0.27-5.33,1.66-7.05,3.86
		c-4.2,4.73-6.08,11.08-5.14,17.34c0,4.76,0,5.1-0.9,4.76c-1.13-1.28-1.93-2.82-2.33-4.48c0.08-0.26,0.08-0.55,0-0.81
		c-0.86-1.56-0.59-3.5,0.67-4.76c1.19-1.05,1.14-1.43-0.29-1.57c-1.43-0.14-1-2.24,0.76-2.81c0.52,0,0.81-0.52,0.81-0.86
		c0-0.33,0.43-0.81,1-1.14s0.95-0.67,0.71-1.24s0-1.38,0.95-1.86c0.95-0.48,0.9-0.57,0.9-1.57c0-1,0.29-1.81,0.86-1.81
		c0.57,0,1.38-1.91,1.1-2.33c-2.04-0.3-4.13-0.14-6.1,0.48c-6.71,1.94-11.2,8.26-10.81,15.24c0.66,3.72,1.72,7.36,3.14,10.86
		c0.62,1.29,0.33,1.48-2,1.48c-7.83,0.15-15.35,3.11-21.2,8.34c-6.67,6.72-7.14,13.24-1.57,21.67c0.7,0.98,1.33,2,1.91,3.05
		c0.31,0.77,1.17,1.17,1.95,0.9c0.38,0,0.29-1.24-0.57-4.43c-0.86-3.19-0.62-3.33,0.33-3.57c0.95-0.24,0.57-0.33,0.43-2.24
		c-0.14-1.91,0-2.57,0.95-2.71s0.76-0.33,1.1-1.76c0.33-1.43,0.48-1.71,1.48-2.14c0.57-0.22,1.06-0.62,1.38-1.14
		c0.29-0.57,0.43-0.67,1.43-0.48c1,0.19,1.14,0,1.33-0.71c0.19-0.71,0.38-1.19,1.33-0.67c0.95,0.52,1.29,0.52,1.67-0.48l0.52-0.81
		h1.76l2.48,0.33c0.67,0,0.81,0,1.24-0.76c1.14-2.24,2.33-2.52,4.76-1.1c2.43,1.43,2.1,2.67,0.52,3.62c-2.58,2-5.03,4.17-7.34,6.48
		c-9.53,9.53-6.62,23.39,7.95,36.91c5.1,4.76,8.72,3.62,4.14-1.29l-1.52-1.33l0.57-0.57c0.76-0.76,0.76-1.52,0-2.14
		c-0.43-0.57-0.7-1.24-0.76-1.95c0-1.81-0.33-1.95-2.48-3.1c-2.14-1.14-3.91-2.76-3.91-3.33s0.9-0.62,2.1,0s1.91,1.1,1.91,0.67
		c-0.71-0.89-1.47-1.73-2.29-2.52c-2.14-2.19-2.52-2.95-1.57-2.95c0.78,0.44,1.48,1.02,2.05,1.71c0.55,0.7,1.23,1.28,2,1.71
		c0.9,0,0-1.05-2.48-3.62s-3.24-3.48-2.57-3.91c0.67-0.43,1,0.43,1.91,1.14c0.9,0.71,2.38,1.57,2.38,1c0-0.57-0.95-1.14-3.14-2.67
		c-2.19-1.52-2.24-1.76-2.24-2.62c0-0.86,1-0.38,2.52,1s2.29,1.76,2.29,1.14c-0.63-0.92-1.35-1.78-2.14-2.57
		c-1.95-2.1-2.14-2.38-2.05-3.33c0.1-0.95,0.62-1.43,2.43,0.33c2.67,2.62,3.33,1.95,0.71-0.81c-1.76-1.95-2.24-2.86-1.76-3.48
		c0.48-0.62,1.05-0.43,2.52,1.05c1.48,1.48,1.81,1.38,0.29-1.05s-1.48-3.76,0-3.76s1.71,1.14,2.52,5.57
		c0.57,3.78,1.69,7.46,3.33,10.91c3.29,6.37,7.13,12.44,11.48,18.15c4.02,5.19,8.71,9.82,13.96,13.77c1.29,0,1.05-0.48-1.33-2.71
		c-2.38-2.24-2.14-2.1-2-2.91c0.14-0.81,0-1.1-1.91-3.19s-2.14-2.48-2.14-3c0-0.52-0.71-1.48-2.57-3.48
		c-2.86-2.95-3.38-3.81-2.91-4.33c0.48-0.52,0.62,0,1.48,0.43c2.52,1.67,2.19,0.9-1.19-2.62c-0.99-0.92-1.83-2-2.48-3.19
		c0-0.67,0.38-0.71,0.86,0c0.48,0.71,1.33,1.05,1.57,0.67c-0.59-1.04-1.35-1.97-2.24-2.76c-2.48-2.52-3.19-3.57-2.91-4.05
		c0.29-0.48,1.14-0.29,2.05,0.62c0.9,0.9,1.05,0.81,1.19,0.71c0.14-0.1,0-0.76-2.14-2.71s-2.67-2.86-1.81-2.86
		c0.86,0,1.71,0.67,1.71,0.9s0.29,0,0.57,0c0.29,0,0.71-0.33,0-1.24c-0.48-0.49-0.83-1.1-1-1.76c-0.18-0.78-0.5-1.53-0.95-2.19
		c-1.57-2.29-1.43-3.67,0-2.48c1.43,1.19,1.57,0.62,0.52-0.52c-1.05-1.14-2.24-2.67-2.24-3.62c0-0.95,0.52-1.48,2.38,0.52
		s2.71,2.38,2.71,1.62c-0.51-0.85-1.13-1.62-1.86-2.29c-1.86-1.95-2.24-2.81-1.33-2.81c0.9,0,1.95,1.05,4.76,3.81l11.48,10.53
		l2.52,2.29l4.76,4.29l10.91,8.86l6.95,5.67c0.38,0.38,3.05,2.43,7.95,6.19c1.76,1.33,11.15,7.57,19.05,12.57
		c3.85,2.33,7.57,4.85,11.15,7.57c-2.31,1.12-4.76,1.94-7.29,2.43l-3.29,0.81l-3.52,0.9l-2.29,0.52l-22.91,4.29l-4.29,0.57
		l-18.39,1.67c-6.86,0.38-7.62,0.48-8.62,1.43c-1.63,2.94-1.33,6.57,0.76,9.19c1.14,0.95,1.52,1,7.34,0.24l4.29-0.57l3.95-0.52
		l4.76-0.71l5.14-0.76l11.91-1.71l11.24-1.71l2.67-0.48l3-0.62l2.57-0.57l7.1-1.67l8.81-2.05c1.1-0.22,2.18-0.51,3.24-0.86
		l1.29-0.38c0.71,0,1.86-0.43,3.91-1.05c1.69-0.72,3.6-0.72,5.29,0l3.19,1.48l1.71,0.67c0.24,0,9.24,3.62,10.81,4.29
		c0.49,0.27,1.02,0.46,1.57,0.57c0.22-0.07,0.45-0.07,0.67,0c0.44,0.24,0.9,0.43,1.38,0.57c0.59,0.17,1.16,0.37,1.71,0.62l2.29,0.81
		l5.81,2l8.38,2.76l1.14,0.38c0.86,0.33,6.19,1.81,11.48,3.1c6.6,1.57,13.3,2.71,20.05,3.43c8,1.13,16.07,1.75,24.15,1.86
		c2.76-0.52,4-3.19,3.24-7c-0.95-4.76-0.52-4.24-5.38-4.43c-3.48,0-9.95-0.67-13.62-1.19l-7.91-1.14l-9.53-1.71l-2.71-0.52
		l-11.48-2.91l-2.86-0.86l-4.52-1.38l-4.76-1.43l-13.05-4.33c-4-1.71-4.24-1.38,3.14-4.76l21.86-10.57
		c10.21-5.46,19.91-11.83,28.96-19.05l2.86-2.29l2.43-2.05c4.74-4.37,9.29-8.95,13.62-13.72l4-4.76c2.05-2.43,2-0.24,1.1,2.43
		c-0.95,3.88-2.74,7.51-5.24,10.62c-0.65,0.45-1.03,1.21-1,2c-0.49,1.78-1.65,3.3-3.24,4.24c-0.43,0-0.76,0.57-0.76,0.76
		c-0.76,1.36-1.84,2.52-3.14,3.38c-0.44,0.24-0.78,0.63-0.95,1.1c-0.43,0.75-1.02,1.4-1.71,1.91c-0.87,0.55-1.54,1.37-1.91,2.33
		c-0.86,1.63-2.21,2.94-3.86,3.76c-1.17,0.85-2.07,2-2.62,3.33c-0.15,0.53-0.44,1.01-0.86,1.38c-2.05,2.14,1.19,2.1,4.76,0
		c1.91-1.14,2.81-1.38,3.1-0.86s2.1,0,4.76-3.62c1.43-2,2.24-2.57,2.86-2.19c0.62,0.38,4-2.81,5.91-7.05
		c0.95-2.05,1.86-3.05,2.38-2.52c0.32,0.42,0.91,0.51,1.33,0.19c0.07-0.05,0.14-0.12,0.19-0.19l0.86-2.19l1.1-3.33
		c1.19-4.76,2.91-6.43,4.38-4.76c0.76,0.95,0.67,1.57-0.33,2.05c-1,0.48-0.95,0.86,0,2.19c0.95,1.33,0.76,1.33-0.43,2.43
		c-0.56,0.44-0.9,1.1-0.95,1.81c0,1.1,0,1.38-1.38,1.95c-1.38,0.57-0.91,0.57-0.91,1.91c0,1.33-0.43,2-2,2.33
		c-0.57,0-0.81,0.43-1.05,1.57l-0.76,3.14c-1.1,4.24-0.29,5.43,2.14,3.14c1.62-1.52,2.19-1.67,2.67-0.62c0.48,1.05,2.95,0,2.95-1.57
		c0.76-1.93,1.89-3.7,3.33-5.19c0.46,0.09,0.9,0.27,1.29,0.52c1.57,0.9,2.48-1.43,2.48-6.33c0-3.91,0.57-4.76,2.1-2.38
		c1.52,2.38,1.86,1.14,1.38-2.33c-0.95-6.86-0.76-8.57,0.95-7.91c1.71,0.67,1.62-0.24,1.1-3.72c-0.16-2.7-0.82-5.35-1.95-7.81
		c-2.1-4.76-2.05-5.57,0-4.76c0.64,0.29,1.36,0.29,2,0c0.9-0.33,1.19-0.33,1.57,0c0.46,0.29,0.99,0.44,1.52,0.43
		c1.1,0,1.29,0,2.14,2.76s2.14,1.33,2.14-1.38c0-0.81,0-1,0.86-0.67c0.86,0.33,1.05,4,0.24,6.1c-1.19,3.24-1,4.76,0.52,3.67
		c0.57-0.38,0.76-0.38,0.95,0c0.19,0.38,0.33,0.52,0,2.14c-0.33,1.62-0.57,1.81,0.38,1.81s1.95,0.76,1.29,2.38
		c-0.67,1.62-0.57,1.86,0.86,1.86h1.29v1.1c-0.12,0.99-0.41,1.96-0.86,2.86c-0.4,0.76-0.68,1.58-0.81,2.43
		c0,0.81,1.62-1.38,2.48-3.67l0.91-2.29c1.46-5.27,1.96-10.75,1.48-16.19c-0.13-4.65-1.8-9.13-4.76-12.72l-2.43-3.43
		c-1.57-2.24-1.52-3.95,0-2.52c0.43,0.35,0.91,0.62,1.43,0.81c0.81,0,0.95,0.43,1.19,1.62v1.33h1.24c1.33,0,2.05,0.33,2.1,1.43
		c0.05,1.1,0,0.57,1.29,0s1.62,0,1.86,2.1c0.52,4.24,2.05,1.29,2.1-4c0-8.57-5.57-12.43-13.38-9.19l-3.95,1.57
		c-0.62,0.2-1.2,0.51-1.71,0.9c-0.78,0.67-1.62,1.27-2.52,1.76l-1.38,0.86c-3.48,2.33-3.81,1.81-2.48-4.14
		c1.65-5.31,1.21-11.06-1.24-16.05c-5.43-8.14-13.24-12.05-20.29-10.19c-9.53,2.52-16.19,5.95-14.29,7.29
		c0.62,0.43,1.14,0,2.62-1.05c1.16-1.43,3.2-1.77,4.76-0.81c1.76,0.76,2.33,0.62,5.33-1.05c3-1.67,4.14-1.76,4.29-0.76
		c0.14,1,0,1-2.24,2.43c-1.05,0.76-1.52,1.62-0.86,1.62c1.33-0.51,2.59-1.19,3.76-2c2.24-1.33,3.14-0.29,1.24,1.48
		c-1.91,1.76-1.67,2.48,1.29,1.1c3.76-1.81,6.19,0,3.1,2.1c-1.52,1.05-1.95,2.1-0.76,1.76c3.91-1.19,4.48,1.14,1.29,5.57
		c-2.24,3.1-2,3-5.24,1.05c-12.84-9-30.42-6.75-40.58,5.19c-3.38,3.52-2.33,4.33,1.52,1.24c0.97-0.84,2-1.61,3.1-2.29l1.62-0.95
		c1.43-0.86,1.76,0,0.48,1.24s-1.19,1.86-0.38,1.86c1.06-0.8,2.03-1.71,2.91-2.71c2.71-2.86,3.76-3.52,4.76-3
		c1,0.52,0.67,1.57-2.57,4.1c-1.14,0.86-1.33,1.62-0.43,1.62s1.43-0.81,2.86-2.29c2.57-2.67,3.72-3.43,5.14-3.43
		c2.14,0,1,1.76-3.33,5.19c-0.36,0.21-0.62,0.55-0.71,0.95c0,0.62,1.24,0,3.1-1.91c3.48-3.24,6.1-4.38,7.29-3.1
		c1.19,1.29,0,1.57-1.57,2.81c-1.57,1.24-2.57,1.95-2.57,2.48c0,0.52,0.95,0.33,2.81-1.57c1.86-1.91,3-2.48,4.76-2.14
		s0.86,1.62-2.19,3.52c-1.48,0.95-2,1.62-1.52,2.1c0.48,0.48,2-0.57,2-1c1.06-1.2,2.38-2.14,3.86-2.76c2,0,1.14,1.52-2,3.67
		c-0.97,0.59-1.88,1.27-2.71,2.05c0,0.52,0.62,0.48,1.62,0c0.61-0.51,1.41-0.72,2.19-0.57c0.63,0.13,1.28,0.13,1.91,0
		c3.72-1.38,4.14-1.48,4.76-1.24s1.1,1.1,0,1.81c-1.1,0.71-0.9,1.19,0.76,1.29c1.67,0.1,2.1,0.71,0.81,2.1
		c-1.29,1.38-0.95,1.52,0.29,1.52s2.29,0.57,2.29,1.33s-0.86,1.29-5.67,1.24c-2.28-0.04-4.56,0.1-6.81,0.43
		c-1.44,0.23-2.9,0.23-4.33,0c-2.57-0.29-3,0-3.24,1s-0.76,1.52-2.91,1.19s-3,0-3.67,1.43c-0.67,1.43-0.57,1.05-2.05,1.14
		c-0.8,0.03-1.58,0.24-2.29,0.62c-0.53,0.35-1.11,0.62-1.71,0.81c-0.73,0.28-1.41,0.68-2,1.19c-1.58,1.59-3.44,2.88-5.48,3.81
		c-1.62,0.76-2.29,1.19-2.48,1.76l-0.95,2.24c-0.95,2.05-1.05,2.57-0.33,2.48h3.29h2.67v-1.29c0-1.86,0.57-2.19,3.43-2.57
		c1.33-0.15,2.63-0.5,3.86-1.05c1.09-0.55,2.3-0.85,3.52-0.86c1.02,0.01,2.03-0.22,2.95-0.67c1.29-0.9,2.38-1,3.05-0.24l0.52,0.67
		l1.24-0.9c3.38-2.52,5.91-2.43,5.91,0c0,1.14,0.57,1.05,1.38,0c2.55-2.39,6.14-3.31,9.53-2.43c0.71,0,0.9,0.67,0.29,0.67
		c-2.13,0.59-4.18,1.43-6.1,2.52c-0.51,0.34-1.1,0.54-1.71,0.57c-0.86,0-1.33,0.43-1.91,1.52c-0.3,0.44-0.76,0.75-1.29,0.86
		c-0.73,0.26-1.41,0.65-2,1.14c-0.8,0.72-1.77,1.22-2.81,1.48c-0.95,0.22-1.83,0.66-2.57,1.29c-0.98,0.98-2.33,1.48-3.72,1.38
		c-0.86,0-1.1,0-1.38,0.81c-0.29,0.81-1.33,1.57-3.43,1.67h-2c-0.39,0.23-0.75,0.52-1.05,0.86c-0.81,0.76-1.1,0.86-2.67,0.86
		c-1.57,0-1.81,0-2.38,1.05c-0.57,1.05-2,1.81-4.19,1.86c-0.86,0-1.33,0-1.33,0.38c-0.22,0.47-0.56,0.87-1,1.14
		c-1.1,0.81-1.43,2.52-0.57,2.86c2.62-0.04,5.23-0.29,7.81-0.76c6.68-1.5,13.1-3.99,19.05-7.38l3.38-1.86
		c2.5-1.24,4.94-2.63,7.29-4.14c2.05-1.43,1.81,0-0.38,2.24c-8.66,9.19-18.42,17.29-29.05,24.1l-6.95,4
		c-0.54,0.29-1.07,0.6-1.57,0.95c0,0-1.81,1-3.67,1.91l-15.77,7.34l-4.76,2.1l-4.1,1.67l-5.53,2c-11.81,4.24-14.29,5.05-15.77,4.76
		c-1.48-0.29-16.72-7.81-17.05-8.19c-0.74-0.47-1.5-0.9-2.29-1.29c-7.04-3.73-13.84-7.91-20.34-12.53l-3.95-2.86l-14.29-10.38
		l-1.76-1.48c-0.6-0.45-1.17-0.92-1.71-1.43l-2.05-1.76l-3-2.57l-2.95-2.67c-4.69-3.93-8.89-8.41-12.53-13.34
		c0.81-1.29,3.67,0.62,5.72,3.76c1.14,1.76,1.33,1.95,2.19,1.91c0.86-0.05,1.52,0,2.91,1.67s1.48,1.71,2.52,1.86
		s1.33,0.38,1.38,0.62c0.35,0.37,0.77,0.66,1.24,0.86c0.66,0.26,1.28,0.63,1.81,1.1c0.42,0.4,0.92,0.69,1.48,0.86
		c1.01,0.59,1.94,1.31,2.76,2.14c3.43,3.38,4.05,1.24,0.95-3.48c-3.29-4.32-7.59-7.77-12.53-10.05l-5.33-3.1
		c-2.1-1.24-2.62-2.1-1.57-2.67c1.05-0.57,2.81,0,4.76,1.48l1.1,0.9l0.43-0.67c0.57-0.9,1.19-0.76,3.1,0.62
		c2.67,1.95,2.86,2.05,3.19,1.19c0.33-0.86,1.19-0.86,3.05,0.76c1.14,0.95,1.57,1,2.57,0s1.05-0.76,2.62,0.86
		c1.57,1.62,1.52,1.48,2.29,1.29c0.91-0.16,1.77,0.45,1.93,1.35c0.01,0.06,0.02,0.11,0.02,0.17c0,0.67,0.52,0.86,1.33,0.52
		c0.81-0.33,1.05,0,2.52,0.57c2.76,1.33,3.14,1,1.62-1.38c-4.29-6.67-12.72-10.72-27.05-13.05c-5.33-0.86-6.57-1.29-8-2.71
		c-1.43-1.43-0.81-1.24,0.29-1.29c2.1,0,2.38-0.38,1.33-1.81c-1.05-1.43-0.67-1.29,0.33-1.29s0.81-0.57-0.48-1.86
		c-2.1-2-1.14-3.81,1.14-2.29c1.1,0.71,2.57,1,2.57,0.48c0-0.52-0.52-0.67-1.19-1.05c-2.62-1.76-2.38-4.76,0.29-2.95
		c1.62,1,2.05,0,0.48-0.9c-2.33-1.52-0.86-3.76,1.52-2.38c1.57,0.9,2.33,0,1.29-1.38c-1.05-1.38-0.52-1.57,0-1.57
		c0.52,0,1.24,0.38,2.29,1.76c1.05,1.38,1.29,1.33,1.38-0.57v-1.62l1.43-0.19c1.19,0,1.33,0,2.62,1.33
		c2.05,1.91,2.48,2.05,3.14,1.19c0.67-0.86,1.71-1,2.67,0l1.57,1.95l0.76,0.86v-0.57c0-2.24,0.76-2.14,2.57,0.33
		s2.29,2.52,2.29,1.62c0-0.9,0.71-1.1,1.81-0.67c3.48,1.48-0.9-4.33-6.43-8.43c-12.86-9.53-25.67-6.24-34.39,8.95
		c-0.9,1.52-1,1.57-1.52,0.86c-1.24-1.67,0-5.43,3.48-8.86c2.33-2.43,2.43-2.95,0.67-2.67c-1.76,0.29-1-1.33,1.62-2
		c1.1-0.29,1.38-0.48,1.48-1c0.1-0.52,0.38-0.76,0.95-0.95c0.57-0.19,0.95-1.14,0-1.29c-2.33-0.29-1.81-1.19,0.67-1.19
		s3.14-0.52,1.43-1.24c-1.71-0.71-1.43-1.48,0.86-1.38c2.29,0.1,2.1-0.38,0-1.05c-3.95-1.14-0.67-2.38,3.81-1.43
		c1.43,0.33,2.29,0,2.29-0.62s-8.57-3.05-9.95-2.24 M497.57,379.66l4.38,3.52c0.57,0.52,2.38,2,4.1,3.29
		c1.38,0.99,2.7,2.06,3.95,3.19l0.86,0.86l-0.86,0.76l-6.48,4.76l-7.67,5.62c-1.38,1.05-2.24,1.48-2.71,1.38h-0.71v-6.48l0.76-19.05
		c0.24-0.33,1-0.33,4.33,2.24 M513.1,378.19c12.38,0,12.96,0.24,12.48,1.24c-4.08,3.4-8.34,6.58-12.76,9.53
		c-0.86,0.38-5.19-2.29-6.95-4.33l-3.43-2.76l-3.67-3.05c-0.19-0.24,0-1.33,1.24-1.14c1.24,0.19,6.38,0,13.1,0.29 M488.09,386.66
		l-0.29,9.19c0,3.29,0,3.29-0.76,3.19c-0.76-0.1-1.1-1.05-3.1-5.05c-3.29-6.57-3.33-7.14-1.29-9.53c0.49-0.53,0.94-1.11,1.33-1.71
		c4.1-5.95,4.38-5.67,4.1,3.76 M529.15,380.42c0.34,2.1,0.55,4.21,0.62,6.33c1,17.91,1,16.48,0,16.48c-0.55-0.19-1.05-0.5-1.48-0.9
		c-1.01-0.84-2.04-1.65-3.1-2.43l-6.72-5.33l-2.48-1.95c-3.1-2.33-3.05-2.33,3.91-7l2.67-1.86c3.29-2.81,6.1-4.19,6.53-3.33
		 M481.85,393.05c4.29,9.05,4.29,8.95-1.29,7.95l-6.76-1.14c-2-0.29-2-0.62-2-1.19c0.24-0.47,0.55-0.9,0.9-1.29l3.05-3.91
		C479.76,388.14,479.52,388.19,481.85,393.05 M512.96,392.05c0.31,0.19,0.6,0.41,0.86,0.67l1.19,0.9l1.43,1.14l2.91,2.33l4,3.14
		l1.95,1.57c1.19,0.9,1.62,1.48,1.43,1.71c-0.19,0.24-28.1,0.43-30.58,0.29c-0.86,0-0.52-0.81,0.71-1.71l3.67-2.62
		C510.81,391.86,511.81,391.24,512.96,392.05 M470.75,401.29c0.71,0.33,1.67,1.95,5.38,9.53c1.33,2.71,1.29,2.91-1.33,6.1
		c-7.24,8.86-7.14,8.76-7.48,7.95c-0.1-2.8,0.06-5.61,0.48-8.38l1.1-10.67c0.48-4.76,0.52-4.76,1.86-4.33 M477.47,402.29l3.24,0.57
		c4.24,0.71,4.29,1.14,0.86,5.43c-3.43,4.29-3.43,4.19-4.76,0.76l-2.19-5.14C473.71,401.91,473.76,401.57,477.47,402.29
		 M486.28,415.67c0,9.53,0,11.34-0.86,11.34c-1.33-2.14-2.48-4.38-3.43-6.72l-1.43-3.05c-1.67-3.52-1.81-3.05,1.86-7.53l3.14-3.91
		C486.33,404.72,486.43,405.81,486.28,415.67 M526.58,405.81c0.48,0.57,0.33,0.71-4.29,4.05c-11,8.05-10.1,7.67-13.48,5.33
		l-7.29-5.05c-5.1-3.48-5.72-4-4.76-4.48c0.95-0.48,29.67-0.33,30.05,0 M498.24,409.15l5.43,3.81c0.12,0.05,0.26,0.05,0.38,0
		c2.31,1.26,4.42,2.87,6.24,4.76c-2.45,2.17-5.15,4.04-8.05,5.57c-0.11-0.05-0.23-0.05-0.33,0c-3.47,2.68-7.15,5.09-11,7.19
		c-0.33-2.47-0.33-4.96,0-7.43l0.48-12.15c0-7.05,0-6.91,6.81-2.14 M530.82,406.38c0,1.05,0.43,3.48,0.71,8l1,13
		c0.29,2.62,0.52,3.24-10.1-3.91c-9.86-6.62-9.53-6.14-6.67-8l1.76-1.24l1-0.67c0.38,0,1.86-1.14,3.33-2.19
		c8.95-6.24,8.72-6.1,8.95-4.76 M478.9,416.15c0,0.33,1.29,2.81,2.48,5.43l2.57,5.72c1.1,2.48,0.62,2.52-7.67,0.38
		c-8.29-2.14-7.57-1.24-1.57-8.57C477.71,415.43,478.33,414.96,478.9,416.15 M514.34,420.1l3,2.05l5.95,4.1
		c4.76,3.29,5.62,3.91,5.24,4.24c-0.38,0.33-4.76,0.43-10.62,0.62l-16.58,0.57c-9.53,0.33-9.53,0.52,0-5.81l5.57-3.81
		c4.29-3.19,5.33-3.48,7.62-1.95 M415.6,424.1c2.3,1.88,4.49,3.88,6.57,6l14.29,13.62l3.24,3c0.9,0.9,7.29,6.14,8.67,7.14l3.24,2.29
		l4.76,3.29l2.95,2.05c0.05,0.1,4.76,3.05,6.24,4.14l4.14,2.62l13.19,7.81l5.38,2.91l7.67,3.76l6.29,2.86l7.67,3.14l6.67,2.71
		c1.52,0.67,11.15,4.14,14.05,5.05c0.45,0.14,0.88,0.33,1.29,0.57c0.25,0.06,0.51,0.06,0.76,0c0.33-0.07,0.67-0.07,1,0
		c1.45,0.61,2.94,1.09,4.48,1.43l3.43,1l4.76,1.33l3.14,0.86l6.81,1.62l28.58,4.76l4.19,0.57c1.06,0.15,2.12,0.25,3.19,0.29
		c1.53,0.03,2.74,1.29,2.71,2.81c-0.02,0.93-0.5,1.79-1.28,2.29c-9.57,0.02-19.13-0.75-28.58-2.29c-4.65-0.65-9.26-1.54-13.81-2.67
		l-18.29-5.24l-9.24-3l-7.67-2.71l-6.95-2.52l-4.14-1.57l-2.62-1.14l-6.81-3c-0.62-0.31-1.26-0.58-1.91-0.81c0,0-9.53-5.43-10.38-6
		c-0.3-0.22-0.62-0.42-0.95-0.57c-12.1-7.45-23.75-15.63-34.87-24.48l-2.67-2.19l-2.67-2.19l-3.24-2.71l-3.05-2.48l-3.52-3
		l-3.81-3.19l-3.86-3.29l-4-3.43l-2.29-2c-4.76-4-7.48-6.81-7.48-7.72s2.91-2.76,4.76-2 M598.36,431.1
		c0.48,0.52,0.48,0.62-0.29,1.91c-4.49,5.12-9.26,9.99-14.29,14.57l-10.62,8.53l-2.95,2.1l-7.57,5.14l-0.57,0.43l-2.71,1.91
		c-2.24,1.51-4.56,2.9-6.95,4.14l-1.86,1.05c-1,0.86-18.43,9.57-18.43,9.57l-3.95,1.86l-3.95,1.81l-2.05,0.86l-2,0.86l-2.33,1.05
		c-4.76,2.24-5.24,2.24-9.1,0.38c-3.86-1.86-3.57-2.1-1.05-2.91l3.67-1.14l12.34-4.24l6-2.29l6.95-3.05l3.86-1.76
		c9.06-4.35,17.75-9.44,25.96-15.24l3.67-2.71l4-3.1l2.24-1.81c6.23-5.17,12.13-10.72,17.67-16.62c1.71-1.81,3.14-2.19,4.19-1.05
		 M489.24,490.69c3.05,1.67,3.29,2.1,1.38,2.67l-9.19,2.33l-3.24,0.76l-2.29,0.48l-2.71,0.62l-2.76,0.57l-2.38,0.52l-2.81,0.57
		l-6.38,1.14l-13.05,1.71l-3.86,0.43l-3.52,0.43l-4.76,0.57l-10.38,1.1c-9.53,0.95-8.95,1-8.95-0.9c0-2.86,0-2.81,13.62-3.91
		c5.9-0.37,11.79-1.03,17.62-2l2.57-0.38l2.38-0.43l3-0.57l3.14-0.57l4.76-0.86l15.48-3.24l7.81-2.14c1.52-0.48,2.24-0.29,4.76,1.1"
		/>
	<g>
		<circle class="st189" cx="500" cy="360.32" r="192.38"/>
		<path class="st190" d="M311.96,837.68H688"/>
	</g>
	<path class="st191" d="M446.65,581.19c-0.61,0.14-1.15,0.51-1.48,1.05c-0.39,0.81-0.92,1.53-1.57,2.14
		c-0.71,0.71-2.38,2.62-3.76,4.24l-7.57,8.38c-0.98,0.99-1.86,2.07-2.62,3.24c-0.33,0.62-0.9,1.1-1.29,1.1s-0.76,0.43-0.9,1
		c-0.22,0.62-0.71,1.11-1.33,1.33c-0.57,0-1.05,0.52-1.05,0.81c-0.67,1.27-1.56,2.41-2.62,3.38l-4.1,4.76
		c-0.81,1.1-1.86,2.29-2.33,2.76c-0.49,0.57-0.87,1.21-1.14,1.91c-0.23,0.63-0.67,1.17-1.24,1.52c-0.62,0.5-1.05,1.21-1.19,2
		c-0.22,0.9-0.64,1.73-1.24,2.43c-0.79,1.19-1.31,2.54-1.52,3.95c-0.81,4.1,0,6.19,1.38,3.33c1.12-2.31,2.74-4.33,4.76-5.91
		c0.71-0.52,1.23-1.25,1.48-2.1c2.55-4.12,5.59-7.91,9.05-11.29l6.72-7.19l10-10.48c12.38-12.81,11.76-12.05,10.57-12.38
		c-2.4-0.33-4.84-0.33-7.24,0 M526.96,581.47v43.11v42.44l1.1,1.43c0.54,0.62,0.94,1.35,1.14,2.14c0.9,1.71,2.25,3.15,3.91,4.14
		c0.64,0.21,1.22,0.55,1.71,1c6.24,4.76,49.87,4.76,55.06,0c0.43-0.49,0.99-0.83,1.62-1c0.54-0.18,1-0.56,1.29-1.05
		c0.74-0.86,1.59-1.63,2.52-2.29l1.81-1.24l1.52,1.19c0.96,0.72,1.89,1.47,2.81,2.24c0.54,0.53,1.19,0.92,1.91,1.14
		c0.69,0.17,1.33,0.51,1.86,1c3.19,2.48,15.15,3.57,21.86,1.95c4.27-0.89,8-3.44,10.38-7.1l2.33-2.91l1.14,1.38
		c2.37,3.18,5.5,5.72,9.1,7.38c10.1,5.43,28.15,0.43,30.53-8.48c0.34-1.2,0.79-2.36,1.33-3.48c0.67-1.33,1.05-55.39,0.38-56.06
		c-2.57-0.62-5.24-0.62-7.81,0c0,0.43-0.43,12.29-0.43,27.15c0,25.91,0,26.48-1,27.82c-0.45,0.55-0.79,1.18-1,1.86
		c-1.03,1.52-2.45,2.76-4.1,3.57c-0.65,0.2-1.25,0.54-1.76,1c-2.19,1.71-15.62,1.29-15.62-0.52c0,0-0.67-0.48-1.52-0.67
		c-1.82-0.79-3.44-1.96-4.76-3.43c-5.14-4.76-5.14-5.05-5.19-24.67c0-18.43,0.29-17.24-4.29-17h-2.95l-0.29,18.72l-0.24,18.77
		l-1.38,2.43c-1.43,2.52-3.95,5.29-4.76,5.29c-0.71,0.22-1.38,0.57-1.95,1.05c-4.86,1.38-10,1.38-14.86,0
		c-0.71-0.53-1.52-0.92-2.38-1.14c-2.82-1.69-5.32-3.87-7.38-6.43c0,0,0-8.76-0.38-19.34v-19.05h-2.48c-1.2-0.16-2.42-0.16-3.62,0
		l-1.14,0.29v17.34c0,20.1-0.33,22.48-3.62,25.77c-0.65,0.75-1.44,1.37-2.33,1.81c-0.77,0.24-1.48,0.63-2.1,1.14
		c-2.29,1.71-36.91,1.76-39.2,0c-0.76-0.54-1.57-1.01-2.43-1.38c-2.25-1.58-4.08-3.69-5.33-6.14c-0.48-1.05-0.67-11.1-0.81-41.11
		l-0.38-39.91c-2.44-0.72-5.04-0.72-7.48,0 M339.72,608.38c-1.41,0.15-2.78,0.55-4.05,1.19c-0.76,0.57-1.61,1.01-2.52,1.29
		c-1.14,0.45-2.22,1.06-3.19,1.81c-1.83,1.32-3.44,2.93-4.76,4.76c0,0-0.48,0.81-1.05,1.33c-0.76,0.82-1.36,1.77-1.76,2.81
		c-0.27,0.83-0.78,1.56-1.48,2.1c-0.44,0.28-0.69,0.77-0.67,1.29c-0.25,1.43-0.69,2.82-1.29,4.14c-2.48,6.05-2.81,28.2-0.48,30.82
		c0.55,0.9,0.96,1.88,1.19,2.91c1,3.62,7.34,12.05,9.15,12.1c0.42,0.15,0.78,0.41,1.05,0.76c2.48,2.43,12.05,4.38,18.81,3.81
		l3.24-0.29l-2.48-0.33c-1.38,0-3.52-0.38-4.76-0.43c-1.23,0.05-2.45-0.28-3.48-0.95c-0.76-0.56-1.59-1.01-2.48-1.33
		c-0.82-0.28-1.58-0.72-2.24-1.29c-0.52-0.52-1.95-1.76-3.1-2.81c-0.84-0.61-1.57-1.37-2.14-2.24c-0.32-0.78-0.74-1.51-1.24-2.19
		c-0.59-0.8-1.01-1.7-1.24-2.67c-0.2-0.99-0.55-1.93-1.05-2.81c-2.52-4.76-2.67-25.77,0-31.82c0.63-1.43,1.06-2.93,1.29-4.48
		c0.12-1,0.53-1.95,1.19-2.71c0.63-0.78,1.15-1.64,1.52-2.57c2.13-3.22,4.88-5.97,8.1-8.1c0.82-0.09,1.62-0.35,2.33-0.76
		c6.38-3.29,21.67,3,23.1,9.53c0.16,0.85,0.52,1.65,1.05,2.33c2.33,2.67,0.33,47.63-2.14,47.63c-0.52,0.11-0.96,0.47-1.19,0.95
		c-0.49,0.65-1.2,1.11-2,1.29c-0.81,0-1.52,0.62-1.52,1c0,0.38-1.05,0.91-3,1.29c-1.04,0.11-2.04,0.44-2.95,0.95
		c0,1.38,6,0.62,7.72-1c1.07-1.09,2.81-1.11,3.91-0.05c0.02,0.02,0.03,0.03,0.05,0.05c1.57,1.57,0.43,20.72-1.38,22.62
		c-7.24,7.81-7.24,7.76-16.53,8c-7.72,0-13.15-0.43-14-1.57c-0.62-0.58-1.35-1.04-2.14-1.33c-0.85-0.31-1.59-0.86-2.14-1.57
		c-0.67-1.29-1.95-0.62-1.95,1.05c0.4,2.06,1.93,3.73,3.95,4.29c0.71,0,2.76,0.67,4.76,1.24c7.91,2.38,22.01,1.1,26.01-2.33
		c0.36-0.34,0.8-0.57,1.29-0.67c4.03-3.08,7.05-7.29,8.67-12.1c0.24-1.44,0.59-2.85,1.05-4.24c0.89-3.25,1.37-6.59,1.43-9.95
		c0.38-8.29,0.71-8.81,3.91-6.57c10,7.14,4.76,6.53,58.06,6.72l46.92-0.52c1.91-0.52,3.43-0.95,4.76-1.24
		c3.33-0.78,6.25-2.76,8.19-5.57c0.62-0.9,1.32-1.75,2.1-2.52c1.05-0.76,1.33-8.34,1.33-33.34c0-29.91,0-28.2-3.48-28.2
		s-4.05-1.95-4,26.96c0,22.39,0,25.72-0.71,26.77c-0.45,0.65-0.73,1.4-0.81,2.19c-0.86,1.96-2.29,3.62-4.1,4.76
		c-0.45,0.13-0.84,0.42-1.1,0.81c-0.86,1.19-8.34,1.76-20.24,1.57h-9.53l-1.91-2.71c-0.83-1.08-1.47-2.29-1.91-3.57
		c-0.14-0.65-0.49-1.24-1-1.67c-0.72-0.82-1.24-1.8-1.52-2.86c-0.29-1.05-0.71-1.91-0.95-1.91s-0.81-0.95-1.29-2.14
		c-0.42-1.11-1-2.15-1.71-3.1c-0.62-0.76-1.06-1.66-1.29-2.62c0-0.9-0.52-1.62-0.81-1.62c-0.29,0-0.67-0.57-0.95-1.24
		c-0.81-2.09-1.81-4.1-3-6l-2.19-4.05c-2.47-3.72-5.72-6.86-9.53-9.19c-0.7-0.2-1.35-0.54-1.91-1c-1.33-1.1-5.53-1.91-5.95-1.19
		s1,1.81,2.52,3.43c1.27,1.28,2.46,2.63,3.57,4.05l2.62,3.76c0.88,1.25,1.61,2.61,2.14,4.05c0,0.76,0.57,1.38,0.81,1.38
		c0.24,0,0.95,1,1.48,2.24c0.35,0.92,0.85,1.77,1.48,2.52c0.51,0.72,0.89,1.52,1.1,2.38c0.29,1.08,0.81,2.09,1.52,2.95
		c0.56,0.7,0.97,1.51,1.19,2.38c0,0.76,0.57,1.57,0.9,1.67c0.65,0.58,1.09,1.35,1.29,2.19c0.41,1.19,1.02,2.3,1.81,3.29
		c0.53,0.61,0.92,1.32,1.14,2.1c0.09,0.48,0.34,0.92,0.71,1.24c1.38,1.22,1.59,3.29,0.48,4.76c-1.43,1.57-56.25,1.24-58.44-0.38
		c-0.77-0.55-1.6-1.02-2.48-1.38c-3.34-1.74-6.24-4.22-8.48-7.24l-1.24-1.67v-18.72c0-15.72,0-19.05-0.71-20.15
		c-0.97-1.93-2.12-3.76-3.43-5.48c-0.81-1.05-1.76-1.91-2.1-1.91c-0.54-0.13-1.02-0.45-1.33-0.9c-0.59-0.66-1.37-1.11-2.24-1.29
		c-1-0.23-1.94-0.67-2.76-1.29c-2.19-1.71-13.86-2.48-21.34-1.43 M473.9,699.45c-2.48,2.04-2.84,5.7-0.8,8.18
		c1.18,1.44,2.99,2.22,4.85,2.11c1.91-0.29,2.95-1.29,4.48-4.05C484.71,701.45,477.66,696.4,473.9,699.45 M491.66,698.79
		c-0.61,0.13-1.13,0.51-1.43,1.05c-0.25,0.58-0.57,1.12-0.95,1.62c-1.38,1.62-1.29,3.14,0,5.57c4.14,6.53,12.24,0.9,8.91-6.19
		c-1.05-2.19-3-2.76-6.76-2.05 M336.82,724.46c-1.28,0.57-2.62,0.98-4,1.24c-1.4,0.27-2.73,0.79-3.95,1.52
		c-0.55,0.47-1.2,0.8-1.91,0.95c-2.77,1.92-5.18,4.31-7.14,7.05c-0.19,0.68-0.51,1.31-0.95,1.86c-2.69,6.89-2.61,14.56,0.24,21.39
		c0.55,0.73,0.97,1.55,1.24,2.43c0,0.38,0.43,0.81,0.95,0.95c0.58,0.25,1.04,0.71,1.29,1.29c0,0.57,0.48,1,0.71,1
		c0.79,0.36,1.53,0.82,2.19,1.38c2.14,1.75,4.55,3.14,7.14,4.1c0.95,0.28,1.85,0.72,2.67,1.29c0.93,0.56,1.95,0.97,3,1.24
		c1.31,0.32,2.58,0.82,3.76,1.48c0.84,0.5,1.74,0.92,2.67,1.24c4.13,1.91,7.69,4.87,10.34,8.57c0,0.67,0.48,1.19,0.71,1.19
		c1.95,0,2.24,12.19,0.33,14.29c-0.52,0.71-0.92,1.5-1.19,2.33c-1.49,2.83-3.67,5.24-6.33,7c-0.88,0.36-1.71,0.83-2.48,1.38
		c-2.52,1.91-17.81,1.29-17.81-0.67c0-0.24-0.62-0.52-1.38-0.67c-3.24-1.85-6.03-4.41-8.14-7.48l-1-1.24l-1.14,1.24
		c-1.38,2.03-2.08,4.45-2,6.91c0,1.05,0.33,1.52,1.57,2.1l2.91,1.48c5.05,2.91,22.91,4.76,25.53,2.43c1.08-0.62,2.26-1.07,3.48-1.33
		c1.69-0.52,3.3-1.29,4.76-2.29l3.86-2.62c0.65-0.31,1.21-0.79,1.62-1.38c0.31-0.64,0.73-1.22,1.24-1.71
		c0.54-0.53,0.96-1.16,1.24-1.86c0.26-0.77,0.7-1.47,1.29-2.05c0.62-0.69,1.05-1.53,1.24-2.43c0.21-1.23,0.56-2.42,1.05-3.57
		c1.55-4.78,1.55-9.93,0-14.72c-0.51-0.86-0.88-1.79-1.1-2.76c-1.87-2.64-4.1-5.02-6.62-7.05c-0.9-0.77-1.94-1.39-3.05-1.81
		c-0.86-0.24-1.65-0.66-2.33-1.24c-0.61-0.54-1.35-0.9-2.14-1.05c-1.12-0.26-2.19-0.67-3.19-1.24c-1.06-0.58-2.2-1.01-3.38-1.29
		c-1.04-0.18-2.03-0.59-2.91-1.19c-0.72-0.54-1.52-0.96-2.38-1.24c-8.14-2.48-15.19-13.91-12.48-20.34c0.4-1.02,0.74-2.07,1-3.14
		c2.53-6.45,8.89-10.57,15.81-10.24c4.33,0,7.67,0.67,7.67,1.48s0.62,0.62,1.43,0.9c2.75,1.82,4.96,4.36,6.38,7.34l0.48,1.43
		l1.38-2.43c3.19-5.67,1.81-8.76-4.76-10.29c-1.18-0.26-2.32-0.68-3.38-1.24c-4.83-0.95-9.79-0.95-14.62,0 M415.98,724.36
		c-1.05,0.38-1.43,0.9-1.67,2.38c-0.2,1.08-0.6,2.12-1.19,3.05c-0.59,0.81-1.01,1.74-1.24,2.71c-0.24,0.99-0.66,1.93-1.24,2.76
		c-0.7,1.08-1.21,2.27-1.52,3.52c-0.38,1.29-0.86,2.38-1.1,2.38c-0.57,0.73-0.96,1.57-1.14,2.48c-0.4,1.35-0.99,2.63-1.76,3.81
		c-0.55,0.7-0.9,1.54-1,2.43c-0.1,0.83-0.41,1.62-0.9,2.29c-0.68,1.01-1.19,2.12-1.52,3.29c-0.24,0.99-0.66,1.92-1.24,2.76
		c-0.61,0.92-1.07,1.93-1.33,3c-0.22,1.05-0.66,2.04-1.29,2.91c-0.51,0.62-0.85,1.36-1,2.14c-0.35,1.18-0.86,2.3-1.52,3.33
		c-0.59,0.77-0.99,1.67-1.19,2.62c0,1.05-1.05,3.38-1.52,3.38c-0.48,0-0.52,0.76-0.67,1.71c-0.25,1.02-0.66,1.98-1.24,2.86
		c-0.61,0.83-1.04,1.77-1.29,2.76c-0.24,0.99-0.66,1.93-1.24,2.76c-0.61,0.81-1.04,1.73-1.29,2.71c-0.25,1-0.67,1.95-1.24,2.81
		c-0.69,0.96-1.19,2.05-1.48,3.19c-0.2,0.96-0.63,1.85-1.24,2.62c-0.54,0.64-0.88,1.41-1,2.24c-0.23,1.02-0.65,1.99-1.24,2.86
		c-0.67,0.96-1.17,2.02-1.48,3.14c-0.25,0.97-0.67,1.89-1.24,2.71c-2.33,2.71-1.33,4.76,2.19,4.48h2.71l1.38-2.71
		c0.67-1.22,1.14-2.54,1.38-3.91c0.18-1.25,0.6-2.44,1.24-3.52c0.59-1.04,1-2.16,1.24-3.33c0.23-1.19,0.64-2.33,1.24-3.38
		c0.6-1,1.02-2.09,1.24-3.24c0.26-1.18,0.67-2.32,1.24-3.38c0.62-1.38,1.57-3.57,2-4.76c1.95-5.43,1.86-5.43,20.29-5.48
		c15.34,0,16.43,0,17.43,3.43c0.41,1.25,0.91,2.48,1.48,3.67c0.57,1.1,1.01,2.27,1.29,3.48c0.23,1.02,0.65,1.99,1.24,2.86
		c0.61,0.91,1.03,1.93,1.24,3c0.21,1.08,0.65,2.1,1.29,3c0.63,1,1.05,2.12,1.24,3.29c0.19,1.16,0.63,2.27,1.29,3.24
		c0.62,1.04,1.04,2.19,1.24,3.38c0.52,3.67,2.05,4.76,6.67,4.76c3,0,8.48-1.24,6.19-1.43c-0.33,0-0.76-0.52-0.9-1.14
		s-2.43-5.76-4.48-9.86c-0.61-1.21-1.1-2.47-1.48-3.76c-0.21-0.8-0.57-1.56-1.05-2.24c-0.54-0.86-0.95-1.79-1.24-2.76
		c-0.26-0.97-0.7-1.89-1.29-2.71c-0.47-0.69-0.81-1.47-1-2.29c-1.05-3.29-2.39-6.47-4-9.53c-0.61-1.29-1.12-2.63-1.52-4
		c-0.19-0.77-0.53-1.5-1-2.14c-0.57-0.73-0.96-1.57-1.14-2.48c-0.28-1-0.7-1.97-1.24-2.86c-0.56-1.02-0.99-2.11-1.29-3.24
		c-0.25-1.07-0.69-2.08-1.29-3c-0.56-0.94-0.99-1.95-1.29-3c-0.28-1.03-0.72-2.01-1.29-2.91c-0.49-0.75-0.82-1.59-0.95-2.48
		c-0.21-1.09-0.62-2.14-1.19-3.1c-0.62-1.02-1.12-2.1-1.48-3.24c-0.31-0.98-0.76-1.91-1.33-2.76c-0.57-0.99-0.97-2.07-1.19-3.19
		c-0.28-1.3-0.8-2.55-1.52-3.67c-0.51-0.65-0.83-1.42-0.95-2.24c-0.16-1-0.52-1.95-1.05-2.81c-0.65-1.24-1.19-2.53-1.62-3.86
		c-0.57-1.91-0.67-2-1.95-1.52 M540.68,724.65c-1.86,0.62-3.77,1.07-5.72,1.33c-2.23,0.3-4.41,0.91-6.48,1.81
		c-0.88,0.5-1.83,0.89-2.81,1.14c-0.92,0.26-1.78,0.69-2.52,1.29c-0.75,0.55-1.59,0.97-2.48,1.24c-0.54,0.12-0.98,0.49-1.19,1
		c-0.33,0.52-0.81,1-1.19,1c-3.72,2.58-6.94,5.81-9.53,9.53c-0.23,0.78-0.66,1.48-1.24,2.05c-0.6,0.66-1.03,1.46-1.24,2.33
		c-0.14,0.73-0.45,1.41-0.9,2c-0.77,1.39-1.3,2.91-1.57,4.48c-0.26,1.55-0.72,3.05-1.38,4.48c-1.21,7.59-1.21,15.32,0,22.91
		c0.61,1.42,1.06,2.91,1.33,4.43c0.18,1.26,0.57,2.48,1.14,3.62c0.53,0.79,0.96,1.64,1.29,2.52c0.38,0.97,0.89,1.89,1.52,2.71
		c0.51,0.64,0.92,1.37,1.19,2.14c3.1,4.2,6.84,7.88,11.1,10.91c0.9,0.38,1.67,0.9,1.67,1.19c0,0.29,0.23,0.52,0.52,0.52l0,0
		c1.28,0.38,2.52,0.88,3.72,1.48c1.27,0.64,2.62,1.14,4,1.48c1.32,0.27,2.61,0.65,3.86,1.14c8.47,1.4,17.1,1.57,25.63,0.52
		c1.55-0.58,3.14-1.02,4.76-1.33c7.86-1.62,12.1-5.19,10.62-8.95c-0.29-0.81-3.19,0-3.19,1.14c0,0-0.76,0.67-1.67,1.05
		c-0.93,0.39-1.8,0.92-2.57,1.57c-0.49,0.47-1.1,0.78-1.76,0.9c-1.11,0.25-2.17,0.66-3.14,1.24c-5.62,3-23.2,3.19-27.34,0.33
		c-1.04-0.68-2.18-1.2-3.38-1.52c-0.92-0.18-1.76-0.63-2.43-1.29c-0.3-0.49-0.78-0.83-1.33-0.95c-4.4-2.93-7.91-7.02-10.15-11.81
		c-0.46-0.87-0.97-1.71-1.52-2.52c-0.63-1.19-1.09-2.45-1.38-3.76c-0.38-1.62-1.1-4.19-1.52-5.67c-1.02-8.4-1.02-16.89,0-25.29
		l1.43-5.05c2.91-10.1,12-20.29,19.72-22.2c1.33-0.33,2.62-0.8,3.86-1.38c6.7-1.19,13.55-1.19,20.24,0
		c0.86,0.51,1.79,0.89,2.76,1.14c1.18,0.36,2.3,0.89,3.33,1.57c0.68,0.49,1.42,0.9,2.19,1.24c1.71,1.09,3.31,2.35,4.76,3.76
		c2.19,2,3.19,0.95,3.72-3.91c0.43-3.67,0.81-3.24-3.43-4.1c-0.7-0.16-1.36-0.49-1.91-0.95c-1.5-0.7-3.11-1.12-4.76-1.24
		c-2-0.24-3.98-0.67-5.91-1.29c-6.31-1.01-12.74-1.01-19.05,0 M626.08,724.65c-1.72,0.59-3.49,1-5.29,1.24
		c-1.52,0.17-3,0.59-4.38,1.24c-0.93,0.57-1.94,0.98-3,1.24c-1.16,0.3-2.25,0.8-3.24,1.48c-0.66,0.56-1.42,1-2.24,1.29
		c-0.73,0.27-1.38,0.71-1.91,1.29c-0.28,0.48-0.75,0.82-1.29,0.95c-0.67,0.22-1.25,0.63-1.67,1.19c-0.51,0.62-1.1,1.16-1.76,1.62
		c-4.6,4.6-8.13,10.16-10.34,16.29c-0.23,1.22-0.61,2.4-1.14,3.52c-1.56,8.86-1.67,17.92-0.33,26.82c0.56,0.93,0.96,1.94,1.19,3
		c0.92,3.04,2.15,5.97,3.67,8.76c3.16,5.17,7.44,9.56,12.53,12.86c0.73,0.39,1.42,0.85,2.05,1.38c0.71,0.39,1.46,0.71,2.24,0.95
		c0.98,0.28,1.92,0.71,2.76,1.29c1.1,0.61,2.29,1.03,3.52,1.24c1.62,0.35,3.21,0.81,4.76,1.38c9.48,1.4,19.13,1.31,28.58-0.29
		c1.37-0.54,2.79-0.92,4.24-1.14c1.23-0.19,2.41-0.61,3.48-1.24c0.93-0.53,1.92-0.95,2.95-1.24c0.82-0.27,1.58-0.69,2.24-1.24
		c0.62-0.55,1.35-0.97,2.14-1.24c0.52-0.15,0.98-0.45,1.33-0.86c0.48-0.48,1.81-1.62,2.95-2.62c4.46-4.07,7.95-9.08,10.24-14.67
		c0.12-0.5,0.37-0.96,0.71-1.33c0.81-1.75,1.32-3.61,1.52-5.53c0.43-2.62,1-5.53,1.29-6.48c0.64-3.82,0.64-7.71,0-11.53
		c-0.29-1.48-0.81-4.76-1.19-7.1c-0.18-1.81-0.66-3.59-1.43-5.24c-0.58-0.88-1.03-1.84-1.33-2.86c-0.38-1.13-0.91-2.2-1.57-3.19
		c-0.43-0.49-0.75-1.05-0.95-1.67c-0.36-0.87-0.85-1.68-1.48-2.38c-0.58-0.67-1.08-1.4-1.48-2.19c-3.09-3.5-6.73-6.47-10.76-8.81
		c-0.59-0.15-1.11-0.51-1.48-1c-0.46-0.52-1.08-0.87-1.76-1c-1.14-0.24-2.25-0.65-3.29-1.19c-1.98-0.85-4.06-1.46-6.19-1.81
		c-1.93-0.3-3.84-0.73-5.72-1.29c-6.31-0.97-12.74-0.97-19.05,0 M471.37,726.6c-0.13,0.64-0.13,1.31,0,1.95l0.33,42.87v41.44h5.14
		c6.24,0,5.81,0.71,5.19-8.81c-0.81-11.57-1.1-50.73-0.48-59.87l0.67-12.96v-4.76h-4.38c-4.14,0-5.48,0-5.67,0.62 M648.08,728.84
		c1.03,0.51,2.12,0.89,3.24,1.14c2.87,0.96,5.55,2.43,7.91,4.33c3.26,2.33,6.01,5.3,8.1,8.72c0.1,0.47,0.35,0.88,0.71,1.19
		c0.64,0.77,1.1,1.69,1.33,2.67c0.24,1.04,0.67,2.03,1.29,2.91c0.69,1.41,1.16,2.92,1.38,4.48c0.29,1.76,0.72,3.5,1.29,5.19
		c1.05,7.03,1.05,14.17,0,21.2c-0.57,1.65-0.96,3.36-1.14,5.1c-0.13,1.45-0.58,2.85-1.33,4.1c-0.61,0.88-1.04,1.86-1.29,2.91
		c-0.29,1.1-0.79,2.14-1.48,3.05c-0.53,0.56-0.93,1.23-1.19,1.95c-0.18,0.61-0.53,1.15-1,1.57l-3.33,3.48
		c-2.58,2.68-5.65,4.83-9.05,6.33c-0.61,0.1-1.17,0.38-1.62,0.81c-3.19,2.86-25.15,3-29.05,0c-0.67-0.54-1.48-0.88-2.33-1
		c-0.9-0.19-1.74-0.62-2.43-1.24c-0.57-0.55-1.25-0.97-2-1.24c-2.43,0-12.57-13.57-12.57-16.81c-0.24-1.07-0.61-2.11-1.1-3.1
		c-2.24-4.76-2.48-29.34-0.33-32.63c0.53-0.9,0.92-1.88,1.14-2.91c0.48-2.38,1.29-4.52,1.81-4.52c0.52,0,0.52-0.67,0.71-1.52
		c0.3-1.04,0.82-2,1.52-2.81c0.48-0.46,0.88-0.99,1.19-1.57c2.49-3.3,5.58-6.11,9.1-8.29c0.99-0.46,1.96-0.97,2.91-1.52
		c2.51-1.14,5.1-2.06,7.76-2.76c6.65-0.64,13.36-0.43,19.96,0.62 M415.69,743.42c0.9,0.96,1.5,2.17,1.71,3.48
		c0.06,0.85,0.42,1.66,1,2.29c0.38,0,0.9,1.33,1.24,2.62c0.32,1.26,0.84,2.47,1.52,3.57c0.61,0.84,1.04,1.8,1.29,2.81
		c0.17,0.84,0.51,1.63,1,2.33c0.56,0.94,0.99,1.95,1.29,3c0.27,1.08,0.72,2.12,1.33,3.05c1.32,1.96,1.9,4.32,1.62,6.67
		c-0.71,1.81-2.14,2-13.86,1.95c-13.62,0-15.62-0.86-13.57-5.14c1.39-2.77,2.63-5.62,3.72-8.53c0.23-0.72,0.56-1.39,1-2
		c0.48-0.67,0.82-1.43,1-2.24c0.4-1.24,0.93-2.44,1.57-3.57c0.57-0.91,0.97-1.91,1.19-2.95c0.22-1.05,0.64-2.06,1.24-2.95
		c0.56-0.85,0.98-1.78,1.24-2.76C411.22,742.27,413.65,741.42,415.69,743.42"/>
</g>
</svg>
