<?xml version="1.0" encoding="utf-8"?>
<!-- Generator: Adobe Illustrator 27.6.1, SVG Export Plug-In . SVG Version: 6.00 Build 0)  -->
<svg version="1.1" id="Layer_1" xmlns="http://www.w3.org/2000/svg" xmlns:xlink="http://www.w3.org/1999/xlink" x="0px" y="0px"
	 viewBox="0 0 1000 1000" style="enable-background:new 0 0 1000 1000;" xml:space="preserve">
<style type="text/css">
	.st0{fill:#EEF2F8;}
	.st1{fill:#49A17B;}
	.st2{fill:#7631CD;}
	.st3{clip-path:url(#SVGID_00000148650402352221786460000000534673125694142125_);}
	.st4{fill:#404041;}
	.st5{clip-path:url(#SVGID_00000127742631244045992850000014796512591734318979_);}
	.st6{clip-path:url(#SVGID_00000168802872020201063580000010881856242015512254_);}
	.st7{fill:#7163EB;}
	.st8{fill:url(#SVGID_00000133530005493022373080000002749684532921483188_);}
	.st9{fill:url(#SVGID_00000074401795447822413960000017661334565252028854_);}
	.st10{fill:url(#SVGID_00000123418005916600271710000001167310711833724335_);}
	.st11{fill:url(#SVGID_00000041986817818456023980000010739551774823082882_);}
	.st12{fill:url(#SVGID_00000011744611304627794210000017558397978826488219_);}
	.st13{fill:url(#SVGID_00000128471416467720457380000012430787119694168458_);}
	.st14{fill:url(#SVGID_00000041272699081384258870000005937076278269098424_);}
	.st15{fill:url(#SVGID_00000052790861393002664460000002665764051513371576_);}
	.st16{fill:url(#SVGID_00000117677835960236179620000003086516525593474948_);}
	.st17{fill:url(#SVGID_00000078038253277221724920000008487019624259714695_);}
	.st18{fill:url(#SVGID_00000036222986361218728030000006909738837120877229_);}
	.st19{fill:url(#SVGID_00000123420010570156578270000003579127392198939822_);}
	.st20{fill:url(#SVGID_00000139990615416396078810000000841076783264863893_);}
	.st21{fill:url(#SVGID_00000107549805572223518240000009224921430621856425_);}
	.st22{fill:url(#SVGID_00000092440865464821748740000012442469327713143438_);}
	.st23{fill:url(#SVGID_00000139998502050585174950000013513831756687580563_);}
	.st24{fill:url(#SVGID_00000069368407981060959580000005057796254356447926_);}
	.st25{fill:url(#SVGID_00000026885300990158815190000005222466369847312298_);}
	.st26{fill:url(#SVGID_00000107550813186582163820000007060961106881778834_);}
	.st27{fill:url(#SVGID_00000133511481672340563530000017486288073618274739_);}
	.st28{fill:url(#SVGID_00000155105668612205605390000010423937027568875149_);}
	.st29{fill:url(#SVGID_00000047751545561497755290000017788849500404292531_);}
	.st30{fill:url(#SVGID_00000008863843763293690380000016932620840886791079_);}
	.st31{fill:url(#SVGID_00000182517659344938862560000016027036885798266527_);}
	.st32{fill:url(#SVGID_00000093173740327971810620000014947193049912341433_);}
	.st33{fill:url(#SVGID_00000143618953836651152590000010583984080014364576_);}
	.st34{fill:url(#SVGID_00000071541501638776109330000016906306179378990778_);}
	.st35{fill:url(#SVGID_00000065757177412929965090000015063956719875000484_);}
	.st36{fill:url(#SVGID_00000157293860646047253610000017968697919906341534_);}
	.st37{fill:url(#SVGID_00000177443010108034785380000016986450623122534050_);}
	.st38{fill:url(#SVGID_00000064320627484878661670000007875461951599758226_);}
	.st39{fill:url(#SVGID_00000102522850044134922520000013688146139978930105_);}
	.st40{fill:#3F4144;}
	.st41{fill:#2E3B89;}
	.st42{clip-path:url(#SVGID_00000168118639116239150130000015866000921965351564_);}
	.st43{clip-path:url(#SVGID_00000179617935670487536040000014741481692845748403_);}
	.st44{clip-path:url(#SVGID_00000110464730333960022800000000087110230641254331_);}
	.st45{fill:#F3B840;}
	.st46{fill:#E04430;}
	.st47{fill:#CA5C6C;}
	.st48{fill:#DD9033;}
	.st49{fill:#CD412D;}
	.st50{fill:#D47935;}
	.st51{fill:#D5709F;}
	.st52{fill:#E9BD8D;}
	.st53{fill:#E19F4B;}
	.st54{fill:#EABF4B;}
	.st55{fill:#CA582D;}
	.st56{fill:#DA8F38;}
	.st57{fill:#C04624;}
	.st58{fill:#C85E26;}
	.st59{fill:#B1341B;}
	.st60{fill:#B24C1F;}
	.st61{fill:#9E2B17;}
	.st62{opacity:0.52;fill:#5EC9E8;enable-background:new    ;}
	.st63{opacity:0.49;fill:#8462DA;enable-background:new    ;}
	.st64{opacity:0.52;fill:#2D63E5;enable-background:new    ;}
	.st65{fill-rule:evenodd;clip-rule:evenodd;fill:#439579;}
	.st66{fill:#3273C2;}
	.st67{fill:#575756;}
	.st68{fill:#1D2C66;}
	.st69{fill:#BCC0DA;}
	.st70{fill:#464B6F;}
	.st71{display:none;fill:#FFFFFF;}
	.st72{fill:#303030;}
	.st73{fill:#B73533;}
	.st74{fill:#04B15C;}
	.st75{fill:url(#SVGID_00000145772548277188261710000009564740460645601686_);}
	.st76{fill:url(#SVGID_00000140696225757003735610000002883746249793441727_);}
	.st77{fill:url(#SVGID_00000152978274870543732130000009040774637641801901_);}
	.st78{fill:url(#SVGID_00000090289160753775990130000009027224749812964481_);}
	.st79{fill:#D33B30;}
	.st80{fill:url(#SVGID_00000021079373866960553120000010761020901831038374_);}
	.st81{fill:url(#SVGID_00000144328974454551441850000005948518188787105211_);}
	.st82{fill:url(#SVGID_00000063596411927284434160000010939906441684336562_);}
	.st83{fill:url(#SVGID_00000094604654525928575430000003167191013848522915_);}
	.st84{fill-rule:evenodd;clip-rule:evenodd;fill:#469BC7;}
	.st85{fill:#222943;}
	.st86{fill-rule:evenodd;clip-rule:evenodd;fill:#1E4B91;}
	.st87{fill-rule:evenodd;clip-rule:evenodd;fill:#F0A140;}
	.st88{fill:#72D24C;}
	.st89{fill-rule:evenodd;clip-rule:evenodd;}
	.st90{display:none;fill:#FBFAFA;}
	.st91{fill:#242323;}
	.st92{fill:#BA3630;}
	.st93{opacity:0.35;fill:#53A0B1;enable-background:new    ;}
	.st94{fill:#20465E;}
	.st95{fill:url(#SVGID_00000142139728712061310970000017281926095081793976_);}
	.st96{fill:#367A8D;}
	.st97{fill:url(#SVGID_00000057829821131992918090000017448077625403396489_);}
	.st98{fill:url(#SVGID_00000136395149802796790050000015924705361352138687_);}
	.st99{opacity:0.88;fill:url(#SVGID_00000165939149165837649130000010306987176629656961_);enable-background:new    ;}
	.st100{fill:url(#SVGID_00000138574024330023135740000001540926380537914030_);}
	.st101{fill:#143661;}
	.st102{fill:#56BC8E;}
	.st103{fill:#2B2B37;}
	.st104{fill:#334C71;}
	.st105{fill:#3777E6;}
	.st106{fill:#A8EDE6;}
	.st107{fill:#EBC18E;}
	.st108{fill:#2A2F44;}
	.st109{fill:#1B4625;}
	.st110{fill:#98C355;}
	.st111{fill:#60B258;}
	.st112{fill:#41914D;}
	.st113{fill:#2B663D;}
	.st114{fill:#CCDA70;}
	.st115{fill:#34516A;}
	.st116{fill:url(#Path_164488_00000156551522006715391000000017429793386504764309_);}
	.st117{fill:#FFFFFF;}
	.st118{fill:#58595B;}
	.st119{fill:#55AC9B;}
	.st120{fill:#464442;}
	.st121{fill:#B7A891;}
	.st122{fill:#265674;}
	.st123{fill:#759ECF;}
	.st124{fill:#C9CACB;}
	.st125{fill:#F2F2F2;}
	.st126{fill:#2B3777;}
	.st127{fill:#27599E;}
	.st128{fill:#25589C;}
	.st129{fill:#2B63A5;}
	.st130{fill-rule:evenodd;clip-rule:evenodd;fill:#B9B9B9;}
	.st131{fill:#B9B9B9;}
	.st132{fill:#7185B5;}
	.st133{fill:#1C4882;}
	.st134{fill:#0F2C5A;}
	.st135{fill:#091C46;}
	.st136{fill:#54565A;}
	.st137{fill:#306541;}
	.st138{fill-rule:evenodd;clip-rule:evenodd;fill:#CAAD5D;}
	.st139{fill-rule:evenodd;clip-rule:evenodd;fill:#0D0D0D;}
	.st140{fill:#181818;stroke:#181818;stroke-width:0.3631;stroke-miterlimit:10;}
	.st141{fill:#305E3C;}
	.st142{fill:#181818;stroke:#181818;stroke-width:0.3631;stroke-miterlimit:9.9999;}
	.st143{fill:#181818;}
	.st144{fill:#141414;}
	.st145{fill:#1F4169;}
	.st146{fill:#49A2D9;}
	.st147{fill:#59585A;}
	.st148{fill:#030F97;}
	.st149{fill:#56A9DC;}
	.st150{fill:#4AA3DB;}
	.st151{fill:#545352;}
	.st152{fill:#412C6F;}
	.st153{fill:#BF2F7C;}
	.st154{fill:#215280;}
	.st155{fill:#7D7D7D;}
	.st156{fill:#456790;}
	.st157{fill:url(#C_00000127761886166145616310000013050599312593951127_);}
	.st158{fill:#C6C7C8;}
	.st159{fill:url(#SVGID_00000026847862195140142420000016276510411353107366_);}
	.st160{fill:#285E96;}
	.st161{fill:#61993F;}
	.st162{fill:#23568C;}
	.st163{fill:#4FA4DA;}
	.st164{fill:#6F80B0;}
	.st165{fill:#265896;}
	.st166{fill:#3B81B6;}
	.st167{fill:#275A6B;}
	.st168{fill:#595A5C;}
	.st169{fill:#D7393A;}
	.st170{fill:#8AC9D5;}
	.st171{fill:#D63939;}
	.st172{fill:#D63838;}
	.st173{fill:#3172B5;}
	.st174{fill:#3475B7;}
	.st175{fill:#3374B7;}
	.st176{fill:#7B7C7F;}
	.st177{fill:#7A7B7E;}
	.st178{fill:#3373B6;}
	.st179{fill:#7B7B7E;}
	.st180{fill:#7C7C7F;}
	.st181{fill:#7E7F81;}
	.st182{fill:#797A7D;}
	.st183{fill:#7D7D80;}
	.st184{fill:#7C7D80;}
	.st185{fill:#7C7B7E;}
	.st186{fill:#808184;}
	.st187{fill:#214167;}
	.st188{fill-rule:evenodd;clip-rule:evenodd;fill:#C8AC47;}
	.st189{fill:none;stroke:#C8AC47;stroke-width:9.5261;}
	.st190{fill:none;stroke:#E6BA5D;stroke-width:9.5261;stroke-miterlimit:10;}
	.st191{fill-rule:evenodd;clip-rule:evenodd;fill:#304567;}
	.st192{fill:#CFCECC;}
	.st193{clip-path:url(#SVGID_00000179628996735249396140000011287511434627083925_);}
	.st194{fill:#265B65;}
	.st195{fill:#767A52;}
	.st196{fill:#808082;}
	.st197{fill-rule:evenodd;clip-rule:evenodd;fill:url(#SVGID_00000001629843330765193480000001250992434727071155_);}
	.st198{fill-rule:evenodd;clip-rule:evenodd;fill:url(#SVGID_00000109010468395546537430000011360042129348315324_);}
	.st199{fill:#3A5CA5;}
	.st200{fill:#2F3A89;}
	.st201{fill:#6D6E71;}
	.st202{fill:#41918E;}
	.st203{fill:#445DA5;}
	.st204{clip-path:url(#SVGID_00000097490494593872078520000015673976947870885530_);}
	.st205{fill:#4A6EAF;}
	.st206{fill:#381D13;}
	.st207{clip-path:url(#SVGID_00000097501537943886746130000013304310153958597760_);}
	.st208{clip-path:url(#SVGID_00000132809790651819714820000004286787158842567312_);}
	.st209{clip-path:url(#SVGID_00000107562563847492753340000007645069008156477106_);}
	.st210{clip-path:url(#SVGID_00000152980310176449997030000013029731168022154900_);}
	.st211{clip-path:url(#SVGID_00000103243182569374209650000011555252692082334142_);}
	.st212{clip-path:url(#SVGID_00000049904164162576866400000016658341870027060157_);}
	.st213{clip-path:url(#SVGID_00000048502362474652655560000001640199260131052930_);}
	.st214{clip-path:url(#SVGID_00000166639829483601488330000007326269708654861192_);}
	.st215{clip-path:url(#SVGID_00000016760030130180789170000016465763300242405302_);}
	.st216{clip-path:url(#SVGID_00000047020680198577086930000007380439520484860584_);}
	.st217{clip-path:url(#SVGID_00000072989849985617469370000002713799194047407550_);}
	.st218{fill:#A2A8AC;}
	.st219{fill:#41834F;}
	.st220{fill:#265BB2;}
	.st221{fill:#293B90;}
	.st222{fill:#C99378;}
	.st223{fill:none;}
	.st224{enable-background:new    ;}
	.st225{fill:#203D35;}
	.st226{fill:#817771;}
	.st227{fill:#265C80;}
	.st228{fill:#2C2926;}
	.st229{fill:#59BCF8;}
	.st230{fill-rule:evenodd;clip-rule:evenodd;fill:#0101C2;}
	.st231{fill-rule:evenodd;clip-rule:evenodd;fill:#0202C6;}
	.st232{fill:#3A42F4;}
	.st233{fill-rule:evenodd;clip-rule:evenodd;fill:#050386;}
	.st234{fill:#3038F4;}
	.st235{clip-path:url(#SVGID_00000013168977409185052200000006224186983128280478_);}
	.st236{fill:#ED7D30;}
	.st237{fill:#479EE6;}
	.st238{fill:url(#Path_6_00000084529895009597760980000018001205544957407648_);}
	.st239{fill:#CC2C79;}
	.st240{fill:#1A1818;}
	.st241{fill-rule:evenodd;clip-rule:evenodd;fill:#FFFFFF;}
	.st242{fill-rule:evenodd;clip-rule:evenodd;fill:#469B88;}
	.st243{fill-rule:evenodd;clip-rule:evenodd;fill:#2C2E6A;}
	.st244{fill:#469B88;}
	.st245{fill:#1E1C44;}
	.st246{fill:#DA6D2A;}
	.st247{clip-path:url(#SVGID_00000116922854362917088950000001909890674462865070_);}
	.st248{fill:#273669;}
	.st249{fill:#567DF6;}
	.st250{fill:#70D3FA;}
	.st251{fill:#88FAC1;}
	.st252{fill:#070E51;}
	.st253{opacity:0.5;}
	.st254{fill:url(#SVGID_00000022536013966132403840000002288491544953337740_);}
	.st255{fill:url(#SVGID_00000037671941806805949570000016348309176559242906_);}
	.st256{fill:url(#SVGID_00000047020063589167044740000014404359385018308495_);}
	.st257{fill:#05039B;}
	.st258{fill:#406DAF;}
	.st259{fill:#808086;}
	.st260{fill:#84C6C9;}
	.st261{fill:#86398D;}
	.st262{fill:#8E599C;}
	.st263{fill:#E7963E;}
	.st264{fill:#70C3ED;}
	.st265{fill:#4B2A50;}
	.st266{fill:#333333;}
	.st267{fill:#75FAAA;}
	.st268{fill:url(#SVGID_00000008833714601958495880000003039349843746301608_);}
	.st269{fill:#160141;}
	.st270{fill:url(#SVGID_00000155846057840870235140000014291080155242251700_);}
	.st271{fill:url(#SVGID_00000139998517774492119020000005153661751937276067_);}
	.st272{fill:url(#SVGID_00000182511771453908912570000011591571531529116061_);}
	.st273{fill-rule:evenodd;clip-rule:evenodd;fill:url(#SVGID_00000081609896189839098860000016736482749010505379_);}
	.st274{fill-rule:evenodd;clip-rule:evenodd;fill:url(#SVGID_00000061451854683932491190000002933571307297244294_);}
	.st275{fill-rule:evenodd;clip-rule:evenodd;fill:url(#SVGID_00000049919653257036072470000017453858339693508539_);}
	.st276{fill-rule:evenodd;clip-rule:evenodd;fill:url(#SVGID_00000085224322079789051980000006924910715907038866_);}
	.st277{fill:#414042;}
</style>
<g>
	<path class="st122" d="M738.4,429.91c4.51-3.65,9.21-7.05,14.09-10.19c11.74-7.36,25.4-11.06,39.25-10.63
		c19.48,0.53,37.44,10.62,48.04,26.96c11.74,16.97,16.96,37.61,14.71,58.12c-3.97,43.96-24.79,78.42-60.69,103.73
		c-53.57,37.24-124.9,36.28-177.45-2.39c-0.78-0.6-1.53-1.24-2.24-1.91c0.9,0.1,1.75,0.5,2.39,1.14c4.38,3.03,9.02,5.66,13.87,7.87
		c13.32,6.13,28.11,8.33,42.63,6.33c3.68-0.51,7.36-1.18,10.85-1.77l1.99,0.26c21.86,3.3,44.19,1.23,65.07-6.03
		c5.83-1.92,11.47-4.39,16.85-7.36c-15.23,0.12-29.95-5.45-41.27-15.63c2.02-3.68,5.11-6.92,7.36-10.56
		c0.7-1.14,1.03-2.65,2.46-3.24c8.29,8.64,19.9,13.29,31.86,12.76c11.13-0.42,21.86-4.28,30.71-11.04
		c18.87-13.79,29.98-32.74,35.79-55.18c2.95-11.19,3.75-22.83,2.35-34.32c-1.02-11.57-5.02-22.67-11.62-32.22
		c-11.04-15.08-25.75-21.74-44.14-18.39c-13.78,2.78-26.24,10.07-35.42,20.71c-5.14,5.07-9.49,10.89-12.91,17.25
		c-7.17,11.97-11.73,25.32-13.39,39.18c-2.22,15.07-0.24,30.46,5.74,44.47c-0.43,2.49-1.47,4.84-3.02,6.84
		c-1.84,3.7-4.27,7.07-7.21,9.97c-0.66-1.03-1.36-2.06-1.95-3.13c-9.87-17.64-13.74-38.01-11.04-58.05
		c2.31-21.78,10.63-42.48,24.02-59.81l7.06-8.13C735.02,433.78,736.78,431.9,738.4,429.91L738.4,429.91z"/>
	<path class="st123" d="M683.77,607.17l-10.85,1.77c-14.48,1.97-29.21-0.22-42.49-6.33c-4.85-2.21-9.49-4.84-13.87-7.87
		c-0.64-0.64-1.49-1.04-2.39-1.14c-9.55-7.31-17.92-16.05-24.83-25.9c-10.52-15.17-17.82-32.33-21.45-50.43
		c-2.77-12.99-3.74-26.29-2.87-39.54c1.77-28.29,10.37-54.07,29.21-75.74c12.62-15.37,30.45-25.56,50.1-28.62
		c20.15-3.02,40.7,1.88,57.31,13.68c15.72,10.86,28.34,25.63,36.6,42.85c-1.68,2-3.5,3.88-5.44,5.63c-2.32,2.76-4.71,5.41-7.06,8.13
		c-0.05-0.32-0.13-0.64-0.22-0.96c-6.93-16.47-18.18-30.77-32.55-41.38c-17.22-12.18-36.05-16.11-56.35-9.27
		c-15.09,5.32-27.86,15.73-36.12,29.43c-16.99,26.23-21.48,55.18-17.07,85.6c2.13,15.29,7.22,30.02,14.97,43.37
		c8.96,16.66,23.06,29.97,40.21,37.96c10.03,4.61,21.19,6.2,32.11,4.6c15.69-2.49,29.95-10.58,40.13-22.77
		c1.81-1.52,3.24-3.43,4.19-5.59c2.89-2.95,5.28-6.35,7.06-10.08c1.55-2,2.58-4.35,3.02-6.84c0.63,0,0.74-0.44,0.96-0.88
		c9.99-22.57,13.2-47.55,9.23-71.91c-0.29-3.78-1.15-7.5-2.54-11.04c3.42-6.36,7.77-12.18,12.91-17.25c0.2,0.35,0.37,0.72,0.52,1.1
		c7.39,22.13,9.53,45.68,6.25,68.79c-2.15,16.16-7.36,31.77-15.34,45.98c-0.33,0.63-0.88,1.21-0.7,2.02
		c-1.43,0.59-1.77,2.1-2.46,3.24c-2.24,3.68-5.33,6.77-7.36,10.56c-1.32,0.48-1.95,1.69-2.8,2.65
		c-9.23,10.59-20.89,18.77-33.99,23.84C687.68,605.27,685.64,606.07,683.77,607.17L683.77,607.17z M178.25,590.81l9.01-30.94
		l9.45-32.63c1.02-3.26,4.14-5.39,7.54-5.15c3.28-0.02,6.18,2.14,7.1,5.3l17.44,59.85l1.1,3.46l2.57-8.57
		c5.37-18.12,10.66-36.31,15.85-54.55c1.21-4.06,5.47-6.37,9.53-5.19c3.9,1.15,6.12,5.24,4.97,9.14c-0.06,0.22-0.14,0.43-0.22,0.64
		c-3.83,13.27-7.68,26.55-11.55,39.84l-13.65,47.12c-0.64,2.79-2.74,5.01-5.48,5.81c-4.08,1.24-8.4-1.07-9.63-5.15
		c-0.06-0.19-0.11-0.39-0.15-0.58l-5.48-18.87l-12.14-42.15c0-0.29,0-0.66-0.74-0.77l-4.63,15.85l-13.13,45.47
		c-0.66,4.32-4.7,7.28-9.02,6.61c-3.41-0.52-6.09-3.2-6.61-6.61c-8.39-28.86-16.75-57.71-25.09-86.55
		c-1.46-3.79,0.42-8.05,4.21-9.51c0.23-0.09,0.47-0.17,0.72-0.23c4.03-1.2,8.27,1.1,9.46,5.14c0.05,0.17,0.1,0.35,0.14,0.53
		c5.91,20.35,11.82,40.7,17.73,61.03C177.66,589.48,177.99,589.78,178.25,590.81z"/>
	<path class="st122" d="M449.38,459.82v43c0.42,4.04-2.51,7.66-6.55,8.09c-0.49,0.05-0.98,0.05-1.47,0.01h-74.01
		c-2.49,0.19-4.91-0.84-6.51-2.76c-1.6-1.84-1.96-4.45-0.92-6.66c1.19-2.72,3.95-4.4,6.92-4.23h21.41c2.1,0,2.72-0.37,2.72-2.61
		c0-24.03,0-48.04,0-72.02c-0.24-3.14,1.68-6.04,4.67-7.03c2.87-0.99,6.06-0.11,8.02,2.21c1.18,1.58,1.73,3.55,1.54,5.52v71.03
		c0,2.35,0.55,2.98,2.94,2.94h24.83c1.88,0,2.28-0.48,2.28-2.32c0-26.12,0-52.25,0-78.39c-0.3-3.75,2.48-7.03,6.23-7.33
		c0.17-0.01,0.33-0.02,0.5-0.02c3.81-0.25,7.1,2.63,7.36,6.44c0.02,0.3,0.02,0.61,0,0.91c0,11.89,0,23.77,0,35.64L449.38,459.82z
		 M518.24,503c-4.41,3.03-9.3,5.31-14.46,6.73c-20.74,5.39-41.93-7.05-47.33-27.79c-0.19-0.71-0.35-1.43-0.49-2.15
		c-3.08-19.89,10.11-38.65,29.87-42.49c15.87-3.87,32.47,2.56,41.6,16.11c4.08,5.6,6.25,12.38,6.18,19.31v52.09
		c0.23,4.06-2.87,7.53-6.93,7.76c-0.26,0.01-0.53,0.02-0.79,0c-4.06,0.13-7.46-3.05-7.59-7.11c-0.01-0.27,0-0.53,0.02-0.8v-18.91
		L518.24,503z M494.52,496.23c10.24,0.2,19.45-6.24,22.77-15.93c3.51-11.63-2.79-23.95-14.27-27.92
		c-11.93-4.38-25.22,1.17-30.49,12.73c-4.64,11.67,1.05,24.88,12.72,29.53C488.19,495.81,491.35,496.35,494.52,496.23z"/>
	<path class="st123" d="M433.93,617.44c-5.08,3.67-10.91,6.18-17.07,7.36c-20.74,3.84-40.74-9.62-44.99-30.27
		c-3.18-19.52,9.42-38.13,28.73-42.41c18.33-4.66,37.4,4.25,45.58,21.3c2,4.23,3.07,8.85,3.13,13.54v30.68
		c0.08,3.53-2.36,6.62-5.81,7.36c-3.38,0.85-6.92-0.65-8.64-3.68C434.34,620.07,434.03,618.77,433.93,617.44z M409.73,565.46
		c-1.69,0-3.38,0.19-5.04,0.55c-12.11,2.62-19.81,14.56-17.19,26.68c0.49,2.26,1.32,4.43,2.47,6.43
		c6.8,11.32,21.49,14.98,32.81,8.18c7.33-4.41,11.75-12.39,11.59-20.94C432.94,574.11,422.93,565.46,409.73,565.46z M518.06,617.55
		c-3.78,2.53-7.87,4.54-12.18,6c-22.07,6.95-46.46-7.36-49.77-29.83c-2.66-15.33,4.97-30.6,18.83-37.67
		c18.99-10.91,43.23-4.36,54.14,14.63c0.02,0.03,0.03,0.05,0.05,0.08c2.87,4.99,4.38,10.65,4.38,16.41v30.2
		c0.21,4.14-2.93,7.69-7.06,7.98c-4.03,0.22-7.57-2.67-8.17-6.66C518.23,618.3,518.16,617.92,518.06,617.55L518.06,617.55z
		 M494.77,565.46c-12.5-0.86-23.34,8.57-24.21,21.08c-0.86,12.5,8.57,23.34,21.08,24.21c0.83,0.06,1.67,0.07,2.51,0.03
		c12.5,0.86,23.34-8.57,24.21-21.08c0.86-12.5-8.57-23.34-21.08-24.21C496.45,565.44,495.61,565.43,494.77,565.46z M323.4,617.58
		c-4.99,3.52-10.67,5.94-16.66,7.1c-20.42,3.8-40.2-9.18-44.84-29.43c-3.55-20.11,9.65-39.36,29.68-43.3
		c15.97-3.59,32.51,3,41.64,16.59c3.61,5.32,5.56,11.59,5.63,18.02v30.71c0.37,4.05-2.6,7.63-6.65,8c-0.06,0.01-0.13,0.01-0.19,0.02
		c-3.86,0.29-7.33-2.32-8.13-6.11L323.4,617.58z M323.65,588.16c0.96-12.14-11.33-23.14-23.47-22.88
		c-13.39,0.33-23.87,9.93-23.91,22.59c0.12,12.72,10.52,22.93,23.24,22.81c0.13,0,0.25,0,0.38-0.01
		c12.54,0.57,23.17-9.14,23.74-21.68c0.01-0.24,0.02-0.48,0.02-0.72V588.16z"/>
	<path class="st122" d="M283.37,496.97c-3.25-4.24-5.5-9.15-6.58-14.38c-3.07-18.07,8.72-35.32,26.67-39.03
		c6.64-1.08,13.38-1.39,20.08-0.92c3.64,0.06,6.54,3.05,6.48,6.68c0,0.09,0,0.18-0.01,0.27c-0.14,3.7-3.18,6.62-6.88,6.62
		c-5.08-0.21-10.17-0.09-15.23,0.37c-10.71,1.59-18.31,11.29-17.29,22.07c1.3,10.54,10.28,18.44,20.89,18.39h33.92
		c3.77-0.3,7.06,2.51,7.36,6.28c0.07,0.93-0.04,1.86-0.34,2.74c-1.18,3.1-4.28,5.02-7.58,4.71h-60.95
		c-3.41,0.12-6.45-2.12-7.36-5.41C275.43,501.49,278.04,498.11,283.37,496.97z"/>
	<path class="st123" d="M345.76,573.66v-44.14c-0.24-3.34,1.87-6.4,5.08-7.36c3.11-1.05,6.56-0.07,8.64,2.46
		c1.14,1.52,1.66,3.41,1.47,5.3v77.25c0,2.39,0.33,3.46,3.13,3.31c3.72-0.14,6.92,2.6,7.36,6.29c0.61,3.73-1.91,7.25-5.64,7.86
		c-0.12,0.02-0.23,0.04-0.35,0.05c-4.38,0.66-8.83,0.66-13.21,0c-3.85-0.32-6.7-3.71-6.38-7.55c0-0.05,0.01-0.09,0.01-0.14
		C345.87,617,345.76,573.66,345.76,573.66z"/>
</g>
</svg>
